<svg width="412" height="268" viewBox="0 0 412 268" fill="none" xmlns="http://www.w3.org/2000/svg">
<g filter="url(#filter0_d_7_3207)">
<path d="M20 32C20 20.9543 28.9543 12 40 12H68C79.0457 12 88 20.9543 88 32V60C88 71.0457 79.0457 80 68 80H40C28.9543 80 20 71.0457 20 60V32Z" fill="white" shape-rendering="crispEdges"/>
<path d="M69.5837 45.9998C69.5837 54.6063 62.6068 61.5832 54.0003 61.5832C45.3939 61.5832 38.417 54.6063 38.417 45.9998C38.417 37.3934 45.3939 30.4165 54.0003 30.4165C62.6068 30.4165 69.5837 37.3934 69.5837 45.9998Z" fill="url(#paint0_radial_7_3207)"/>
<path fill-rule="evenodd" clip-rule="evenodd" d="M43.6113 45.6881C43.6113 39.8977 48.1478 35.6108 54.0002 35.6108C59.8526 35.6108 64.3891 39.8977 64.3891 45.6881C64.3891 51.4784 59.8526 55.7653 54.0002 55.7653C52.949 55.7653 51.9405 55.6265 50.9929 55.366C50.8088 55.3153 50.6129 55.3296 50.4381 55.4067L48.376 56.317C47.8366 56.5551 47.2278 56.1715 47.2097 55.5821L47.1531 53.7341C47.1461 53.5064 47.0437 53.2936 46.874 53.1417C44.8526 51.334 43.6113 48.7168 43.6113 45.6881ZM50.8135 43.7935L47.7617 48.6351C47.4689 49.0998 48.04 49.6234 48.4775 49.2914L51.7556 46.8035C51.9773 46.6352 52.2838 46.6343 52.5064 46.8013L54.9337 48.6218C55.662 49.1681 56.7015 48.9763 57.187 48.2061L60.2387 43.3644C60.5315 42.8997 59.9604 42.3761 59.5229 42.7081L56.2448 45.196C56.0231 45.3643 55.7167 45.3652 55.494 45.1981L53.0668 43.3777C52.3384 42.8315 51.2989 43.0232 50.8135 43.7935Z" fill="white"/>
</g>
<g filter="url(#filter1_d_7_3207)">
<path d="M123.417 32C123.417 20.9543 132.371 12 143.417 12H268.584C279.629 12 288.584 20.9543 288.584 32V60C288.584 71.0457 279.629 80 268.584 80H143.417C132.371 80 123.417 71.0457 123.417 60V32Z" fill="white" shape-rendering="crispEdges"/>
<g clip-path="url(#clip0_7_3207)">
<path d="M231.338 55.4602H244.079V52.6002H235.681C236.84 47.9068 243.934 46.8802 243.934 41.6735C243.934 38.8868 242.052 36.8335 238.07 36.8335C235.609 36.8335 233.437 37.5668 231.989 38.3002L232.858 40.9402C234.161 40.2802 235.681 39.6935 237.564 39.6935C239.012 39.6935 240.387 40.3535 240.387 42.0402C240.387 45.8535 232.062 46.1468 231.338 55.4602ZM244.441 50.9135H252.621V55.4602H255.879V50.9135H258.63V48.1268H255.879V36.8335H253.49L244.441 48.7135V50.9135ZM248.133 48.2735L252.766 41.9668C252.766 42.4802 252.621 44.0935 252.621 45.5602V48.2002H250.45C249.798 48.2002 248.567 48.2735 248.133 48.2735Z" fill="#005893"/>
<path d="M138.819 52.6734V46.8801H140.195C141.426 46.8801 142.439 47.0267 143.163 47.4667C143.887 47.9067 144.321 48.6401 144.321 49.8134C144.321 51.7934 143.163 52.6734 140.412 52.6734H138.819ZM135.489 55.4601H140.34C145.769 55.4601 147.724 53.0401 147.724 49.6667C147.724 47.3934 146.783 45.8534 145.118 44.9734C143.815 44.2401 142.15 44.0201 140.123 44.0201H138.819V39.6201H146.131L147 36.9067H135.417V55.4601H135.489ZM149.968 55.4601H153.153L157.28 49.4467C158.076 48.3467 158.655 47.2467 159.017 46.6601H159.09C159.017 47.4667 158.945 48.4934 158.945 49.5201V55.3867H162.202V42.1867H159.017L154.891 48.2001C154.167 49.3001 153.515 50.4001 153.153 50.9867H153.081C153.153 50.1801 153.226 49.1534 153.226 48.1267V42.2601H149.968V55.4601ZM167.777 55.4601H171.107V44.9734H175.016L175.885 42.1867H163.795V44.9734H167.777V55.4601ZM177.043 62.1334H180.301V55.4601C180.952 55.6801 181.604 55.7534 182.328 55.7534C186.454 55.7534 189.133 52.8934 189.133 48.7867C189.133 44.5334 186.671 41.8201 181.966 41.8201C180.156 41.8201 178.419 42.1867 176.971 42.6267V62.1334H177.043ZM180.301 52.6001V44.8267C180.808 44.6801 181.242 44.6067 181.821 44.6067C184.21 44.6067 185.73 45.9267 185.73 48.7867C185.73 51.3534 184.5 52.9667 182.038 52.9667C181.387 52.9667 180.88 52.8201 180.301 52.6001ZM191.087 55.4601H194.273L198.399 49.4467C199.195 48.3467 199.775 47.2467 200.136 46.6601H200.209C200.136 47.4667 200.064 48.4934 200.064 49.5201V55.3867H203.322V42.1867H200.136L196.01 48.2001C195.286 49.3001 194.635 50.4001 194.273 50.9867H194.2C194.273 50.1801 194.345 49.1534 194.345 48.1267V42.2601H191.087V55.4601ZM205.928 55.4601H209.258V49.9601H211.213C211.575 49.9601 211.937 50.3267 212.371 51.2067L214.036 55.4601H217.583L215.194 50.4001C214.76 49.5201 214.326 49.0067 213.674 48.7867V48.7134C214.76 48.0534 214.905 46.1467 215.556 45.1934C215.773 44.9001 216.063 44.7534 216.497 44.7534C216.715 44.7534 217.004 44.7534 217.221 44.9001V42.0401C216.859 41.8934 216.208 41.8201 215.846 41.8201C214.688 41.8201 213.964 42.2601 213.457 42.9934C212.371 44.6067 212.371 47.3934 210.778 47.3934H209.258V42.1867H205.928V55.4601ZM224.967 55.7534C226.777 55.7534 228.442 55.1667 229.456 54.4334L228.515 52.1601C227.573 52.6734 226.705 53.0401 225.474 53.0401C223.23 53.0401 221.782 51.5734 221.782 48.8601C221.782 46.4401 223.23 44.5334 225.691 44.5334C226.994 44.5334 227.935 44.9001 228.877 45.5601V42.7001C228.153 42.2601 226.994 41.8201 225.329 41.8201C221.42 41.8201 218.38 44.7534 218.38 48.9334C218.38 52.7467 220.696 55.7534 224.967 55.7534Z" fill="#0BBBEF"/>
<path d="M269.417 50.9137C272.964 50.9137 275.86 47.9804 275.86 44.387C275.86 40.7937 272.964 37.8604 269.417 37.8604C265.869 37.8604 262.974 40.7937 262.974 44.387C263.046 47.9804 265.869 50.9137 269.417 50.9137Z" stroke="#005893" stroke-width="1.7688"/>
<path d="M273.471 44.3868H269.924V40.7935H268.982V45.3401H273.471V44.3868Z" fill="#005893"/>
</g>
</g>
<g filter="url(#filter2_d_7_3207)">
<path d="M324 32C324 20.9543 332.954 12 344 12H372C383.046 12 392 20.9543 392 32V60C392 71.0457 383.046 80 372 80H344C332.954 80 324 71.0457 324 60V32Z" fill="white" shape-rendering="crispEdges"/>
<path d="M358.085 30.4165H358.014C349.401 30.4165 342.418 37.4012 342.418 46.0173V46.0886C342.418 54.7047 349.401 61.6894 358.014 61.6894H358.085C366.699 61.6894 373.682 54.7047 373.682 46.0886V46.0173C373.682 37.4012 366.699 30.4165 358.085 30.4165Z" fill="#00E510"/>
<path d="M361.095 50.6262C357.094 50.6262 353.839 47.3688 353.838 43.3664C353.839 42.3519 354.665 41.5269 355.677 41.5269C355.781 41.5269 355.884 41.5356 355.983 41.5532C356.199 41.5893 356.405 41.6627 356.595 41.7734C356.622 41.7898 356.641 41.8161 356.645 41.8468L357.068 44.5125C357.073 44.5443 357.064 44.5749 357.043 44.5979C356.809 44.8565 356.512 45.0428 356.18 45.1359L356.02 45.1808L356.08 45.3353C356.625 46.7246 357.736 47.8345 359.126 48.3823L359.281 48.4436L359.325 48.2837C359.419 47.9517 359.605 47.6537 359.863 47.4203C359.882 47.4028 359.907 47.394 359.932 47.394C359.938 47.394 359.943 47.394 359.95 47.3951L362.615 47.818C362.646 47.8235 362.673 47.841 362.689 47.8684C362.799 48.058 362.872 48.265 362.909 48.482C362.927 48.5784 362.935 48.6803 362.935 48.7866C362.935 49.8 362.11 50.6251 361.095 50.6262Z" fill="#FDFDFD"/>
<path d="M368.191 45.1745C367.975 42.7356 366.858 40.4731 365.045 38.8044C363.222 37.1259 360.856 36.2012 358.382 36.2012C352.951 36.2012 348.532 40.621 348.532 46.0532C348.532 47.8763 349.035 49.6524 349.987 51.1994L347.864 55.8997L354.661 55.1755C355.843 55.6598 357.093 55.9052 358.38 55.9052C358.719 55.9052 359.066 55.8877 359.414 55.8515C359.721 55.8186 360.031 55.7704 360.336 55.7091C364.883 54.7898 368.203 50.7524 368.23 46.1058V46.0532C368.23 45.7574 368.216 45.4615 368.19 45.1745H368.191ZM354.923 53.1124L351.162 53.5134L352.285 51.0252L352.06 50.7239C352.044 50.702 352.028 50.6801 352.009 50.6549C351.034 49.3083 350.519 47.7175 350.519 46.0543C350.519 41.7177 354.046 38.1898 358.382 38.1898C362.443 38.1898 365.886 41.3595 366.217 45.4057C366.235 45.6226 366.245 45.8406 366.245 46.0554C366.245 46.1167 366.244 46.177 366.243 46.2416C366.159 49.8693 363.626 52.9502 360.081 53.7347C359.811 53.795 359.534 53.841 359.258 53.8706C358.971 53.9035 358.676 53.9199 358.384 53.9199C357.342 53.9199 356.33 53.7183 355.374 53.3195C355.268 53.2767 355.163 53.2307 355.066 53.1836L354.924 53.1146L354.923 53.1124Z" fill="#FDFDFD"/>
</g>
<g filter="url(#filter3_d_7_3207)">
<path d="M20 120C20 108.954 28.9543 100 40 100H178C189.046 100 198 108.954 198 120V148C198 159.046 189.046 168 178 168H40C28.9543 168 20 159.046 20 148V120Z" fill="white" shape-rendering="crispEdges"/>
<g clip-path="url(#clip1_7_3207)">
<mask id="mask0_7_3207" style="mask-type:luminance" maskUnits="userSpaceOnUse" x="35" y="128" width="124" height="22">
<path d="M109.03 131.653C106.631 131.653 104.785 132.849 103.82 134.549H114.306C113.459 132.774 111.79 131.653 109.03 131.653ZM91.8079 132.525H86.5315C86.5061 136.188 86.2965 139.565 84.9293 142.762H91.8079V132.525ZM52.4316 132.014C49.1432 132.014 46.4757 134.443 46.4757 137.429C46.4757 140.415 49.1516 142.845 52.4316 142.845C55.7115 142.845 58.3875 140.415 58.3875 137.429C58.3875 134.443 55.7115 132.014 52.4316 132.014ZM145.654 128.374V136.903L153.238 128.374H158.279L150.554 137.076L158.732 146.478H153.54L145.654 137.414V146.478H141.435V128.374H145.654ZM131.276 128.253C134.019 128.253 136.528 129.103 138.357 130.645L135.471 133.345C134.431 132.465 132.946 131.961 131.276 131.961C127.988 131.961 125.321 134.436 125.321 137.384C125.321 140.333 127.996 142.807 131.276 142.807C132.879 142.807 134.28 142.318 135.572 141.363L138.256 144.229C136.209 145.748 133.86 146.515 131.276 146.515C125.664 146.515 121.101 142.424 121.101 137.384C121.101 132.345 125.664 128.253 131.276 128.253ZM52.4316 128.298C58.0436 128.298 62.607 132.39 62.607 137.422C62.607 142.454 58.0436 146.553 52.4316 146.553C47.5326 146.553 43.4306 143.424 42.4659 139.28H39.2111V146.478H35V128.374H39.2195V135.572H42.4743C43.4306 131.427 47.5326 128.298 52.4316 128.298ZM69.9387 128.185C73.1516 128.185 75.9449 129.908 75.9449 132.691C75.9449 134.601 74.6194 135.842 72.8329 136.579C74.8207 137.234 76.4062 138.678 76.4062 140.979C76.4062 143.973 73.3109 146.56 69.7457 146.56C66.5581 146.56 64.5364 145.101 63.2362 143.883L66.1219 141.047C66.9691 141.762 67.9506 142.755 69.4689 142.755C71.2474 142.755 72.128 141.732 72.128 140.408C72.128 138.873 70.7356 137.836 67.7157 138.339V135.669C70.9369 135.526 71.5914 134.458 71.5914 133.481C71.5914 132.51 70.6769 131.721 69.4689 131.721C68.3448 131.721 67.4137 132.164 66.642 132.916L63.6137 130.337C65.1488 128.938 67.4389 128.185 69.9387 128.185ZM109.03 128.058C114.021 128.058 117.896 130.825 118.895 135.113C119.046 135.76 119.063 137.038 118.903 137.978H103.107C103.384 140.776 105.607 143.085 109.03 143.085C112.217 143.085 113.879 141.423 114.927 140.032L118.299 141.942C116.403 144.259 114.113 146.711 109.021 146.711C103.409 146.711 98.8458 142.529 98.8458 137.384C98.8628 132.24 103.426 128.058 109.03 128.058ZM96.0191 128.81V142.755H98.1245V149.494H93.905V146.47H82.3539V149.494H78.1344V142.755H80.3071C82.2113 139.535 82.3202 135.985 82.3202 130.698V128.81H96.0191Z" fill="white"/>
</mask>
<g mask="url(#mask0_7_3207)">
<mask id="mask1_7_3207" style="mask-type:luminance" maskUnits="userSpaceOnUse" x="35" y="119" width="147" height="31">
<path d="M181.727 119.333H35V149.494H181.727V119.333Z" fill="white"/>
</mask>
<g mask="url(#mask1_7_3207)">
<path d="M162.838 124.319H30.8936V153.233H162.838V124.319Z" fill="#2B2B2B"/>
</g>
</g>
<mask id="mask2_7_3207" style="mask-type:luminance" maskUnits="userSpaceOnUse" x="160" y="119" width="22" height="20">
<path d="M171.807 119.338C165.709 119.166 160.733 123.587 160.927 128.987C161.104 133.879 165.6 137.873 171.115 138.023C177.213 138.195 182.189 133.774 181.995 128.374C181.818 123.482 177.323 119.495 171.807 119.338ZM171.461 133.356C168.551 133.356 166.19 131.261 166.19 128.681C166.19 126.1 168.551 124.006 171.461 124.006C174.371 124.006 176.732 126.1 176.732 128.681C176.732 131.261 174.371 133.356 171.461 133.356Z" fill="white"/>
</mask>
<g mask="url(#mask2_7_3207)">
<mask id="mask3_7_3207" style="mask-type:luminance" maskUnits="userSpaceOnUse" x="34" y="119" width="149" height="31">
<path d="M182.001 119.333H34.4531V149.244H182.001V119.333Z" fill="white"/>
</mask>
<g mask="url(#mask3_7_3207)">
<mask id="mask4_7_3207" style="mask-type:luminance" maskUnits="userSpaceOnUse" x="160" y="119" width="22" height="20">
<path d="M182 119.333H160.101V138.776H182V119.333Z" fill="white"/>
</mask>
<g mask="url(#mask4_7_3207)">
<mask id="mask5_7_3207" style="mask-type:luminance" maskUnits="userSpaceOnUse" x="160" y="119" width="22" height="20">
<path d="M181.999 119.333H160.1V138.776H181.999V119.333Z" fill="white"/>
</mask>
<g mask="url(#mask5_7_3207)">
<path d="M186.379 115.595H156.814V141.767H186.379V115.595Z" fill="#FA002D"/>
</g>
</g>
<mask id="mask6_7_3207" style="mask-type:luminance" maskUnits="userSpaceOnUse" x="160" y="119" width="22" height="20">
<path d="M182 119.333H160.101V138.776H182V119.333Z" fill="white"/>
</mask>
<g mask="url(#mask6_7_3207)">
<mask id="mask7_7_3207" style="mask-type:luminance" maskUnits="userSpaceOnUse" x="160" y="119" width="22" height="20">
<path d="M182 121.203L179.892 119.333L171.461 126.811L163.03 119.333L160.922 121.203L169.353 128.681L160.922 136.158L163.03 138.028L171.461 130.55L179.892 138.028L182 136.158L173.569 128.681L182 121.203Z" fill="white"/>
</mask>
<g mask="url(#mask7_7_3207)">
<mask id="mask8_7_3207" style="mask-type:luminance" maskUnits="userSpaceOnUse" x="160" y="119" width="22" height="20">
<path d="M181.999 119.333H160.1V138.776H181.999V119.333Z" fill="white"/>
</mask>
<g mask="url(#mask8_7_3207)">
<path d="M186.379 115.595H156.814V141.767H186.379V115.595Z" fill="white"/>
</g>
</g>
</g>
</g>
</g>
</g>
</g>
<g filter="url(#filter4_d_7_3207)">
<path d="M214 120C214 108.954 222.954 100 234 100H372C383.046 100 392 108.954 392 120V148C392 159.046 383.046 168 372 168H234C222.954 168 214 159.046 214 148V120Z" fill="white" shape-rendering="crispEdges"/>
<g clip-path="url(#clip2_7_3207)">
<mask id="mask9_7_3207" style="mask-type:luminance" maskUnits="userSpaceOnUse" x="227" y="121" width="151" height="27">
<path d="M378 121.167H227V147.75H378V121.167Z" fill="white"/>
</mask>
<g mask="url(#mask9_7_3207)">
<path fill-rule="evenodd" clip-rule="evenodd" d="M233.728 121.866H248.679C251.968 121.866 254.659 124.384 254.659 127.462V141.454C254.659 144.532 251.968 147.05 248.679 147.05H233.728C230.439 147.05 227.748 144.532 227.748 141.454V127.462C227.748 124.384 230.439 121.866 233.728 121.866Z" fill="#E53E0D"/>
</g>
<mask id="mask10_7_3207" style="mask-type:luminance" maskUnits="userSpaceOnUse" x="227" y="121" width="28" height="27">
<mask id="mask11_7_3207" style="mask-type:luminance" maskUnits="userSpaceOnUse" x="227" y="121" width="151" height="27">
<path d="M378 121.167H227V147.75H378V121.167Z" fill="white"/>
</mask>
<g mask="url(#mask11_7_3207)">
<path d="M254.659 121.866H227.748V147.05H254.659V121.866Z" fill="url(#paint1_linear_7_3207)"/>
</g>
</mask>
<g mask="url(#mask10_7_3207)">
<mask id="mask12_7_3207" style="mask-type:luminance" maskUnits="userSpaceOnUse" x="227" y="121" width="151" height="27">
<path d="M378 121.167H227V147.75H378V121.167Z" fill="white"/>
</mask>
<g mask="url(#mask12_7_3207)">
<path fill-rule="evenodd" clip-rule="evenodd" d="M233.728 121.866H248.679C251.968 121.866 254.659 124.384 254.659 127.462V141.454C254.659 144.532 251.968 147.05 248.679 147.05H233.728C230.439 147.05 227.748 144.532 227.748 141.454V127.462C227.748 124.384 230.439 121.866 233.728 121.866Z" fill="#DD1D1D"/>
</g>
</g>
<mask id="mask13_7_3207" style="mask-type:luminance" maskUnits="userSpaceOnUse" x="227" y="121" width="151" height="27">
<path d="M378 121.167H227V147.75H378V121.167Z" fill="white"/>
</mask>
<g mask="url(#mask13_7_3207)">
<path fill-rule="evenodd" clip-rule="evenodd" d="M238.213 142.853H245.688V138.655H239.708C238.063 138.655 236.717 137.396 236.717 135.857V130.261H232.232V137.256C232.232 140.335 234.924 142.853 238.213 142.853Z" fill="white"/>
</g>
<mask id="mask14_7_3207" style="mask-type:luminance" maskUnits="userSpaceOnUse" x="227" y="121" width="151" height="27">
<path d="M378 121.167H227V147.75H378V121.167Z" fill="white"/>
</mask>
<g mask="url(#mask14_7_3207)">
<path fill-rule="evenodd" clip-rule="evenodd" d="M244.193 126.063H236.718V130.261H242.698C244.342 130.261 245.688 131.52 245.688 133.059V138.656H250.173V131.66C250.173 128.582 247.482 126.063 244.193 126.063Z" fill="white"/>
</g>
<mask id="mask15_7_3207" style="mask-type:luminance" maskUnits="userSpaceOnUse" x="227" y="121" width="151" height="27">
<path d="M378 121.167H227V147.75H378V121.167Z" fill="white"/>
</mask>
<g mask="url(#mask15_7_3207)">
<path fill-rule="evenodd" clip-rule="evenodd" d="M289.045 131.659C291.512 131.659 293.53 133.548 293.53 135.857C293.53 138.165 291.512 140.054 289.045 140.054C286.578 140.054 284.56 138.165 284.56 135.857C284.56 133.548 286.578 131.659 289.045 131.659ZM289.045 127.462C293.979 127.462 298.016 131.24 298.016 135.857V144.252H293.53V143.119C292.209 143.838 290.676 144.252 289.045 144.252C284.111 144.252 280.075 140.474 280.075 135.857C280.075 131.24 284.111 127.462 289.045 127.462ZM372.361 134.108C371.652 132.663 370.093 131.659 368.283 131.659C366.472 131.659 364.913 132.663 364.204 134.108H372.361ZM368.283 127.462C373.236 127.462 377.253 131.22 377.253 135.857C377.253 136.457 377.185 137.042 377.057 137.606H376.197H372.361H364.204C364.913 139.05 366.472 140.054 368.283 140.054C369.482 140.054 370.571 139.614 371.376 138.896L375.67 140.619C374.052 142.813 371.347 144.252 368.282 144.252C363.328 144.252 359.312 140.493 359.312 135.857C359.312 131.22 363.328 127.462 368.283 127.462ZM301.005 123.265H305.491V144.252H301.005V123.265ZM317.825 135.857L324.926 144.252H319.32L312.966 136.74V144.252H308.481V123.265H312.966V134.973L319.32 127.462H324.926L317.825 135.857ZM325.674 134.458H330.159V138.655H325.674V134.458ZM347.726 127.462H351.09C354.379 127.462 357.07 129.981 357.07 133.058V144.252H352.585V133.525C352.585 132.499 351.687 131.659 350.592 131.659H347.909C348.033 132.107 348.099 132.576 348.099 133.059V144.252H343.614V133.525C343.614 132.499 342.717 131.659 341.621 131.659H339.129V144.252H334.643V127.462H342.119C344.679 127.462 346.877 128.988 347.725 131.116V127.462H347.726ZM269.609 123.265H274.094V127.462H278.579V131.659H274.094V137.256C274.094 138.794 275.441 140.054 277.084 140.054H278.58V144.252H275.589C272.301 144.252 269.609 141.733 269.609 138.655V131.659H265.124V127.462H267.367C268.6 127.462 269.609 126.518 269.609 125.363V123.265Z" fill="#2B2B2B"/>
</g>
</g>
</g>
<g filter="url(#filter5_d_7_3207)">
<path d="M20 208C20 196.954 28.9543 188 40 188H81.75C92.7957 188 101.75 196.954 101.75 208V236C101.75 247.046 92.7957 256 81.75 256H40C28.9543 256 20 247.046 20 236V208Z" fill="white" shape-rendering="crispEdges"/>
<g clip-path="url(#clip3_7_3207)">
<path fill-rule="evenodd" clip-rule="evenodd" d="M51.1393 215.76H49.4667C49.2925 215.773 49.1284 215.856 49.005 215.993C48.8816 216.13 48.8073 216.313 48.7959 216.507V230.531C48.7954 230.63 48.813 230.727 48.8476 230.818C48.8822 230.908 48.9331 230.99 48.9972 231.058C49.0569 231.13 49.1296 231.188 49.2106 231.227C49.2916 231.266 49.3791 231.285 49.4673 231.284H51.14C51.2249 231.283 51.3088 231.262 51.3862 231.223C51.4637 231.185 51.533 231.128 51.59 231.058C51.6588 230.994 51.7139 230.913 51.7511 230.822C51.7883 230.73 51.8068 230.631 51.8052 230.531V216.513C51.8017 216.417 51.7809 216.323 51.7439 216.237C51.7069 216.15 51.6545 216.072 51.59 216.009C51.5369 215.932 51.4686 215.869 51.3905 215.826C51.3124 215.783 51.2265 215.761 51.1393 215.76ZM66.4004 215.798H65.0503C64.8739 215.758 64.6907 215.777 64.5244 215.854C64.358 215.93 64.216 216.061 64.1167 216.228L60.2611 225.718H60.194L56.5194 216.228C56.4712 216.095 56.3872 215.983 56.2789 215.906C56.1706 215.829 56.0435 215.791 55.9152 215.798H54.095C53.9923 215.784 53.8882 215.801 53.7936 215.848C53.699 215.894 53.6175 215.968 53.5577 216.062C53.5105 216.155 53.4885 216.262 53.4944 216.369C53.5004 216.476 53.534 216.578 53.5913 216.665L59.5671 231.255C59.6197 231.381 59.7059 231.487 59.8141 231.557C59.9223 231.627 60.0473 231.658 60.172 231.646H60.355C60.4741 231.65 60.5916 231.615 60.6931 231.546C60.7945 231.476 60.8754 231.375 60.9257 231.255L66.9016 216.665C66.9586 216.579 66.9921 216.476 66.9981 216.37C67.004 216.263 66.9822 216.156 66.9351 216.063C66.8741 215.971 66.7928 215.899 66.6991 215.852C66.6054 215.806 66.5025 215.787 66.4004 215.798V215.798ZM74.4873 215.445C73.5541 215.431 72.6287 215.636 71.7712 216.046C70.9138 216.456 70.1435 217.062 69.5103 217.825C68.8423 218.569 68.3151 219.454 67.9597 220.428C67.6044 221.402 67.4281 222.446 67.4413 223.497C67.4162 225.635 68.1556 227.697 69.4968 229.229C70.13 229.991 70.8981 230.6 71.7529 231.016C72.6078 231.432 73.5307 231.647 74.4638 231.647C75.3969 231.647 76.3199 231.432 77.1747 231.016C78.0295 230.6 78.7977 229.991 79.4308 229.229C80.0999 228.473 80.6274 227.577 80.9826 226.593C81.3378 225.609 81.5136 224.556 81.4998 223.495C81.513 222.444 81.3367 221.401 80.9814 220.427C80.626 219.453 80.0988 218.567 79.4308 217.824C78.8025 217.064 78.0378 216.46 77.1862 216.05C76.3346 215.64 75.4152 215.434 74.4873 215.445ZM77.4094 227.036C77.0348 227.484 76.5817 227.841 76.0781 228.086C75.5746 228.33 75.0313 228.458 74.4817 228.46C73.9322 228.462 73.3881 228.339 72.883 228.098C72.3779 227.857 71.9226 227.504 71.5451 227.059C70.7469 226.092 70.3204 224.816 70.3566 223.504C70.3241 222.22 70.7516 220.973 71.5451 220.039C71.9202 219.591 72.3761 219.236 72.8832 218.997C73.3902 218.758 73.9368 218.641 74.4873 218.653C75.0352 218.638 75.5798 218.753 76.084 218.992C76.5882 219.232 77.0402 219.589 77.4094 220.039C77.8024 220.502 78.1096 221.046 78.3136 221.64C78.5175 222.235 78.6141 222.868 78.5978 223.504C78.6204 224.807 78.1953 226.07 77.4094 227.036ZM44.8592 215.76H40.0956C40.0098 215.765 39.9256 215.788 39.8482 215.83C39.7709 215.871 39.7019 215.93 39.6455 216.002C39.5802 216.066 39.5275 216.145 39.4906 216.233C39.4537 216.321 39.4333 216.417 39.4309 216.514V218.39C39.4329 218.489 39.4529 218.587 39.4898 218.677C39.5267 218.768 39.5797 218.849 39.6455 218.917C39.7034 218.986 39.7729 219.041 39.8502 219.08C39.9274 219.119 40.0109 219.14 40.0956 219.143H42.514V232.647C42.517 233.25 42.3222 233.834 41.966 234.289C41.6098 234.743 41.1167 235.038 40.5791 235.117H40.0956C39.9181 235.123 39.7495 235.204 39.6246 235.345C39.4997 235.485 39.4282 235.673 39.4248 235.871V237.746C39.426 237.941 39.4911 238.129 39.6077 238.274C39.6692 238.347 39.7442 238.406 39.8276 238.445C39.911 238.484 40.0009 238.502 40.0913 238.499H40.3267C41.6496 238.492 42.9202 237.924 43.8798 236.911C44.8393 235.897 45.4157 234.516 45.4915 233.046C45.5113 232.93 45.5203 232.811 45.5184 232.692V216.513C45.519 216.415 45.5014 216.317 45.4668 216.227C45.4322 216.136 45.3813 216.054 45.3171 215.986C45.2604 215.913 45.1899 215.856 45.1108 215.816C45.0316 215.777 44.9457 215.758 44.8592 215.76Z" fill="#0B1F35"/>
<path fill-rule="evenodd" clip-rule="evenodd" d="M39.4656 204.583C39.0491 213.388 45.497 214.639 45.497 214.639C45.175 204.997 39.4656 204.583 39.4656 204.583Z" fill="#1BC339"/>
</g>
</g>
<g filter="url(#filter6_d_7_3207)">
<path d="M126.625 208C126.625 196.954 135.579 188 146.625 188H279.125C290.171 188 299.125 196.954 299.125 208V236C299.125 247.046 290.171 256 279.125 256H146.625C135.579 256 126.625 247.046 126.625 236V208Z" fill="white" shape-rendering="crispEdges"/>
<g clip-path="url(#clip4_7_3207)">
<path d="M165.375 226.794V218.842C165.374 218.842 165.377 218.842 165.377 218.842C165.377 217.581 166.118 217.399 166.511 217.373C167.325 217.321 168.533 217.459 170.229 217.816C170.914 217.961 171.627 217.712 172.034 217.185C172.442 216.659 172.463 215.959 172.089 215.412C171.975 215.246 171.855 215.091 171.728 214.946C171.943 214.761 172.107 214.525 172.198 214.255C172.407 213.635 172.186 212.961 171.64 212.55C171.296 212.291 170.938 212.089 170.575 211.933L170.576 211.918C170.606 211.203 170.113 210.557 169.372 210.338C168.23 210.001 167.154 210.037 166.244 210.237C165.736 209.097 164.929 208.348 164.162 208.018C163.604 207.778 162.95 207.826 162.442 208.146C162.055 208.389 161.798 208.761 161.715 209.174C160.921 208.835 160.15 208.727 159.538 208.783C158.939 208.837 158.414 209.171 158.148 209.666C157.883 210.162 157.915 210.748 158.234 211.217C158.459 211.547 158.775 212.139 158.939 212.743C159.118 213.401 158.576 213.787 157.997 213.787L157.997 213.787H157.303C157.289 213.787 157.274 213.787 157.259 213.787L157.259 213.787H147.144C145.043 213.787 143.362 215.348 143.362 217.271L143.362 231.77C143.362 232.48 143.72 233.181 144.414 233.616L144.428 233.625L144.442 233.633C145.523 234.284 147.033 234.064 147.794 233.011L149.749 230.345C149.759 230.331 149.767 230.323 149.791 230.313C149.822 230.299 149.895 230.278 150.017 230.278H161.579C163.665 230.278 165.375 228.731 165.375 226.794Z" fill="url(#paint2_linear_7_3207)"/>
<path fill-rule="evenodd" clip-rule="evenodd" d="M145.394 232.299C145.205 232.18 145.1 231.989 145.1 231.77L145.1 217.271C145.1 216.222 146.01 215.383 147.144 215.383H161.579C162.722 215.383 163.637 216.231 163.637 217.271V226.794C163.637 227.843 162.712 228.682 161.579 228.682H150.017C149.331 228.682 148.694 228.925 148.307 229.454L146.348 232.126C146.139 232.417 145.712 232.49 145.394 232.299Z" fill="#FF8833"/>
<path d="M165.13 216.038C166.255 215.583 168.102 215.731 170.617 216.261C169.895 215.205 168.748 214.808 167.39 214.674C168.249 214.114 169.848 213.839 170.537 213.784C168.958 212.595 166.792 213.141 165.97 213.541C166.671 212.883 167.943 212.054 168.839 211.857C167.125 211.351 165.574 212.068 165.012 212.49C164.906 210.569 163.909 209.671 163.424 209.462C163.472 210.102 163.472 211.609 163.084 212.527C161.941 210.661 160.356 210.312 159.707 210.371C160.19 211.08 160.921 212.561 160.757 213.787H161.579C163.209 213.787 164.59 214.725 165.13 216.038Z" fill="#5CD65C"/>
<path d="M159.641 218H149.096C148.616 218 148.227 218.358 148.227 218.8C148.227 219.242 148.616 219.6 149.096 219.6H159.641C160.121 219.6 160.511 219.242 160.511 218.8C160.511 218.358 160.121 218 159.641 218Z" fill="#B34A01"/>
<path d="M158.005 221.2H150.732C150.252 221.2 149.862 221.558 149.862 222C149.862 222.442 150.252 222.8 150.732 222.8H158.005C158.485 222.8 158.875 222.442 158.875 222C158.875 221.558 158.485 221.2 158.005 221.2Z" fill="#B34A01"/>
<path d="M155.963 224.4H152.774C152.294 224.4 151.904 224.758 151.904 225.2C151.904 225.642 152.294 226 152.774 226H155.963C156.444 226 156.833 225.642 156.833 225.2C156.833 224.758 156.444 224.4 155.963 224.4Z" fill="#B34A01"/>
<path d="M182.889 228.67C181.961 228.67 181.122 228.525 180.362 228.234C179.602 227.944 178.951 227.526 178.418 226.972C177.875 226.418 177.46 225.737 177.164 224.929C176.868 224.121 176.72 223.195 176.72 222.16C176.72 221.125 176.877 220.208 177.203 219.4C177.529 218.592 177.973 217.911 178.546 217.357C179.118 216.803 179.79 216.385 180.56 216.086C181.33 215.795 182.169 215.65 183.077 215.65C183.571 215.65 184.015 215.677 184.4 215.723C184.785 215.768 185.13 215.841 185.446 215.931C185.762 216.022 186.048 216.131 186.305 216.258C186.572 216.385 186.828 216.531 187.085 216.685V218.238H186.256C186.098 218.083 185.91 217.947 185.713 217.82C185.515 217.693 185.288 217.575 185.032 217.484C184.775 217.384 184.499 217.311 184.192 217.257C183.887 217.202 183.531 217.175 183.146 217.175C182.514 217.175 181.942 217.284 181.419 217.493C180.905 217.702 180.461 218.02 180.086 218.428C179.721 218.846 179.434 219.354 179.227 219.972C179.02 220.589 178.921 221.297 178.921 222.096C178.921 223.785 179.276 225.056 179.987 225.91C180.698 226.763 181.695 227.181 182.978 227.181C183.422 227.181 183.817 227.145 184.173 227.072C184.528 226.999 184.844 226.899 185.13 226.772C185.417 226.645 185.673 226.5 185.91 226.337C186.147 226.173 186.364 225.992 186.562 225.801H187.263V227.317C187.026 227.508 186.759 227.689 186.453 227.853C186.157 228.016 185.831 228.162 185.466 228.289C185.111 228.407 184.716 228.507 184.291 228.579C183.857 228.634 183.393 228.67 182.889 228.67Z" fill="#22252A"/>
<path d="M196.384 228.561C196.186 228.561 196.019 228.543 195.88 228.516C195.742 228.488 195.624 228.434 195.535 228.352C195.446 228.27 195.377 228.162 195.318 228.025C195.258 227.889 195.219 227.717 195.199 227.499C194.814 227.889 194.37 228.18 193.876 228.37C193.383 228.57 192.79 228.661 192.09 228.661C191.616 228.661 191.181 228.597 190.786 228.479C190.391 228.361 190.046 228.18 189.76 227.944C189.474 227.708 189.247 227.408 189.089 227.054C188.931 226.7 188.842 226.282 188.842 225.819C188.842 225.329 188.94 224.902 189.138 224.539C189.335 224.176 189.622 223.867 189.977 223.631C190.332 223.386 190.757 223.213 191.251 223.095C191.744 222.977 192.287 222.914 192.87 222.914C193.314 222.914 193.718 222.932 194.074 222.977C194.429 223.023 194.785 223.086 195.15 223.168V221.906C195.15 221.334 194.972 220.916 194.617 220.662C194.261 220.408 193.748 220.271 193.057 220.271C192.435 220.271 191.892 220.344 191.418 220.498C190.944 220.653 190.54 220.834 190.214 221.052H189.562V219.672C189.799 219.563 190.036 219.463 190.303 219.363C190.559 219.264 190.846 219.182 191.152 219.109C191.458 219.037 191.793 218.973 192.139 218.928C192.494 218.882 192.879 218.855 193.294 218.855C193.906 218.855 194.459 218.909 194.943 219.018C195.426 219.127 195.831 219.3 196.157 219.527C196.482 219.763 196.739 220.063 196.917 220.435C197.094 220.807 197.183 221.252 197.183 221.77V228.552H196.384V228.561ZM192.741 227.39C193.017 227.39 193.264 227.363 193.491 227.308C193.718 227.254 193.926 227.172 194.123 227.072C194.321 226.972 194.498 226.854 194.666 226.727C194.834 226.591 194.992 226.445 195.14 226.291V224.266C194.844 224.203 194.548 224.157 194.222 224.13C193.906 224.094 193.56 224.085 193.205 224.085C192.86 224.085 192.534 224.112 192.248 224.176C191.951 224.239 191.705 224.339 191.497 224.466C191.29 224.593 191.122 224.766 191.004 224.975C190.885 225.183 190.826 225.429 190.826 225.719C190.826 226.019 190.875 226.273 190.974 226.482C191.073 226.691 191.201 226.863 191.379 226.999C191.547 227.136 191.754 227.235 191.991 227.299C192.208 227.363 192.465 227.39 192.741 227.39Z" fill="#22252A"/>
<path d="M204.865 220.508C204.509 220.508 204.183 220.535 203.877 220.598C203.571 220.662 203.295 220.744 203.038 220.844C202.782 220.943 202.555 221.061 202.337 221.189C202.13 221.316 201.943 221.452 201.785 221.579V228.552H199.751V219.009H201.024C201.153 219.009 201.251 219.028 201.35 219.055C201.439 219.091 201.518 219.146 201.577 219.246C201.636 219.345 201.686 219.473 201.715 219.645C201.745 219.818 201.775 220.045 201.785 220.326C201.962 220.144 202.15 219.963 202.357 219.799C202.564 219.636 202.791 219.482 203.048 219.354C203.295 219.227 203.562 219.118 203.848 219.046C204.134 218.964 204.43 218.928 204.756 218.928C204.874 218.928 204.983 218.937 205.082 218.946C205.17 218.964 205.25 218.973 205.319 218.991V220.526C205.25 220.526 205.18 220.526 205.111 220.517C205.062 220.517 205.013 220.517 204.963 220.517C204.924 220.508 204.884 220.508 204.865 220.508Z" fill="#22252A"/>
<path d="M212.268 220.508C211.912 220.508 211.587 220.535 211.281 220.598C210.975 220.662 210.698 220.744 210.442 220.844C210.185 220.943 209.958 221.061 209.741 221.189C209.533 221.316 209.346 221.452 209.188 221.579V228.552H207.154V219.009H208.428C208.556 219.009 208.655 219.028 208.754 219.055C208.842 219.091 208.921 219.146 208.981 219.246C209.04 219.345 209.089 219.473 209.119 219.645C209.148 219.818 209.178 220.045 209.188 220.326C209.366 220.144 209.553 219.963 209.761 219.799C209.968 219.636 210.195 219.482 210.451 219.354C210.698 219.227 210.965 219.118 211.251 219.046C211.538 218.964 211.834 218.928 212.159 218.928C212.278 218.928 212.386 218.937 212.485 218.946C212.574 218.964 212.653 218.973 212.722 218.991V220.526C212.653 220.526 212.584 220.526 212.515 220.517C212.465 220.517 212.416 220.517 212.367 220.517C212.317 220.508 212.288 220.508 212.268 220.508Z" fill="#22252A"/>
<path d="M218.724 228.67C218.023 228.67 217.362 228.561 216.76 228.334C216.158 228.107 215.634 227.789 215.18 227.372C214.726 226.954 214.381 226.445 214.134 225.846C213.877 225.247 213.759 224.566 213.759 223.812C213.759 223.05 213.887 222.369 214.134 221.751C214.391 221.143 214.736 220.616 215.18 220.19C215.625 219.763 216.148 219.436 216.76 219.2C217.362 218.973 218.023 218.855 218.724 218.855C219.425 218.855 220.087 218.973 220.689 219.2C221.291 219.427 221.814 219.754 222.268 220.19C222.712 220.616 223.068 221.134 223.315 221.751C223.571 222.36 223.69 223.05 223.69 223.812C223.69 224.566 223.561 225.247 223.315 225.846C223.058 226.445 222.712 226.954 222.268 227.372C221.824 227.789 221.301 228.107 220.689 228.334C220.087 228.561 219.435 228.67 218.724 228.67ZM218.724 227.272C219.169 227.272 219.564 227.199 219.919 227.054C220.274 226.909 220.58 226.7 220.837 226.409C221.094 226.119 221.281 225.765 221.419 225.329C221.557 224.902 221.627 224.394 221.627 223.812C221.627 223.231 221.557 222.723 221.419 222.278C221.281 221.833 221.094 221.461 220.837 221.17C220.58 220.871 220.284 220.644 219.919 220.489C219.564 220.335 219.159 220.253 218.724 220.253C218.28 220.253 217.885 220.335 217.53 220.489C217.174 220.644 216.868 220.871 216.622 221.17C216.365 221.47 216.177 221.842 216.039 222.278C215.901 222.723 215.832 223.231 215.832 223.812C215.832 224.394 215.901 224.893 216.039 225.329C216.177 225.765 216.375 226.119 216.622 226.409C216.878 226.7 217.174 226.918 217.53 227.054C217.885 227.199 218.29 227.272 218.724 227.272Z" fill="#22252A"/>
<path d="M224.756 219.009H226.01V216.413H228.043V219.009H230.343V220.317H228.043V225.982C228.043 226.237 228.073 226.445 228.132 226.609C228.191 226.781 228.28 226.909 228.399 227.008C228.517 227.108 228.675 227.181 228.853 227.217C229.04 227.263 229.257 227.281 229.524 227.281H230.462V228.488C230.274 228.534 230.037 228.579 229.761 228.616C229.484 228.652 229.168 228.67 228.813 228.67C228.369 228.67 227.974 228.625 227.629 228.534C227.283 228.443 226.987 228.298 226.75 228.107C226.513 227.907 226.326 227.653 226.197 227.344C226.069 227.036 226.01 226.654 226.01 226.209V220.326H224.756V219.009Z" fill="#22252A"/>
<path d="M243.215 227.271C243.038 227.453 242.84 227.616 242.613 227.762C242.386 227.907 242.139 228.043 241.873 228.152C241.606 228.261 241.32 228.352 241.014 228.415C240.708 228.479 240.392 228.506 240.066 228.506C239.523 228.506 239.01 228.425 238.507 228.252C238.013 228.08 237.579 227.807 237.204 227.435C236.829 227.063 236.532 226.59 236.305 226C236.078 225.419 235.97 224.711 235.97 223.885C235.97 222.959 236.098 222.178 236.345 221.533C236.601 220.898 236.927 220.38 237.342 219.981C237.757 219.581 238.22 219.3 238.734 219.127C239.257 218.955 239.78 218.864 240.323 218.864C241.024 218.864 241.616 218.964 242.1 219.154C242.584 219.345 242.998 219.599 243.354 219.917C243.423 219.654 243.541 219.427 243.699 219.263C243.857 219.091 244.064 219.009 244.311 219.009H245.249V231.53H243.215V227.271ZM240.56 227.135C241.093 227.135 241.587 227.026 242.031 226.799C242.475 226.572 242.87 226.282 243.215 225.937V221.215C242.91 220.943 242.574 220.734 242.199 220.589C241.823 220.444 241.36 220.371 240.807 220.371C240.461 220.371 240.116 220.425 239.78 220.525C239.445 220.625 239.148 220.807 238.892 221.052C238.625 221.306 238.418 221.651 238.26 222.078C238.102 222.514 238.013 223.059 238.013 223.73C238.013 224.384 238.072 224.929 238.191 225.365C238.309 225.801 238.477 226.155 238.704 226.418C238.931 226.681 239.198 226.872 239.514 226.981C239.83 227.081 240.175 227.135 240.56 227.135Z" fill="#22252A"/>
<path d="M251.548 227.226C251.814 227.226 252.071 227.199 252.338 227.145C252.594 227.09 252.851 227.027 253.097 226.936C253.345 226.854 253.581 226.754 253.818 226.645C254.045 226.536 254.272 226.427 254.48 226.309V219H256.513V228.552H255.24C255.121 228.552 255.023 228.543 254.934 228.516C254.845 228.488 254.776 228.443 254.716 228.361C254.657 228.28 254.608 228.171 254.578 228.034C254.539 227.889 254.519 227.708 254.509 227.472C254.253 227.644 253.976 227.807 253.68 227.953C253.384 228.098 253.078 228.225 252.762 228.334C252.446 228.443 252.11 228.525 251.775 228.588C251.439 228.652 251.104 228.679 250.758 228.679C250.353 228.679 249.978 228.634 249.633 228.552C249.287 228.47 248.991 228.325 248.734 228.125C248.478 227.925 248.28 227.662 248.142 227.335C248.004 227.008 247.925 226.6 247.925 226.119V218.991H249.958V225.701C249.958 226.001 249.998 226.255 250.077 226.455C250.156 226.654 250.264 226.809 250.403 226.918C250.541 227.027 250.709 227.108 250.906 227.154C251.094 227.199 251.311 227.226 251.548 227.226Z" fill="#22252A"/>
<path d="M260.709 224.139C260.738 224.702 260.818 225.183 260.976 225.583C261.123 225.982 261.331 226.309 261.598 226.554C261.864 226.809 262.19 226.99 262.565 227.099C262.95 227.208 263.384 227.272 263.868 227.272C264.529 227.272 265.102 227.19 265.566 227.017C266.03 226.845 266.425 226.636 266.741 226.391H267.402V227.689C267.214 227.807 266.997 227.925 266.76 228.043C266.523 228.162 266.237 228.261 265.931 228.361C265.625 228.452 265.27 228.534 264.885 228.588C264.5 228.643 264.056 228.67 263.572 228.67C262.772 228.67 262.071 228.561 261.459 228.334C260.847 228.107 260.324 227.789 259.909 227.363C259.485 226.945 259.169 226.436 258.952 225.837C258.735 225.238 258.626 224.566 258.626 223.812C258.626 223.05 258.745 222.369 258.991 221.751C259.238 221.143 259.564 220.616 259.988 220.19C260.413 219.763 260.916 219.436 261.489 219.2C262.071 218.973 262.693 218.855 263.364 218.855C264.046 218.855 264.658 218.946 265.201 219.136C265.744 219.327 266.198 219.609 266.573 219.99C266.948 220.371 267.224 220.852 267.422 221.434C267.619 222.015 267.718 222.696 267.718 223.476C267.718 223.604 267.718 223.731 267.708 223.867C267.698 224.003 267.698 224.094 267.698 224.121H260.709V224.139ZM263.364 220.144C263.029 220.144 262.713 220.19 262.417 220.29C262.121 220.389 261.864 220.544 261.627 220.771C261.4 220.989 261.203 221.279 261.054 221.633C260.896 221.987 260.798 222.414 260.749 222.923H265.714C265.704 222.405 265.635 221.969 265.526 221.624C265.418 221.27 265.26 220.989 265.062 220.771C264.865 220.553 264.618 220.389 264.332 220.299C264.036 220.19 263.72 220.144 263.364 220.144Z" fill="#22252A"/>
<path d="M272.584 228.652C272.16 228.652 271.775 228.624 271.429 228.579C271.084 228.533 270.778 228.47 270.511 228.388C270.235 228.307 269.998 228.216 269.781 228.125C269.564 228.025 269.366 227.925 269.198 227.816V226.373H269.85C269.968 226.482 270.116 226.581 270.284 226.681C270.452 226.781 270.649 226.872 270.867 226.954C271.084 227.035 271.33 227.099 271.607 227.153C271.883 227.208 272.179 227.226 272.495 227.226C273.937 227.226 274.657 226.763 274.657 225.846C274.657 225.646 274.628 225.474 274.559 225.328C274.49 225.183 274.371 225.056 274.203 224.947C274.035 224.838 273.808 224.747 273.532 224.666C273.256 224.584 272.9 224.52 272.476 224.457C271.952 224.384 271.488 224.284 271.084 224.157C270.679 224.03 270.333 223.858 270.057 223.64C269.781 223.422 269.564 223.158 269.425 222.841C269.277 222.523 269.208 222.141 269.208 221.697C269.208 221.243 269.297 220.843 269.475 220.498C269.652 220.153 269.899 219.863 270.225 219.626C270.55 219.39 270.936 219.209 271.4 219.091C271.864 218.973 272.377 218.909 272.949 218.909C273.68 218.909 274.282 218.973 274.766 219.109C275.249 219.236 275.664 219.399 276 219.581V221.007H275.348C275.092 220.825 274.776 220.662 274.391 220.525C274.006 220.389 273.532 220.326 272.959 220.326C272.298 220.326 271.804 220.425 271.488 220.634C271.173 220.843 271.015 221.152 271.015 221.56C271.015 221.751 271.054 221.915 271.133 222.051C271.212 222.187 271.34 222.305 271.508 222.405C271.686 222.505 271.913 222.595 272.189 222.659C272.466 222.723 272.811 222.795 273.226 222.85C273.798 222.931 274.292 223.031 274.707 223.167C275.131 223.304 275.477 223.476 275.753 223.694C276.029 223.912 276.237 224.184 276.375 224.511C276.513 224.838 276.582 225.219 276.582 225.673C276.582 226.127 276.503 226.536 276.345 226.908C276.187 227.281 275.941 227.589 275.615 227.853C275.289 228.107 274.875 228.307 274.371 228.452C273.858 228.579 273.265 228.652 272.584 228.652Z" fill="#22252A"/>
<path d="M277.679 219.009H278.932V216.413H280.966V219.009H283.266V220.317H280.966V225.982C280.966 226.237 280.996 226.445 281.055 226.609C281.114 226.781 281.203 226.909 281.321 227.008C281.44 227.108 281.598 227.181 281.775 227.217C281.963 227.263 282.18 227.281 282.447 227.281H283.385V228.488C283.197 228.534 282.96 228.579 282.684 228.616C282.407 228.652 282.091 228.67 281.736 228.67C281.292 228.67 280.897 228.625 280.551 228.534C280.206 228.443 279.91 228.298 279.673 228.107C279.436 227.907 279.248 227.653 279.12 227.344C278.992 227.036 278.932 226.654 278.932 226.209V220.326H277.679V219.009Z" fill="#22252A"/>
</g>
</g>
<g filter="url(#filter7_d_7_3207)">
<path d="M324 208C324 196.954 332.954 188 344 188H372C383.046 188 392 196.954 392 208V236C392 247.046 383.046 256 372 256H344C332.954 256 324 247.046 324 236V208Z" fill="white" shape-rendering="crispEdges"/>
<path d="M357.993 206.417H357.921C349.308 206.417 342.325 213.401 342.325 222.017V222.089C342.325 230.705 349.308 237.689 357.921 237.689H357.993C366.606 237.689 373.589 230.705 373.589 222.089V222.017C373.589 213.401 366.606 206.417 357.993 206.417Z" fill="#00B0F2"/>
<path d="M348.246 221.52C348.29 221.498 348.334 221.477 348.377 221.458C349.119 221.113 349.872 220.791 350.623 220.469C350.664 220.469 350.732 220.422 350.77 220.407C350.828 220.382 350.886 220.358 350.944 220.332L351.278 220.189C351.502 220.093 351.724 219.998 351.947 219.903C352.393 219.712 352.839 219.522 353.285 219.33C354.176 218.949 355.069 218.566 355.961 218.185C356.852 217.804 357.745 217.421 358.637 217.04C359.528 216.659 360.421 216.276 361.312 215.895C362.204 215.514 363.097 215.131 363.988 214.75C364.187 214.665 364.401 214.537 364.614 214.5C364.792 214.468 364.966 214.407 365.146 214.373C365.487 214.308 365.862 214.282 366.189 214.424C366.302 214.473 366.406 214.542 366.492 214.628C366.906 215.038 366.848 215.711 366.761 216.287C366.15 220.304 365.54 224.322 364.929 228.338C364.846 228.889 364.732 229.494 364.297 229.842C363.929 230.137 363.406 230.17 362.951 230.045C362.496 229.919 362.096 229.655 361.702 229.395C360.071 228.315 358.439 227.235 356.808 226.155C356.421 225.898 355.989 225.563 355.994 225.097C355.996 224.817 356.163 224.567 356.334 224.345C357.752 222.495 359.796 221.224 361.318 219.46C361.533 219.211 361.701 218.762 361.407 218.619C361.231 218.533 361.03 218.649 360.87 218.76C358.859 220.157 356.849 221.555 354.838 222.952C354.182 223.408 353.494 223.877 352.703 223.988C351.996 224.089 351.284 223.892 350.599 223.69C350.025 223.522 349.452 223.349 348.882 223.17C348.578 223.076 348.265 222.974 348.031 222.76C347.796 222.547 347.661 222.187 347.803 221.902C347.891 221.724 348.063 221.611 348.244 221.519L348.246 221.52Z" fill="#FEFFFC"/>
</g>
<defs>
<filter id="filter0_d_7_3207" x="8" y="0" width="92" height="92" filterUnits="userSpaceOnUse" color-interpolation-filters="sRGB">
<feFlood flood-opacity="0" result="BackgroundImageFix"/>
<feColorMatrix in="SourceAlpha" type="matrix" values="0 0 0 0 0 0 0 0 0 0 0 0 0 0 0 0 0 0 127 0" result="hardAlpha"/>
<feOffset/>
<feGaussianBlur stdDeviation="6"/>
<feComposite in2="hardAlpha" operator="out"/>
<feColorMatrix type="matrix" values="0 0 0 0 0.725532 0 0 0 0 0.721389 0 0 0 0 0.816667 0 0 0 0.2 0"/>
<feBlend mode="normal" in2="BackgroundImageFix" result="effect1_dropShadow_7_3207"/>
<feBlend mode="normal" in="SourceGraphic" in2="effect1_dropShadow_7_3207" result="shape"/>
</filter>
<filter id="filter1_d_7_3207" x="111.417" y="0" width="189.167" height="92" filterUnits="userSpaceOnUse" color-interpolation-filters="sRGB">
<feFlood flood-opacity="0" result="BackgroundImageFix"/>
<feColorMatrix in="SourceAlpha" type="matrix" values="0 0 0 0 0 0 0 0 0 0 0 0 0 0 0 0 0 0 127 0" result="hardAlpha"/>
<feOffset/>
<feGaussianBlur stdDeviation="6"/>
<feComposite in2="hardAlpha" operator="out"/>
<feColorMatrix type="matrix" values="0 0 0 0 0.725532 0 0 0 0 0.721389 0 0 0 0 0.816667 0 0 0 0.2 0"/>
<feBlend mode="normal" in2="BackgroundImageFix" result="effect1_dropShadow_7_3207"/>
<feBlend mode="normal" in="SourceGraphic" in2="effect1_dropShadow_7_3207" result="shape"/>
</filter>
<filter id="filter2_d_7_3207" x="312" y="0" width="92" height="92" filterUnits="userSpaceOnUse" color-interpolation-filters="sRGB">
<feFlood flood-opacity="0" result="BackgroundImageFix"/>
<feColorMatrix in="SourceAlpha" type="matrix" values="0 0 0 0 0 0 0 0 0 0 0 0 0 0 0 0 0 0 127 0" result="hardAlpha"/>
<feOffset/>
<feGaussianBlur stdDeviation="6"/>
<feComposite in2="hardAlpha" operator="out"/>
<feColorMatrix type="matrix" values="0 0 0 0 0.725532 0 0 0 0 0.721389 0 0 0 0 0.816667 0 0 0 0.2 0"/>
<feBlend mode="normal" in2="BackgroundImageFix" result="effect1_dropShadow_7_3207"/>
<feBlend mode="normal" in="SourceGraphic" in2="effect1_dropShadow_7_3207" result="shape"/>
</filter>
<filter id="filter3_d_7_3207" x="8" y="88" width="202" height="92" filterUnits="userSpaceOnUse" color-interpolation-filters="sRGB">
<feFlood flood-opacity="0" result="BackgroundImageFix"/>
<feColorMatrix in="SourceAlpha" type="matrix" values="0 0 0 0 0 0 0 0 0 0 0 0 0 0 0 0 0 0 127 0" result="hardAlpha"/>
<feOffset/>
<feGaussianBlur stdDeviation="6"/>
<feComposite in2="hardAlpha" operator="out"/>
<feColorMatrix type="matrix" values="0 0 0 0 0.725532 0 0 0 0 0.721389 0 0 0 0 0.816667 0 0 0 0.2 0"/>
<feBlend mode="normal" in2="BackgroundImageFix" result="effect1_dropShadow_7_3207"/>
<feBlend mode="normal" in="SourceGraphic" in2="effect1_dropShadow_7_3207" result="shape"/>
</filter>
<filter id="filter4_d_7_3207" x="202" y="88" width="202" height="92" filterUnits="userSpaceOnUse" color-interpolation-filters="sRGB">
<feFlood flood-opacity="0" result="BackgroundImageFix"/>
<feColorMatrix in="SourceAlpha" type="matrix" values="0 0 0 0 0 0 0 0 0 0 0 0 0 0 0 0 0 0 127 0" result="hardAlpha"/>
<feOffset/>
<feGaussianBlur stdDeviation="6"/>
<feComposite in2="hardAlpha" operator="out"/>
<feColorMatrix type="matrix" values="0 0 0 0 0.725532 0 0 0 0 0.721389 0 0 0 0 0.816667 0 0 0 0.2 0"/>
<feBlend mode="normal" in2="BackgroundImageFix" result="effect1_dropShadow_7_3207"/>
<feBlend mode="normal" in="SourceGraphic" in2="effect1_dropShadow_7_3207" result="shape"/>
</filter>
<filter id="filter5_d_7_3207" x="8" y="176" width="105.75" height="92" filterUnits="userSpaceOnUse" color-interpolation-filters="sRGB">
<feFlood flood-opacity="0" result="BackgroundImageFix"/>
<feColorMatrix in="SourceAlpha" type="matrix" values="0 0 0 0 0 0 0 0 0 0 0 0 0 0 0 0 0 0 127 0" result="hardAlpha"/>
<feOffset/>
<feGaussianBlur stdDeviation="6"/>
<feComposite in2="hardAlpha" operator="out"/>
<feColorMatrix type="matrix" values="0 0 0 0 0.725532 0 0 0 0 0.721389 0 0 0 0 0.816667 0 0 0 0.2 0"/>
<feBlend mode="normal" in2="BackgroundImageFix" result="effect1_dropShadow_7_3207"/>
<feBlend mode="normal" in="SourceGraphic" in2="effect1_dropShadow_7_3207" result="shape"/>
</filter>
<filter id="filter6_d_7_3207" x="114.625" y="176" width="196.5" height="92" filterUnits="userSpaceOnUse" color-interpolation-filters="sRGB">
<feFlood flood-opacity="0" result="BackgroundImageFix"/>
<feColorMatrix in="SourceAlpha" type="matrix" values="0 0 0 0 0 0 0 0 0 0 0 0 0 0 0 0 0 0 127 0" result="hardAlpha"/>
<feOffset/>
<feGaussianBlur stdDeviation="6"/>
<feComposite in2="hardAlpha" operator="out"/>
<feColorMatrix type="matrix" values="0 0 0 0 0.725532 0 0 0 0 0.721389 0 0 0 0 0.816667 0 0 0 0.2 0"/>
<feBlend mode="normal" in2="BackgroundImageFix" result="effect1_dropShadow_7_3207"/>
<feBlend mode="normal" in="SourceGraphic" in2="effect1_dropShadow_7_3207" result="shape"/>
</filter>
<filter id="filter7_d_7_3207" x="312" y="176" width="92" height="92" filterUnits="userSpaceOnUse" color-interpolation-filters="sRGB">
<feFlood flood-opacity="0" result="BackgroundImageFix"/>
<feColorMatrix in="SourceAlpha" type="matrix" values="0 0 0 0 0 0 0 0 0 0 0 0 0 0 0 0 0 0 127 0" result="hardAlpha"/>
<feOffset/>
<feGaussianBlur stdDeviation="6"/>
<feComposite in2="hardAlpha" operator="out"/>
<feColorMatrix type="matrix" values="0 0 0 0 0.725532 0 0 0 0 0.721389 0 0 0 0 0.816667 0 0 0 0.2 0"/>
<feBlend mode="normal" in2="BackgroundImageFix" result="effect1_dropShadow_7_3207"/>
<feBlend mode="normal" in="SourceGraphic" in2="effect1_dropShadow_7_3207" result="shape"/>
</filter>
<radialGradient id="paint0_radial_7_3207" cx="0" cy="0" r="1" gradientUnits="userSpaceOnUse" gradientTransform="translate(44.4158 61.4165) rotate(-57.0915) scale(33.9591)">
<stop stop-color="#0099FF"/>
<stop offset="0.609754" stop-color="#A033FF"/>
<stop offset="0.934823" stop-color="#FF5280"/>
<stop offset="1" stop-color="#FF7061"/>
</radialGradient>
<linearGradient id="paint1_linear_7_3207" x1="253.021" y1="123.399" x2="238.43" y2="138.99" gradientUnits="userSpaceOnUse">
<stop stop-color="white"/>
<stop offset="1"/>
</linearGradient>
<linearGradient id="paint2_linear_7_3207" x1="164.962" y1="212.533" x2="160.974" y2="219.107" gradientUnits="userSpaceOnUse">
<stop stop-color="#2D862D"/>
<stop offset="1" stop-color="#B34A00"/>
</linearGradient>
<clipPath id="clip0_7_3207">
<rect width="141.167" height="25.6667" fill="white" transform="translate(135.417 36.8335)"/>
</clipPath>
<clipPath id="clip1_7_3207">
<rect width="147" height="30.25" fill="white" transform="translate(35 119.333)"/>
</clipPath>
<clipPath id="clip2_7_3207">
<rect width="151" height="26.5833" fill="white" transform="translate(227 121.167)"/>
</clipPath>
<clipPath id="clip3_7_3207">
<rect width="42.075" height="33.9167" fill="white" transform="translate(39.4248 204.583)"/>
</clipPath>
<clipPath id="clip4_7_3207">
<rect width="149.497" height="29.3333" fill="white" transform="translate(138.625 207.333)"/>
</clipPath>
</defs>
</svg>
