<svg width="572" height="268" viewBox="0 0 572 268" fill="none" xmlns="http://www.w3.org/2000/svg">
<g filter="url(#filter0_d_7_1720)">
<path d="M80 32C80 20.9543 88.9543 12 100 12H128C139.046 12 148 20.9543 148 32V60C148 71.0457 139.046 80 128 80H100C88.9543 80 80 71.0457 80 60V32Z" fill="white" shape-rendering="crispEdges"/>
<path d="M129.584 45.9998C129.584 54.6063 122.607 61.5832 114 61.5832C105.394 61.5832 98.417 54.6063 98.417 45.9998C98.417 37.3934 105.394 30.4165 114 30.4165C122.607 30.4165 129.584 37.3934 129.584 45.9998Z" fill="url(#paint0_radial_7_1720)"/>
<path fill-rule="evenodd" clip-rule="evenodd" d="M103.611 45.6881C103.611 39.8977 108.148 35.6108 114 35.6108C119.853 35.6108 124.389 39.8977 124.389 45.6881C124.389 51.4784 119.853 55.7653 114 55.7653C112.949 55.7653 111.941 55.6265 110.993 55.366C110.809 55.3153 110.613 55.3296 110.438 55.4067L108.376 56.317C107.837 56.5551 107.228 56.1715 107.21 55.5821L107.153 53.7341C107.146 53.5064 107.044 53.2936 106.874 53.1417C104.853 51.334 103.611 48.7168 103.611 45.6881ZM110.813 43.7935L107.762 48.6351C107.469 49.0998 108.04 49.6234 108.478 49.2914L111.756 46.8035C111.977 46.6352 112.284 46.6343 112.506 46.8013L114.934 48.6218C115.662 49.1681 116.702 48.9763 117.187 48.2061L120.239 43.3644C120.532 42.8997 119.96 42.3761 119.523 42.7081L116.245 45.196C116.023 45.3643 115.717 45.3652 115.494 45.1981L113.067 43.3777C112.338 42.8315 111.299 43.0232 110.813 43.7935Z" fill="white"/>
</g>
<g filter="url(#filter1_d_7_1720)">
<path d="M203.417 32C203.417 20.9543 212.371 12 223.417 12H348.584C359.629 12 368.584 20.9543 368.584 32V60C368.584 71.0457 359.629 80 348.584 80H223.417C212.371 80 203.417 71.0457 203.417 60V32Z" fill="white" shape-rendering="crispEdges"/>
<g clip-path="url(#clip0_7_1720)">
<path d="M311.338 55.4602H324.079V52.6002H315.681C316.84 47.9068 323.934 46.8802 323.934 41.6735C323.934 38.8868 322.052 36.8335 318.07 36.8335C315.609 36.8335 313.437 37.5668 311.989 38.3002L312.858 40.9402C314.161 40.2802 315.681 39.6935 317.564 39.6935C319.012 39.6935 320.387 40.3535 320.387 42.0402C320.387 45.8535 312.062 46.1468 311.338 55.4602ZM324.441 50.9135H332.621V55.4602H335.879V50.9135H338.63V48.1268H335.879V36.8335H333.49L324.441 48.7135V50.9135ZM328.133 48.2735L332.766 41.9668C332.766 42.4802 332.621 44.0935 332.621 45.5602V48.2002H330.45C329.798 48.2002 328.567 48.2735 328.133 48.2735Z" fill="#005893"/>
<path d="M218.819 52.6734V46.8801H220.195C221.426 46.8801 222.439 47.0267 223.163 47.4667C223.887 47.9067 224.321 48.6401 224.321 49.8134C224.321 51.7934 223.163 52.6734 220.412 52.6734H218.819ZM215.489 55.4601H220.34C225.769 55.4601 227.724 53.0401 227.724 49.6667C227.724 47.3934 226.783 45.8534 225.118 44.9734C223.815 44.2401 222.15 44.0201 220.123 44.0201H218.819V39.6201H226.131L227 36.9067H215.417V55.4601H215.489ZM229.968 55.4601H233.153L237.28 49.4467C238.076 48.3467 238.655 47.2467 239.017 46.6601H239.09C239.017 47.4667 238.945 48.4934 238.945 49.5201V55.3867H242.202V42.1867H239.017L234.891 48.2001C234.167 49.3001 233.515 50.4001 233.153 50.9867H233.081C233.153 50.1801 233.226 49.1534 233.226 48.1267V42.2601H229.968V55.4601ZM247.777 55.4601H251.107V44.9734H255.016L255.885 42.1867H243.795V44.9734H247.777V55.4601ZM257.043 62.1334H260.301V55.4601C260.952 55.6801 261.604 55.7534 262.328 55.7534C266.454 55.7534 269.133 52.8934 269.133 48.7867C269.133 44.5334 266.671 41.8201 261.966 41.8201C260.156 41.8201 258.419 42.1867 256.971 42.6267V62.1334H257.043ZM260.301 52.6001V44.8267C260.808 44.6801 261.242 44.6067 261.821 44.6067C264.21 44.6067 265.73 45.9267 265.73 48.7867C265.73 51.3534 264.5 52.9667 262.038 52.9667C261.387 52.9667 260.88 52.8201 260.301 52.6001ZM271.087 55.4601H274.273L278.399 49.4467C279.195 48.3467 279.775 47.2467 280.136 46.6601H280.209C280.136 47.4667 280.064 48.4934 280.064 49.5201V55.3867H283.322V42.1867H280.136L276.01 48.2001C275.286 49.3001 274.635 50.4001 274.273 50.9867H274.2C274.273 50.1801 274.345 49.1534 274.345 48.1267V42.2601H271.087V55.4601ZM285.928 55.4601H289.258V49.9601H291.213C291.575 49.9601 291.937 50.3267 292.371 51.2067L294.036 55.4601H297.583L295.194 50.4001C294.76 49.5201 294.326 49.0067 293.674 48.7867V48.7134C294.76 48.0534 294.905 46.1467 295.556 45.1934C295.773 44.9001 296.063 44.7534 296.497 44.7534C296.715 44.7534 297.004 44.7534 297.221 44.9001V42.0401C296.859 41.8934 296.208 41.8201 295.846 41.8201C294.688 41.8201 293.964 42.2601 293.457 42.9934C292.371 44.6067 292.371 47.3934 290.778 47.3934H289.258V42.1867H285.928V55.4601ZM304.967 55.7534C306.777 55.7534 308.442 55.1667 309.456 54.4334L308.515 52.1601C307.573 52.6734 306.705 53.0401 305.474 53.0401C303.23 53.0401 301.782 51.5734 301.782 48.8601C301.782 46.4401 303.23 44.5334 305.691 44.5334C306.994 44.5334 307.935 44.9001 308.877 45.5601V42.7001C308.153 42.2601 306.994 41.8201 305.329 41.8201C301.42 41.8201 298.38 44.7534 298.38 48.9334C298.38 52.7467 300.696 55.7534 304.967 55.7534Z" fill="#0BBBEF"/>
<path d="M349.417 50.9137C352.964 50.9137 355.86 47.9804 355.86 44.387C355.86 40.7937 352.964 37.8604 349.417 37.8604C345.869 37.8604 342.974 40.7937 342.974 44.387C343.046 47.9804 345.869 50.9137 349.417 50.9137Z" stroke="#005893" stroke-width="1.7688"/>
<path d="M353.471 44.3868H349.924V40.7935H348.982V45.3401H353.471V44.3868Z" fill="#005893"/>
</g>
</g>
<g filter="url(#filter2_d_7_1720)">
<path d="M424 32C424 20.9543 432.954 12 444 12H472C483.046 12 492 20.9543 492 32V60C492 71.0457 483.046 80 472 80H444C432.954 80 424 71.0457 424 60V32Z" fill="white" shape-rendering="crispEdges"/>
<path d="M458.085 30.4165H458.014C449.401 30.4165 442.418 37.4012 442.418 46.0173V46.0886C442.418 54.7047 449.401 61.6894 458.014 61.6894H458.085C466.699 61.6894 473.682 54.7047 473.682 46.0886V46.0173C473.682 37.4012 466.699 30.4165 458.085 30.4165Z" fill="#00E510"/>
<path d="M461.095 50.6262C457.094 50.6262 453.839 47.3688 453.838 43.3664C453.839 42.3519 454.665 41.5269 455.677 41.5269C455.781 41.5269 455.884 41.5356 455.983 41.5532C456.199 41.5893 456.405 41.6627 456.595 41.7734C456.622 41.7898 456.641 41.8161 456.645 41.8468L457.068 44.5125C457.073 44.5443 457.064 44.5749 457.043 44.5979C456.809 44.8565 456.512 45.0428 456.18 45.1359L456.02 45.1808L456.08 45.3353C456.625 46.7246 457.736 47.8345 459.126 48.3823L459.281 48.4436L459.325 48.2837C459.419 47.9517 459.605 47.6537 459.863 47.4203C459.882 47.4028 459.907 47.394 459.932 47.394C459.938 47.394 459.943 47.394 459.95 47.3951L462.615 47.818C462.646 47.8235 462.673 47.841 462.689 47.8684C462.799 48.058 462.872 48.265 462.909 48.482C462.927 48.5784 462.935 48.6803 462.935 48.7866C462.935 49.8 462.11 50.6251 461.095 50.6262Z" fill="#FDFDFD"/>
<path d="M468.191 45.1745C467.975 42.7356 466.858 40.4731 465.045 38.8044C463.222 37.1259 460.856 36.2012 458.382 36.2012C452.951 36.2012 448.532 40.621 448.532 46.0532C448.532 47.8763 449.035 49.6524 449.987 51.1994L447.864 55.8997L454.661 55.1755C455.843 55.6598 457.093 55.9052 458.38 55.9052C458.719 55.9052 459.066 55.8877 459.414 55.8515C459.721 55.8186 460.031 55.7704 460.336 55.7091C464.883 54.7898 468.203 50.7524 468.23 46.1058V46.0532C468.23 45.7574 468.216 45.4615 468.19 45.1745H468.191ZM454.923 53.1124L451.162 53.5134L452.285 51.0252L452.06 50.7239C452.044 50.702 452.028 50.6801 452.009 50.6549C451.034 49.3083 450.519 47.7175 450.519 46.0543C450.519 41.7177 454.046 38.1898 458.382 38.1898C462.443 38.1898 465.886 41.3595 466.217 45.4057C466.235 45.6226 466.245 45.8406 466.245 46.0554C466.245 46.1167 466.244 46.177 466.243 46.2416C466.159 49.8693 463.626 52.9502 460.081 53.7347C459.811 53.795 459.534 53.841 459.258 53.8706C458.971 53.9035 458.676 53.9199 458.384 53.9199C457.342 53.9199 456.33 53.7183 455.374 53.3195C455.268 53.2767 455.163 53.2307 455.066 53.1836L454.924 53.1146L454.923 53.1124Z" fill="#FDFDFD"/>
</g>
<g filter="url(#filter3_d_7_1720)">
<path d="M80 120C80 108.954 88.9543 100 100 100H238C249.046 100 258 108.954 258 120V148C258 159.046 249.046 168 238 168H100C88.9543 168 80 159.046 80 148V120Z" fill="white" shape-rendering="crispEdges"/>
<g clip-path="url(#clip1_7_1720)">
<mask id="mask0_7_1720" style="mask-type:luminance" maskUnits="userSpaceOnUse" x="95" y="128" width="124" height="22">
<path d="M169.03 131.653C166.631 131.653 164.785 132.849 163.82 134.549H174.306C173.459 132.774 171.79 131.653 169.03 131.653ZM151.808 132.525H146.531C146.506 136.188 146.296 139.565 144.929 142.762H151.808V132.525ZM112.432 132.014C109.143 132.014 106.476 134.443 106.476 137.429C106.476 140.415 109.152 142.845 112.432 142.845C115.712 142.845 118.388 140.415 118.388 137.429C118.388 134.443 115.712 132.014 112.432 132.014ZM205.654 128.374V136.903L213.238 128.374H218.279L210.554 137.076L218.732 146.478H213.54L205.654 137.414V146.478H201.435V128.374H205.654ZM191.276 128.253C194.019 128.253 196.528 129.103 198.357 130.645L195.471 133.345C194.431 132.465 192.946 131.961 191.276 131.961C187.988 131.961 185.321 134.436 185.321 137.384C185.321 140.333 187.996 142.807 191.276 142.807C192.879 142.807 194.28 142.318 195.572 141.363L198.256 144.229C196.209 145.748 193.86 146.515 191.276 146.515C185.664 146.515 181.101 142.424 181.101 137.384C181.101 132.345 185.664 128.253 191.276 128.253ZM112.432 128.298C118.044 128.298 122.607 132.39 122.607 137.422C122.607 142.454 118.044 146.553 112.432 146.553C107.533 146.553 103.431 143.424 102.466 139.28H99.2111V146.478H95V128.374H99.2195V135.572H102.474C103.431 131.427 107.533 128.298 112.432 128.298ZM129.939 128.185C133.152 128.185 135.945 129.908 135.945 132.691C135.945 134.601 134.619 135.842 132.833 136.579C134.821 137.234 136.406 138.678 136.406 140.979C136.406 143.973 133.311 146.56 129.746 146.56C126.558 146.56 124.536 145.101 123.236 143.883L126.122 141.047C126.969 141.762 127.951 142.755 129.469 142.755C131.247 142.755 132.128 141.732 132.128 140.408C132.128 138.873 130.736 137.836 127.716 138.339V135.669C130.937 135.526 131.591 134.458 131.591 133.481C131.591 132.51 130.677 131.721 129.469 131.721C128.345 131.721 127.414 132.164 126.642 132.916L123.614 130.337C125.149 128.938 127.439 128.185 129.939 128.185ZM169.03 128.058C174.021 128.058 177.896 130.825 178.895 135.113C179.046 135.76 179.063 137.038 178.903 137.978H163.107C163.384 140.776 165.607 143.085 169.03 143.085C172.217 143.085 173.879 141.423 174.927 140.032L178.299 141.942C176.403 144.259 174.113 146.711 169.021 146.711C163.409 146.711 158.846 142.529 158.846 137.384C158.863 132.24 163.426 128.058 169.03 128.058ZM156.019 128.81V142.755H158.125V149.494H153.905V146.47H142.354V149.494H138.134V142.755H140.307C142.211 139.535 142.32 135.985 142.32 130.698V128.81H156.019Z" fill="white"/>
</mask>
<g mask="url(#mask0_7_1720)">
<mask id="mask1_7_1720" style="mask-type:luminance" maskUnits="userSpaceOnUse" x="95" y="119" width="147" height="31">
<path d="M241.727 119.333H95V149.494H241.727V119.333Z" fill="white"/>
</mask>
<g mask="url(#mask1_7_1720)">
<path d="M222.838 124.319H90.8936V153.233H222.838V124.319Z" fill="#2B2B2B"/>
</g>
</g>
<mask id="mask2_7_1720" style="mask-type:luminance" maskUnits="userSpaceOnUse" x="220" y="119" width="22" height="20">
<path d="M231.807 119.338C225.709 119.166 220.733 123.587 220.927 128.987C221.104 133.879 225.6 137.873 231.115 138.023C237.213 138.195 242.189 133.774 241.995 128.374C241.818 123.482 237.323 119.495 231.807 119.338ZM231.461 133.356C228.551 133.356 226.19 131.261 226.19 128.681C226.19 126.1 228.551 124.006 231.461 124.006C234.371 124.006 236.732 126.1 236.732 128.681C236.732 131.261 234.371 133.356 231.461 133.356Z" fill="white"/>
</mask>
<g mask="url(#mask2_7_1720)">
<mask id="mask3_7_1720" style="mask-type:luminance" maskUnits="userSpaceOnUse" x="94" y="119" width="149" height="31">
<path d="M242.001 119.333H94.4531V149.244H242.001V119.333Z" fill="white"/>
</mask>
<g mask="url(#mask3_7_1720)">
<mask id="mask4_7_1720" style="mask-type:luminance" maskUnits="userSpaceOnUse" x="220" y="119" width="22" height="20">
<path d="M242 119.333H220.101V138.776H242V119.333Z" fill="white"/>
</mask>
<g mask="url(#mask4_7_1720)">
<mask id="mask5_7_1720" style="mask-type:luminance" maskUnits="userSpaceOnUse" x="220" y="119" width="22" height="20">
<path d="M241.999 119.333H220.1V138.776H241.999V119.333Z" fill="white"/>
</mask>
<g mask="url(#mask5_7_1720)">
<path d="M246.379 115.595H216.814V141.767H246.379V115.595Z" fill="#FA002D"/>
</g>
</g>
<mask id="mask6_7_1720" style="mask-type:luminance" maskUnits="userSpaceOnUse" x="220" y="119" width="22" height="20">
<path d="M242 119.333H220.101V138.776H242V119.333Z" fill="white"/>
</mask>
<g mask="url(#mask6_7_1720)">
<mask id="mask7_7_1720" style="mask-type:luminance" maskUnits="userSpaceOnUse" x="220" y="119" width="22" height="20">
<path d="M242 121.203L239.892 119.333L231.461 126.811L223.03 119.333L220.922 121.203L229.353 128.681L220.922 136.158L223.03 138.028L231.461 130.55L239.892 138.028L242 136.158L233.569 128.681L242 121.203Z" fill="white"/>
</mask>
<g mask="url(#mask7_7_1720)">
<mask id="mask8_7_1720" style="mask-type:luminance" maskUnits="userSpaceOnUse" x="220" y="119" width="22" height="20">
<path d="M241.999 119.333H220.1V138.776H241.999V119.333Z" fill="white"/>
</mask>
<g mask="url(#mask8_7_1720)">
<path d="M246.379 115.595H216.814V141.767H246.379V115.595Z" fill="white"/>
</g>
</g>
</g>
</g>
</g>
</g>
</g>
<g filter="url(#filter4_d_7_1720)">
<path d="M314 120C314 108.954 322.954 100 334 100H472C483.046 100 492 108.954 492 120V148C492 159.046 483.046 168 472 168H334C322.954 168 314 159.046 314 148V120Z" fill="white" shape-rendering="crispEdges"/>
<g clip-path="url(#clip2_7_1720)">
<mask id="mask9_7_1720" style="mask-type:luminance" maskUnits="userSpaceOnUse" x="327" y="121" width="151" height="27">
<path d="M478 121.167H327V147.75H478V121.167Z" fill="white"/>
</mask>
<g mask="url(#mask9_7_1720)">
<path fill-rule="evenodd" clip-rule="evenodd" d="M333.728 121.866H348.679C351.968 121.866 354.659 124.384 354.659 127.462V141.454C354.659 144.532 351.968 147.05 348.679 147.05H333.728C330.439 147.05 327.748 144.532 327.748 141.454V127.462C327.748 124.384 330.439 121.866 333.728 121.866Z" fill="#E53E0D"/>
</g>
<mask id="mask10_7_1720" style="mask-type:luminance" maskUnits="userSpaceOnUse" x="327" y="121" width="28" height="27">
<mask id="mask11_7_1720" style="mask-type:luminance" maskUnits="userSpaceOnUse" x="327" y="121" width="151" height="27">
<path d="M478 121.167H327V147.75H478V121.167Z" fill="white"/>
</mask>
<g mask="url(#mask11_7_1720)">
<path d="M354.659 121.866H327.748V147.05H354.659V121.866Z" fill="url(#paint1_linear_7_1720)"/>
</g>
</mask>
<g mask="url(#mask10_7_1720)">
<mask id="mask12_7_1720" style="mask-type:luminance" maskUnits="userSpaceOnUse" x="327" y="121" width="151" height="27">
<path d="M478 121.167H327V147.75H478V121.167Z" fill="white"/>
</mask>
<g mask="url(#mask12_7_1720)">
<path fill-rule="evenodd" clip-rule="evenodd" d="M333.728 121.866H348.679C351.968 121.866 354.659 124.384 354.659 127.462V141.454C354.659 144.532 351.968 147.05 348.679 147.05H333.728C330.439 147.05 327.748 144.532 327.748 141.454V127.462C327.748 124.384 330.439 121.866 333.728 121.866Z" fill="#DD1D1D"/>
</g>
</g>
<mask id="mask13_7_1720" style="mask-type:luminance" maskUnits="userSpaceOnUse" x="327" y="121" width="151" height="27">
<path d="M478 121.167H327V147.75H478V121.167Z" fill="white"/>
</mask>
<g mask="url(#mask13_7_1720)">
<path fill-rule="evenodd" clip-rule="evenodd" d="M338.213 142.853H345.688V138.655H339.708C338.063 138.655 336.717 137.396 336.717 135.857V130.261H332.232V137.256C332.232 140.335 334.924 142.853 338.213 142.853Z" fill="white"/>
</g>
<mask id="mask14_7_1720" style="mask-type:luminance" maskUnits="userSpaceOnUse" x="327" y="121" width="151" height="27">
<path d="M478 121.167H327V147.75H478V121.167Z" fill="white"/>
</mask>
<g mask="url(#mask14_7_1720)">
<path fill-rule="evenodd" clip-rule="evenodd" d="M344.193 126.063H336.718V130.261H342.698C344.342 130.261 345.688 131.52 345.688 133.059V138.656H350.173V131.66C350.173 128.582 347.482 126.063 344.193 126.063Z" fill="white"/>
</g>
<mask id="mask15_7_1720" style="mask-type:luminance" maskUnits="userSpaceOnUse" x="327" y="121" width="151" height="27">
<path d="M478 121.167H327V147.75H478V121.167Z" fill="white"/>
</mask>
<g mask="url(#mask15_7_1720)">
<path fill-rule="evenodd" clip-rule="evenodd" d="M389.045 131.659C391.512 131.659 393.53 133.548 393.53 135.857C393.53 138.165 391.512 140.054 389.045 140.054C386.578 140.054 384.56 138.165 384.56 135.857C384.56 133.548 386.578 131.659 389.045 131.659ZM389.045 127.462C393.979 127.462 398.016 131.24 398.016 135.857V144.252H393.53V143.119C392.209 143.838 390.676 144.252 389.045 144.252C384.111 144.252 380.075 140.474 380.075 135.857C380.075 131.24 384.111 127.462 389.045 127.462ZM472.361 134.108C471.652 132.663 470.093 131.659 468.283 131.659C466.472 131.659 464.913 132.663 464.204 134.108H472.361ZM468.283 127.462C473.236 127.462 477.253 131.22 477.253 135.857C477.253 136.457 477.185 137.042 477.057 137.606H476.197H472.361H464.204C464.913 139.05 466.472 140.054 468.283 140.054C469.482 140.054 470.571 139.614 471.376 138.896L475.67 140.619C474.052 142.813 471.347 144.252 468.282 144.252C463.328 144.252 459.312 140.493 459.312 135.857C459.312 131.22 463.328 127.462 468.283 127.462ZM401.005 123.265H405.491V144.252H401.005V123.265ZM417.825 135.857L424.926 144.252H419.32L412.966 136.74V144.252H408.481V123.265H412.966V134.973L419.32 127.462H424.926L417.825 135.857ZM425.674 134.458H430.159V138.655H425.674V134.458ZM447.726 127.462H451.09C454.379 127.462 457.07 129.981 457.07 133.058V144.252H452.585V133.525C452.585 132.499 451.687 131.659 450.592 131.659H447.909C448.033 132.107 448.099 132.576 448.099 133.059V144.252H443.614V133.525C443.614 132.499 442.717 131.659 441.621 131.659H439.129V144.252H434.643V127.462H442.119C444.679 127.462 446.877 128.988 447.725 131.116V127.462H447.726ZM369.609 123.265H374.094V127.462H378.579V131.659H374.094V137.256C374.094 138.794 375.441 140.054 377.084 140.054H378.58V144.252H375.589C372.301 144.252 369.609 141.733 369.609 138.655V131.659H365.124V127.462H367.367C368.6 127.462 369.609 126.518 369.609 125.363V123.265Z" fill="#2B2B2B"/>
</g>
</g>
</g>
<g filter="url(#filter5_d_7_1720)">
<path d="M80 208C80 196.954 88.9543 188 100 188H141.75C152.796 188 161.75 196.954 161.75 208V236C161.75 247.046 152.796 256 141.75 256H100C88.9543 256 80 247.046 80 236V208Z" fill="white" shape-rendering="crispEdges"/>
<g clip-path="url(#clip3_7_1720)">
<path fill-rule="evenodd" clip-rule="evenodd" d="M111.139 215.76H109.467C109.293 215.773 109.128 215.856 109.005 215.993C108.882 216.13 108.807 216.313 108.796 216.507V230.531C108.795 230.63 108.813 230.727 108.848 230.818C108.882 230.908 108.933 230.99 108.997 231.058C109.057 231.13 109.13 231.188 109.211 231.227C109.292 231.266 109.379 231.285 109.467 231.284H111.14C111.225 231.283 111.309 231.262 111.386 231.223C111.464 231.185 111.533 231.128 111.59 231.058C111.659 230.994 111.714 230.913 111.751 230.822C111.788 230.73 111.807 230.631 111.805 230.531V216.513C111.802 216.417 111.781 216.323 111.744 216.237C111.707 216.15 111.655 216.072 111.59 216.009C111.537 215.932 111.469 215.869 111.391 215.826C111.312 215.783 111.226 215.761 111.139 215.76ZM126.4 215.798H125.05C124.874 215.758 124.691 215.777 124.524 215.854C124.358 215.93 124.216 216.061 124.117 216.228L120.261 225.718H120.194L116.519 216.228C116.471 216.095 116.387 215.983 116.279 215.906C116.171 215.829 116.043 215.791 115.915 215.798H114.095C113.992 215.784 113.888 215.801 113.794 215.848C113.699 215.894 113.618 215.968 113.558 216.062C113.51 216.155 113.488 216.262 113.494 216.369C113.5 216.476 113.534 216.578 113.591 216.665L119.567 231.255C119.62 231.381 119.706 231.487 119.814 231.557C119.922 231.627 120.047 231.658 120.172 231.646H120.355C120.474 231.65 120.592 231.615 120.693 231.546C120.794 231.476 120.875 231.375 120.926 231.255L126.902 216.665C126.959 216.579 126.992 216.476 126.998 216.37C127.004 216.263 126.982 216.156 126.935 216.063C126.874 215.971 126.793 215.899 126.699 215.852C126.605 215.806 126.503 215.787 126.4 215.798V215.798ZM134.487 215.445C133.554 215.431 132.629 215.636 131.771 216.046C130.914 216.456 130.143 217.062 129.51 217.825C128.842 218.569 128.315 219.454 127.96 220.428C127.604 221.402 127.428 222.446 127.441 223.497C127.416 225.635 128.156 227.697 129.497 229.229C130.13 229.991 130.898 230.6 131.753 231.016C132.608 231.432 133.531 231.647 134.464 231.647C135.397 231.647 136.32 231.432 137.175 231.016C138.03 230.6 138.798 229.991 139.431 229.229C140.1 228.473 140.627 227.577 140.983 226.593C141.338 225.609 141.514 224.556 141.5 223.495C141.513 222.444 141.337 221.401 140.981 220.427C140.626 219.453 140.099 218.567 139.431 217.824C138.803 217.064 138.038 216.46 137.186 216.05C136.335 215.64 135.415 215.434 134.487 215.445ZM137.409 227.036C137.035 227.484 136.582 227.841 136.078 228.086C135.575 228.33 135.031 228.458 134.482 228.46C133.932 228.462 133.388 228.339 132.883 228.098C132.378 227.857 131.923 227.504 131.545 227.059C130.747 226.092 130.32 224.816 130.357 223.504C130.324 222.22 130.752 220.973 131.545 220.039C131.92 219.591 132.376 219.236 132.883 218.997C133.39 218.758 133.937 218.641 134.487 218.653C135.035 218.638 135.58 218.753 136.084 218.992C136.588 219.232 137.04 219.589 137.409 220.039C137.802 220.502 138.11 221.046 138.314 221.64C138.517 222.235 138.614 222.868 138.598 223.504C138.62 224.807 138.195 226.07 137.409 227.036ZM104.859 215.76H100.096C100.01 215.765 99.9256 215.788 99.8482 215.83C99.7709 215.871 99.7019 215.93 99.6455 216.002C99.5802 216.066 99.5275 216.145 99.4906 216.233C99.4537 216.321 99.4333 216.417 99.4309 216.514V218.39C99.4329 218.489 99.4529 218.587 99.4898 218.677C99.5267 218.768 99.5797 218.849 99.6455 218.917C99.7034 218.986 99.7729 219.041 99.8502 219.08C99.9274 219.119 100.011 219.14 100.096 219.143H102.514V232.647C102.517 233.25 102.322 233.834 101.966 234.289C101.61 234.743 101.117 235.038 100.579 235.117H100.096C99.9181 235.123 99.7495 235.204 99.6246 235.345C99.4997 235.485 99.4282 235.673 99.4248 235.871V237.746C99.426 237.941 99.4911 238.129 99.6077 238.274C99.6692 238.347 99.7442 238.406 99.8276 238.445C99.911 238.484 100.001 238.502 100.091 238.499H100.327C101.65 238.492 102.92 237.924 103.88 236.911C104.839 235.897 105.416 234.516 105.492 233.046C105.511 232.93 105.52 232.811 105.518 232.692V216.513C105.519 216.415 105.501 216.317 105.467 216.227C105.432 216.136 105.381 216.054 105.317 215.986C105.26 215.913 105.19 215.856 105.111 215.816C105.032 215.777 104.946 215.758 104.859 215.76Z" fill="#0B1F35"/>
<path fill-rule="evenodd" clip-rule="evenodd" d="M99.4656 204.583C99.0491 213.388 105.497 214.639 105.497 214.639C105.175 204.997 99.4656 204.583 99.4656 204.583Z" fill="#1BC339"/>
</g>
</g>
<g filter="url(#filter6_d_7_1720)">
<path d="M206.625 208C206.625 196.954 215.579 188 226.625 188H359.125C370.171 188 379.125 196.954 379.125 208V236C379.125 247.046 370.171 256 359.125 256H226.625C215.579 256 206.625 247.046 206.625 236V208Z" fill="white" shape-rendering="crispEdges"/>
<g clip-path="url(#clip4_7_1720)">
<path d="M245.375 226.794V218.842C245.374 218.842 245.377 218.842 245.377 218.842C245.377 217.581 246.118 217.399 246.511 217.373C247.325 217.321 248.533 217.459 250.229 217.816C250.914 217.961 251.627 217.712 252.034 217.185C252.442 216.659 252.463 215.959 252.089 215.412C251.975 215.246 251.855 215.091 251.728 214.946C251.943 214.761 252.107 214.525 252.198 214.255C252.407 213.635 252.186 212.961 251.64 212.55C251.296 212.291 250.938 212.089 250.575 211.933L250.576 211.918C250.606 211.203 250.113 210.557 249.372 210.338C248.23 210.001 247.154 210.037 246.244 210.237C245.736 209.097 244.929 208.348 244.162 208.018C243.604 207.778 242.95 207.826 242.442 208.146C242.055 208.389 241.798 208.761 241.715 209.174C240.921 208.835 240.15 208.727 239.538 208.783C238.939 208.837 238.414 209.171 238.148 209.666C237.883 210.162 237.915 210.748 238.234 211.217C238.459 211.547 238.775 212.139 238.939 212.743C239.118 213.401 238.576 213.787 237.997 213.787L237.997 213.787H237.303C237.289 213.787 237.274 213.787 237.259 213.787L237.259 213.787H227.144C225.043 213.787 223.362 215.348 223.362 217.271L223.362 231.77C223.362 232.48 223.72 233.181 224.414 233.616L224.428 233.625L224.442 233.633C225.523 234.284 227.033 234.064 227.794 233.011L229.749 230.345C229.759 230.331 229.767 230.323 229.791 230.313C229.822 230.299 229.895 230.278 230.017 230.278H241.579C243.665 230.278 245.375 228.731 245.375 226.794Z" fill="url(#paint2_linear_7_1720)"/>
<path fill-rule="evenodd" clip-rule="evenodd" d="M225.394 232.299C225.205 232.18 225.1 231.989 225.1 231.77L225.1 217.271C225.1 216.222 226.01 215.383 227.144 215.383H241.579C242.722 215.383 243.637 216.231 243.637 217.271V226.794C243.637 227.843 242.712 228.682 241.579 228.682H230.017C229.331 228.682 228.694 228.925 228.307 229.454L226.348 232.126C226.139 232.417 225.712 232.49 225.394 232.299Z" fill="#FF8833"/>
<path d="M245.13 216.038C246.255 215.583 248.102 215.731 250.617 216.261C249.895 215.205 248.748 214.808 247.39 214.674C248.249 214.114 249.848 213.839 250.537 213.784C248.958 212.595 246.792 213.141 245.97 213.541C246.671 212.883 247.943 212.054 248.839 211.857C247.125 211.351 245.574 212.068 245.012 212.49C244.906 210.569 243.909 209.671 243.424 209.462C243.472 210.102 243.472 211.609 243.084 212.527C241.941 210.661 240.356 210.312 239.707 210.371C240.19 211.08 240.921 212.561 240.757 213.787H241.579C243.209 213.787 244.59 214.725 245.13 216.038Z" fill="#5CD65C"/>
<path d="M239.641 218H229.096C228.616 218 228.227 218.358 228.227 218.8C228.227 219.242 228.616 219.6 229.096 219.6H239.641C240.121 219.6 240.511 219.242 240.511 218.8C240.511 218.358 240.121 218 239.641 218Z" fill="#B34A01"/>
<path d="M238.005 221.2H230.732C230.252 221.2 229.862 221.558 229.862 222C229.862 222.442 230.252 222.8 230.732 222.8H238.005C238.485 222.8 238.875 222.442 238.875 222C238.875 221.558 238.485 221.2 238.005 221.2Z" fill="#B34A01"/>
<path d="M235.963 224.4H232.774C232.294 224.4 231.904 224.758 231.904 225.2C231.904 225.642 232.294 226 232.774 226H235.963C236.444 226 236.833 225.642 236.833 225.2C236.833 224.758 236.444 224.4 235.963 224.4Z" fill="#B34A01"/>
<path d="M262.889 228.67C261.961 228.67 261.122 228.525 260.362 228.234C259.602 227.944 258.951 227.526 258.418 226.972C257.875 226.418 257.46 225.737 257.164 224.929C256.868 224.121 256.72 223.195 256.72 222.16C256.72 221.125 256.877 220.208 257.203 219.4C257.529 218.592 257.973 217.911 258.546 217.357C259.118 216.803 259.79 216.385 260.56 216.086C261.33 215.795 262.169 215.65 263.077 215.65C263.571 215.65 264.015 215.677 264.4 215.723C264.785 215.768 265.13 215.841 265.446 215.931C265.762 216.022 266.048 216.131 266.305 216.258C266.572 216.385 266.828 216.531 267.085 216.685V218.238H266.256C266.098 218.083 265.91 217.947 265.713 217.82C265.515 217.693 265.288 217.575 265.032 217.484C264.775 217.384 264.499 217.311 264.192 217.257C263.887 217.202 263.531 217.175 263.146 217.175C262.514 217.175 261.942 217.284 261.419 217.493C260.905 217.702 260.461 218.02 260.086 218.428C259.721 218.846 259.434 219.354 259.227 219.972C259.02 220.589 258.921 221.297 258.921 222.096C258.921 223.785 259.276 225.056 259.987 225.91C260.698 226.763 261.695 227.181 262.978 227.181C263.422 227.181 263.817 227.145 264.173 227.072C264.528 226.999 264.844 226.899 265.13 226.772C265.417 226.645 265.673 226.5 265.91 226.337C266.147 226.173 266.364 225.992 266.562 225.801H267.263V227.317C267.026 227.508 266.759 227.689 266.453 227.853C266.157 228.016 265.831 228.162 265.466 228.289C265.111 228.407 264.716 228.507 264.291 228.579C263.857 228.634 263.393 228.67 262.889 228.67Z" fill="#22252A"/>
<path d="M276.384 228.561C276.186 228.561 276.019 228.543 275.88 228.516C275.742 228.488 275.624 228.434 275.535 228.352C275.446 228.27 275.377 228.162 275.318 228.025C275.258 227.889 275.219 227.717 275.199 227.499C274.814 227.889 274.37 228.18 273.876 228.37C273.383 228.57 272.79 228.661 272.09 228.661C271.616 228.661 271.181 228.597 270.786 228.479C270.391 228.361 270.046 228.18 269.76 227.944C269.474 227.708 269.247 227.408 269.089 227.054C268.931 226.7 268.842 226.282 268.842 225.819C268.842 225.329 268.94 224.902 269.138 224.539C269.335 224.176 269.622 223.867 269.977 223.631C270.332 223.386 270.757 223.213 271.251 223.095C271.744 222.977 272.287 222.914 272.87 222.914C273.314 222.914 273.718 222.932 274.074 222.977C274.429 223.023 274.785 223.086 275.15 223.168V221.906C275.15 221.334 274.972 220.916 274.617 220.662C274.261 220.408 273.748 220.271 273.057 220.271C272.435 220.271 271.892 220.344 271.418 220.498C270.944 220.653 270.54 220.834 270.214 221.052H269.562V219.672C269.799 219.563 270.036 219.463 270.303 219.363C270.559 219.264 270.846 219.182 271.152 219.109C271.458 219.037 271.793 218.973 272.139 218.928C272.494 218.882 272.879 218.855 273.294 218.855C273.906 218.855 274.459 218.909 274.943 219.018C275.426 219.127 275.831 219.3 276.157 219.527C276.482 219.763 276.739 220.063 276.917 220.435C277.094 220.807 277.183 221.252 277.183 221.77V228.552H276.384V228.561ZM272.741 227.39C273.017 227.39 273.264 227.363 273.491 227.308C273.718 227.254 273.926 227.172 274.123 227.072C274.321 226.972 274.498 226.854 274.666 226.727C274.834 226.591 274.992 226.445 275.14 226.291V224.266C274.844 224.203 274.548 224.157 274.222 224.13C273.906 224.094 273.56 224.085 273.205 224.085C272.86 224.085 272.534 224.112 272.248 224.176C271.951 224.239 271.705 224.339 271.497 224.466C271.29 224.593 271.122 224.766 271.004 224.975C270.885 225.183 270.826 225.429 270.826 225.719C270.826 226.019 270.875 226.273 270.974 226.482C271.073 226.691 271.201 226.863 271.379 226.999C271.547 227.136 271.754 227.235 271.991 227.299C272.208 227.363 272.465 227.39 272.741 227.39Z" fill="#22252A"/>
<path d="M284.865 220.508C284.509 220.508 284.183 220.535 283.877 220.598C283.571 220.662 283.295 220.744 283.038 220.844C282.782 220.943 282.555 221.061 282.337 221.189C282.13 221.316 281.943 221.452 281.785 221.579V228.552H279.751V219.009H281.024C281.153 219.009 281.251 219.028 281.35 219.055C281.439 219.091 281.518 219.146 281.577 219.246C281.636 219.345 281.686 219.473 281.715 219.645C281.745 219.818 281.775 220.045 281.785 220.326C281.962 220.144 282.15 219.963 282.357 219.799C282.564 219.636 282.791 219.482 283.048 219.354C283.295 219.227 283.562 219.118 283.848 219.046C284.134 218.964 284.43 218.928 284.756 218.928C284.874 218.928 284.983 218.937 285.082 218.946C285.17 218.964 285.25 218.973 285.319 218.991V220.526C285.25 220.526 285.18 220.526 285.111 220.517C285.062 220.517 285.013 220.517 284.963 220.517C284.924 220.508 284.884 220.508 284.865 220.508Z" fill="#22252A"/>
<path d="M292.268 220.508C291.912 220.508 291.587 220.535 291.281 220.598C290.975 220.662 290.698 220.744 290.442 220.844C290.185 220.943 289.958 221.061 289.741 221.189C289.533 221.316 289.346 221.452 289.188 221.579V228.552H287.154V219.009H288.428C288.556 219.009 288.655 219.028 288.754 219.055C288.842 219.091 288.921 219.146 288.981 219.246C289.04 219.345 289.089 219.473 289.119 219.645C289.148 219.818 289.178 220.045 289.188 220.326C289.366 220.144 289.553 219.963 289.761 219.799C289.968 219.636 290.195 219.482 290.451 219.354C290.698 219.227 290.965 219.118 291.251 219.046C291.538 218.964 291.834 218.928 292.159 218.928C292.278 218.928 292.386 218.937 292.485 218.946C292.574 218.964 292.653 218.973 292.722 218.991V220.526C292.653 220.526 292.584 220.526 292.515 220.517C292.465 220.517 292.416 220.517 292.367 220.517C292.317 220.508 292.288 220.508 292.268 220.508Z" fill="#22252A"/>
<path d="M298.724 228.67C298.023 228.67 297.362 228.561 296.76 228.334C296.158 228.107 295.634 227.789 295.18 227.372C294.726 226.954 294.381 226.445 294.134 225.846C293.877 225.247 293.759 224.566 293.759 223.812C293.759 223.05 293.887 222.369 294.134 221.751C294.391 221.143 294.736 220.616 295.18 220.19C295.625 219.763 296.148 219.436 296.76 219.2C297.362 218.973 298.023 218.855 298.724 218.855C299.425 218.855 300.087 218.973 300.689 219.2C301.291 219.427 301.814 219.754 302.268 220.19C302.712 220.616 303.068 221.134 303.315 221.751C303.571 222.36 303.69 223.05 303.69 223.812C303.69 224.566 303.561 225.247 303.315 225.846C303.058 226.445 302.712 226.954 302.268 227.372C301.824 227.789 301.301 228.107 300.689 228.334C300.087 228.561 299.435 228.67 298.724 228.67ZM298.724 227.272C299.169 227.272 299.564 227.199 299.919 227.054C300.274 226.909 300.58 226.7 300.837 226.409C301.094 226.119 301.281 225.765 301.419 225.329C301.557 224.902 301.627 224.394 301.627 223.812C301.627 223.231 301.557 222.723 301.419 222.278C301.281 221.833 301.094 221.461 300.837 221.17C300.58 220.871 300.284 220.644 299.919 220.489C299.564 220.335 299.159 220.253 298.724 220.253C298.28 220.253 297.885 220.335 297.53 220.489C297.174 220.644 296.868 220.871 296.622 221.17C296.365 221.47 296.177 221.842 296.039 222.278C295.901 222.723 295.832 223.231 295.832 223.812C295.832 224.394 295.901 224.893 296.039 225.329C296.177 225.765 296.375 226.119 296.622 226.409C296.878 226.7 297.174 226.918 297.53 227.054C297.885 227.199 298.29 227.272 298.724 227.272Z" fill="#22252A"/>
<path d="M304.756 219.009H306.01V216.413H308.043V219.009H310.343V220.317H308.043V225.982C308.043 226.237 308.073 226.445 308.132 226.609C308.191 226.781 308.28 226.909 308.399 227.008C308.517 227.108 308.675 227.181 308.853 227.217C309.04 227.263 309.257 227.281 309.524 227.281H310.462V228.488C310.274 228.534 310.037 228.579 309.761 228.616C309.484 228.652 309.168 228.67 308.813 228.67C308.369 228.67 307.974 228.625 307.629 228.534C307.283 228.443 306.987 228.298 306.75 228.107C306.513 227.907 306.326 227.653 306.197 227.344C306.069 227.036 306.01 226.654 306.01 226.209V220.326H304.756V219.009Z" fill="#22252A"/>
<path d="M323.215 227.271C323.038 227.453 322.84 227.616 322.613 227.762C322.386 227.907 322.139 228.043 321.873 228.152C321.606 228.261 321.32 228.352 321.014 228.415C320.708 228.479 320.392 228.506 320.066 228.506C319.523 228.506 319.01 228.425 318.507 228.252C318.013 228.08 317.579 227.807 317.204 227.435C316.829 227.063 316.532 226.59 316.305 226C316.078 225.419 315.97 224.711 315.97 223.885C315.97 222.959 316.098 222.178 316.345 221.533C316.601 220.898 316.927 220.38 317.342 219.981C317.757 219.581 318.22 219.3 318.734 219.127C319.257 218.955 319.78 218.864 320.323 218.864C321.024 218.864 321.616 218.964 322.1 219.154C322.584 219.345 322.998 219.599 323.354 219.917C323.423 219.654 323.541 219.427 323.699 219.263C323.857 219.091 324.064 219.009 324.311 219.009H325.249V231.53H323.215V227.271ZM320.56 227.135C321.093 227.135 321.587 227.026 322.031 226.799C322.475 226.572 322.87 226.282 323.215 225.937V221.215C322.91 220.943 322.574 220.734 322.199 220.589C321.823 220.444 321.36 220.371 320.807 220.371C320.461 220.371 320.116 220.425 319.78 220.525C319.445 220.625 319.148 220.807 318.892 221.052C318.625 221.306 318.418 221.651 318.26 222.078C318.102 222.514 318.013 223.059 318.013 223.73C318.013 224.384 318.072 224.929 318.191 225.365C318.309 225.801 318.477 226.155 318.704 226.418C318.931 226.681 319.198 226.872 319.514 226.981C319.83 227.081 320.175 227.135 320.56 227.135Z" fill="#22252A"/>
<path d="M331.548 227.226C331.814 227.226 332.071 227.199 332.338 227.145C332.594 227.09 332.851 227.027 333.097 226.936C333.345 226.854 333.581 226.754 333.818 226.645C334.045 226.536 334.272 226.427 334.48 226.309V219H336.513V228.552H335.24C335.121 228.552 335.023 228.543 334.934 228.516C334.845 228.488 334.776 228.443 334.716 228.361C334.657 228.28 334.608 228.171 334.578 228.034C334.539 227.889 334.519 227.708 334.509 227.472C334.253 227.644 333.976 227.807 333.68 227.953C333.384 228.098 333.078 228.225 332.762 228.334C332.446 228.443 332.11 228.525 331.775 228.588C331.439 228.652 331.104 228.679 330.758 228.679C330.353 228.679 329.978 228.634 329.633 228.552C329.287 228.47 328.991 228.325 328.734 228.125C328.478 227.925 328.28 227.662 328.142 227.335C328.004 227.008 327.925 226.6 327.925 226.119V218.991H329.958V225.701C329.958 226.001 329.998 226.255 330.077 226.455C330.156 226.654 330.264 226.809 330.403 226.918C330.541 227.027 330.709 227.108 330.906 227.154C331.094 227.199 331.311 227.226 331.548 227.226Z" fill="#22252A"/>
<path d="M340.709 224.139C340.738 224.702 340.818 225.183 340.976 225.583C341.123 225.982 341.331 226.309 341.598 226.554C341.864 226.809 342.19 226.99 342.565 227.099C342.95 227.208 343.384 227.272 343.868 227.272C344.529 227.272 345.102 227.19 345.566 227.017C346.03 226.845 346.425 226.636 346.741 226.391H347.402V227.689C347.214 227.807 346.997 227.925 346.76 228.043C346.523 228.162 346.237 228.261 345.931 228.361C345.625 228.452 345.27 228.534 344.885 228.588C344.5 228.643 344.056 228.67 343.572 228.67C342.772 228.67 342.071 228.561 341.459 228.334C340.847 228.107 340.324 227.789 339.909 227.363C339.485 226.945 339.169 226.436 338.952 225.837C338.735 225.238 338.626 224.566 338.626 223.812C338.626 223.05 338.745 222.369 338.991 221.751C339.238 221.143 339.564 220.616 339.988 220.19C340.413 219.763 340.916 219.436 341.489 219.2C342.071 218.973 342.693 218.855 343.364 218.855C344.046 218.855 344.658 218.946 345.201 219.136C345.744 219.327 346.198 219.609 346.573 219.99C346.948 220.371 347.224 220.852 347.422 221.434C347.619 222.015 347.718 222.696 347.718 223.476C347.718 223.604 347.718 223.731 347.708 223.867C347.698 224.003 347.698 224.094 347.698 224.121H340.709V224.139ZM343.364 220.144C343.029 220.144 342.713 220.19 342.417 220.29C342.121 220.389 341.864 220.544 341.627 220.771C341.4 220.989 341.203 221.279 341.054 221.633C340.896 221.987 340.798 222.414 340.749 222.923H345.714C345.704 222.405 345.635 221.969 345.526 221.624C345.418 221.27 345.26 220.989 345.062 220.771C344.865 220.553 344.618 220.389 344.332 220.299C344.036 220.19 343.72 220.144 343.364 220.144Z" fill="#22252A"/>
<path d="M352.584 228.652C352.16 228.652 351.775 228.624 351.429 228.579C351.084 228.533 350.778 228.47 350.511 228.388C350.235 228.307 349.998 228.216 349.781 228.125C349.564 228.025 349.366 227.925 349.198 227.816V226.373H349.85C349.968 226.482 350.116 226.581 350.284 226.681C350.452 226.781 350.649 226.872 350.867 226.954C351.084 227.035 351.33 227.099 351.607 227.153C351.883 227.208 352.179 227.226 352.495 227.226C353.937 227.226 354.657 226.763 354.657 225.846C354.657 225.646 354.628 225.474 354.559 225.328C354.49 225.183 354.371 225.056 354.203 224.947C354.035 224.838 353.808 224.747 353.532 224.666C353.256 224.584 352.9 224.52 352.476 224.457C351.952 224.384 351.488 224.284 351.084 224.157C350.679 224.03 350.333 223.858 350.057 223.64C349.781 223.422 349.564 223.158 349.425 222.841C349.277 222.523 349.208 222.141 349.208 221.697C349.208 221.243 349.297 220.843 349.475 220.498C349.652 220.153 349.899 219.863 350.225 219.626C350.55 219.39 350.936 219.209 351.4 219.091C351.864 218.973 352.377 218.909 352.949 218.909C353.68 218.909 354.282 218.973 354.766 219.109C355.249 219.236 355.664 219.399 356 219.581V221.007H355.348C355.092 220.825 354.776 220.662 354.391 220.525C354.006 220.389 353.532 220.326 352.959 220.326C352.298 220.326 351.804 220.425 351.488 220.634C351.173 220.843 351.015 221.152 351.015 221.56C351.015 221.751 351.054 221.915 351.133 222.051C351.212 222.187 351.34 222.305 351.508 222.405C351.686 222.505 351.913 222.595 352.189 222.659C352.466 222.723 352.811 222.795 353.226 222.85C353.798 222.931 354.292 223.031 354.707 223.167C355.131 223.304 355.477 223.476 355.753 223.694C356.029 223.912 356.237 224.184 356.375 224.511C356.513 224.838 356.582 225.219 356.582 225.673C356.582 226.127 356.503 226.536 356.345 226.908C356.187 227.281 355.941 227.589 355.615 227.853C355.289 228.107 354.875 228.307 354.371 228.452C353.858 228.579 353.265 228.652 352.584 228.652Z" fill="#22252A"/>
<path d="M357.679 219.009H358.932V216.413H360.966V219.009H363.266V220.317H360.966V225.982C360.966 226.237 360.996 226.445 361.055 226.609C361.114 226.781 361.203 226.909 361.321 227.008C361.44 227.108 361.598 227.181 361.775 227.217C361.963 227.263 362.18 227.281 362.447 227.281H363.385V228.488C363.197 228.534 362.96 228.579 362.684 228.616C362.407 228.652 362.091 228.67 361.736 228.67C361.292 228.67 360.897 228.625 360.551 228.534C360.206 228.443 359.91 228.298 359.673 228.107C359.436 227.907 359.248 227.653 359.12 227.344C358.992 227.036 358.932 226.654 358.932 226.209V220.326H357.679V219.009Z" fill="#22252A"/>
</g>
</g>
<g filter="url(#filter7_d_7_1720)">
<path d="M424 208C424 196.954 432.954 188 444 188H472C483.046 188 492 196.954 492 208V236C492 247.046 483.046 256 472 256H444C432.954 256 424 247.046 424 236V208Z" fill="white" shape-rendering="crispEdges"/>
<path d="M457.993 206.417H457.921C449.308 206.417 442.325 213.401 442.325 222.017V222.089C442.325 230.705 449.308 237.689 457.921 237.689H457.993C466.606 237.689 473.589 230.705 473.589 222.089V222.017C473.589 213.401 466.606 206.417 457.993 206.417Z" fill="#00B0F2"/>
<path d="M448.246 221.52C448.29 221.498 448.334 221.477 448.377 221.458C449.119 221.113 449.872 220.791 450.623 220.469C450.664 220.469 450.732 220.422 450.77 220.407C450.828 220.382 450.886 220.358 450.944 220.332L451.278 220.189C451.502 220.093 451.724 219.998 451.947 219.903C452.393 219.712 452.839 219.522 453.285 219.33C454.176 218.949 455.069 218.566 455.961 218.185C456.852 217.804 457.745 217.421 458.637 217.04C459.528 216.659 460.421 216.276 461.312 215.895C462.204 215.514 463.097 215.131 463.988 214.75C464.187 214.665 464.401 214.537 464.614 214.5C464.792 214.468 464.966 214.407 465.146 214.373C465.487 214.308 465.862 214.282 466.189 214.424C466.302 214.473 466.406 214.542 466.492 214.628C466.906 215.038 466.848 215.711 466.761 216.287C466.15 220.304 465.54 224.322 464.929 228.338C464.846 228.889 464.732 229.494 464.297 229.842C463.929 230.137 463.406 230.17 462.951 230.045C462.496 229.919 462.096 229.655 461.702 229.395C460.071 228.315 458.439 227.235 456.808 226.155C456.421 225.898 455.989 225.563 455.994 225.097C455.996 224.817 456.163 224.567 456.334 224.345C457.752 222.495 459.796 221.224 461.318 219.46C461.533 219.211 461.701 218.762 461.407 218.619C461.231 218.533 461.03 218.649 460.87 218.76C458.859 220.157 456.849 221.555 454.838 222.952C454.182 223.408 453.494 223.877 452.703 223.988C451.996 224.089 451.284 223.892 450.599 223.69C450.025 223.522 449.452 223.349 448.882 223.17C448.578 223.076 448.265 222.974 448.031 222.76C447.796 222.547 447.661 222.187 447.803 221.902C447.891 221.724 448.063 221.611 448.244 221.519L448.246 221.52Z" fill="#FEFFFC"/>
</g>
<defs>
<filter id="filter0_d_7_1720" x="68" y="0" width="92" height="92" filterUnits="userSpaceOnUse" color-interpolation-filters="sRGB">
<feFlood flood-opacity="0" result="BackgroundImageFix"/>
<feColorMatrix in="SourceAlpha" type="matrix" values="0 0 0 0 0 0 0 0 0 0 0 0 0 0 0 0 0 0 127 0" result="hardAlpha"/>
<feOffset/>
<feGaussianBlur stdDeviation="6"/>
<feComposite in2="hardAlpha" operator="out"/>
<feColorMatrix type="matrix" values="0 0 0 0 0.725532 0 0 0 0 0.721389 0 0 0 0 0.816667 0 0 0 0.2 0"/>
<feBlend mode="normal" in2="BackgroundImageFix" result="effect1_dropShadow_7_1720"/>
<feBlend mode="normal" in="SourceGraphic" in2="effect1_dropShadow_7_1720" result="shape"/>
</filter>
<filter id="filter1_d_7_1720" x="191.417" y="0" width="189.167" height="92" filterUnits="userSpaceOnUse" color-interpolation-filters="sRGB">
<feFlood flood-opacity="0" result="BackgroundImageFix"/>
<feColorMatrix in="SourceAlpha" type="matrix" values="0 0 0 0 0 0 0 0 0 0 0 0 0 0 0 0 0 0 127 0" result="hardAlpha"/>
<feOffset/>
<feGaussianBlur stdDeviation="6"/>
<feComposite in2="hardAlpha" operator="out"/>
<feColorMatrix type="matrix" values="0 0 0 0 0.725532 0 0 0 0 0.721389 0 0 0 0 0.816667 0 0 0 0.2 0"/>
<feBlend mode="normal" in2="BackgroundImageFix" result="effect1_dropShadow_7_1720"/>
<feBlend mode="normal" in="SourceGraphic" in2="effect1_dropShadow_7_1720" result="shape"/>
</filter>
<filter id="filter2_d_7_1720" x="412" y="0" width="92" height="92" filterUnits="userSpaceOnUse" color-interpolation-filters="sRGB">
<feFlood flood-opacity="0" result="BackgroundImageFix"/>
<feColorMatrix in="SourceAlpha" type="matrix" values="0 0 0 0 0 0 0 0 0 0 0 0 0 0 0 0 0 0 127 0" result="hardAlpha"/>
<feOffset/>
<feGaussianBlur stdDeviation="6"/>
<feComposite in2="hardAlpha" operator="out"/>
<feColorMatrix type="matrix" values="0 0 0 0 0.725532 0 0 0 0 0.721389 0 0 0 0 0.816667 0 0 0 0.2 0"/>
<feBlend mode="normal" in2="BackgroundImageFix" result="effect1_dropShadow_7_1720"/>
<feBlend mode="normal" in="SourceGraphic" in2="effect1_dropShadow_7_1720" result="shape"/>
</filter>
<filter id="filter3_d_7_1720" x="68" y="88" width="202" height="92" filterUnits="userSpaceOnUse" color-interpolation-filters="sRGB">
<feFlood flood-opacity="0" result="BackgroundImageFix"/>
<feColorMatrix in="SourceAlpha" type="matrix" values="0 0 0 0 0 0 0 0 0 0 0 0 0 0 0 0 0 0 127 0" result="hardAlpha"/>
<feOffset/>
<feGaussianBlur stdDeviation="6"/>
<feComposite in2="hardAlpha" operator="out"/>
<feColorMatrix type="matrix" values="0 0 0 0 0.725532 0 0 0 0 0.721389 0 0 0 0 0.816667 0 0 0 0.2 0"/>
<feBlend mode="normal" in2="BackgroundImageFix" result="effect1_dropShadow_7_1720"/>
<feBlend mode="normal" in="SourceGraphic" in2="effect1_dropShadow_7_1720" result="shape"/>
</filter>
<filter id="filter4_d_7_1720" x="302" y="88" width="202" height="92" filterUnits="userSpaceOnUse" color-interpolation-filters="sRGB">
<feFlood flood-opacity="0" result="BackgroundImageFix"/>
<feColorMatrix in="SourceAlpha" type="matrix" values="0 0 0 0 0 0 0 0 0 0 0 0 0 0 0 0 0 0 127 0" result="hardAlpha"/>
<feOffset/>
<feGaussianBlur stdDeviation="6"/>
<feComposite in2="hardAlpha" operator="out"/>
<feColorMatrix type="matrix" values="0 0 0 0 0.725532 0 0 0 0 0.721389 0 0 0 0 0.816667 0 0 0 0.2 0"/>
<feBlend mode="normal" in2="BackgroundImageFix" result="effect1_dropShadow_7_1720"/>
<feBlend mode="normal" in="SourceGraphic" in2="effect1_dropShadow_7_1720" result="shape"/>
</filter>
<filter id="filter5_d_7_1720" x="68" y="176" width="105.75" height="92" filterUnits="userSpaceOnUse" color-interpolation-filters="sRGB">
<feFlood flood-opacity="0" result="BackgroundImageFix"/>
<feColorMatrix in="SourceAlpha" type="matrix" values="0 0 0 0 0 0 0 0 0 0 0 0 0 0 0 0 0 0 127 0" result="hardAlpha"/>
<feOffset/>
<feGaussianBlur stdDeviation="6"/>
<feComposite in2="hardAlpha" operator="out"/>
<feColorMatrix type="matrix" values="0 0 0 0 0.725532 0 0 0 0 0.721389 0 0 0 0 0.816667 0 0 0 0.2 0"/>
<feBlend mode="normal" in2="BackgroundImageFix" result="effect1_dropShadow_7_1720"/>
<feBlend mode="normal" in="SourceGraphic" in2="effect1_dropShadow_7_1720" result="shape"/>
</filter>
<filter id="filter6_d_7_1720" x="194.625" y="176" width="196.5" height="92" filterUnits="userSpaceOnUse" color-interpolation-filters="sRGB">
<feFlood flood-opacity="0" result="BackgroundImageFix"/>
<feColorMatrix in="SourceAlpha" type="matrix" values="0 0 0 0 0 0 0 0 0 0 0 0 0 0 0 0 0 0 127 0" result="hardAlpha"/>
<feOffset/>
<feGaussianBlur stdDeviation="6"/>
<feComposite in2="hardAlpha" operator="out"/>
<feColorMatrix type="matrix" values="0 0 0 0 0.725532 0 0 0 0 0.721389 0 0 0 0 0.816667 0 0 0 0.2 0"/>
<feBlend mode="normal" in2="BackgroundImageFix" result="effect1_dropShadow_7_1720"/>
<feBlend mode="normal" in="SourceGraphic" in2="effect1_dropShadow_7_1720" result="shape"/>
</filter>
<filter id="filter7_d_7_1720" x="412" y="176" width="92" height="92" filterUnits="userSpaceOnUse" color-interpolation-filters="sRGB">
<feFlood flood-opacity="0" result="BackgroundImageFix"/>
<feColorMatrix in="SourceAlpha" type="matrix" values="0 0 0 0 0 0 0 0 0 0 0 0 0 0 0 0 0 0 127 0" result="hardAlpha"/>
<feOffset/>
<feGaussianBlur stdDeviation="6"/>
<feComposite in2="hardAlpha" operator="out"/>
<feColorMatrix type="matrix" values="0 0 0 0 0.725532 0 0 0 0 0.721389 0 0 0 0 0.816667 0 0 0 0.2 0"/>
<feBlend mode="normal" in2="BackgroundImageFix" result="effect1_dropShadow_7_1720"/>
<feBlend mode="normal" in="SourceGraphic" in2="effect1_dropShadow_7_1720" result="shape"/>
</filter>
<radialGradient id="paint0_radial_7_1720" cx="0" cy="0" r="1" gradientUnits="userSpaceOnUse" gradientTransform="translate(104.416 61.4165) rotate(-57.0915) scale(33.9591)">
<stop stop-color="#0099FF"/>
<stop offset="0.609754" stop-color="#A033FF"/>
<stop offset="0.934823" stop-color="#FF5280"/>
<stop offset="1" stop-color="#FF7061"/>
</radialGradient>
<linearGradient id="paint1_linear_7_1720" x1="353.021" y1="123.399" x2="338.43" y2="138.99" gradientUnits="userSpaceOnUse">
<stop stop-color="white"/>
<stop offset="1"/>
</linearGradient>
<linearGradient id="paint2_linear_7_1720" x1="244.962" y1="212.533" x2="240.974" y2="219.107" gradientUnits="userSpaceOnUse">
<stop stop-color="#2D862D"/>
<stop offset="1" stop-color="#B34A00"/>
</linearGradient>
<clipPath id="clip0_7_1720">
<rect width="141.167" height="25.6667" fill="white" transform="translate(215.417 36.8335)"/>
</clipPath>
<clipPath id="clip1_7_1720">
<rect width="147" height="30.25" fill="white" transform="translate(95 119.333)"/>
</clipPath>
<clipPath id="clip2_7_1720">
<rect width="151" height="26.5833" fill="white" transform="translate(327 121.167)"/>
</clipPath>
<clipPath id="clip3_7_1720">
<rect width="42.075" height="33.9167" fill="white" transform="translate(99.4248 204.583)"/>
</clipPath>
<clipPath id="clip4_7_1720">
<rect width="149.497" height="29.3333" fill="white" transform="translate(218.625 207.333)"/>
</clipPath>
</defs>
</svg>
