<svg width="406" height="268" viewBox="0 0 406 268" fill="none" xmlns="http://www.w3.org/2000/svg">
<g filter="url(#filter0_d_7_2219)">
<path d="M32.1665 32C32.1665 20.9543 41.1208 12 52.1665 12H80.1665C91.2122 12 100.167 20.9543 100.167 32V60C100.167 71.0457 91.2122 80 80.1665 80H52.1665C41.1208 80 32.1665 71.0457 32.1665 60V32Z" fill="white" shape-rendering="crispEdges"/>
<path d="M81.7497 45.9998C81.7497 54.6063 74.7728 61.5832 66.1663 61.5832C57.5599 61.5832 50.583 54.6063 50.583 45.9998C50.583 37.3934 57.5599 30.4165 66.1663 30.4165C74.7728 30.4165 81.7497 37.3934 81.7497 45.9998Z" fill="url(#paint0_radial_7_2219)"/>
<path fill-rule="evenodd" clip-rule="evenodd" d="M55.7773 45.6881C55.7773 39.8977 60.3139 35.6108 66.1662 35.6108C72.0186 35.6108 76.5551 39.8977 76.5551 45.6881C76.5551 51.4784 72.0186 55.7653 66.1662 55.7653C65.115 55.7653 64.1065 55.6265 63.159 55.366C62.9748 55.3153 62.7789 55.3296 62.6041 55.4067L60.542 56.317C60.0027 56.5551 59.3938 56.1715 59.3757 55.5821L59.3191 53.7341C59.3122 53.5064 59.2097 53.2936 59.04 53.1417C57.0186 51.334 55.7773 48.7168 55.7773 45.6881ZM62.9795 43.7935L59.9277 48.6351C59.6349 49.0998 60.206 49.6234 60.6435 49.2914L63.9216 46.8035C64.1434 46.6352 64.4498 46.6343 64.6725 46.8013L67.0997 48.6218C67.828 49.1681 68.8676 48.9763 69.353 48.2061L72.4048 43.3644C72.6976 42.8997 72.1264 42.3761 71.6889 42.7081L68.4109 45.196C68.1891 45.3643 67.8827 45.3652 67.66 45.1981L65.2328 43.3777C64.5044 42.8315 63.4649 43.0232 62.9795 43.7935Z" fill="white"/>
</g>
<g filter="url(#filter1_d_7_2219)">
<path d="M120.167 32C120.167 20.9543 129.121 12 140.167 12H265.333C276.379 12 285.333 20.9543 285.333 32V60C285.333 71.0457 276.379 80 265.333 80H140.167C129.121 80 120.167 71.0457 120.167 60V32Z" fill="white" shape-rendering="crispEdges"/>
<g clip-path="url(#clip0_7_2219)">
<path d="M228.087 55.4602H240.829V52.6002H232.431C233.589 47.9068 240.684 46.8802 240.684 41.6735C240.684 38.8868 238.802 36.8335 234.82 36.8335C232.359 36.8335 230.187 37.5668 228.739 38.3002L229.608 40.9402C230.911 40.2802 232.431 39.6935 234.313 39.6935C235.761 39.6935 237.137 40.3535 237.137 42.0402C237.137 45.8535 228.811 46.1468 228.087 55.4602ZM241.191 50.9135H249.371V55.4602H252.629V50.9135H255.38V48.1268H252.629V36.8335H250.24L241.191 48.7135V50.9135ZM244.883 48.2735L249.516 41.9668C249.516 42.4802 249.371 44.0935 249.371 45.5602V48.2002H247.199C246.548 48.2002 245.317 48.2735 244.883 48.2735Z" fill="#005893"/>
<path d="M135.569 52.6734V46.8801H136.944C138.175 46.8801 139.189 47.0267 139.913 47.4667C140.637 47.9067 141.071 48.6401 141.071 49.8134C141.071 51.7934 139.913 52.6734 137.162 52.6734H135.569ZM132.239 55.4601H137.089C142.519 55.4601 144.473 53.0401 144.473 49.6667C144.473 47.3934 143.532 45.8534 141.867 44.9734C140.564 44.2401 138.899 44.0201 136.872 44.0201H135.569V39.6201H142.881L143.749 36.9067H132.167V55.4601H132.239ZM146.718 55.4601H149.903L154.029 49.4467C154.826 48.3467 155.405 47.2467 155.767 46.6601H155.839C155.767 47.4667 155.694 48.4934 155.694 49.5201V55.3867H158.952V42.1867H155.767L151.64 48.2001C150.916 49.3001 150.265 50.4001 149.903 50.9867H149.83C149.903 50.1801 149.975 49.1534 149.975 48.1267V42.2601H146.718V55.4601ZM164.526 55.4601H167.856V44.9734H171.766L172.634 42.1867H160.545V44.9734H164.526V55.4601ZM173.793 62.1334H177.05V55.4601C177.702 55.6801 178.353 55.7534 179.077 55.7534C183.204 55.7534 185.882 52.8934 185.882 48.7867C185.882 44.5334 183.421 41.8201 178.715 41.8201C176.905 41.8201 175.168 42.1867 173.72 42.6267V62.1334H173.793ZM177.05 52.6001V44.8267C177.557 44.6801 177.991 44.6067 178.571 44.6067C180.959 44.6067 182.48 45.9267 182.48 48.7867C182.48 51.3534 181.249 52.9667 178.788 52.9667C178.136 52.9667 177.629 52.8201 177.05 52.6001ZM187.837 55.4601H191.022L195.149 49.4467C195.945 48.3467 196.524 47.2467 196.886 46.6601H196.958C196.886 47.4667 196.814 48.4934 196.814 49.5201V55.3867H200.071V42.1867H196.886L192.76 48.2001C192.036 49.3001 191.384 50.4001 191.022 50.9867H190.95C191.022 50.1801 191.095 49.1534 191.095 48.1267V42.2601H187.837V55.4601ZM202.677 55.4601H206.008V49.9601H207.962C208.324 49.9601 208.686 50.3267 209.12 51.2067L210.785 55.4601H214.333L211.944 50.4001C211.509 49.5201 211.075 49.0067 210.424 48.7867V48.7134C211.509 48.0534 211.654 46.1467 212.306 45.1934C212.523 44.9001 212.812 44.7534 213.247 44.7534C213.464 44.7534 213.754 44.7534 213.971 44.9001V42.0401C213.609 41.8934 212.957 41.8201 212.595 41.8201C211.437 41.8201 210.713 42.2601 210.206 42.9934C209.12 44.6067 209.12 47.3934 207.528 47.3934H206.008V42.1867H202.677V55.4601ZM221.717 55.7534C223.527 55.7534 225.192 55.1667 226.205 54.4334L225.264 52.1601C224.323 52.6734 223.454 53.0401 222.224 53.0401C219.979 53.0401 218.532 51.5734 218.532 48.8601C218.532 46.4401 219.979 44.5334 222.441 44.5334C223.744 44.5334 224.685 44.9001 225.626 45.5601V42.7001C224.902 42.2601 223.744 41.8201 222.079 41.8201C218.17 41.8201 215.129 44.7534 215.129 48.9334C215.129 52.7467 217.446 55.7534 221.717 55.7534Z" fill="#0BBBEF"/>
<path d="M266.166 50.9137C269.713 50.9137 272.609 47.9804 272.609 44.387C272.609 40.7937 269.713 37.8604 266.166 37.8604C262.619 37.8604 259.723 40.7937 259.723 44.387C259.796 47.9804 262.619 50.9137 266.166 50.9137Z" stroke="#005893" stroke-width="1.7688"/>
<path d="M270.22 44.3868H266.673V40.7935H265.732V45.3401H270.22V44.3868Z" fill="#005893"/>
</g>
</g>
<g filter="url(#filter2_d_7_2219)">
<path d="M305.333 32C305.333 20.9543 314.288 12 325.333 12H353.333C364.379 12 373.333 20.9543 373.333 32V60C373.333 71.0457 364.379 80 353.333 80H325.333C314.288 80 305.333 71.0457 305.333 60V32Z" fill="white" shape-rendering="crispEdges"/>
<path d="M339.419 30.4165H339.348C330.734 30.4165 323.751 37.4012 323.751 46.0173V46.0886C323.751 54.7047 330.734 61.6894 339.348 61.6894H339.419C348.032 61.6894 355.015 54.7047 355.015 46.0886V46.0173C355.015 37.4012 348.032 30.4165 339.419 30.4165Z" fill="#00E510"/>
<path d="M342.429 50.6262C338.428 50.6262 335.173 47.3688 335.172 43.3664C335.173 42.3519 335.999 41.5269 337.011 41.5269C337.115 41.5269 337.218 41.5356 337.317 41.5532C337.533 41.5893 337.739 41.6627 337.929 41.7734C337.956 41.7898 337.975 41.8161 337.979 41.8468L338.402 44.5125C338.407 44.5443 338.398 44.5749 338.377 44.5979C338.143 44.8565 337.846 45.0428 337.514 45.1359L337.354 45.1808L337.414 45.3353C337.959 46.7246 339.07 47.8345 340.46 48.3823L340.615 48.4436L340.659 48.2837C340.753 47.9517 340.939 47.6537 341.197 47.4203C341.216 47.4028 341.241 47.394 341.266 47.394C341.272 47.394 341.277 47.394 341.284 47.3951L343.949 47.818C343.98 47.8235 344.007 47.841 344.023 47.8684C344.133 48.058 344.206 48.265 344.243 48.482C344.261 48.5784 344.269 48.6803 344.269 48.7866C344.269 49.8 343.444 50.6251 342.429 50.6262Z" fill="#FDFDFD"/>
<path d="M349.525 45.1745C349.309 42.7356 348.192 40.4731 346.379 38.8044C344.556 37.1259 342.19 36.2012 339.715 36.2012C334.285 36.2012 329.866 40.621 329.866 46.0532C329.866 47.8763 330.369 49.6524 331.321 51.1994L329.198 55.8997L335.995 55.1755C337.177 55.6598 338.427 55.9052 339.714 55.9052C340.053 55.9052 340.4 55.8877 340.748 55.8515C341.055 55.8186 341.365 55.7704 341.67 55.7091C346.217 54.7898 349.537 50.7524 349.564 46.1058V46.0532C349.564 45.7574 349.55 45.4615 349.524 45.1745H349.525ZM336.256 53.1124L332.496 53.5134L333.619 51.0252L333.394 50.7239C333.378 50.702 333.362 50.6801 333.343 50.6549C332.368 49.3083 331.853 47.7175 331.853 46.0543C331.853 41.7177 335.38 38.1898 339.715 38.1898C343.777 38.1898 347.22 41.3595 347.551 45.4057C347.569 45.6226 347.579 45.8406 347.579 46.0554C347.579 46.1167 347.578 46.177 347.577 46.2416C347.493 49.8693 344.96 52.9502 341.415 53.7347C341.145 53.795 340.868 53.841 340.592 53.8706C340.305 53.9035 340.01 53.9199 339.718 53.9199C338.676 53.9199 337.664 53.7183 336.708 53.3195C336.602 53.2767 336.497 53.2307 336.4 53.1836L336.258 53.1146L336.256 53.1124Z" fill="#FDFDFD"/>
</g>
<g filter="url(#filter3_d_7_2219)">
<path d="M14.75 120C14.75 108.954 23.7043 100 34.75 100H172.75C183.796 100 192.75 108.954 192.75 120V148C192.75 159.046 183.796 168 172.75 168H34.75C23.7043 168 14.75 159.046 14.75 148V120Z" fill="white" shape-rendering="crispEdges"/>
<g clip-path="url(#clip1_7_2219)">
<mask id="mask0_7_2219" style="mask-type:luminance" maskUnits="userSpaceOnUse" x="29" y="128" width="125" height="22">
<path d="M103.78 131.653C101.381 131.653 99.5352 132.849 98.5703 134.549H109.056C108.209 132.774 106.54 131.653 103.78 131.653ZM86.5579 132.525H81.2815C81.2561 136.188 81.0465 139.565 79.6793 142.762H86.5579V132.525ZM47.1816 132.014C43.8932 132.014 41.2257 134.443 41.2257 137.429C41.2257 140.415 43.9016 142.845 47.1816 142.845C50.4615 142.845 53.1375 140.415 53.1375 137.429C53.1375 134.443 50.4615 132.014 47.1816 132.014ZM140.404 128.374V136.903L147.988 128.374H153.029L145.304 137.076L153.482 146.478H148.29L140.404 137.414V146.478H136.185V128.374H140.404ZM126.026 128.253C128.769 128.253 131.278 129.103 133.107 130.645L130.221 133.345C129.181 132.465 127.696 131.961 126.026 131.961C122.738 131.961 120.071 134.436 120.071 137.384C120.071 140.333 122.746 142.807 126.026 142.807C127.629 142.807 129.03 142.318 130.322 141.363L133.006 144.229C130.959 145.748 128.61 146.515 126.026 146.515C120.414 146.515 115.851 142.424 115.851 137.384C115.851 132.345 120.414 128.253 126.026 128.253ZM47.1816 128.298C52.7936 128.298 57.357 132.39 57.357 137.422C57.357 142.454 52.7936 146.553 47.1816 146.553C42.2826 146.553 38.1806 143.424 37.2159 139.28H33.9611V146.478H29.75V128.374H33.9695V135.572H37.2243C38.1806 131.427 42.2826 128.298 47.1816 128.298ZM64.6887 128.185C67.9016 128.185 70.6949 129.908 70.6949 132.691C70.6949 134.601 69.3694 135.842 67.5829 136.579C69.5707 137.234 71.1562 138.678 71.1562 140.979C71.1562 143.973 68.0609 146.56 64.4957 146.56C61.3081 146.56 59.2864 145.101 57.9862 143.883L60.8719 141.047C61.7191 141.762 62.7006 142.755 64.2189 142.755C65.9974 142.755 66.878 141.732 66.878 140.408C66.878 138.873 65.4856 137.836 62.4657 138.339V135.669C65.6869 135.526 66.3414 134.458 66.3414 133.481C66.3414 132.51 65.4269 131.721 64.2189 131.721C63.0948 131.721 62.1637 132.164 61.392 132.916L58.3637 130.337C59.8988 128.938 62.1889 128.185 64.6887 128.185ZM103.78 128.058C108.771 128.058 112.646 130.825 113.645 135.113C113.796 135.76 113.813 137.038 113.653 137.978H97.8573C98.1343 140.776 100.357 143.085 103.78 143.085C106.967 143.085 108.629 141.423 109.677 140.032L113.049 141.942C111.153 144.259 108.863 146.711 103.771 146.711C98.1593 146.711 93.5958 142.529 93.5958 137.384C93.6128 132.24 98.176 128.058 103.78 128.058ZM90.7691 128.81V142.755H92.8745V149.494H88.655V146.47H77.1039V149.494H72.8844V142.755H75.0571C76.9613 139.535 77.0702 135.985 77.0702 130.698V128.81H90.7691Z" fill="white"/>
</mask>
<g mask="url(#mask0_7_2219)">
<mask id="mask1_7_2219" style="mask-type:luminance" maskUnits="userSpaceOnUse" x="29" y="119" width="148" height="31">
<path d="M176.477 119.333H29.75V149.494H176.477V119.333Z" fill="white"/>
</mask>
<g mask="url(#mask1_7_2219)">
<path d="M157.588 124.319H25.6436V153.233H157.588V124.319Z" fill="#2B2B2B"/>
</g>
</g>
<mask id="mask2_7_2219" style="mask-type:luminance" maskUnits="userSpaceOnUse" x="155" y="119" width="22" height="20">
<path d="M166.557 119.338C160.459 119.166 155.483 123.587 155.677 128.987C155.854 133.879 160.35 137.873 165.865 138.023C171.963 138.195 176.939 133.774 176.745 128.374C176.568 123.482 172.073 119.495 166.557 119.338ZM166.211 133.356C163.301 133.356 160.94 131.261 160.94 128.681C160.94 126.1 163.301 124.006 166.211 124.006C169.121 124.006 171.482 126.1 171.482 128.681C171.482 131.261 169.121 133.356 166.211 133.356Z" fill="white"/>
</mask>
<g mask="url(#mask2_7_2219)">
<mask id="mask3_7_2219" style="mask-type:luminance" maskUnits="userSpaceOnUse" x="29" y="119" width="148" height="31">
<path d="M176.751 119.333H29.2031V149.244H176.751V119.333Z" fill="white"/>
</mask>
<g mask="url(#mask3_7_2219)">
<mask id="mask4_7_2219" style="mask-type:luminance" maskUnits="userSpaceOnUse" x="154" y="119" width="23" height="20">
<path d="M176.749 119.333H154.85V138.776H176.749V119.333Z" fill="white"/>
</mask>
<g mask="url(#mask4_7_2219)">
<mask id="mask5_7_2219" style="mask-type:luminance" maskUnits="userSpaceOnUse" x="154" y="119" width="23" height="20">
<path d="M176.748 119.333H154.849V138.776H176.748V119.333Z" fill="white"/>
</mask>
<g mask="url(#mask5_7_2219)">
<path d="M181.129 115.595H151.564V141.767H181.129V115.595Z" fill="#FA002D"/>
</g>
</g>
<mask id="mask6_7_2219" style="mask-type:luminance" maskUnits="userSpaceOnUse" x="154" y="119" width="23" height="20">
<path d="M176.749 119.333H154.85V138.776H176.749V119.333Z" fill="white"/>
</mask>
<g mask="url(#mask6_7_2219)">
<mask id="mask7_7_2219" style="mask-type:luminance" maskUnits="userSpaceOnUse" x="155" y="119" width="22" height="20">
<path d="M176.749 121.203L174.641 119.333L166.21 126.811L157.779 119.333L155.671 121.203L164.102 128.681L155.671 136.158L157.779 138.028L166.21 130.55L174.641 138.028L176.749 136.158L168.318 128.681L176.749 121.203Z" fill="white"/>
</mask>
<g mask="url(#mask7_7_2219)">
<mask id="mask8_7_2219" style="mask-type:luminance" maskUnits="userSpaceOnUse" x="154" y="119" width="23" height="20">
<path d="M176.748 119.333H154.849V138.776H176.748V119.333Z" fill="white"/>
</mask>
<g mask="url(#mask8_7_2219)">
<path d="M181.129 115.595H151.564V141.767H181.129V115.595Z" fill="white"/>
</g>
</g>
</g>
</g>
</g>
</g>
</g>
<g filter="url(#filter4_d_7_2219)">
<path d="M212.75 120C212.75 108.954 221.704 100 232.75 100H370.75C381.796 100 390.75 108.954 390.75 120V148C390.75 159.046 381.796 168 370.75 168H232.75C221.704 168 212.75 159.046 212.75 148V120Z" fill="white" shape-rendering="crispEdges"/>
<g clip-path="url(#clip2_7_2219)">
<mask id="mask9_7_2219" style="mask-type:luminance" maskUnits="userSpaceOnUse" x="225" y="121" width="152" height="27">
<path d="M376.75 121.167H225.75V147.75H376.75V121.167Z" fill="white"/>
</mask>
<g mask="url(#mask9_7_2219)">
<path fill-rule="evenodd" clip-rule="evenodd" d="M232.478 121.866H247.428C250.717 121.866 253.408 124.384 253.408 127.462V141.454C253.408 144.532 250.717 147.05 247.428 147.05H232.478C229.188 147.05 226.498 144.532 226.498 141.454V127.462C226.498 124.384 229.188 121.866 232.478 121.866Z" fill="#E53E0D"/>
</g>
<mask id="mask10_7_2219" style="mask-type:luminance" maskUnits="userSpaceOnUse" x="226" y="121" width="28" height="27">
<mask id="mask11_7_2219" style="mask-type:luminance" maskUnits="userSpaceOnUse" x="225" y="121" width="152" height="27">
<path d="M376.75 121.167H225.75V147.75H376.75V121.167Z" fill="white"/>
</mask>
<g mask="url(#mask11_7_2219)">
<path d="M253.409 121.866H226.498V147.05H253.409V121.866Z" fill="url(#paint1_linear_7_2219)"/>
</g>
</mask>
<g mask="url(#mask10_7_2219)">
<mask id="mask12_7_2219" style="mask-type:luminance" maskUnits="userSpaceOnUse" x="225" y="121" width="152" height="27">
<path d="M376.75 121.167H225.75V147.75H376.75V121.167Z" fill="white"/>
</mask>
<g mask="url(#mask12_7_2219)">
<path fill-rule="evenodd" clip-rule="evenodd" d="M232.478 121.866H247.428C250.717 121.866 253.408 124.384 253.408 127.462V141.454C253.408 144.532 250.717 147.05 247.428 147.05H232.478C229.188 147.05 226.498 144.532 226.498 141.454V127.462C226.498 124.384 229.188 121.866 232.478 121.866Z" fill="#DD1D1D"/>
</g>
</g>
<mask id="mask13_7_2219" style="mask-type:luminance" maskUnits="userSpaceOnUse" x="225" y="121" width="152" height="27">
<path d="M376.75 121.167H225.75V147.75H376.75V121.167Z" fill="white"/>
</mask>
<g mask="url(#mask13_7_2219)">
<path fill-rule="evenodd" clip-rule="evenodd" d="M236.963 142.853H244.438V138.655H238.458C236.814 138.655 235.468 137.396 235.468 135.857V130.261H230.983V137.256C230.983 140.335 233.674 142.853 236.963 142.853Z" fill="white"/>
</g>
<mask id="mask14_7_2219" style="mask-type:luminance" maskUnits="userSpaceOnUse" x="225" y="121" width="152" height="27">
<path d="M376.75 121.167H225.75V147.75H376.75V121.167Z" fill="white"/>
</mask>
<g mask="url(#mask14_7_2219)">
<path fill-rule="evenodd" clip-rule="evenodd" d="M242.943 126.063H235.468V130.261H241.448C243.092 130.261 244.438 131.52 244.438 133.059V138.656H248.923V131.66C248.923 128.582 246.232 126.063 242.943 126.063Z" fill="white"/>
</g>
<mask id="mask15_7_2219" style="mask-type:luminance" maskUnits="userSpaceOnUse" x="225" y="121" width="152" height="27">
<path d="M376.75 121.167H225.75V147.75H376.75V121.167Z" fill="white"/>
</mask>
<g mask="url(#mask15_7_2219)">
<path fill-rule="evenodd" clip-rule="evenodd" d="M287.794 131.659C290.261 131.659 292.28 133.548 292.28 135.857C292.28 138.165 290.261 140.054 287.794 140.054C285.328 140.054 283.309 138.165 283.309 135.857C283.309 133.548 285.327 131.659 287.794 131.659ZM287.794 127.462C292.728 127.462 296.765 131.24 296.765 135.857V144.252H292.28V143.119C290.958 143.838 289.426 144.252 287.794 144.252C282.861 144.252 278.824 140.474 278.824 135.857C278.824 131.24 282.861 127.462 287.794 127.462ZM371.11 134.108C370.402 132.663 368.842 131.659 367.032 131.659C365.222 131.659 363.663 132.663 362.954 134.108H371.11ZM367.032 127.462C371.986 127.462 376.002 131.22 376.002 135.857C376.002 136.457 375.935 137.042 375.807 137.606H374.947H371.11H362.954C363.663 139.05 365.222 140.054 367.032 140.054C368.232 140.054 369.321 139.614 370.125 138.896L374.42 140.619C372.802 142.813 370.096 144.252 367.032 144.252C362.078 144.252 358.061 140.493 358.061 135.857C358.062 131.22 362.078 127.462 367.032 127.462ZM299.755 123.265H304.24V144.252H299.755V123.265ZM316.574 135.857L323.676 144.252H318.069L311.715 136.74V144.252H307.23V123.265H311.715V134.973L318.069 127.462H323.676L316.574 135.857ZM324.423 134.458H328.908V138.655H324.423V134.458ZM346.476 127.462H349.839C353.128 127.462 355.819 129.981 355.819 133.058V144.252H351.334V133.525C351.334 132.499 350.437 131.659 349.341 131.659H346.659C346.783 132.107 346.848 132.576 346.848 133.059V144.252H342.364V133.525C342.364 132.499 341.467 131.659 340.37 131.659H337.878V144.252H333.393V127.462H340.868C343.429 127.462 345.626 128.988 346.475 131.116V127.462H346.476ZM268.359 123.265H272.844V127.462H277.329V131.659H272.844V137.256C272.844 138.794 274.19 140.054 275.834 140.054H277.329V144.252H274.339C271.051 144.252 268.359 141.733 268.359 138.655V131.659H263.874V127.462H266.116C267.35 127.462 268.359 126.518 268.359 125.363V123.265Z" fill="#2B2B2B"/>
</g>
</g>
</g>
<g filter="url(#filter5_d_7_2219)">
<path d="M21.625 208C21.625 196.954 30.5793 188 41.625 188H83.375C94.4207 188 103.375 196.954 103.375 208V236C103.375 247.046 94.4207 256 83.375 256H41.625C30.5793 256 21.625 247.046 21.625 236V208Z" fill="white" shape-rendering="crispEdges"/>
<g clip-path="url(#clip3_7_2219)">
<path fill-rule="evenodd" clip-rule="evenodd" d="M52.7643 215.76H51.0917C50.9175 215.773 50.7534 215.856 50.63 215.993C50.5066 216.13 50.4323 216.313 50.4209 216.507V230.531C50.4204 230.63 50.438 230.727 50.4726 230.818C50.5072 230.908 50.5581 230.99 50.6222 231.058C50.6819 231.13 50.7546 231.188 50.8356 231.227C50.9166 231.266 51.0041 231.285 51.0923 231.284H52.765C52.8499 231.283 52.9338 231.262 53.0112 231.223C53.0887 231.185 53.158 231.128 53.215 231.058C53.2838 230.994 53.3389 230.913 53.3761 230.822C53.4133 230.73 53.4318 230.631 53.4302 230.531V216.513C53.4267 216.417 53.4059 216.323 53.3689 216.237C53.3319 216.15 53.2795 216.072 53.215 216.009C53.1619 215.932 53.0936 215.869 53.0155 215.826C52.9374 215.783 52.8515 215.761 52.7643 215.76ZM68.0254 215.798H66.6753C66.4989 215.758 66.3157 215.777 66.1494 215.854C65.983 215.93 65.841 216.061 65.7417 216.228L61.8861 225.718H61.819L58.1444 216.228C58.0962 216.095 58.0122 215.983 57.9039 215.906C57.7956 215.829 57.6685 215.791 57.5402 215.798H55.72C55.6173 215.784 55.5132 215.801 55.4186 215.848C55.324 215.894 55.2425 215.968 55.1827 216.062C55.1355 216.155 55.1135 216.262 55.1194 216.369C55.1254 216.476 55.159 216.578 55.2163 216.665L61.1921 231.255C61.2447 231.381 61.3309 231.487 61.4391 231.557C61.5473 231.627 61.6723 231.658 61.797 231.646H61.98C62.0991 231.65 62.2166 231.615 62.3181 231.546C62.4195 231.476 62.5004 231.375 62.5507 231.255L68.5266 216.665C68.5836 216.579 68.6171 216.476 68.6231 216.37C68.629 216.263 68.6072 216.156 68.5601 216.063C68.4991 215.971 68.4178 215.899 68.3241 215.852C68.2304 215.806 68.1275 215.787 68.0254 215.798V215.798ZM76.1123 215.445C75.1791 215.431 74.2537 215.636 73.3962 216.046C72.5388 216.456 71.7685 217.062 71.1353 217.825C70.4673 218.569 69.9401 219.454 69.5847 220.428C69.2294 221.402 69.0531 222.446 69.0663 223.497C69.0412 225.635 69.7806 227.697 71.1218 229.229C71.755 229.991 72.5231 230.6 73.3779 231.016C74.2328 231.432 75.1557 231.647 76.0888 231.647C77.0219 231.647 77.9449 231.432 78.7997 231.016C79.6545 230.6 80.4227 229.991 81.0558 229.229C81.7249 228.473 82.2524 227.577 82.6076 226.593C82.9628 225.609 83.1386 224.556 83.1248 223.495C83.138 222.444 82.9617 221.401 82.6064 220.427C82.251 219.453 81.7238 218.567 81.0558 217.824C80.4275 217.064 79.6628 216.46 78.8112 216.05C77.9596 215.64 77.0402 215.434 76.1123 215.445ZM79.0344 227.036C78.6598 227.484 78.2067 227.841 77.7031 228.086C77.1996 228.33 76.6563 228.458 76.1067 228.46C75.5572 228.462 75.0131 228.339 74.508 228.098C74.0029 227.857 73.5476 227.504 73.1701 227.059C72.3719 226.092 71.9454 224.816 71.9816 223.504C71.9491 222.22 72.3766 220.973 73.1701 220.039C73.5452 219.591 74.0011 219.236 74.5082 218.997C75.0152 218.758 75.5618 218.641 76.1123 218.653C76.6602 218.638 77.2048 218.753 77.709 218.992C78.2132 219.232 78.6652 219.589 79.0344 220.039C79.4274 220.502 79.7346 221.046 79.9386 221.64C80.1425 222.235 80.2391 222.868 80.2228 223.504C80.2454 224.807 79.8203 226.07 79.0344 227.036ZM46.4842 215.76H41.7206C41.6348 215.765 41.5506 215.788 41.4732 215.83C41.3959 215.871 41.3269 215.93 41.2705 216.002C41.2052 216.066 41.1525 216.145 41.1156 216.233C41.0787 216.321 41.0583 216.417 41.0559 216.514V218.39C41.0579 218.489 41.0779 218.587 41.1148 218.677C41.1517 218.768 41.2047 218.849 41.2705 218.917C41.3284 218.986 41.3979 219.041 41.4752 219.08C41.5524 219.119 41.6359 219.14 41.7206 219.143H44.139V232.647C44.142 233.25 43.9472 233.834 43.591 234.289C43.2348 234.743 42.7417 235.038 42.2041 235.117H41.7206C41.5431 235.123 41.3745 235.204 41.2496 235.345C41.1247 235.485 41.0532 235.673 41.0498 235.871V237.746C41.051 237.941 41.1161 238.129 41.2327 238.274C41.2942 238.347 41.3692 238.406 41.4526 238.445C41.536 238.484 41.6259 238.502 41.7163 238.499H41.9517C43.2746 238.492 44.5452 237.924 45.5048 236.911C46.4643 235.897 47.0407 234.516 47.1165 233.046C47.1363 232.93 47.1453 232.811 47.1434 232.692V216.513C47.144 216.415 47.1264 216.317 47.0918 216.227C47.0572 216.136 47.0063 216.054 46.9421 215.986C46.8854 215.913 46.8149 215.856 46.7358 215.816C46.6566 215.777 46.5707 215.758 46.4842 215.76Z" fill="#0B1F35"/>
<path fill-rule="evenodd" clip-rule="evenodd" d="M41.0906 204.583C40.6741 213.388 47.122 214.639 47.122 214.639C46.8 204.997 41.0906 204.583 41.0906 204.583Z" fill="#1BC339"/>
</g>
</g>
<g filter="url(#filter6_d_7_2219)">
<path d="M123.375 208C123.375 196.954 132.329 188 143.375 188H275.875C286.921 188 295.875 196.954 295.875 208V236C295.875 247.046 286.921 256 275.875 256H143.375C132.329 256 123.375 247.046 123.375 236V208Z" fill="white" shape-rendering="crispEdges"/>
<g clip-path="url(#clip4_7_2219)">
<path d="M162.125 226.794V218.842C162.124 218.842 162.127 218.842 162.127 218.842C162.127 217.581 162.868 217.399 163.261 217.373C164.075 217.321 165.283 217.459 166.979 217.816C167.664 217.961 168.377 217.712 168.784 217.185C169.192 216.659 169.213 215.959 168.839 215.412C168.725 215.246 168.605 215.091 168.478 214.946C168.693 214.761 168.857 214.525 168.948 214.255C169.157 213.635 168.936 212.961 168.39 212.55C168.046 212.291 167.688 212.089 167.325 211.933L167.326 211.918C167.356 211.203 166.863 210.557 166.122 210.338C164.98 210.001 163.904 210.037 162.994 210.237C162.486 209.097 161.679 208.348 160.912 208.018C160.354 207.778 159.7 207.826 159.192 208.146C158.805 208.389 158.548 208.761 158.465 209.174C157.671 208.835 156.9 208.727 156.288 208.783C155.689 208.837 155.164 209.171 154.898 209.666C154.633 210.162 154.665 210.748 154.984 211.217C155.209 211.547 155.525 212.139 155.689 212.743C155.868 213.401 155.326 213.787 154.747 213.787L154.747 213.787H154.053C154.039 213.787 154.024 213.787 154.009 213.787L154.009 213.787H143.894C141.793 213.787 140.112 215.348 140.112 217.271L140.112 231.77C140.112 232.48 140.47 233.181 141.164 233.616L141.178 233.625L141.192 233.633C142.273 234.284 143.783 234.064 144.544 233.011L146.499 230.345C146.509 230.331 146.517 230.323 146.541 230.313C146.572 230.299 146.645 230.278 146.767 230.278H158.329C160.415 230.278 162.125 228.731 162.125 226.794Z" fill="url(#paint2_linear_7_2219)"/>
<path fill-rule="evenodd" clip-rule="evenodd" d="M142.144 232.299C141.955 232.18 141.85 231.989 141.85 231.77L141.85 217.271C141.85 216.222 142.761 215.383 143.894 215.383H158.329C159.473 215.383 160.387 216.231 160.387 217.271V226.794C160.387 227.843 159.463 228.682 158.329 228.682H146.767C146.081 228.682 145.445 228.925 145.057 229.454L143.099 232.126C142.89 232.417 142.462 232.49 142.144 232.299Z" fill="#FF8833"/>
<path d="M161.88 216.038C163.005 215.583 164.852 215.731 167.367 216.261C166.645 215.205 165.498 214.808 164.14 214.674C164.999 214.114 166.598 213.839 167.287 213.784C165.708 212.595 163.542 213.141 162.72 213.541C163.421 212.883 164.693 212.054 165.589 211.857C163.875 211.351 162.324 212.068 161.762 212.49C161.656 210.569 160.659 209.671 160.174 209.462C160.222 210.102 160.222 211.609 159.834 212.527C158.691 210.661 157.106 210.312 156.457 210.371C156.94 211.08 157.671 212.561 157.507 213.787H158.329C159.959 213.787 161.34 214.725 161.88 216.038Z" fill="#5CD65C"/>
<path d="M156.391 218H145.846C145.366 218 144.977 218.358 144.977 218.8C144.977 219.242 145.366 219.6 145.846 219.6H156.391C156.871 219.6 157.261 219.242 157.261 218.8C157.261 218.358 156.871 218 156.391 218Z" fill="#B34A01"/>
<path d="M154.755 221.2H147.482C147.002 221.2 146.612 221.558 146.612 222C146.612 222.442 147.002 222.8 147.482 222.8H154.755C155.235 222.8 155.625 222.442 155.625 222C155.625 221.558 155.235 221.2 154.755 221.2Z" fill="#B34A01"/>
<path d="M152.713 224.4H149.524C149.044 224.4 148.654 224.758 148.654 225.2C148.654 225.642 149.044 226 149.524 226H152.713C153.194 226 153.583 225.642 153.583 225.2C153.583 224.758 153.194 224.4 152.713 224.4Z" fill="#B34A01"/>
<path d="M179.64 228.67C178.712 228.67 177.873 228.525 177.113 228.234C176.353 227.944 175.701 227.526 175.168 226.972C174.625 226.418 174.21 225.737 173.914 224.929C173.618 224.121 173.47 223.195 173.47 222.16C173.47 221.125 173.628 220.208 173.954 219.4C174.28 218.592 174.724 217.911 175.297 217.357C175.869 216.803 176.54 216.385 177.31 216.086C178.08 215.795 178.919 215.65 179.828 215.65C180.321 215.65 180.765 215.677 181.15 215.723C181.535 215.768 181.881 215.841 182.197 215.931C182.513 216.022 182.799 216.131 183.056 216.258C183.322 216.385 183.579 216.531 183.835 216.685V218.238H183.006C182.848 218.083 182.661 217.947 182.463 217.82C182.266 217.693 182.039 217.575 181.782 217.484C181.525 217.384 181.249 217.311 180.943 217.257C180.637 217.202 180.282 217.175 179.897 217.175C179.265 217.175 178.692 217.284 178.169 217.493C177.656 217.702 177.212 218.02 176.836 218.428C176.471 218.846 176.185 219.354 175.978 219.972C175.77 220.589 175.671 221.297 175.671 222.096C175.671 223.785 176.027 225.056 176.738 225.91C177.448 226.763 178.445 227.181 179.729 227.181C180.173 227.181 180.568 227.145 180.923 227.072C181.279 226.999 181.594 226.899 181.881 226.772C182.167 226.645 182.424 226.5 182.661 226.337C182.898 226.173 183.115 225.992 183.312 225.801H184.013V227.317C183.776 227.508 183.51 227.689 183.204 227.853C182.908 228.016 182.582 228.162 182.216 228.289C181.861 228.407 181.466 228.507 181.042 228.579C180.607 228.634 180.143 228.67 179.64 228.67Z" fill="#22252A"/>
<path d="M193.135 228.561C192.937 228.561 192.769 228.543 192.631 228.516C192.493 228.488 192.375 228.434 192.286 228.352C192.197 228.27 192.128 228.162 192.069 228.025C192.009 227.889 191.97 227.717 191.95 227.499C191.565 227.889 191.121 228.18 190.627 228.37C190.134 228.57 189.541 228.661 188.841 228.661C188.367 228.661 187.932 228.597 187.537 228.479C187.142 228.361 186.797 228.18 186.511 227.944C186.225 227.708 185.998 227.408 185.84 227.054C185.681 226.7 185.593 226.282 185.593 225.819C185.593 225.329 185.691 224.902 185.889 224.539C186.086 224.176 186.373 223.867 186.728 223.631C187.083 223.386 187.508 223.213 188.002 223.095C188.495 222.977 189.038 222.914 189.621 222.914C190.065 222.914 190.469 222.932 190.825 222.977C191.18 223.023 191.536 223.086 191.901 223.168V221.906C191.901 221.334 191.723 220.916 191.368 220.662C191.012 220.408 190.499 220.271 189.808 220.271C189.186 220.271 188.643 220.344 188.169 220.498C187.695 220.653 187.291 220.834 186.965 221.052H186.313V219.672C186.55 219.563 186.787 219.463 187.054 219.363C187.31 219.264 187.597 219.182 187.903 219.109C188.209 219.037 188.544 218.973 188.89 218.928C189.245 218.882 189.63 218.855 190.045 218.855C190.657 218.855 191.21 218.909 191.694 219.018C192.177 219.127 192.582 219.3 192.908 219.527C193.233 219.763 193.49 220.063 193.668 220.435C193.845 220.807 193.934 221.252 193.934 221.77V228.552H193.135V228.561ZM189.492 227.39C189.768 227.39 190.015 227.363 190.242 227.308C190.469 227.254 190.677 227.172 190.874 227.072C191.072 226.972 191.249 226.854 191.417 226.727C191.585 226.591 191.743 226.445 191.891 226.291V224.266C191.595 224.203 191.299 224.157 190.973 224.13C190.657 224.094 190.311 224.085 189.956 224.085C189.611 224.085 189.285 224.112 188.999 224.176C188.702 224.239 188.456 224.339 188.248 224.466C188.041 224.593 187.873 224.766 187.755 224.975C187.636 225.183 187.577 225.429 187.577 225.719C187.577 226.019 187.626 226.273 187.725 226.482C187.824 226.691 187.952 226.863 188.13 226.999C188.298 227.136 188.505 227.235 188.742 227.299C188.959 227.363 189.216 227.39 189.492 227.39Z" fill="#22252A"/>
<path d="M201.615 220.508C201.259 220.508 200.933 220.535 200.627 220.598C200.321 220.662 200.045 220.744 199.788 220.844C199.532 220.943 199.305 221.061 199.087 221.189C198.88 221.316 198.693 221.452 198.535 221.579V228.552H196.501V219.009H197.774C197.903 219.009 198.001 219.028 198.1 219.055C198.189 219.091 198.268 219.146 198.327 219.246C198.386 219.345 198.436 219.473 198.465 219.645C198.495 219.818 198.525 220.045 198.535 220.326C198.712 220.144 198.9 219.963 199.107 219.799C199.314 219.636 199.541 219.482 199.798 219.354C200.045 219.227 200.312 219.118 200.598 219.046C200.884 218.964 201.18 218.928 201.506 218.928C201.624 218.928 201.733 218.937 201.832 218.946C201.92 218.964 202 218.973 202.069 218.991V220.526C202 220.526 201.93 220.526 201.861 220.517C201.812 220.517 201.763 220.517 201.713 220.517C201.674 220.508 201.634 220.508 201.615 220.508Z" fill="#22252A"/>
<path d="M209.018 220.508C208.663 220.508 208.337 220.535 208.031 220.598C207.725 220.662 207.449 220.744 207.192 220.844C206.935 220.943 206.708 221.061 206.491 221.189C206.284 221.316 206.096 221.452 205.938 221.579V228.552H203.905V219.009H205.178C205.307 219.009 205.405 219.028 205.504 219.055C205.593 219.091 205.672 219.146 205.731 219.246C205.79 219.345 205.84 219.473 205.869 219.645C205.899 219.818 205.929 220.045 205.938 220.326C206.116 220.144 206.304 219.963 206.511 219.799C206.718 219.636 206.945 219.482 207.202 219.354C207.449 219.227 207.715 219.118 208.002 219.046C208.288 218.964 208.584 218.928 208.91 218.928C209.028 218.928 209.137 218.937 209.235 218.946C209.325 218.964 209.403 218.973 209.472 218.991V220.526C209.403 220.526 209.334 220.526 209.265 220.517C209.216 220.517 209.166 220.517 209.117 220.517C209.068 220.508 209.038 220.508 209.018 220.508Z" fill="#22252A"/>
<path d="M215.474 228.67C214.773 228.67 214.112 228.561 213.51 228.334C212.908 228.107 212.384 227.789 211.93 227.372C211.476 226.954 211.131 226.445 210.884 225.846C210.627 225.247 210.509 224.566 210.509 223.812C210.509 223.05 210.637 222.369 210.884 221.751C211.141 221.143 211.486 220.616 211.93 220.19C212.375 219.763 212.898 219.436 213.51 219.2C214.112 218.973 214.773 218.855 215.474 218.855C216.175 218.855 216.837 218.973 217.439 219.2C218.041 219.427 218.564 219.754 219.018 220.19C219.462 220.616 219.818 221.134 220.065 221.751C220.321 222.36 220.44 223.05 220.44 223.812C220.44 224.566 220.311 225.247 220.065 225.846C219.808 226.445 219.462 226.954 219.018 227.372C218.574 227.789 218.051 228.107 217.439 228.334C216.837 228.561 216.185 228.67 215.474 228.67ZM215.474 227.272C215.919 227.272 216.314 227.199 216.669 227.054C217.024 226.909 217.33 226.7 217.587 226.409C217.844 226.119 218.031 225.765 218.169 225.329C218.307 224.902 218.377 224.394 218.377 223.812C218.377 223.231 218.307 222.723 218.169 222.278C218.031 221.833 217.844 221.461 217.587 221.17C217.33 220.871 217.034 220.644 216.669 220.489C216.314 220.335 215.909 220.253 215.474 220.253C215.03 220.253 214.635 220.335 214.28 220.489C213.924 220.644 213.618 220.871 213.372 221.17C213.115 221.47 212.927 221.842 212.789 222.278C212.651 222.723 212.582 223.231 212.582 223.812C212.582 224.394 212.651 224.893 212.789 225.329C212.927 225.765 213.125 226.119 213.372 226.409C213.628 226.7 213.924 226.918 214.28 227.054C214.635 227.199 215.04 227.272 215.474 227.272Z" fill="#22252A"/>
<path d="M221.506 219.009H222.76V216.413H224.794V219.009H227.094V220.317H224.794V225.982C224.794 226.237 224.823 226.445 224.882 226.609C224.942 226.781 225.03 226.909 225.149 227.008C225.267 227.108 225.425 227.181 225.603 227.217C225.791 227.263 226.008 227.281 226.274 227.281H227.212V228.488C227.025 228.534 226.788 228.579 226.511 228.616C226.235 228.652 225.919 228.67 225.564 228.67C225.119 228.67 224.725 228.625 224.379 228.534C224.033 228.443 223.737 228.298 223.501 228.107C223.263 227.907 223.076 227.653 222.948 227.344C222.819 227.036 222.76 226.654 222.76 226.209V220.326H221.506V219.009Z" fill="#22252A"/>
<path d="M239.966 227.271C239.789 227.453 239.591 227.616 239.364 227.762C239.137 227.907 238.89 228.043 238.624 228.152C238.357 228.261 238.071 228.352 237.765 228.415C237.459 228.479 237.143 228.506 236.817 228.506C236.274 228.506 235.761 228.425 235.258 228.252C234.764 228.08 234.33 227.807 233.955 227.435C233.579 227.063 233.283 226.59 233.056 226C232.829 225.419 232.721 224.711 232.721 223.885C232.721 222.959 232.849 222.178 233.096 221.533C233.352 220.898 233.678 220.38 234.093 219.981C234.508 219.581 234.971 219.3 235.485 219.127C236.008 218.955 236.531 218.864 237.074 218.864C237.775 218.864 238.367 218.964 238.851 219.154C239.335 219.345 239.749 219.599 240.105 219.917C240.174 219.654 240.292 219.427 240.45 219.263C240.608 219.091 240.815 219.009 241.062 219.009H242V231.53H239.966V227.271ZM237.311 227.135C237.844 227.135 238.338 227.026 238.782 226.799C239.226 226.572 239.621 226.282 239.966 225.937V221.215C239.661 220.943 239.325 220.734 238.95 220.589C238.574 220.444 238.111 220.371 237.558 220.371C237.212 220.371 236.867 220.425 236.531 220.525C236.196 220.625 235.899 220.807 235.643 221.052C235.376 221.306 235.169 221.651 235.011 222.078C234.853 222.514 234.764 223.059 234.764 223.73C234.764 224.384 234.823 224.929 234.942 225.365C235.06 225.801 235.228 226.155 235.455 226.418C235.682 226.681 235.949 226.872 236.265 226.981C236.581 227.081 236.926 227.135 237.311 227.135Z" fill="#22252A"/>
<path d="M248.298 227.226C248.565 227.226 248.821 227.199 249.088 227.145C249.345 227.09 249.601 227.027 249.848 226.936C250.095 226.854 250.332 226.754 250.569 226.645C250.796 226.536 251.023 226.427 251.23 226.309V219H253.264V228.552H251.99C251.872 228.552 251.773 228.543 251.684 228.516C251.595 228.488 251.526 228.443 251.467 228.361C251.408 228.28 251.359 228.171 251.329 228.034C251.289 227.889 251.27 227.708 251.26 227.472C251.003 227.644 250.727 227.807 250.43 227.953C250.134 228.098 249.828 228.225 249.513 228.334C249.197 228.443 248.861 228.525 248.525 228.588C248.19 228.652 247.854 228.679 247.509 228.679C247.104 228.679 246.729 228.634 246.383 228.552C246.038 228.47 245.741 228.325 245.485 228.125C245.228 227.925 245.031 227.662 244.892 227.335C244.754 227.008 244.675 226.6 244.675 226.119V218.991H246.709V225.701C246.709 226.001 246.748 226.255 246.827 226.455C246.906 226.654 247.015 226.809 247.153 226.918C247.291 227.027 247.459 227.108 247.657 227.154C247.844 227.199 248.061 227.226 248.298 227.226Z" fill="#22252A"/>
<path d="M257.459 224.139C257.489 224.702 257.568 225.183 257.726 225.583C257.874 225.982 258.081 226.309 258.348 226.554C258.614 226.809 258.94 226.99 259.315 227.099C259.7 227.208 260.135 227.272 260.618 227.272C261.28 227.272 261.852 227.19 262.316 227.017C262.78 226.845 263.175 226.636 263.491 226.391H264.152V227.689C263.965 227.807 263.748 227.925 263.511 228.043C263.274 228.162 262.987 228.261 262.682 228.361C262.375 228.452 262.02 228.534 261.635 228.588C261.25 228.643 260.806 228.67 260.322 228.67C259.523 228.67 258.822 228.561 258.21 228.334C257.598 228.107 257.074 227.789 256.66 227.363C256.235 226.945 255.92 226.436 255.702 225.837C255.485 225.238 255.376 224.566 255.376 223.812C255.376 223.05 255.495 222.369 255.742 221.751C255.989 221.143 256.314 220.616 256.739 220.19C257.163 219.763 257.667 219.436 258.239 219.2C258.822 218.973 259.444 218.855 260.115 218.855C260.796 218.855 261.408 218.946 261.951 219.136C262.494 219.327 262.948 219.609 263.323 219.99C263.698 220.371 263.975 220.852 264.172 221.434C264.37 222.015 264.468 222.696 264.468 223.476C264.468 223.604 264.468 223.731 264.459 223.867C264.448 224.003 264.448 224.094 264.448 224.121H257.459V224.139ZM260.115 220.144C259.779 220.144 259.463 220.19 259.167 220.29C258.871 220.389 258.614 220.544 258.378 220.771C258.151 220.989 257.953 221.279 257.805 221.633C257.647 221.987 257.548 222.414 257.499 222.923H262.464C262.455 222.405 262.385 221.969 262.277 221.624C262.168 221.27 262.01 220.989 261.813 220.771C261.616 220.553 261.369 220.389 261.082 220.299C260.786 220.19 260.47 220.144 260.115 220.144Z" fill="#22252A"/>
<path d="M269.335 228.652C268.91 228.652 268.525 228.624 268.18 228.579C267.834 228.533 267.528 228.47 267.262 228.388C266.985 228.307 266.748 228.216 266.531 228.125C266.314 228.025 266.117 227.925 265.949 227.816V226.373H266.6C266.719 226.482 266.867 226.581 267.035 226.681C267.202 226.781 267.4 226.872 267.617 226.954C267.834 227.035 268.081 227.099 268.357 227.153C268.634 227.208 268.93 227.226 269.246 227.226C270.687 227.226 271.408 226.763 271.408 225.846C271.408 225.646 271.378 225.474 271.309 225.328C271.24 225.183 271.121 225.056 270.954 224.947C270.786 224.838 270.559 224.747 270.282 224.666C270.006 224.584 269.651 224.52 269.226 224.457C268.703 224.384 268.239 224.284 267.834 224.157C267.429 224.03 267.084 223.858 266.808 223.64C266.531 223.422 266.314 223.158 266.176 222.841C266.028 222.523 265.959 222.141 265.959 221.697C265.959 221.243 266.047 220.843 266.225 220.498C266.403 220.153 266.65 219.863 266.975 219.626C267.301 219.39 267.686 219.209 268.15 219.091C268.614 218.973 269.127 218.909 269.7 218.909C270.431 218.909 271.033 218.973 271.516 219.109C272 219.236 272.415 219.399 272.75 219.581V221.007H272.099C271.842 220.825 271.526 220.662 271.141 220.525C270.756 220.389 270.282 220.326 269.71 220.326C269.048 220.326 268.555 220.425 268.239 220.634C267.923 220.843 267.765 221.152 267.765 221.56C267.765 221.751 267.805 221.915 267.883 222.051C267.963 222.187 268.091 222.305 268.259 222.405C268.436 222.505 268.663 222.595 268.94 222.659C269.216 222.723 269.562 222.795 269.976 222.85C270.549 222.931 271.043 223.031 271.457 223.167C271.882 223.304 272.227 223.476 272.504 223.694C272.78 223.912 272.987 224.184 273.125 224.511C273.264 224.838 273.333 225.219 273.333 225.673C273.333 226.127 273.254 226.536 273.096 226.908C272.938 227.281 272.691 227.589 272.365 227.853C272.04 228.107 271.625 228.307 271.121 228.452C270.608 228.579 270.016 228.652 269.335 228.652Z" fill="#22252A"/>
<path d="M274.429 219.009H275.682V216.413H277.716V219.009H280.016V220.317H277.716V225.982C277.716 226.237 277.746 226.445 277.805 226.609C277.864 226.781 277.953 226.909 278.071 227.008C278.19 227.108 278.348 227.181 278.525 227.217C278.713 227.263 278.93 227.281 279.197 227.281H280.135V228.488C279.947 228.534 279.71 228.579 279.434 228.616C279.157 228.652 278.841 228.67 278.486 228.67C278.042 228.67 277.647 228.625 277.301 228.534C276.956 228.443 276.66 228.298 276.423 228.107C276.186 227.907 275.998 227.653 275.87 227.344C275.742 227.036 275.682 226.654 275.682 226.209V220.326H274.429V219.009Z" fill="#22252A"/>
</g>
</g>
<g filter="url(#filter7_d_7_2219)">
<path d="M315.875 208C315.875 196.954 324.829 188 335.875 188H363.875C374.921 188 383.875 196.954 383.875 208V236C383.875 247.046 374.921 256 363.875 256H335.875C324.829 256 315.875 247.046 315.875 236V208Z" fill="white" shape-rendering="crispEdges"/>
<path d="M349.867 206.417H349.796C341.182 206.417 334.2 213.401 334.2 222.017V222.089C334.2 230.705 341.182 237.689 349.796 237.689H349.867C358.481 237.689 365.463 230.705 365.463 222.089V222.017C365.463 213.401 358.481 206.417 349.867 206.417Z" fill="#00B0F2"/>
<path d="M340.121 221.52C340.165 221.498 340.209 221.477 340.251 221.458C340.994 221.113 341.746 220.791 342.498 220.469C342.538 220.469 342.606 220.422 342.644 220.407C342.703 220.382 342.761 220.358 342.819 220.332L343.153 220.189C343.376 220.093 343.598 219.998 343.822 219.903C344.268 219.712 344.714 219.522 345.159 219.33C346.051 218.949 346.944 218.566 347.835 218.185C348.727 217.804 349.619 217.421 350.511 217.04C351.403 216.659 352.295 216.276 353.187 215.895C354.079 215.514 354.971 215.131 355.863 214.75C356.061 214.665 356.276 214.537 356.488 214.5C356.667 214.468 356.841 214.407 357.021 214.373C357.361 214.308 357.737 214.282 358.063 214.424C358.176 214.473 358.28 214.542 358.367 214.628C358.781 215.038 358.723 215.711 358.635 216.287C358.025 220.304 357.415 224.322 356.804 228.338C356.72 228.889 356.607 229.494 356.172 229.842C355.804 230.137 355.28 230.17 354.826 230.045C354.371 229.919 353.97 229.655 353.577 229.395C351.946 228.315 350.314 227.235 348.683 226.155C348.295 225.898 347.864 225.563 347.868 225.097C347.87 224.817 348.038 224.567 348.209 224.345C349.626 222.495 351.671 221.224 353.192 219.46C353.407 219.211 353.576 218.762 353.281 218.619C353.106 218.533 352.904 218.649 352.744 218.76C350.733 220.157 348.724 221.555 346.713 222.952C346.056 223.408 345.369 223.877 344.578 223.988C343.87 224.089 343.158 223.892 342.474 223.69C341.9 223.522 341.327 223.349 340.756 223.17C340.453 223.076 340.139 222.974 339.905 222.76C339.671 222.547 339.536 222.187 339.677 221.902C339.766 221.724 339.938 221.611 340.119 221.519L340.121 221.52Z" fill="#FEFFFC"/>
</g>
<defs>
<filter id="filter0_d_7_2219" x="20.1665" y="0" width="92" height="92" filterUnits="userSpaceOnUse" color-interpolation-filters="sRGB">
<feFlood flood-opacity="0" result="BackgroundImageFix"/>
<feColorMatrix in="SourceAlpha" type="matrix" values="0 0 0 0 0 0 0 0 0 0 0 0 0 0 0 0 0 0 127 0" result="hardAlpha"/>
<feOffset/>
<feGaussianBlur stdDeviation="6"/>
<feComposite in2="hardAlpha" operator="out"/>
<feColorMatrix type="matrix" values="0 0 0 0 0.725532 0 0 0 0 0.721389 0 0 0 0 0.816667 0 0 0 0.2 0"/>
<feBlend mode="normal" in2="BackgroundImageFix" result="effect1_dropShadow_7_2219"/>
<feBlend mode="normal" in="SourceGraphic" in2="effect1_dropShadow_7_2219" result="shape"/>
</filter>
<filter id="filter1_d_7_2219" x="108.167" y="0" width="189.167" height="92" filterUnits="userSpaceOnUse" color-interpolation-filters="sRGB">
<feFlood flood-opacity="0" result="BackgroundImageFix"/>
<feColorMatrix in="SourceAlpha" type="matrix" values="0 0 0 0 0 0 0 0 0 0 0 0 0 0 0 0 0 0 127 0" result="hardAlpha"/>
<feOffset/>
<feGaussianBlur stdDeviation="6"/>
<feComposite in2="hardAlpha" operator="out"/>
<feColorMatrix type="matrix" values="0 0 0 0 0.725532 0 0 0 0 0.721389 0 0 0 0 0.816667 0 0 0 0.2 0"/>
<feBlend mode="normal" in2="BackgroundImageFix" result="effect1_dropShadow_7_2219"/>
<feBlend mode="normal" in="SourceGraphic" in2="effect1_dropShadow_7_2219" result="shape"/>
</filter>
<filter id="filter2_d_7_2219" x="293.333" y="0" width="92" height="92" filterUnits="userSpaceOnUse" color-interpolation-filters="sRGB">
<feFlood flood-opacity="0" result="BackgroundImageFix"/>
<feColorMatrix in="SourceAlpha" type="matrix" values="0 0 0 0 0 0 0 0 0 0 0 0 0 0 0 0 0 0 127 0" result="hardAlpha"/>
<feOffset/>
<feGaussianBlur stdDeviation="6"/>
<feComposite in2="hardAlpha" operator="out"/>
<feColorMatrix type="matrix" values="0 0 0 0 0.725532 0 0 0 0 0.721389 0 0 0 0 0.816667 0 0 0 0.2 0"/>
<feBlend mode="normal" in2="BackgroundImageFix" result="effect1_dropShadow_7_2219"/>
<feBlend mode="normal" in="SourceGraphic" in2="effect1_dropShadow_7_2219" result="shape"/>
</filter>
<filter id="filter3_d_7_2219" x="2.75" y="88" width="202" height="92" filterUnits="userSpaceOnUse" color-interpolation-filters="sRGB">
<feFlood flood-opacity="0" result="BackgroundImageFix"/>
<feColorMatrix in="SourceAlpha" type="matrix" values="0 0 0 0 0 0 0 0 0 0 0 0 0 0 0 0 0 0 127 0" result="hardAlpha"/>
<feOffset/>
<feGaussianBlur stdDeviation="6"/>
<feComposite in2="hardAlpha" operator="out"/>
<feColorMatrix type="matrix" values="0 0 0 0 0.725532 0 0 0 0 0.721389 0 0 0 0 0.816667 0 0 0 0.2 0"/>
<feBlend mode="normal" in2="BackgroundImageFix" result="effect1_dropShadow_7_2219"/>
<feBlend mode="normal" in="SourceGraphic" in2="effect1_dropShadow_7_2219" result="shape"/>
</filter>
<filter id="filter4_d_7_2219" x="200.75" y="88" width="202" height="92" filterUnits="userSpaceOnUse" color-interpolation-filters="sRGB">
<feFlood flood-opacity="0" result="BackgroundImageFix"/>
<feColorMatrix in="SourceAlpha" type="matrix" values="0 0 0 0 0 0 0 0 0 0 0 0 0 0 0 0 0 0 127 0" result="hardAlpha"/>
<feOffset/>
<feGaussianBlur stdDeviation="6"/>
<feComposite in2="hardAlpha" operator="out"/>
<feColorMatrix type="matrix" values="0 0 0 0 0.725532 0 0 0 0 0.721389 0 0 0 0 0.816667 0 0 0 0.2 0"/>
<feBlend mode="normal" in2="BackgroundImageFix" result="effect1_dropShadow_7_2219"/>
<feBlend mode="normal" in="SourceGraphic" in2="effect1_dropShadow_7_2219" result="shape"/>
</filter>
<filter id="filter5_d_7_2219" x="9.625" y="176" width="105.75" height="92" filterUnits="userSpaceOnUse" color-interpolation-filters="sRGB">
<feFlood flood-opacity="0" result="BackgroundImageFix"/>
<feColorMatrix in="SourceAlpha" type="matrix" values="0 0 0 0 0 0 0 0 0 0 0 0 0 0 0 0 0 0 127 0" result="hardAlpha"/>
<feOffset/>
<feGaussianBlur stdDeviation="6"/>
<feComposite in2="hardAlpha" operator="out"/>
<feColorMatrix type="matrix" values="0 0 0 0 0.725532 0 0 0 0 0.721389 0 0 0 0 0.816667 0 0 0 0.2 0"/>
<feBlend mode="normal" in2="BackgroundImageFix" result="effect1_dropShadow_7_2219"/>
<feBlend mode="normal" in="SourceGraphic" in2="effect1_dropShadow_7_2219" result="shape"/>
</filter>
<filter id="filter6_d_7_2219" x="111.375" y="176" width="196.5" height="92" filterUnits="userSpaceOnUse" color-interpolation-filters="sRGB">
<feFlood flood-opacity="0" result="BackgroundImageFix"/>
<feColorMatrix in="SourceAlpha" type="matrix" values="0 0 0 0 0 0 0 0 0 0 0 0 0 0 0 0 0 0 127 0" result="hardAlpha"/>
<feOffset/>
<feGaussianBlur stdDeviation="6"/>
<feComposite in2="hardAlpha" operator="out"/>
<feColorMatrix type="matrix" values="0 0 0 0 0.725532 0 0 0 0 0.721389 0 0 0 0 0.816667 0 0 0 0.2 0"/>
<feBlend mode="normal" in2="BackgroundImageFix" result="effect1_dropShadow_7_2219"/>
<feBlend mode="normal" in="SourceGraphic" in2="effect1_dropShadow_7_2219" result="shape"/>
</filter>
<filter id="filter7_d_7_2219" x="303.875" y="176" width="92" height="92" filterUnits="userSpaceOnUse" color-interpolation-filters="sRGB">
<feFlood flood-opacity="0" result="BackgroundImageFix"/>
<feColorMatrix in="SourceAlpha" type="matrix" values="0 0 0 0 0 0 0 0 0 0 0 0 0 0 0 0 0 0 127 0" result="hardAlpha"/>
<feOffset/>
<feGaussianBlur stdDeviation="6"/>
<feComposite in2="hardAlpha" operator="out"/>
<feColorMatrix type="matrix" values="0 0 0 0 0.725532 0 0 0 0 0.721389 0 0 0 0 0.816667 0 0 0 0.2 0"/>
<feBlend mode="normal" in2="BackgroundImageFix" result="effect1_dropShadow_7_2219"/>
<feBlend mode="normal" in="SourceGraphic" in2="effect1_dropShadow_7_2219" result="shape"/>
</filter>
<radialGradient id="paint0_radial_7_2219" cx="0" cy="0" r="1" gradientUnits="userSpaceOnUse" gradientTransform="translate(56.5818 61.4165) rotate(-57.0915) scale(33.9591)">
<stop stop-color="#0099FF"/>
<stop offset="0.609754" stop-color="#A033FF"/>
<stop offset="0.934823" stop-color="#FF5280"/>
<stop offset="1" stop-color="#FF7061"/>
</radialGradient>
<linearGradient id="paint1_linear_7_2219" x1="251.77" y1="123.399" x2="237.18" y2="138.99" gradientUnits="userSpaceOnUse">
<stop stop-color="white"/>
<stop offset="1"/>
</linearGradient>
<linearGradient id="paint2_linear_7_2219" x1="161.712" y1="212.533" x2="157.724" y2="219.107" gradientUnits="userSpaceOnUse">
<stop stop-color="#2D862D"/>
<stop offset="1" stop-color="#B34A00"/>
</linearGradient>
<clipPath id="clip0_7_2219">
<rect width="141.167" height="25.6667" fill="white" transform="translate(132.167 36.8335)"/>
</clipPath>
<clipPath id="clip1_7_2219">
<rect width="147" height="30.25" fill="white" transform="translate(29.75 119.333)"/>
</clipPath>
<clipPath id="clip2_7_2219">
<rect width="151" height="26.5833" fill="white" transform="translate(225.75 121.167)"/>
</clipPath>
<clipPath id="clip3_7_2219">
<rect width="42.075" height="33.9167" fill="white" transform="translate(41.0498 204.583)"/>
</clipPath>
<clipPath id="clip4_7_2219">
<rect width="149.497" height="29.3333" fill="white" transform="translate(135.375 207.333)"/>
</clipPath>
</defs>
</svg>
