<svg width="293" height="208" viewBox="0 0 293 208" fill="none" xmlns="http://www.w3.org/2000/svg">
<g filter="url(#filter0_d_7_2718)">
<rect x="20.75" y="12" width="52" height="52" rx="12" fill="white" shape-rendering="crispEdges"/>
<path d="M59.5 38C59.5 45.0416 53.7916 50.75 46.75 50.75C39.7084 50.75 34 45.0416 34 38C34 30.9584 39.7084 25.25 46.75 25.25C53.7916 25.25 59.5 30.9584 59.5 38Z" fill="url(#paint0_radial_7_2718)"/>
<path fill-rule="evenodd" clip-rule="evenodd" d="M38.25 37.745C38.25 33.0074 41.9617 29.5 46.75 29.5C51.5383 29.5 55.25 33.0074 55.25 37.745C55.25 42.4826 51.5383 45.99 46.75 45.99C45.8899 45.99 45.0648 45.8765 44.2895 45.6633C44.1388 45.6218 43.9785 45.6335 43.8355 45.6966L42.1484 46.4414C41.7071 46.6362 41.2089 46.3224 41.1941 45.8401L41.1478 44.3281C41.1421 44.1418 41.0583 43.9677 40.9195 43.8434C39.2656 42.3644 38.25 40.2231 38.25 37.745ZM44.1427 36.1949L41.6458 40.1562C41.4062 40.5364 41.8735 40.9648 42.2314 40.6931L44.9135 38.6576C45.0949 38.5199 45.3456 38.5192 45.5278 38.6559L47.5138 40.1453C48.1097 40.5923 48.9602 40.4353 49.3574 39.8052L51.8543 35.8438C52.0938 35.4636 51.6265 35.0352 51.2685 35.3069L48.5865 37.3424C48.4051 37.4801 48.1544 37.4808 47.9722 37.3441L45.9863 35.8547C45.3903 35.4078 44.5398 35.5647 44.1427 36.1949Z" fill="white"/>
</g>
<g filter="url(#filter1_d_7_2718)">
<rect x="80.75" y="12" width="131.5" height="52" rx="12" fill="white" shape-rendering="crispEdges"/>
<g clip-path="url(#clip0_7_2718)">
<path d="M167.23 45.74H177.655V43.4H170.784C171.732 39.56 177.537 38.72 177.537 34.46C177.537 32.18 175.997 30.5 172.739 30.5C170.725 30.5 168.948 31.1 167.764 31.7L168.474 33.86C169.54 33.32 170.784 32.84 172.324 32.84C173.509 32.84 174.634 33.38 174.634 34.76C174.634 37.88 167.823 38.12 167.23 45.74ZM177.951 42.02H184.644V45.74H187.31V42.02H189.56V39.74H187.31V30.5H185.355L177.951 40.22V42.02ZM180.972 39.86L184.763 34.7C184.763 35.12 184.644 36.44 184.644 37.64V39.8H182.867C182.334 39.8 181.327 39.86 180.972 39.86Z" fill="#005893"/>
<path d="M91.5338 43.4601V38.7201H92.6592C93.6662 38.7201 94.4954 38.8401 95.0877 39.2001C95.68 39.5601 96.0354 40.1601 96.0354 41.1201C96.0354 42.7401 95.0877 43.4601 92.8369 43.4601H91.5338ZM88.8092 45.7401H92.7777C97.22 45.7401 98.8192 43.7601 98.8192 41.0001C98.8192 39.1401 98.0492 37.8801 96.6869 37.1601C95.6208 36.5601 94.2585 36.3801 92.6 36.3801H91.5338V32.7801H97.5162L98.2269 30.5601H88.75V45.7401H88.8092ZM100.655 45.7401H103.262L106.638 40.8201C107.289 39.9201 107.763 39.0201 108.059 38.5401H108.118C108.059 39.2001 108 40.0401 108 40.8801V45.6801H110.665V34.8801H108.059L104.683 39.8001C104.091 40.7001 103.558 41.6001 103.262 42.0801H103.202C103.262 41.4201 103.321 40.5801 103.321 39.7401V34.9401H100.655V45.7401ZM115.226 45.7401H117.951V37.1601H121.149L121.86 34.8801H111.968V37.1601H115.226V45.7401ZM122.808 51.2001H125.473V45.7401C126.006 45.9201 126.539 45.9801 127.132 45.9801C130.508 45.9801 132.699 43.6401 132.699 40.2801C132.699 36.8001 130.685 34.5801 126.835 34.5801C125.355 34.5801 123.933 34.8801 122.748 35.2401V51.2001H122.808ZM125.473 43.4001V37.0401C125.888 36.9201 126.243 36.8601 126.717 36.8601C128.672 36.8601 129.915 37.9401 129.915 40.2801C129.915 42.3801 128.908 43.7001 126.895 43.7001C126.362 43.7001 125.947 43.5801 125.473 43.4001ZM134.298 45.7401H136.905L140.281 40.8201C140.932 39.9201 141.406 39.0201 141.702 38.5401H141.762C141.702 39.2001 141.643 40.0401 141.643 40.8801V45.6801H144.308V34.8801H141.702L138.326 39.8001C137.734 40.7001 137.201 41.6001 136.905 42.0801H136.845C136.905 41.4201 136.964 40.5801 136.964 39.7401V34.9401H134.298V45.7401ZM146.441 45.7401H149.165V41.2401H150.765C151.061 41.2401 151.357 41.5401 151.712 42.2601L153.075 45.7401H155.977L154.022 41.6001C153.667 40.8801 153.312 40.4601 152.778 40.2801V40.2201C153.667 39.6801 153.785 38.1201 154.318 37.3401C154.496 37.1001 154.733 36.9801 155.088 36.9801C155.266 36.9801 155.503 36.9801 155.681 37.1001V34.7601C155.385 34.6401 154.852 34.5801 154.555 34.5801C153.608 34.5801 153.015 34.9401 152.601 35.5401C151.712 36.8601 151.712 39.1401 150.409 39.1401H149.165V34.8801H146.441V45.7401ZM162.018 45.9801C163.499 45.9801 164.862 45.5001 165.691 44.9001L164.921 43.0401C164.151 43.4601 163.44 43.7601 162.433 43.7601C160.597 43.7601 159.412 42.5601 159.412 40.3401C159.412 38.3601 160.597 36.8001 162.611 36.8001C163.677 36.8001 164.447 37.1001 165.217 37.6401V35.3001C164.625 34.9401 163.677 34.5801 162.315 34.5801C159.116 34.5801 156.628 36.9801 156.628 40.4001C156.628 43.5201 158.524 45.9801 162.018 45.9801Z" fill="#0BBBEF"/>
<path d="M198.386 42.0198C201.288 42.0198 203.657 39.6198 203.657 36.6798C203.657 33.7398 201.288 31.3398 198.386 31.3398C195.483 31.3398 193.114 33.7398 193.114 36.6798C193.173 39.6198 195.483 42.0198 198.386 42.0198Z" stroke="#005893" stroke-width="1.7688"/>
<path d="M201.704 36.6802H198.801V33.7402H198.031V37.4602H201.704V36.6802Z" fill="#005893"/>
</g>
</g>
<g filter="url(#filter2_d_7_2718)">
<rect x="220.25" y="12" width="52" height="52" rx="12" fill="white" shape-rendering="crispEdges"/>
<path d="M246.32 25.25H246.262C239.214 25.25 233.501 30.9648 233.501 38.0143V38.0726C233.501 45.1221 239.214 50.8369 246.262 50.8369H246.32C253.367 50.8369 259.08 45.1221 259.08 38.0726V38.0143C259.08 30.9648 253.367 25.25 246.32 25.25Z" fill="#00E510"/>
<path d="M248.783 41.7852C245.509 41.7852 242.846 39.1201 242.845 35.8454C242.846 35.0153 243.521 34.3403 244.349 34.3403C244.435 34.3403 244.519 34.3475 244.599 34.3618C244.777 34.3914 244.945 34.4515 245.1 34.542C245.123 34.5555 245.138 34.577 245.142 34.6021L245.488 36.7831C245.492 36.8091 245.484 36.8342 245.467 36.853C245.276 37.0646 245.032 37.217 244.761 37.2932L244.63 37.3299L244.679 37.4563C245.125 38.593 246.034 39.5011 247.171 39.9493L247.298 39.9995L247.335 39.8686C247.411 39.597 247.563 39.3532 247.775 39.1622C247.79 39.1479 247.81 39.1407 247.831 39.1407C247.835 39.1407 247.84 39.1407 247.845 39.1416L250.026 39.4877C250.052 39.4921 250.073 39.5065 250.087 39.5289C250.176 39.684 250.236 39.8534 250.267 40.0309C250.281 40.1098 250.287 40.1931 250.287 40.2801C250.287 41.1093 249.613 41.7843 248.783 41.7852Z" fill="#FDFDFD"/>
<path d="M254.588 37.3247C254.412 35.3292 253.498 33.4781 252.014 32.1128C250.522 30.7395 248.587 29.9829 246.562 29.9829C242.119 29.9829 238.504 33.5991 238.504 38.0436C238.504 39.5353 238.915 40.9884 239.694 42.2542L237.957 46.0999L243.518 45.5073C244.485 45.9036 245.508 46.1044 246.561 46.1044C246.838 46.1044 247.122 46.09 247.407 46.0604C247.658 46.0336 247.912 45.9941 248.161 45.9439C251.882 45.1918 254.598 41.8884 254.62 38.0867V38.0436C254.62 37.8016 254.609 37.5596 254.587 37.3247H254.588ZM243.732 43.8194L240.655 44.1475L241.574 42.1117L241.39 41.8651C241.377 41.8472 241.363 41.8293 241.348 41.8087C240.551 40.7069 240.129 39.4053 240.129 38.0445C240.129 34.4965 243.015 31.6099 246.562 31.6099C249.885 31.6099 252.702 34.2033 252.973 37.5139C252.988 37.6913 252.996 37.8697 252.996 38.0454C252.996 38.0956 252.995 38.1449 252.994 38.1978C252.926 41.1659 250.853 43.6867 247.953 44.3285C247.732 44.3778 247.505 44.4155 247.279 44.4397C247.044 44.4666 246.803 44.48 246.564 44.48C245.712 44.48 244.884 44.3151 244.101 43.9888C244.014 43.9538 243.929 43.9162 243.849 43.8776L243.733 43.8212L243.732 43.8194Z" fill="#FDFDFD"/>
</g>
<g filter="url(#filter3_d_7_2718)">
<rect x="14.5" y="80" width="128" height="48" rx="12" fill="white" shape-rendering="crispEdges"/>
<g clip-path="url(#clip1_7_2718)">
<mask id="mask0_7_2718" style="mask-type:luminance" maskUnits="userSpaceOnUse" x="24" y="99" width="91" height="17">
<path d="M78.5214 102.293C76.7766 102.293 75.4345 103.163 74.7327 104.399H82.3588C81.7427 103.108 80.5287 102.293 78.5214 102.293ZM65.9965 102.928H62.1591C62.1406 105.591 61.9882 108.048 60.9939 110.372H65.9965V102.928ZM37.3592 102.556C34.9676 102.556 33.0276 104.322 33.0276 106.494C33.0276 108.666 34.9737 110.433 37.3592 110.433C39.7446 110.433 41.6907 108.666 41.6907 106.494C41.6907 104.322 39.7446 102.556 37.3592 102.556ZM105.158 99.908V106.111L110.673 99.908H114.339L108.721 106.237L114.669 113.075H110.893L105.158 106.483V113.075H102.089V99.908H105.158ZM94.7008 99.8204C96.6957 99.8204 98.52 100.439 99.8501 101.56L97.7514 103.524C96.9948 102.884 95.915 102.517 94.7008 102.517C92.3093 102.517 90.3694 104.317 90.3694 106.461C90.3694 108.606 92.3153 110.405 94.7008 110.405C95.8662 110.405 96.885 110.05 97.8246 109.355L99.7769 111.439C98.288 112.544 96.5798 113.102 94.7008 113.102C90.6193 113.102 87.3006 110.126 87.3006 106.461C87.3006 102.796 90.6193 99.8204 94.7008 99.8204ZM37.3592 99.8533C41.4406 99.8533 44.7595 102.829 44.7595 106.489C44.7595 110.148 41.4406 113.129 37.3592 113.129C33.7963 113.129 30.813 110.854 30.1114 107.84H27.7443V113.075H24.6816V99.908H27.7504V105.143H30.1175C30.813 102.129 33.7963 99.8533 37.3592 99.8533ZM50.0916 99.7712C52.4282 99.7712 54.4598 101.024 54.4598 103.048C54.4598 104.437 53.4957 105.34 52.1965 105.876C53.6422 106.352 54.7952 107.402 54.7952 109.076C54.7952 111.253 52.5441 113.135 49.9513 113.135C47.633 113.135 46.1627 112.074 45.217 111.187L47.3157 109.125C47.9319 109.645 48.6457 110.367 49.75 110.367C51.0434 110.367 51.6838 109.623 51.6838 108.66C51.6838 107.544 50.6712 106.789 48.4749 107.156V105.214C50.8176 105.11 51.2936 104.333 51.2936 103.622C51.2936 102.917 50.6285 102.342 49.75 102.342C48.9324 102.342 48.2553 102.665 47.694 103.212L45.4916 101.336C46.608 100.318 48.2736 99.7712 50.0916 99.7712ZM78.5214 99.6782C82.1513 99.6782 84.9699 101.691 85.6959 104.809C85.8057 105.28 85.8181 106.21 85.7022 106.893H74.2143C74.4157 108.928 76.0322 110.608 78.5214 110.608C80.8397 110.608 82.0479 109.399 82.8104 108.387L85.2628 109.776C83.884 111.461 82.2185 113.244 78.5154 113.244C74.4339 113.244 71.1149 110.203 71.1149 106.461C71.1273 102.72 74.446 99.6782 78.5214 99.6782ZM69.0592 100.225V110.367H70.5904V115.268H67.5216V113.069H59.1209V115.268H56.0521V110.367H57.6323C59.0171 108.026 59.0964 105.444 59.0964 101.598V100.225H69.0592Z" fill="white"/>
</mask>
<g mask="url(#mask0_7_2718)">
<mask id="mask1_7_2718" style="mask-type:luminance" maskUnits="userSpaceOnUse" x="24" y="93" width="108" height="23">
<path d="M131.392 93.3335H24.6816V115.268H131.392V93.3335Z" fill="white"/>
</mask>
<g mask="url(#mask1_7_2718)">
<path d="M117.655 96.959H21.6953V117.987H117.655V96.959Z" fill="#2B2B2B"/>
</g>
</g>
<mask id="mask2_7_2718" style="mask-type:luminance" maskUnits="userSpaceOnUse" x="116" y="93" width="16" height="14">
<path d="M124.177 93.337C119.742 93.2119 116.124 96.4269 116.265 100.354C116.394 103.912 119.663 106.817 123.674 106.926C128.109 107.051 131.728 103.836 131.586 99.9084C131.458 96.3507 128.189 93.4513 124.177 93.337ZM123.926 103.531C121.81 103.531 120.092 102.008 120.092 100.131C120.092 98.2547 121.81 96.7315 123.926 96.7315C126.042 96.7315 127.759 98.2547 127.759 100.131C127.759 102.008 126.042 103.531 123.926 103.531Z" fill="white"/>
</mask>
<g mask="url(#mask2_7_2718)">
<mask id="mask3_7_2718" style="mask-type:luminance" maskUnits="userSpaceOnUse" x="24" y="93" width="108" height="23">
<path d="M131.591 93.3335H24.2832V115.087H131.591V93.3335Z" fill="white"/>
</mask>
<g mask="url(#mask3_7_2718)">
<mask id="mask4_7_2718" style="mask-type:luminance" maskUnits="userSpaceOnUse" x="115" y="93" width="17" height="15">
<path d="M131.59 93.3335H115.663V107.473H131.59V93.3335Z" fill="white"/>
</mask>
<g mask="url(#mask4_7_2718)">
<mask id="mask5_7_2718" style="mask-type:luminance" maskUnits="userSpaceOnUse" x="115" y="93" width="17" height="15">
<path d="M131.589 93.3335H115.662V107.473H131.589V93.3335Z" fill="white"/>
</mask>
<g mask="url(#mask5_7_2718)">
<path d="M134.775 90.6143H113.273V109.648H134.775V90.6143Z" fill="#FA002D"/>
</g>
</g>
<mask id="mask6_7_2718" style="mask-type:luminance" maskUnits="userSpaceOnUse" x="115" y="93" width="17" height="15">
<path d="M131.59 93.3335H115.663V107.473H131.59V93.3335Z" fill="white"/>
</mask>
<g mask="url(#mask6_7_2718)">
<mask id="mask7_7_2718" style="mask-type:luminance" maskUnits="userSpaceOnUse" x="116" y="93" width="16" height="14">
<path d="M131.589 94.6931L130.057 93.3335L123.925 98.7719L117.793 93.3335L116.26 94.6931L122.391 100.131L116.26 105.57L117.793 106.929L123.925 101.491L130.057 106.929L131.589 105.57L125.458 100.131L131.589 94.6931Z" fill="white"/>
</mask>
<g mask="url(#mask7_7_2718)">
<mask id="mask8_7_2718" style="mask-type:luminance" maskUnits="userSpaceOnUse" x="115" y="93" width="17" height="15">
<path d="M131.589 93.3335H115.662V107.473H131.589V93.3335Z" fill="white"/>
</mask>
<g mask="url(#mask8_7_2718)">
<path d="M134.775 90.6143H113.273V109.648H134.775V90.6143Z" fill="white"/>
</g>
</g>
</g>
</g>
</g>
</g>
</g>
<g filter="url(#filter4_d_7_2718)">
<rect x="150.5" y="80" width="128" height="48" rx="12" fill="white" shape-rendering="crispEdges"/>
<g clip-path="url(#clip2_7_2718)">
<mask id="mask9_7_2718" style="mask-type:luminance" maskUnits="userSpaceOnUse" x="159" y="94" width="111" height="20">
<path d="M269.046 94.6665H159.228V114H269.046V94.6665Z" fill="white"/>
</mask>
<g mask="url(#mask9_7_2718)">
<path fill-rule="evenodd" clip-rule="evenodd" d="M164.121 95.1753H174.994C177.386 95.1753 179.343 97.0069 179.343 99.2454V109.421C179.343 111.66 177.386 113.491 174.994 113.491H164.121C161.729 113.491 159.771 111.66 159.771 109.421V99.2453C159.771 97.0069 161.729 95.1753 164.121 95.1753Z" fill="#E53E0D"/>
</g>
<mask id="mask10_7_2718" style="mask-type:luminance" maskUnits="userSpaceOnUse" x="159" y="95" width="21" height="19">
<mask id="mask11_7_2718" style="mask-type:luminance" maskUnits="userSpaceOnUse" x="159" y="94" width="111" height="20">
<path d="M269.046 94.6665H159.228V114H269.046V94.6665Z" fill="white"/>
</mask>
<g mask="url(#mask11_7_2718)">
<path d="M179.343 95.1753H159.771V113.491H179.343V95.1753Z" fill="url(#paint1_linear_7_2718)"/>
</g>
</mask>
<g mask="url(#mask10_7_2718)">
<mask id="mask12_7_2718" style="mask-type:luminance" maskUnits="userSpaceOnUse" x="159" y="94" width="111" height="20">
<path d="M269.046 94.6665H159.228V114H269.046V94.6665Z" fill="white"/>
</mask>
<g mask="url(#mask12_7_2718)">
<path fill-rule="evenodd" clip-rule="evenodd" d="M164.121 95.1753H174.994C177.386 95.1753 179.343 97.0069 179.343 99.2454V109.421C179.343 111.66 177.386 113.491 174.994 113.491H164.121C161.729 113.491 159.771 111.66 159.771 109.421V99.2453C159.771 97.0069 161.729 95.1753 164.121 95.1753Z" fill="#DD1D1D"/>
</g>
</g>
<mask id="mask13_7_2718" style="mask-type:luminance" maskUnits="userSpaceOnUse" x="159" y="94" width="111" height="20">
<path d="M269.046 94.6665H159.228V114H269.046V94.6665Z" fill="white"/>
</mask>
<g mask="url(#mask13_7_2718)">
<path fill-rule="evenodd" clip-rule="evenodd" d="M167.382 110.438H172.819V107.386H168.47C167.274 107.386 166.295 106.469 166.295 105.35V101.28H163.033V106.368C163.033 108.607 164.99 110.438 167.382 110.438Z" fill="white"/>
</g>
<mask id="mask14_7_2718" style="mask-type:luminance" maskUnits="userSpaceOnUse" x="159" y="94" width="111" height="20">
<path d="M269.046 94.6665H159.228V114H269.046V94.6665Z" fill="white"/>
</mask>
<g mask="url(#mask14_7_2718)">
<path fill-rule="evenodd" clip-rule="evenodd" d="M171.731 98.228H166.295V101.281H170.644C171.84 101.281 172.819 102.197 172.819 103.316V107.386H176.081V102.298C176.081 100.06 174.124 98.228 171.731 98.228Z" fill="white"/>
</g>
<mask id="mask15_7_2718" style="mask-type:luminance" maskUnits="userSpaceOnUse" x="159" y="94" width="111" height="20">
<path d="M269.046 94.6665H159.228V114H269.046V94.6665Z" fill="white"/>
</mask>
<g mask="url(#mask15_7_2718)">
<path fill-rule="evenodd" clip-rule="evenodd" d="M204.351 102.298C206.145 102.298 207.613 103.671 207.613 105.35C207.613 107.029 206.145 108.403 204.351 108.403C202.557 108.403 201.089 107.029 201.089 105.35C201.089 103.671 202.557 102.298 204.351 102.298ZM204.351 99.245C207.939 99.245 210.875 101.992 210.875 105.35V111.456H207.613V110.632C206.652 111.155 205.537 111.456 204.351 111.456C200.763 111.456 197.827 108.708 197.827 105.35C197.827 101.992 200.763 99.245 204.351 99.245ZM264.944 104.078C264.429 103.027 263.295 102.298 261.979 102.298C260.662 102.298 259.528 103.028 259.013 104.078H264.944ZM261.979 99.245C265.581 99.245 268.502 101.978 268.502 105.35C268.502 105.787 268.453 106.212 268.36 106.622H267.735H264.944H259.013C259.528 107.673 260.662 108.403 261.979 108.403C262.851 108.403 263.643 108.083 264.228 107.561L267.351 108.814C266.174 110.41 264.207 111.456 261.978 111.456C258.375 111.456 255.454 108.722 255.454 105.35C255.455 101.978 258.375 99.245 261.979 99.245ZM213.05 96.1924H216.312V111.456H213.05V96.1924ZM225.282 105.35L230.447 111.456H226.369L221.748 105.993V111.456H218.486V96.1924H221.748V104.708L226.369 99.245H230.447L225.282 105.35ZM230.99 104.333H234.252V107.385H230.99V104.333ZM247.028 99.245H249.475C251.867 99.245 253.824 101.077 253.824 103.315V111.456H250.562V103.654C250.562 102.908 249.909 102.298 249.112 102.298H247.161C247.252 102.623 247.299 102.964 247.299 103.315V111.456H244.038V103.654C244.038 102.908 243.386 102.298 242.588 102.298H240.776V111.456H237.514V99.245H242.95C244.812 99.245 246.411 100.355 247.028 101.903V99.245H247.028ZM190.216 96.1924H193.478V99.245H196.74V102.298H193.478V106.368C193.478 107.486 194.457 108.403 195.653 108.403H196.74V111.456H194.565C192.174 111.456 190.216 109.624 190.216 107.386V102.298H186.954V99.245H188.585C189.482 99.245 190.216 98.5581 190.216 97.7187V96.1924Z" fill="#2B2B2B"/>
</g>
</g>
</g>
<g filter="url(#filter5_d_7_2718)">
<rect x="12.125" y="144" width="63.25" height="52" rx="12" fill="white" shape-rendering="crispEdges"/>
<g clip-path="url(#clip3_7_2718)">
<path fill-rule="evenodd" clip-rule="evenodd" d="M35.7848 164.895H34.4163C34.2738 164.905 34.1395 164.973 34.0385 165.085C33.9376 165.197 33.8768 165.347 33.8675 165.505V176.98C33.867 177.06 33.8814 177.14 33.9097 177.214C33.938 177.289 33.9797 177.355 34.0321 177.411C34.081 177.47 34.1405 177.517 34.2068 177.549C34.273 177.581 34.3446 177.597 34.4168 177.596H35.7853C35.8548 177.595 35.9234 177.578 35.9868 177.546C36.0502 177.515 36.1069 177.468 36.1535 177.411C36.2098 177.358 36.2549 177.292 36.2853 177.218C36.3158 177.143 36.3309 177.062 36.3296 176.98V165.511C36.3268 165.432 36.3097 165.355 36.2794 165.284C36.2492 165.213 36.2063 165.15 36.1535 165.098C36.1101 165.035 36.0542 164.984 35.9903 164.949C35.9264 164.913 35.8561 164.895 35.7848 164.895ZM48.2711 164.926H47.1665C47.0222 164.893 46.8723 164.909 46.7362 164.971C46.6 165.034 46.4839 165.14 46.4027 165.277L43.2481 173.042H43.1932L40.1867 165.277C40.1473 165.169 40.0785 165.077 39.9899 165.014C39.9013 164.951 39.7973 164.92 39.6923 164.926H38.203C38.1191 164.914 38.0339 164.928 37.9565 164.966C37.8791 165.004 37.8124 165.065 37.7635 165.142C37.7248 165.218 37.7069 165.305 37.7117 165.393C37.7166 165.48 37.7441 165.564 37.7909 165.635L42.6803 177.572C42.7233 177.675 42.7938 177.762 42.8823 177.819C42.9709 177.876 43.0731 177.902 43.1752 177.892H43.3249C43.4223 177.895 43.5185 177.867 43.6015 177.81C43.6845 177.753 43.7507 177.67 43.7919 177.572L48.6812 165.635C48.7279 165.565 48.7553 165.481 48.7602 165.393C48.765 165.306 48.7471 165.219 48.7087 165.142C48.6587 165.067 48.5922 165.008 48.5155 164.97C48.4389 164.932 48.3547 164.916 48.2711 164.925V164.926ZM54.8877 164.637C54.1241 164.625 53.367 164.793 52.6655 165.129C51.9639 165.464 51.3336 165.96 50.8156 166.584C50.2691 167.193 49.8377 167.917 49.5469 168.714C49.2562 169.511 49.112 170.364 49.1228 171.224C49.1023 172.974 49.7072 174.661 50.8046 175.914C51.3226 176.538 51.9511 177.036 52.6505 177.376C53.3499 177.717 54.105 177.893 54.8685 177.893C55.6319 177.893 56.3871 177.717 57.0865 177.376C57.7859 177.036 58.4144 176.538 58.9324 175.914C59.4798 175.296 59.9114 174.563 60.202 173.758C60.4926 172.953 60.6365 172.091 60.6252 171.223C60.636 170.363 60.4918 169.51 60.201 168.713C59.9103 167.916 59.4789 167.191 58.9324 166.583C58.4183 165.962 57.7927 165.467 57.0959 165.132C56.3992 164.796 55.6468 164.628 54.8877 164.637ZM57.2785 174.12C56.972 174.486 56.6013 174.779 56.1893 174.979C55.7773 175.179 55.3328 175.284 54.8831 175.285C54.4335 175.287 53.9883 175.186 53.5751 174.989C53.1618 174.792 52.7893 174.503 52.4804 174.139C51.8274 173.348 51.4784 172.304 51.5081 171.231C51.4815 170.18 51.8312 169.16 52.4804 168.396C52.7873 168.029 53.1604 167.738 53.5752 167.543C53.99 167.347 54.4373 167.252 54.8877 167.262C55.336 167.249 55.7815 167.343 56.1941 167.539C56.6066 167.735 56.9764 168.027 57.2785 168.396C57.6 168.774 57.8514 169.219 58.0183 169.705C58.1851 170.192 58.2641 170.71 58.2509 171.231C58.2693 172.296 57.9215 173.33 57.2785 174.12ZM30.6465 164.895H26.749C26.6788 164.898 26.6099 164.917 26.5466 164.951C26.4833 164.985 26.4269 165.033 26.3808 165.092C26.3274 165.145 26.2842 165.209 26.254 165.282C26.2238 165.354 26.2072 165.432 26.2052 165.511V167.046C26.2068 167.127 26.2232 167.207 26.2534 167.281C26.2836 167.356 26.3269 167.422 26.3808 167.477C26.4281 167.533 26.485 167.579 26.5482 167.611C26.6115 167.642 26.6797 167.66 26.749 167.662H28.7277V178.711C28.7302 179.204 28.5708 179.682 28.2794 180.054C27.9879 180.426 27.5845 180.667 27.1446 180.732H26.749C26.6038 180.737 26.4659 180.803 26.3637 180.918C26.2615 181.033 26.203 181.187 26.2002 181.349V182.883C26.2012 183.043 26.2544 183.196 26.3499 183.315C26.4002 183.375 26.4615 183.423 26.5297 183.455C26.598 183.486 26.6715 183.502 26.7455 183.499H26.9381C28.0205 183.493 29.0601 183.028 29.8452 182.199C30.6302 181.37 31.1018 180.24 31.1639 179.038C31.1801 178.942 31.1874 178.845 31.1858 178.748V165.511C31.1863 165.43 31.172 165.35 31.1436 165.276C31.1153 165.202 31.0737 165.135 31.0212 165.08C30.9748 165.02 30.9171 164.973 30.8524 164.941C30.7876 164.909 30.7173 164.893 30.6465 164.895Z" fill="#0B1F35"/>
<path fill-rule="evenodd" clip-rule="evenodd" d="M26.2336 155.75C25.8928 162.954 31.1683 163.977 31.1683 163.977C30.9049 156.089 26.2336 155.75 26.2336 155.75Z" fill="#1BC339"/>
</g>
</g>
<g filter="url(#filter6_d_7_2718)">
<rect x="83.375" y="144" width="137.5" height="52" rx="12" fill="white" shape-rendering="crispEdges"/>
<path d="M113.261 173.923V167.417C113.261 167.417 113.263 167.416 113.263 167.416C113.263 166.384 113.87 166.235 114.191 166.215C114.857 166.172 115.845 166.285 117.233 166.577C117.794 166.695 118.377 166.492 118.71 166.061C119.043 165.63 119.061 165.057 118.755 164.61C118.662 164.474 118.563 164.347 118.46 164.229C118.635 164.077 118.77 163.884 118.844 163.664C119.015 163.156 118.834 162.605 118.387 162.268C118.106 162.057 117.813 161.891 117.516 161.763L117.517 161.751C117.541 161.166 117.138 160.638 116.531 160.458C115.597 160.182 114.717 160.212 113.972 160.376C113.557 159.443 112.896 158.83 112.269 158.56C111.813 158.364 111.277 158.404 110.861 158.665C110.545 158.864 110.334 159.169 110.267 159.506C109.617 159.229 108.987 159.141 108.485 159.186C107.996 159.23 107.566 159.504 107.348 159.909C107.131 160.315 107.158 160.794 107.419 161.177C107.603 161.448 107.861 161.932 107.995 162.426C108.142 162.964 107.698 163.28 107.225 163.28L107.225 163.281H106.657C106.645 163.28 106.634 163.28 106.621 163.28L106.621 163.281H98.3451C96.626 163.281 95.251 164.558 95.251 166.131L95.251 177.994C95.251 178.575 95.5433 179.148 96.1113 179.504L96.1226 179.512L96.134 179.518C97.0186 180.051 98.2546 179.87 98.8771 179.009L100.476 176.828C100.485 176.816 100.491 176.81 100.511 176.802C100.536 176.791 100.596 176.773 100.696 176.773H110.156C111.862 176.773 113.261 175.507 113.261 173.923Z" fill="url(#paint2_linear_7_2718)"/>
<path fill-rule="evenodd" clip-rule="evenodd" d="M96.9136 178.427C96.759 178.33 96.6729 178.173 96.6729 177.994L96.6729 166.131C96.6729 165.273 97.4179 164.586 98.3452 164.586H110.156C111.091 164.586 111.84 165.28 111.84 166.131V173.923C111.84 174.781 111.083 175.467 110.156 175.467H100.696C100.135 175.467 99.6141 175.666 99.2968 176.099L97.6944 178.285C97.5236 178.523 97.1739 178.583 96.9136 178.427Z" fill="#FF8833"/>
<path d="M113.061 165.122C113.981 164.75 115.493 164.871 117.551 165.305C116.96 164.441 116.021 164.116 114.91 164.006C115.613 163.548 116.921 163.323 117.485 163.278C116.193 162.305 114.421 162.752 113.749 163.079C114.322 162.541 115.362 161.863 116.096 161.701C114.693 161.287 113.424 161.874 112.965 162.219C112.878 160.648 112.062 159.913 111.665 159.742C111.705 160.265 111.704 161.499 111.387 162.249C110.452 160.723 109.155 160.437 108.624 160.485C109.019 161.065 109.617 162.278 109.483 163.281H110.156C111.49 163.281 112.619 164.048 113.061 165.122Z" fill="#5CD65C"/>
<path d="M108.57 166.727H99.9421C99.5491 166.727 99.2305 167.02 99.2305 167.382C99.2305 167.743 99.5491 168.036 99.9421 168.036H108.57C108.963 168.036 109.281 167.743 109.281 167.382C109.281 167.02 108.963 166.727 108.57 166.727Z" fill="#B34A01"/>
<path d="M107.232 169.345H101.281C100.888 169.345 100.569 169.638 100.569 170C100.569 170.361 100.888 170.654 101.281 170.654H107.232C107.625 170.654 107.943 170.361 107.943 170C107.943 169.638 107.625 169.345 107.232 169.345Z" fill="#B34A01"/>
<path d="M105.56 171.963H102.951C102.558 171.963 102.239 172.256 102.239 172.618C102.239 172.979 102.558 173.272 102.951 173.272H105.56C105.953 173.272 106.272 172.979 106.272 172.618C106.272 172.256 105.953 171.963 105.56 171.963Z" fill="#B34A01"/>
<path d="M127.592 175.457C126.833 175.457 126.146 175.338 125.524 175.1C124.902 174.863 124.369 174.521 123.933 174.068C123.489 173.615 123.15 173.057 122.907 172.396C122.665 171.735 122.544 170.977 122.544 170.131C122.544 169.284 122.673 168.533 122.94 167.872C123.206 167.211 123.57 166.654 124.038 166.201C124.506 165.748 125.056 165.406 125.686 165.161C126.316 164.923 127.002 164.804 127.745 164.804C128.149 164.804 128.513 164.826 128.828 164.864C129.143 164.901 129.425 164.96 129.684 165.034C129.942 165.109 130.176 165.198 130.387 165.302C130.605 165.406 130.815 165.525 131.024 165.651V166.921H130.346C130.217 166.795 130.064 166.684 129.902 166.58C129.74 166.476 129.555 166.379 129.345 166.305C129.135 166.223 128.909 166.164 128.658 166.119C128.408 166.074 128.117 166.052 127.802 166.052C127.285 166.052 126.816 166.141 126.389 166.312C125.968 166.483 125.605 166.743 125.298 167.077C124.999 167.419 124.765 167.835 124.595 168.34C124.426 168.845 124.345 169.425 124.345 170.079C124.345 171.46 124.636 172.5 125.217 173.199C125.799 173.897 126.615 174.239 127.665 174.239C128.028 174.239 128.351 174.209 128.642 174.15C128.933 174.09 129.191 174.008 129.425 173.904C129.66 173.8 129.869 173.682 130.064 173.548C130.257 173.414 130.435 173.266 130.597 173.11H131.17V174.35C130.976 174.506 130.758 174.655 130.508 174.788C130.265 174.922 129.999 175.041 129.7 175.145C129.409 175.242 129.086 175.323 128.739 175.383C128.384 175.427 128.004 175.457 127.592 175.457Z" fill="#22252A"/>
<path d="M138.633 175.368C138.471 175.368 138.334 175.353 138.221 175.33C138.108 175.308 138.011 175.264 137.938 175.197C137.865 175.13 137.809 175.041 137.76 174.929C137.712 174.818 137.68 174.677 137.663 174.498C137.348 174.818 136.985 175.056 136.581 175.212C136.177 175.375 135.693 175.449 135.119 175.449C134.731 175.449 134.376 175.397 134.053 175.301C133.73 175.204 133.447 175.056 133.213 174.862C132.979 174.669 132.793 174.424 132.664 174.134C132.535 173.845 132.462 173.503 132.462 173.124C132.462 172.723 132.543 172.374 132.704 172.077C132.866 171.779 133.1 171.527 133.391 171.334C133.681 171.133 134.029 170.992 134.433 170.895C134.836 170.799 135.281 170.747 135.757 170.747C136.121 170.747 136.452 170.762 136.743 170.799C137.033 170.836 137.324 170.888 137.623 170.955V169.922C137.623 169.454 137.478 169.113 137.187 168.905C136.896 168.697 136.476 168.585 135.911 168.585C135.402 168.585 134.958 168.645 134.57 168.771C134.182 168.897 133.851 169.046 133.585 169.224H133.051V168.095C133.245 168.006 133.439 167.924 133.657 167.842C133.867 167.761 134.102 167.694 134.352 167.634C134.602 167.575 134.877 167.523 135.16 167.486C135.45 167.449 135.765 167.426 136.105 167.426C136.605 167.426 137.058 167.471 137.453 167.56C137.849 167.649 138.18 167.79 138.447 167.976C138.713 168.169 138.923 168.414 139.069 168.719C139.214 169.023 139.287 169.387 139.287 169.811V175.36H138.633V175.368ZM135.652 174.409C135.878 174.409 136.08 174.387 136.266 174.342C136.452 174.298 136.622 174.231 136.783 174.149C136.945 174.068 137.09 173.971 137.227 173.867C137.364 173.756 137.494 173.637 137.615 173.51V171.854C137.373 171.802 137.13 171.765 136.864 171.742C136.605 171.713 136.323 171.705 136.032 171.705C135.749 171.705 135.483 171.728 135.249 171.779C135.006 171.832 134.804 171.913 134.635 172.017C134.465 172.121 134.328 172.262 134.231 172.433C134.134 172.604 134.085 172.805 134.085 173.042C134.085 173.288 134.126 173.496 134.206 173.666C134.287 173.837 134.392 173.978 134.538 174.09C134.675 174.201 134.845 174.283 135.038 174.335C135.216 174.387 135.426 174.409 135.652 174.409Z" fill="#22252A"/>
<path d="M145.572 168.778C145.281 168.778 145.014 168.801 144.764 168.853C144.514 168.905 144.287 168.972 144.077 169.053C143.867 169.135 143.682 169.232 143.504 169.336C143.334 169.44 143.181 169.551 143.052 169.655V175.36H141.388V167.553H142.43C142.535 167.553 142.615 167.568 142.696 167.59C142.769 167.62 142.834 167.664 142.882 167.746C142.93 167.828 142.971 167.932 142.995 168.073C143.019 168.214 143.043 168.4 143.052 168.63C143.197 168.481 143.35 168.333 143.52 168.199C143.69 168.065 143.875 167.939 144.085 167.835C144.287 167.731 144.505 167.642 144.74 167.582C144.974 167.516 145.216 167.486 145.483 167.486C145.58 167.486 145.668 167.493 145.749 167.501C145.822 167.516 145.887 167.523 145.943 167.538V168.793C145.887 168.793 145.83 168.793 145.773 168.786C145.733 168.786 145.693 168.786 145.652 168.786C145.62 168.778 145.588 168.778 145.572 168.778Z" fill="#22252A"/>
<path d="M151.629 168.778C151.338 168.778 151.072 168.801 150.821 168.853C150.571 168.905 150.345 168.972 150.135 169.053C149.925 169.135 149.739 169.232 149.562 169.336C149.392 169.44 149.238 169.551 149.109 169.655V175.36H147.445V167.553H148.487C148.592 167.553 148.673 167.568 148.754 167.59C148.826 167.62 148.891 167.664 148.94 167.746C148.988 167.828 149.029 167.932 149.053 168.073C149.077 168.214 149.101 168.4 149.109 168.63C149.255 168.481 149.408 168.333 149.578 168.199C149.747 168.065 149.933 167.939 150.143 167.835C150.345 167.731 150.563 167.642 150.797 167.582C151.032 167.516 151.274 167.486 151.54 167.486C151.637 167.486 151.726 167.493 151.807 167.501C151.88 167.516 151.944 167.523 152.001 167.538V168.793C151.944 168.793 151.888 168.793 151.831 168.786C151.791 168.786 151.75 168.786 151.71 168.786C151.669 168.778 151.645 168.778 151.629 168.778Z" fill="#22252A"/>
<path d="M156.911 175.457C156.338 175.457 155.797 175.368 155.304 175.182C154.811 174.996 154.383 174.736 154.012 174.394C153.64 174.053 153.357 173.637 153.156 173.146C152.946 172.656 152.849 172.099 152.849 171.482C152.849 170.858 152.954 170.301 153.156 169.796C153.366 169.298 153.648 168.867 154.012 168.518C154.375 168.169 154.803 167.902 155.304 167.709C155.797 167.523 156.338 167.426 156.911 167.426C157.485 167.426 158.026 167.523 158.519 167.709C159.011 167.894 159.439 168.162 159.811 168.518C160.174 168.867 160.465 169.291 160.667 169.796C160.877 170.294 160.974 170.858 160.974 171.482C160.974 172.099 160.869 172.656 160.667 173.146C160.457 173.637 160.174 174.053 159.811 174.394C159.448 174.736 159.019 174.996 158.519 175.182C158.026 175.368 157.493 175.457 156.911 175.457ZM156.911 174.313C157.275 174.313 157.598 174.253 157.889 174.134C158.179 174.016 158.43 173.845 158.64 173.607C158.85 173.369 159.003 173.08 159.116 172.723C159.229 172.374 159.286 171.958 159.286 171.482C159.286 171.007 159.229 170.591 159.116 170.227C159.003 169.863 158.85 169.558 158.64 169.321C158.43 169.075 158.187 168.89 157.889 168.763C157.598 168.637 157.267 168.57 156.911 168.57C156.548 168.57 156.225 168.637 155.934 168.763C155.643 168.89 155.393 169.075 155.191 169.321C154.981 169.566 154.828 169.87 154.714 170.227C154.601 170.591 154.545 171.007 154.545 171.482C154.545 171.958 154.601 172.366 154.714 172.723C154.828 173.08 154.989 173.369 155.191 173.607C155.401 173.845 155.643 174.023 155.934 174.134C156.225 174.253 156.556 174.313 156.911 174.313Z" fill="#22252A"/>
<path d="M161.847 167.553H162.872V165.428H164.536V167.553H166.418V168.623H164.536V173.258C164.536 173.466 164.56 173.637 164.609 173.771C164.657 173.912 164.73 174.016 164.827 174.098C164.924 174.179 165.053 174.239 165.199 174.268C165.352 174.306 165.53 174.32 165.748 174.32H166.515V175.308C166.362 175.346 166.168 175.383 165.942 175.412C165.715 175.442 165.457 175.457 165.166 175.457C164.803 175.457 164.48 175.42 164.197 175.346C163.914 175.271 163.672 175.152 163.478 174.996C163.284 174.833 163.131 174.625 163.026 174.372C162.921 174.12 162.872 173.808 162.872 173.444V168.63H161.847V167.553Z" fill="#22252A"/>
<path d="M176.95 174.313C176.804 174.461 176.643 174.595 176.457 174.714C176.271 174.833 176.069 174.944 175.851 175.033C175.633 175.122 175.399 175.197 175.149 175.249C174.898 175.301 174.64 175.323 174.373 175.323C173.929 175.323 173.509 175.256 173.097 175.115C172.693 174.974 172.338 174.751 172.031 174.446C171.724 174.142 171.482 173.755 171.296 173.273C171.11 172.797 171.021 172.218 171.021 171.542C171.021 170.784 171.126 170.145 171.328 169.618C171.538 169.098 171.805 168.674 172.144 168.347C172.483 168.02 172.863 167.79 173.283 167.649C173.711 167.508 174.139 167.434 174.583 167.434C175.157 167.434 175.641 167.515 176.037 167.671C176.433 167.827 176.772 168.035 177.063 168.295C177.119 168.08 177.216 167.894 177.346 167.76C177.475 167.619 177.644 167.552 177.846 167.552H178.614V177.797H176.95V174.313ZM174.777 174.201C175.213 174.201 175.617 174.112 175.981 173.926C176.344 173.741 176.667 173.503 176.95 173.221V169.358C176.7 169.135 176.425 168.964 176.118 168.845C175.811 168.726 175.431 168.667 174.979 168.667C174.696 168.667 174.414 168.711 174.139 168.793C173.865 168.875 173.622 169.023 173.412 169.224C173.194 169.432 173.025 169.714 172.895 170.063C172.766 170.42 172.693 170.866 172.693 171.415C172.693 171.95 172.742 172.396 172.839 172.753C172.936 173.109 173.073 173.399 173.259 173.614C173.444 173.83 173.663 173.986 173.921 174.075C174.18 174.157 174.462 174.201 174.777 174.201Z" fill="#22252A"/>
<path d="M183.767 174.276C183.985 174.276 184.195 174.254 184.413 174.209C184.623 174.165 184.833 174.112 185.035 174.038C185.237 173.971 185.431 173.89 185.625 173.8C185.81 173.711 185.996 173.622 186.166 173.526V167.546H187.83V175.361H186.788C186.691 175.361 186.61 175.353 186.537 175.331C186.465 175.309 186.408 175.271 186.36 175.205C186.311 175.138 186.271 175.049 186.247 174.937C186.214 174.818 186.198 174.67 186.19 174.477C185.98 174.618 185.754 174.751 185.512 174.87C185.269 174.989 185.019 175.093 184.76 175.182C184.502 175.271 184.227 175.338 183.953 175.39C183.678 175.442 183.404 175.465 183.121 175.465C182.79 175.465 182.483 175.427 182.2 175.361C181.917 175.294 181.675 175.175 181.465 175.011C181.255 174.848 181.094 174.633 180.98 174.365C180.867 174.098 180.803 173.763 180.803 173.37V167.538H182.467V173.028C182.467 173.273 182.499 173.481 182.564 173.644C182.628 173.808 182.717 173.934 182.83 174.023C182.943 174.112 183.081 174.179 183.242 174.216C183.396 174.254 183.573 174.276 183.767 174.276Z" fill="#22252A"/>
<path d="M191.262 171.75C191.286 172.21 191.351 172.604 191.48 172.931C191.601 173.258 191.771 173.525 191.989 173.726C192.207 173.934 192.474 174.082 192.78 174.172C193.095 174.261 193.451 174.313 193.847 174.313C194.388 174.313 194.856 174.246 195.236 174.105C195.615 173.964 195.938 173.793 196.197 173.592H196.738V174.654C196.584 174.751 196.407 174.848 196.213 174.944C196.019 175.041 195.785 175.122 195.535 175.204C195.284 175.278 194.993 175.345 194.678 175.39C194.363 175.434 194 175.457 193.604 175.457C192.95 175.457 192.376 175.368 191.876 175.182C191.375 174.996 190.947 174.736 190.608 174.387C190.26 174.045 190.002 173.629 189.824 173.139C189.647 172.649 189.558 172.099 189.558 171.482C189.558 170.858 189.655 170.301 189.857 169.796C190.058 169.298 190.325 168.867 190.672 168.518C191.02 168.169 191.431 167.902 191.9 167.709C192.376 167.523 192.885 167.426 193.434 167.426C193.992 167.426 194.493 167.501 194.937 167.657C195.381 167.813 195.753 168.043 196.06 168.355C196.366 168.667 196.593 169.061 196.754 169.536C196.916 170.011 196.997 170.569 196.997 171.207C196.997 171.311 196.997 171.415 196.988 171.527C196.98 171.638 196.98 171.713 196.98 171.735H191.262V171.75ZM193.434 168.481C193.16 168.481 192.901 168.518 192.659 168.6C192.417 168.682 192.207 168.808 192.013 168.994C191.827 169.172 191.666 169.41 191.545 169.699C191.415 169.989 191.335 170.338 191.294 170.754H195.357C195.349 170.331 195.292 169.974 195.203 169.692C195.114 169.402 194.985 169.172 194.824 168.994C194.662 168.815 194.46 168.682 194.226 168.607C193.984 168.518 193.725 168.481 193.434 168.481Z" fill="#22252A"/>
<path d="M200.978 175.442C200.631 175.442 200.316 175.419 200.033 175.382C199.751 175.345 199.5 175.293 199.282 175.226C199.056 175.159 198.862 175.085 198.685 175.011C198.507 174.929 198.345 174.847 198.208 174.758V173.577H198.741C198.838 173.666 198.959 173.748 199.096 173.83C199.234 173.911 199.395 173.986 199.573 174.053C199.751 174.119 199.953 174.171 200.179 174.216C200.405 174.261 200.647 174.275 200.906 174.275C202.085 174.275 202.675 173.897 202.675 173.146C202.675 172.983 202.65 172.842 202.594 172.723C202.537 172.604 202.44 172.5 202.303 172.411C202.166 172.322 201.98 172.247 201.754 172.181C201.528 172.114 201.237 172.062 200.89 172.01C200.461 171.95 200.082 171.869 199.751 171.764C199.419 171.66 199.137 171.519 198.911 171.341C198.685 171.163 198.507 170.947 198.394 170.687C198.273 170.427 198.216 170.115 198.216 169.751C198.216 169.38 198.289 169.053 198.434 168.771C198.579 168.488 198.781 168.251 199.048 168.058C199.314 167.864 199.629 167.716 200.009 167.619C200.389 167.523 200.809 167.471 201.277 167.471C201.875 167.471 202.368 167.523 202.763 167.634C203.159 167.738 203.498 167.872 203.773 168.02V169.187H203.24C203.03 169.038 202.771 168.904 202.456 168.793C202.141 168.682 201.754 168.63 201.285 168.63C200.744 168.63 200.34 168.711 200.082 168.882C199.823 169.053 199.694 169.306 199.694 169.64C199.694 169.796 199.726 169.93 199.791 170.041C199.856 170.152 199.961 170.249 200.098 170.331C200.243 170.412 200.429 170.487 200.655 170.539C200.881 170.591 201.164 170.65 201.503 170.695C201.972 170.762 202.376 170.843 202.715 170.955C203.062 171.066 203.345 171.207 203.571 171.386C203.797 171.564 203.967 171.787 204.08 172.054C204.193 172.322 204.249 172.634 204.249 173.005C204.249 173.377 204.185 173.711 204.056 174.015C203.926 174.32 203.725 174.573 203.458 174.788C203.191 174.996 202.852 175.159 202.44 175.278C202.02 175.382 201.536 175.442 200.978 175.442Z" fill="#22252A"/>
<path d="M205.146 167.553H206.172V165.428H207.836V167.553H209.718V168.623H207.836V173.258C207.836 173.466 207.86 173.637 207.909 173.771C207.957 173.912 208.03 174.016 208.127 174.098C208.224 174.179 208.353 174.239 208.498 174.268C208.652 174.306 208.83 174.32 209.048 174.32H209.815V175.308C209.661 175.346 209.467 175.383 209.241 175.412C209.015 175.442 208.757 175.457 208.466 175.457C208.102 175.457 207.779 175.42 207.497 175.346C207.214 175.271 206.972 175.152 206.778 174.996C206.584 174.833 206.431 174.625 206.326 174.372C206.221 174.12 206.172 173.808 206.172 173.444V168.63H205.146V167.553Z" fill="#22252A"/>
</g>
<g filter="url(#filter7_d_7_2718)">
<rect x="228.875" y="144" width="52" height="52" rx="12" fill="white" shape-rendering="crispEdges"/>
<path d="M254.869 157.25H254.81C247.763 157.25 242.05 162.965 242.05 170.014V170.073C242.05 177.122 247.763 182.837 254.81 182.837H254.869C261.916 182.837 267.629 177.122 267.629 170.073V170.014C267.629 162.965 261.916 157.25 254.869 157.25Z" fill="#00B0F2"/>
<path d="M246.894 169.607C246.93 169.589 246.966 169.572 247.001 169.556C247.609 169.274 248.224 169.011 248.839 168.747C248.872 168.747 248.928 168.709 248.959 168.696C249.007 168.676 249.054 168.656 249.102 168.635L249.375 168.518C249.558 168.44 249.74 168.362 249.923 168.284C250.287 168.128 250.652 167.972 251.017 167.815C251.746 167.503 252.477 167.19 253.206 166.878C253.936 166.566 254.666 166.253 255.396 165.942C256.125 165.63 256.855 165.317 257.585 165.005C258.314 164.693 259.045 164.38 259.774 164.068C259.936 163.998 260.112 163.894 260.286 163.864C260.432 163.838 260.575 163.787 260.721 163.76C261 163.707 261.308 163.685 261.575 163.801C261.667 163.841 261.752 163.898 261.823 163.968C262.162 164.304 262.114 164.854 262.042 165.326C261.543 168.612 261.044 171.899 260.544 175.186C260.476 175.636 260.383 176.131 260.027 176.416C259.726 176.657 259.297 176.684 258.926 176.582C258.554 176.479 258.226 176.263 257.904 176.051C256.57 175.167 255.234 174.283 253.9 173.399C253.583 173.189 253.23 172.915 253.233 172.534C253.235 172.304 253.372 172.1 253.512 171.918C254.671 170.405 256.345 169.365 257.589 167.922C257.765 167.718 257.903 167.351 257.662 167.233C257.519 167.163 257.354 167.258 257.223 167.349C255.577 168.492 253.933 169.636 252.288 170.779C251.751 171.152 251.188 171.535 250.541 171.627C249.962 171.709 249.38 171.548 248.819 171.383C248.35 171.245 247.881 171.103 247.414 170.957C247.166 170.88 246.91 170.797 246.718 170.622C246.526 170.447 246.416 170.153 246.532 169.92C246.604 169.774 246.745 169.681 246.893 169.606L246.894 169.607Z" fill="#FEFFFC"/>
</g>
<defs>
<filter id="filter0_d_7_2718" x="8.75" y="0" width="76" height="76" filterUnits="userSpaceOnUse" color-interpolation-filters="sRGB">
<feFlood flood-opacity="0" result="BackgroundImageFix"/>
<feColorMatrix in="SourceAlpha" type="matrix" values="0 0 0 0 0 0 0 0 0 0 0 0 0 0 0 0 0 0 127 0" result="hardAlpha"/>
<feOffset/>
<feGaussianBlur stdDeviation="6"/>
<feComposite in2="hardAlpha" operator="out"/>
<feColorMatrix type="matrix" values="0 0 0 0 0.725532 0 0 0 0 0.721389 0 0 0 0 0.816667 0 0 0 0.2 0"/>
<feBlend mode="normal" in2="BackgroundImageFix" result="effect1_dropShadow_7_2718"/>
<feBlend mode="normal" in="SourceGraphic" in2="effect1_dropShadow_7_2718" result="shape"/>
</filter>
<filter id="filter1_d_7_2718" x="68.75" y="0" width="155.5" height="76" filterUnits="userSpaceOnUse" color-interpolation-filters="sRGB">
<feFlood flood-opacity="0" result="BackgroundImageFix"/>
<feColorMatrix in="SourceAlpha" type="matrix" values="0 0 0 0 0 0 0 0 0 0 0 0 0 0 0 0 0 0 127 0" result="hardAlpha"/>
<feOffset/>
<feGaussianBlur stdDeviation="6"/>
<feComposite in2="hardAlpha" operator="out"/>
<feColorMatrix type="matrix" values="0 0 0 0 0.725532 0 0 0 0 0.721389 0 0 0 0 0.816667 0 0 0 0.2 0"/>
<feBlend mode="normal" in2="BackgroundImageFix" result="effect1_dropShadow_7_2718"/>
<feBlend mode="normal" in="SourceGraphic" in2="effect1_dropShadow_7_2718" result="shape"/>
</filter>
<filter id="filter2_d_7_2718" x="208.25" y="0" width="76" height="76" filterUnits="userSpaceOnUse" color-interpolation-filters="sRGB">
<feFlood flood-opacity="0" result="BackgroundImageFix"/>
<feColorMatrix in="SourceAlpha" type="matrix" values="0 0 0 0 0 0 0 0 0 0 0 0 0 0 0 0 0 0 127 0" result="hardAlpha"/>
<feOffset/>
<feGaussianBlur stdDeviation="6"/>
<feComposite in2="hardAlpha" operator="out"/>
<feColorMatrix type="matrix" values="0 0 0 0 0.725532 0 0 0 0 0.721389 0 0 0 0 0.816667 0 0 0 0.2 0"/>
<feBlend mode="normal" in2="BackgroundImageFix" result="effect1_dropShadow_7_2718"/>
<feBlend mode="normal" in="SourceGraphic" in2="effect1_dropShadow_7_2718" result="shape"/>
</filter>
<filter id="filter3_d_7_2718" x="2.5" y="68" width="152" height="72" filterUnits="userSpaceOnUse" color-interpolation-filters="sRGB">
<feFlood flood-opacity="0" result="BackgroundImageFix"/>
<feColorMatrix in="SourceAlpha" type="matrix" values="0 0 0 0 0 0 0 0 0 0 0 0 0 0 0 0 0 0 127 0" result="hardAlpha"/>
<feOffset/>
<feGaussianBlur stdDeviation="6"/>
<feComposite in2="hardAlpha" operator="out"/>
<feColorMatrix type="matrix" values="0 0 0 0 0.725532 0 0 0 0 0.721389 0 0 0 0 0.816667 0 0 0 0.2 0"/>
<feBlend mode="normal" in2="BackgroundImageFix" result="effect1_dropShadow_7_2718"/>
<feBlend mode="normal" in="SourceGraphic" in2="effect1_dropShadow_7_2718" result="shape"/>
</filter>
<filter id="filter4_d_7_2718" x="138.5" y="68" width="152" height="72" filterUnits="userSpaceOnUse" color-interpolation-filters="sRGB">
<feFlood flood-opacity="0" result="BackgroundImageFix"/>
<feColorMatrix in="SourceAlpha" type="matrix" values="0 0 0 0 0 0 0 0 0 0 0 0 0 0 0 0 0 0 127 0" result="hardAlpha"/>
<feOffset/>
<feGaussianBlur stdDeviation="6"/>
<feComposite in2="hardAlpha" operator="out"/>
<feColorMatrix type="matrix" values="0 0 0 0 0.725532 0 0 0 0 0.721389 0 0 0 0 0.816667 0 0 0 0.2 0"/>
<feBlend mode="normal" in2="BackgroundImageFix" result="effect1_dropShadow_7_2718"/>
<feBlend mode="normal" in="SourceGraphic" in2="effect1_dropShadow_7_2718" result="shape"/>
</filter>
<filter id="filter5_d_7_2718" x="0.125" y="132" width="87.25" height="76" filterUnits="userSpaceOnUse" color-interpolation-filters="sRGB">
<feFlood flood-opacity="0" result="BackgroundImageFix"/>
<feColorMatrix in="SourceAlpha" type="matrix" values="0 0 0 0 0 0 0 0 0 0 0 0 0 0 0 0 0 0 127 0" result="hardAlpha"/>
<feOffset/>
<feGaussianBlur stdDeviation="6"/>
<feComposite in2="hardAlpha" operator="out"/>
<feColorMatrix type="matrix" values="0 0 0 0 0.725532 0 0 0 0 0.721389 0 0 0 0 0.816667 0 0 0 0.2 0"/>
<feBlend mode="normal" in2="BackgroundImageFix" result="effect1_dropShadow_7_2718"/>
<feBlend mode="normal" in="SourceGraphic" in2="effect1_dropShadow_7_2718" result="shape"/>
</filter>
<filter id="filter6_d_7_2718" x="71.375" y="132" width="161.5" height="76" filterUnits="userSpaceOnUse" color-interpolation-filters="sRGB">
<feFlood flood-opacity="0" result="BackgroundImageFix"/>
<feColorMatrix in="SourceAlpha" type="matrix" values="0 0 0 0 0 0 0 0 0 0 0 0 0 0 0 0 0 0 127 0" result="hardAlpha"/>
<feOffset/>
<feGaussianBlur stdDeviation="6"/>
<feComposite in2="hardAlpha" operator="out"/>
<feColorMatrix type="matrix" values="0 0 0 0 0.725532 0 0 0 0 0.721389 0 0 0 0 0.816667 0 0 0 0.2 0"/>
<feBlend mode="normal" in2="BackgroundImageFix" result="effect1_dropShadow_7_2718"/>
<feBlend mode="normal" in="SourceGraphic" in2="effect1_dropShadow_7_2718" result="shape"/>
</filter>
<filter id="filter7_d_7_2718" x="216.875" y="132" width="76" height="76" filterUnits="userSpaceOnUse" color-interpolation-filters="sRGB">
<feFlood flood-opacity="0" result="BackgroundImageFix"/>
<feColorMatrix in="SourceAlpha" type="matrix" values="0 0 0 0 0 0 0 0 0 0 0 0 0 0 0 0 0 0 127 0" result="hardAlpha"/>
<feOffset/>
<feGaussianBlur stdDeviation="6"/>
<feComposite in2="hardAlpha" operator="out"/>
<feColorMatrix type="matrix" values="0 0 0 0 0.725532 0 0 0 0 0.721389 0 0 0 0 0.816667 0 0 0 0.2 0"/>
<feBlend mode="normal" in2="BackgroundImageFix" result="effect1_dropShadow_7_2718"/>
<feBlend mode="normal" in="SourceGraphic" in2="effect1_dropShadow_7_2718" result="shape"/>
</filter>
<radialGradient id="paint0_radial_7_2718" cx="0" cy="0" r="1" gradientUnits="userSpaceOnUse" gradientTransform="translate(38.9081 50.6136) rotate(-57.0915) scale(27.7847)">
<stop stop-color="#0099FF"/>
<stop offset="0.609754" stop-color="#A033FF"/>
<stop offset="0.934823" stop-color="#FF5280"/>
<stop offset="1" stop-color="#FF7061"/>
</radialGradient>
<linearGradient id="paint1_linear_7_2718" x1="178.151" y1="96.2905" x2="167.54" y2="107.629" gradientUnits="userSpaceOnUse">
<stop stop-color="white"/>
<stop offset="1"/>
</linearGradient>
<linearGradient id="paint2_linear_7_2718" x1="112.924" y1="162.255" x2="109.661" y2="167.633" gradientUnits="userSpaceOnUse">
<stop stop-color="#2D862D"/>
<stop offset="1" stop-color="#B34A00"/>
</linearGradient>
<clipPath id="clip0_7_2718">
<rect width="115.5" height="21" fill="white" transform="translate(88.75 30.5)"/>
</clipPath>
<clipPath id="clip1_7_2718">
<rect width="106.909" height="22" fill="white" transform="translate(24.6816 93.3335)"/>
</clipPath>
<clipPath id="clip2_7_2718">
<rect width="109.818" height="19.3333" fill="white" transform="translate(159.228 94.6665)"/>
</clipPath>
<clipPath id="clip3_7_2718">
<rect width="34.425" height="27.75" fill="white" transform="translate(26.2002 155.75)"/>
</clipPath>
</defs>
</svg>
