<svg width="516" height="316" viewBox="0 0 516 316" fill="none" xmlns="http://www.w3.org/2000/svg">
<g filter="url(#filter0_d_7_1232)">
<path d="M45.75 32C45.75 20.9543 54.7043 12 65.75 12H109.75C120.796 12 129.75 20.9543 129.75 32V76C129.75 87.0457 120.796 96 109.75 96H65.75C54.7043 96 45.75 87.0457 45.75 76V32Z" fill="white" shape-rendering="crispEdges"/>
<path d="M109 54C109 65.736 99.486 75.25 87.75 75.25C76.0139 75.25 66.5 65.736 66.5 54C66.5 42.2639 76.0139 32.75 87.75 32.75C99.486 32.75 109 42.2639 109 54Z" fill="url(#paint0_radial_7_1232)"/>
<path fill-rule="evenodd" clip-rule="evenodd" d="M73.5833 53.5752C73.5833 45.6792 79.7694 39.8335 87.7499 39.8335C95.7304 39.8335 101.917 45.6792 101.917 53.5752C101.917 61.4711 95.7304 67.3169 87.7499 67.3169C86.3165 67.3169 84.9412 67.1276 83.6491 66.7723C83.3979 66.7032 83.1308 66.7227 82.8925 66.8279L80.0806 68.0691C79.345 68.3938 78.5148 67.8708 78.4901 67.067L78.413 64.547C78.4035 64.2365 78.2638 63.9463 78.0324 63.7392C75.2759 61.2742 73.5833 57.7053 73.5833 53.5752ZM83.4044 50.9916L79.2429 57.5939C78.8435 58.2275 79.6224 58.9415 80.219 58.4887L84.6891 55.0962C84.9914 54.8667 85.4093 54.8655 85.713 55.0933L89.0229 57.5757C90.016 58.3206 91.4335 58.0591 92.0955 57.0088L96.257 50.4065C96.6563 49.7729 95.8775 49.0589 95.2808 49.5116L90.8108 52.9041C90.5084 53.1336 90.0905 53.1349 89.7869 52.9071L86.477 50.4247C85.4838 49.6798 84.0663 49.9413 83.4044 50.9916Z" fill="white"/>
</g>
<g filter="url(#filter1_d_7_1232)">
<path d="M149.75 32C149.75 20.9543 158.704 12 169.75 12H346.25C357.296 12 366.25 20.9543 366.25 32V76C366.25 87.0457 357.296 96 346.25 96H169.75C158.704 96 149.75 87.0457 149.75 76V32Z" fill="white" shape-rendering="crispEdges"/>
<g clip-path="url(#clip0_7_1232)">
<path d="M292.551 66.9H309.926V63H298.474C300.054 56.6 309.728 55.2 309.728 48.1C309.728 44.3 307.162 41.5 301.732 41.5C298.376 41.5 295.414 42.5 293.44 43.5L294.624 47.1C296.401 46.2 298.474 45.4 301.041 45.4C303.015 45.4 304.891 46.3 304.891 48.6C304.891 53.8 293.538 54.2 292.551 66.9ZM310.419 60.7H321.574V66.9H326.017V60.7H329.768V56.9H326.017V41.5H322.759L310.419 57.7V60.7ZM315.454 57.1L321.772 48.5C321.772 49.2 321.574 51.4 321.574 53.4V57H318.613C317.724 57 316.046 57.1 315.454 57.1Z" fill="#005893"/>
<path d="M166.39 63.1001V55.2001H168.265C169.944 55.2001 171.326 55.4001 172.313 56.0001C173.3 56.6001 173.892 57.6001 173.892 59.2001C173.892 61.9001 172.313 63.1001 168.562 63.1001H166.39ZM161.849 66.9001H168.463C175.867 66.9001 178.532 63.6001 178.532 59.0001C178.532 55.9001 177.249 53.8001 174.978 52.6001C173.201 51.6001 170.931 51.3001 168.167 51.3001H166.39V45.3001H176.36L177.545 41.6001H161.75V66.9001H161.849ZM181.592 66.9001H185.936L191.563 58.7001C192.649 57.2001 193.438 55.7001 193.932 54.9001H194.031C193.932 56.0001 193.833 57.4001 193.833 58.8001V66.8001H198.276V48.8001H193.932L188.305 57.0001C187.318 58.5001 186.429 60.0001 185.936 60.8001H185.837C185.936 59.7001 186.035 58.3001 186.035 56.9001V48.9001H181.592V66.9001ZM205.877 66.9001H210.418V52.6001H215.749L216.933 48.8001H200.447V52.6001H205.877V66.9001ZM218.513 76.0001H222.955V66.9001C223.844 67.2001 224.732 67.3001 225.719 67.3001C231.346 67.3001 234.999 63.4001 234.999 57.8001C234.999 52.0001 231.642 48.3001 225.226 48.3001C222.758 48.3001 220.388 48.8001 218.414 49.4001V76.0001H218.513ZM222.955 63.0001V52.4001C223.646 52.2001 224.238 52.1001 225.028 52.1001C228.286 52.1001 230.359 53.9001 230.359 57.8001C230.359 61.3001 228.681 63.5001 225.324 63.5001C224.436 63.5001 223.745 63.3001 222.955 63.0001ZM237.664 66.9001H242.008L247.635 58.7001C248.721 57.2001 249.51 55.7001 250.004 54.9001H250.103C250.004 56.0001 249.905 57.4001 249.905 58.8001V66.8001H254.347V48.8001H250.004L244.377 57.0001C243.39 58.5001 242.501 60.0001 242.008 60.8001H241.909C242.008 59.7001 242.106 58.3001 242.106 56.9001V48.9001H237.664V66.9001ZM257.901 66.9001H262.442V59.4001H265.108C265.601 59.4001 266.095 59.9001 266.687 61.1001L268.958 66.9001H273.795L270.537 60.0001C269.945 58.8001 269.353 58.1001 268.464 57.8001V57.7001C269.945 56.8001 270.142 54.2001 271.031 52.9001C271.327 52.5001 271.722 52.3001 272.314 52.3001C272.61 52.3001 273.005 52.3001 273.301 52.5001V48.6001C272.808 48.4001 271.919 48.3001 271.426 48.3001C269.846 48.3001 268.859 48.9001 268.168 49.9001C266.687 52.1001 266.687 55.9001 264.515 55.9001H262.442V48.8001H257.901V66.9001ZM283.864 67.3001C286.332 67.3001 288.603 66.5001 289.985 65.5001L288.701 62.4001C287.418 63.1001 286.233 63.6001 284.555 63.6001C281.495 63.6001 279.521 61.6001 279.521 57.9001C279.521 54.6001 281.495 52.0001 284.851 52.0001C286.628 52.0001 287.912 52.5001 289.195 53.4001V49.5001C288.208 48.9001 286.628 48.3001 284.358 48.3001C279.027 48.3001 274.881 52.3001 274.881 58.0001C274.881 63.2001 278.04 67.3001 283.864 67.3001Z" fill="#0BBBEF"/>
<path d="M344.477 60.6999C349.314 60.6999 353.263 56.6999 353.263 51.7999C353.263 46.8999 349.314 42.8999 344.477 42.8999C339.64 42.8999 335.691 46.8999 335.691 51.7999C335.79 56.6999 339.64 60.6999 344.477 60.6999Z" stroke="#005893" stroke-width="1.7688"/>
<path d="M350.005 51.7999H345.168V46.8999H343.885V53.0999H350.005V51.7999Z" fill="#005893"/>
</g>
</g>
<g filter="url(#filter2_d_7_1232)">
<path d="M386.25 32C386.25 20.9543 395.204 12 406.25 12H450.25C461.296 12 470.25 20.9543 470.25 32V76C470.25 87.0457 461.296 96 450.25 96H406.25C395.204 96 386.25 87.0457 386.25 76V32Z" fill="white" shape-rendering="crispEdges"/>
<path d="M428.367 32.75H428.27C416.524 32.75 407.002 42.2746 407.002 54.0239V54.121C407.002 65.8702 416.524 75.3949 428.27 75.3949H428.367C440.112 75.3949 449.634 65.8702 449.634 54.121V54.0239C449.634 42.2746 440.112 32.75 428.367 32.75Z" fill="#00E510"/>
<path d="M432.472 60.3085C427.015 60.3085 422.576 55.8667 422.575 50.4089C422.576 49.0254 423.703 47.9004 425.083 47.9004C425.225 47.9004 425.365 47.9123 425.499 47.9362C425.795 47.9856 426.076 48.0857 426.334 48.2366C426.372 48.259 426.397 48.2948 426.403 48.3367L426.98 51.9717C426.987 52.015 426.974 52.0569 426.945 52.0882C426.627 52.4408 426.221 52.6948 425.768 52.8218L425.55 52.8831L425.632 53.0937C426.376 54.9882 427.891 56.5017 429.786 57.2487L429.997 57.3324L430.058 57.1142C430.185 56.6615 430.439 56.2552 430.791 55.9369C430.817 55.913 430.851 55.9011 430.885 55.9011C430.893 55.9011 430.9 55.9011 430.909 55.9026L434.543 56.4793C434.587 56.4867 434.622 56.5106 434.645 56.548C434.794 56.8065 434.894 57.0888 434.945 57.3847C434.969 57.5161 434.979 57.6551 434.979 57.8C434.979 59.182 433.855 60.307 432.472 60.3085Z" fill="#FDFDFD"/>
<path d="M442.148 52.8745C441.854 49.5487 440.33 46.4635 437.858 44.1881C435.371 41.8992 432.145 40.6382 428.771 40.6382C421.366 40.6382 415.34 46.6652 415.34 54.0727C415.34 56.5588 416.026 58.9807 417.324 61.0903L414.429 67.4998L423.697 66.5123C425.309 67.1726 427.014 67.5073 428.769 67.5073C429.231 67.5073 429.704 67.4834 430.179 67.4341C430.598 67.3893 431.02 67.3235 431.436 67.2399C437.637 65.9863 442.164 60.4807 442.2 54.1445V54.0727C442.2 53.6693 442.182 53.2659 442.146 52.8745H442.148ZM424.054 63.6989L418.926 64.2458L420.457 60.8528L420.151 60.4419C420.129 60.412 420.106 60.3821 420.081 60.3478C418.752 58.5116 418.05 56.3422 418.05 54.0742C418.05 48.1608 422.859 43.3499 428.771 43.3499C434.309 43.3499 439.004 47.6722 439.456 53.1898C439.48 53.4856 439.494 53.7829 439.494 54.0757C439.494 54.1594 439.492 54.2416 439.491 54.3297C439.377 59.2765 435.922 63.4778 431.089 64.5476C430.72 64.6297 430.342 64.6925 429.966 64.7328C429.574 64.7777 429.173 64.8001 428.774 64.8001C427.353 64.8001 425.973 64.5252 424.669 63.9813C424.525 63.9231 424.383 63.8603 424.25 63.7961L424.056 63.7019L424.054 63.6989Z" fill="#FDFDFD"/>
</g>
<g filter="url(#filter3_d_7_1232)">
<path d="M14 136C14 124.954 22.9543 116 34 116H228C239.046 116 248 124.954 248 136V180C248 191.046 239.046 200 228 200H34C22.9543 200 14 191.046 14 180V136Z" fill="white" shape-rendering="crispEdges"/>
<g clip-path="url(#clip1_7_1232)">
<mask id="mask0_7_1232" style="mask-type:luminance" maskUnits="userSpaceOnUse" x="30" y="149" width="169" height="31">
<path d="M131.04 154.799C127.769 154.799 125.252 156.43 123.937 158.748H138.236C137.08 156.327 134.804 154.799 131.04 154.799ZM107.556 155.989H100.361C100.326 160.984 100.041 165.589 98.1762 169.948H107.556V155.989ZM53.8612 155.291C49.3771 155.291 45.7395 158.604 45.7395 162.676C45.7395 166.748 49.3885 170.061 53.8612 170.061C58.3338 170.061 61.9829 166.748 61.9829 162.676C61.9829 158.604 58.3338 155.291 53.8612 155.291ZM180.983 150.327V161.958L191.324 150.327H198.199L187.664 162.194L198.817 175.015H191.736L180.983 162.656V175.015H175.23V150.327H180.983ZM161.377 150.163C165.117 150.163 168.538 151.322 171.032 153.425L167.097 157.107C165.678 155.907 163.653 155.22 161.377 155.22C156.893 155.22 153.255 158.594 153.255 162.615C153.255 166.635 156.904 170.01 161.377 170.01C163.562 170.01 165.472 169.343 167.234 168.04L170.894 171.948C168.103 174.02 164.9 175.066 161.377 175.066C153.724 175.066 147.501 169.486 147.501 162.615C147.501 155.743 153.724 150.163 161.377 150.163ZM53.8612 150.225C61.5139 150.225 67.7367 155.804 67.7367 162.666C67.7367 169.527 61.5139 175.117 53.8612 175.117C47.1808 175.117 41.5871 170.851 40.2716 165.199H35.8333V175.015H30.0908V150.327H35.8447V160.143H40.283C41.5871 154.491 47.1808 150.225 53.8612 150.225ZM77.7345 150.071C82.1157 150.071 85.9248 152.42 85.9248 156.214C85.9248 158.82 84.1173 160.512 81.6812 161.517C84.3918 162.409 86.5538 164.379 86.5538 167.517C86.5538 171.599 82.3329 175.128 77.4714 175.128C73.1246 175.128 70.3677 173.138 68.5947 171.476L72.5297 167.61C73.685 168.584 75.0234 169.938 77.0939 169.938C79.5192 169.938 80.7199 168.543 80.7199 166.738C80.7199 164.645 78.8212 163.23 74.7031 163.917V160.276C79.0957 160.081 79.9882 158.625 79.9882 157.291C79.9882 155.968 78.7411 154.891 77.0939 154.891C75.5611 154.891 74.2913 155.497 73.239 156.522L69.1094 153.004C71.2028 151.096 74.3257 150.071 77.7345 150.071ZM131.04 149.896C137.846 149.896 143.131 153.671 144.493 159.517C144.698 160.399 144.722 162.143 144.504 163.425H122.964C123.342 167.24 126.373 170.389 131.04 170.389C135.387 170.389 137.652 168.122 139.082 166.225L143.68 168.83C141.095 171.989 137.972 175.333 131.029 175.333C123.376 175.333 117.153 169.63 117.153 162.615C117.176 155.599 123.399 149.896 131.04 149.896ZM113.299 150.922V169.938H116.17V179.128H110.416V175.004H94.6643V179.128H88.9104V169.938H91.8733C94.4698 165.548 94.6184 160.707 94.6184 153.497V150.922H113.299Z" fill="white"/>
</mask>
<g mask="url(#mask0_7_1232)">
<mask id="mask1_7_1232" style="mask-type:luminance" maskUnits="userSpaceOnUse" x="30" y="138" width="201" height="42">
<path d="M230.173 138H30.0906V179.128H230.173V138Z" fill="white"/>
</mask>
<g mask="url(#mask1_7_1232)">
<path d="M204.416 144.798H24.491V184.226H204.416V144.798Z" fill="#2B2B2B"/>
</g>
</g>
<mask id="mask2_7_1232" style="mask-type:luminance" maskUnits="userSpaceOnUse" x="201" y="138" width="30" height="26">
<path d="M216.645 138.007C208.33 137.772 201.545 143.8 201.81 151.164C202.051 157.835 208.181 163.282 215.702 163.486C224.017 163.72 230.803 157.692 230.538 150.328C230.296 143.657 224.167 138.221 216.645 138.007ZM216.174 157.121C212.206 157.121 208.986 154.265 208.986 150.746C208.986 147.227 212.206 144.371 216.174 144.371C220.141 144.371 223.362 147.227 223.362 150.746C223.362 154.265 220.141 157.121 216.174 157.121Z" fill="white"/>
</mask>
<g mask="url(#mask2_7_1232)">
<mask id="mask3_7_1232" style="mask-type:luminance" maskUnits="userSpaceOnUse" x="29" y="138" width="202" height="41">
<path d="M230.547 138H29.3445V178.788H230.547V138Z" fill="white"/>
</mask>
<g mask="url(#mask3_7_1232)">
<mask id="mask4_7_1232" style="mask-type:luminance" maskUnits="userSpaceOnUse" x="200" y="138" width="31" height="27">
<path d="M230.544 138H200.682V164.512H230.544V138Z" fill="white"/>
</mask>
<g mask="url(#mask4_7_1232)">
<mask id="mask5_7_1232" style="mask-type:luminance" maskUnits="userSpaceOnUse" x="200" y="138" width="31" height="27">
<path d="M230.543 138H200.68V164.512H230.543V138Z" fill="white"/>
</mask>
<g mask="url(#mask5_7_1232)">
<path d="M236.516 132.901H196.201V168.591H236.516V132.901Z" fill="#FA002D"/>
</g>
</g>
<mask id="mask6_7_1232" style="mask-type:luminance" maskUnits="userSpaceOnUse" x="200" y="138" width="31" height="27">
<path d="M230.544 138H200.682V164.512H230.544V138Z" fill="white"/>
</mask>
<g mask="url(#mask6_7_1232)">
<mask id="mask7_7_1232" style="mask-type:luminance" maskUnits="userSpaceOnUse" x="201" y="138" width="30" height="26">
<path d="M230.544 140.549L227.67 138L216.173 148.197L204.676 138L201.801 140.549L213.298 150.746L201.801 160.943L204.676 163.492L216.173 153.295L227.67 163.492L230.544 160.943L219.047 150.746L230.544 140.549Z" fill="white"/>
</mask>
<g mask="url(#mask7_7_1232)">
<mask id="mask8_7_1232" style="mask-type:luminance" maskUnits="userSpaceOnUse" x="200" y="138" width="31" height="27">
<path d="M230.543 138H200.68V164.512H230.543V138Z" fill="white"/>
</mask>
<g mask="url(#mask8_7_1232)">
<path d="M236.516 132.901H196.201V168.591H236.516V132.901Z" fill="white"/>
</g>
</g>
</g>
</g>
</g>
</g>
</g>
<g filter="url(#filter4_d_7_1232)">
<path d="M268 136C268 124.954 276.954 116 288 116H482C493.046 116 502 124.954 502 136V180C502 191.046 493.046 200 482 200H288C276.954 200 268 191.046 268 180V136Z" fill="white" shape-rendering="crispEdges"/>
<g clip-path="url(#clip2_7_1232)">
<mask id="mask9_7_1232" style="mask-type:luminance" maskUnits="userSpaceOnUse" x="281" y="140" width="207" height="37">
<path d="M487.273 140.5H281.364V176.75H487.273V140.5Z" fill="white"/>
</mask>
<g mask="url(#mask9_7_1232)">
<path fill-rule="evenodd" clip-rule="evenodd" d="M290.538 141.454H310.925C315.41 141.454 319.08 144.888 319.08 149.085V168.165C319.08 172.362 315.41 175.796 310.925 175.796H290.538C286.052 175.796 282.383 172.362 282.383 168.165V149.085C282.383 144.888 286.052 141.454 290.538 141.454Z" fill="#E53E0D"/>
</g>
<mask id="mask10_7_1232" style="mask-type:luminance" maskUnits="userSpaceOnUse" x="282" y="141" width="38" height="35">
<mask id="mask11_7_1232" style="mask-type:luminance" maskUnits="userSpaceOnUse" x="281" y="140" width="207" height="37">
<path d="M487.273 140.5H281.364V176.75H487.273V140.5Z" fill="white"/>
</mask>
<g mask="url(#mask11_7_1232)">
<path d="M319.08 141.454H282.383V175.796H319.08V141.454Z" fill="url(#paint1_linear_7_1232)"/>
</g>
</mask>
<g mask="url(#mask10_7_1232)">
<mask id="mask12_7_1232" style="mask-type:luminance" maskUnits="userSpaceOnUse" x="281" y="140" width="207" height="37">
<path d="M487.273 140.5H281.364V176.75H487.273V140.5Z" fill="white"/>
</mask>
<g mask="url(#mask12_7_1232)">
<path fill-rule="evenodd" clip-rule="evenodd" d="M290.538 141.454H310.925C315.41 141.454 319.08 144.888 319.08 149.085V168.165C319.08 172.362 315.41 175.796 310.925 175.796H290.538C286.052 175.796 282.383 172.362 282.383 168.165V149.085C282.383 144.888 286.052 141.454 290.538 141.454Z" fill="#DD1D1D"/>
</g>
</g>
<mask id="mask13_7_1232" style="mask-type:luminance" maskUnits="userSpaceOnUse" x="281" y="140" width="207" height="37">
<path d="M487.273 140.5H281.364V176.75H487.273V140.5Z" fill="white"/>
</mask>
<g mask="url(#mask13_7_1232)">
<path fill-rule="evenodd" clip-rule="evenodd" d="M296.654 170.073H306.848V164.349H298.693C296.45 164.349 294.615 162.631 294.615 160.533V152.901H288.499V162.441C288.499 166.639 292.169 170.073 296.654 170.073Z" fill="white"/>
</g>
<mask id="mask14_7_1232" style="mask-type:luminance" maskUnits="userSpaceOnUse" x="281" y="140" width="207" height="37">
<path d="M487.273 140.5H281.364V176.75H487.273V140.5Z" fill="white"/>
</mask>
<g mask="url(#mask14_7_1232)">
<path fill-rule="evenodd" clip-rule="evenodd" d="M304.809 147.178H294.615V152.901H302.77C305.012 152.901 306.848 154.619 306.848 156.717V164.349H312.964V154.809C312.964 150.612 309.294 147.178 304.809 147.178Z" fill="white"/>
</g>
<mask id="mask15_7_1232" style="mask-type:luminance" maskUnits="userSpaceOnUse" x="281" y="140" width="207" height="37">
<path d="M487.273 140.5H281.364V176.75H487.273V140.5Z" fill="white"/>
</mask>
<g mask="url(#mask15_7_1232)">
<path fill-rule="evenodd" clip-rule="evenodd" d="M365.97 154.809C369.333 154.809 372.086 157.385 372.086 160.532C372.086 163.68 369.333 166.256 365.97 166.256C362.606 166.256 359.854 163.68 359.854 160.532C359.854 157.385 362.606 154.809 365.97 154.809ZM365.97 149.085C372.697 149.085 378.202 154.236 378.202 160.532V171.98H372.086V170.435C370.284 171.416 368.194 171.98 365.97 171.98C359.242 171.98 353.738 166.829 353.738 160.532C353.737 154.236 359.242 149.085 365.97 149.085ZM479.582 158.147C478.616 156.177 476.49 154.809 474.021 154.809C471.553 154.809 469.426 156.177 468.46 158.147H479.582ZM474.021 149.085C480.776 149.085 486.253 154.21 486.253 160.532C486.253 161.351 486.161 162.148 485.986 162.917H484.814H479.582H468.46C469.426 164.887 471.553 166.256 474.021 166.256C475.657 166.256 477.142 165.655 478.239 164.677L484.095 167.026C481.889 170.019 478.199 171.98 474.02 171.98C467.265 171.98 461.788 166.855 461.788 160.532C461.789 154.21 467.265 149.085 474.021 149.085ZM382.279 143.361H388.396V171.98H382.279V143.361ZM405.215 160.532L414.899 171.98H407.254L398.589 161.737V171.98H392.473V143.361H398.589V159.328L407.254 149.085H414.899L405.215 160.532ZM415.918 158.625H422.034V164.348H415.918V158.625ZM445.989 149.085H450.576C455.061 149.085 458.731 152.52 458.731 156.716V171.98H452.615V157.353C452.615 155.953 451.391 154.809 449.897 154.809H446.239C446.408 155.419 446.498 156.059 446.498 156.717V171.98H440.382V157.353C440.382 155.953 439.159 154.809 437.664 154.809H434.266V171.98H428.149V149.085H438.343C441.835 149.085 444.831 151.166 445.989 154.068V149.085H445.989ZM339.467 143.361H345.582V149.085H351.698V154.809H345.582V162.441C345.582 164.538 347.419 166.256 349.66 166.256H351.699V171.98H347.621C343.138 171.98 339.467 168.546 339.467 164.349V154.809H333.35V149.085H336.408C338.09 149.085 339.467 147.797 339.467 146.223V143.361Z" fill="#2B2B2B"/>
</g>
</g>
</g>
<g filter="url(#filter5_d_7_1232)">
<path d="M31.375 240C31.375 228.954 40.3293 220 51.375 220H114.125C125.171 220 134.125 228.954 134.125 240V284C134.125 295.046 125.171 304 114.125 304H51.375C40.3293 304 31.375 295.046 31.375 284V240Z" fill="white" shape-rendering="crispEdges"/>
<g clip-path="url(#clip3_7_1232)">
<path fill-rule="evenodd" clip-rule="evenodd" d="M69.4744 253.491H67.1935C66.956 253.508 66.7322 253.621 66.5639 253.808C66.3956 253.995 66.2943 254.244 66.2788 254.509V273.633C66.2781 273.767 66.302 273.9 66.3492 274.024C66.3964 274.148 66.4658 274.259 66.5532 274.352C66.6346 274.45 66.7338 274.529 66.8443 274.582C66.9547 274.635 67.074 274.661 67.1943 274.66H69.4752C69.5911 274.658 69.7054 274.63 69.811 274.577C69.9166 274.524 70.0112 274.447 70.0889 274.352C70.1827 274.264 70.2578 274.154 70.3086 274.029C70.3594 273.905 70.3846 273.77 70.3824 273.633V254.518C70.3776 254.387 70.3492 254.259 70.2987 254.14C70.2483 254.022 70.1769 253.917 70.0889 253.83C70.0164 253.725 69.9234 253.64 69.8169 253.581C69.7104 253.522 69.5932 253.492 69.4744 253.491ZM90.2849 253.543H88.4439C88.2034 253.488 87.9536 253.514 87.7267 253.619C87.4998 253.723 87.3061 253.901 87.1708 254.128L81.9131 267.069H81.8216L76.8109 254.128C76.7451 253.948 76.6305 253.794 76.4829 253.689C76.3352 253.585 76.1618 253.533 75.9868 253.543H73.5047C73.3648 253.524 73.2228 253.547 73.0938 253.61C72.9649 253.674 72.8537 253.775 72.7722 253.903C72.7077 254.03 72.6778 254.175 72.6859 254.321C72.694 254.467 72.7398 254.607 72.8179 254.724L80.9668 274.62C81.0384 274.792 81.156 274.936 81.3036 275.032C81.4512 275.127 81.6216 275.17 81.7917 275.154H82.0412C82.2036 275.159 82.3638 275.111 82.5022 275.017C82.6405 274.922 82.7508 274.784 82.8195 274.62L90.9684 254.725C91.0461 254.608 91.0918 254.468 91.0999 254.322C91.108 254.176 91.0782 254.031 91.0141 253.904C90.9309 253.779 90.82 253.68 90.6922 253.616C90.5645 253.553 90.4241 253.527 90.2849 253.542V253.543ZM101.312 253.061C100.04 253.042 98.778 253.322 97.6088 253.881C96.4395 254.44 95.3891 255.267 94.5256 256.307C93.6148 257.321 92.8958 258.528 92.4112 259.856C91.9267 261.184 91.6863 262.607 91.7043 264.041C91.6701 266.957 92.6784 269.768 94.5073 271.857C95.3707 272.897 96.4182 273.726 97.5838 274.294C98.7495 274.861 100.008 275.154 101.28 275.154C102.553 275.154 103.811 274.861 104.977 274.294C106.143 273.726 107.19 272.897 108.054 271.857C108.966 270.827 109.685 269.605 110.17 268.263C110.654 266.921 110.894 265.485 110.875 264.039C110.893 262.606 110.653 261.183 110.168 259.854C109.683 258.526 108.964 257.319 108.054 256.305C107.197 255.269 106.154 254.445 104.993 253.886C103.832 253.327 102.578 253.047 101.312 253.061ZM105.297 268.867C104.786 269.477 104.168 269.964 103.482 270.298C102.795 270.632 102.054 270.806 101.305 270.809C100.556 270.812 99.8135 270.644 99.1248 270.315C98.436 269.987 97.8151 269.505 97.3004 268.899C96.212 267.58 95.6303 265.84 95.6798 264.051C95.6354 262.299 96.2184 260.6 97.3004 259.326C97.8119 258.715 98.4336 258.23 99.125 257.905C99.8164 257.579 100.562 257.419 101.312 257.436C102.06 257.415 102.802 257.572 103.49 257.899C104.177 258.225 104.794 258.711 105.297 259.326C105.833 259.957 106.252 260.698 106.53 261.509C106.808 262.32 106.94 263.184 106.918 264.051C106.948 265.827 106.369 267.55 105.297 268.867ZM60.9105 253.491H54.4147C54.2977 253.497 54.1829 253.529 54.0774 253.586C53.9719 253.642 53.8779 253.722 53.801 253.82C53.7119 253.908 53.64 254.016 53.5897 254.136C53.5393 254.256 53.5116 254.386 53.5083 254.519V257.076C53.511 257.212 53.5383 257.346 53.5886 257.469C53.6389 257.593 53.7112 257.704 53.801 257.795C53.8799 257.889 53.9747 257.965 54.0801 258.018C54.1854 258.071 54.2992 258.1 54.4147 258.103H57.7125V276.518C57.7167 277.341 57.451 278.137 56.9653 278.757C56.4795 279.377 55.8071 279.779 55.0741 279.887H54.4147C54.1727 279.895 53.9428 280.006 53.7725 280.197C53.6022 280.388 53.5046 280.645 53.5 280.915V283.472C53.5016 283.738 53.5903 283.993 53.7495 284.191C53.8333 284.292 53.9355 284.371 54.0492 284.424C54.1629 284.477 54.2856 284.503 54.4089 284.499H54.7298C56.5338 284.489 58.2664 283.714 59.5749 282.332C60.8834 280.951 61.6694 279.066 61.7728 277.063C61.7998 276.904 61.812 276.742 61.8094 276.58V254.518C61.8102 254.384 61.7863 254.251 61.7391 254.127C61.6919 254.003 61.6224 253.892 61.535 253.799C61.4576 253.7 61.3615 253.621 61.2536 253.568C61.1457 253.514 61.0286 253.488 60.9105 253.491Z" fill="#0B1F35"/>
<path fill-rule="evenodd" clip-rule="evenodd" d="M53.5557 238.25C52.9877 250.257 61.7802 251.962 61.7802 251.962C61.3412 238.814 53.5557 238.25 53.5557 238.25Z" fill="#1BC339"/>
</g>
</g>
<g filter="url(#filter6_d_7_1232)">
<path d="M154.125 240C154.125 228.954 163.079 220 174.125 220H360.625C371.671 220 380.625 228.954 380.625 240V284C380.625 295.046 371.671 304 360.625 304H174.125C163.079 304 154.125 295.046 154.125 284V240Z" fill="white" shape-rendering="crispEdges"/>
<path d="M202.602 268.537V257.694C202.601 257.694 202.605 257.693 202.605 257.693C202.605 255.974 203.616 255.725 204.152 255.691C205.261 255.619 206.908 255.807 209.221 256.295C210.156 256.492 211.128 256.152 211.683 255.434C212.239 254.716 212.268 253.762 211.758 253.016C211.603 252.789 211.438 252.578 211.266 252.381C211.558 252.128 211.783 251.807 211.906 251.439C212.191 250.593 211.89 249.674 211.145 249.113C210.677 248.761 210.188 248.485 209.693 248.272L209.694 248.252C209.735 247.276 209.064 246.396 208.052 246.097C206.495 245.637 205.028 245.687 203.787 245.959C203.095 244.404 201.994 243.383 200.948 242.933C200.188 242.605 199.295 242.672 198.602 243.108C198.076 243.44 197.724 243.947 197.611 244.51C196.528 244.048 195.478 243.901 194.642 243.976C193.826 244.05 193.109 244.505 192.747 245.181C192.385 245.857 192.43 246.657 192.864 247.295C193.171 247.746 193.602 248.553 193.826 249.377C194.069 250.273 193.33 250.8 192.542 250.8L192.541 250.801H191.595C191.576 250.8 191.556 250.8 191.536 250.8L191.536 250.801H177.742C174.877 250.801 172.585 252.929 172.585 255.551L172.585 275.322C172.585 276.291 173.072 277.246 174.019 277.84L174.038 277.852L174.057 277.864C175.531 278.751 177.591 278.45 178.628 277.015L181.294 273.379C181.308 273.36 181.319 273.35 181.351 273.336C181.394 273.317 181.493 273.287 181.66 273.287H197.426C200.271 273.287 202.602 271.178 202.602 268.537Z" fill="url(#paint2_linear_7_1232)"/>
<path fill-rule="evenodd" clip-rule="evenodd" d="M175.356 276.044C175.098 275.882 174.955 275.621 174.955 275.323L174.955 255.551C174.955 254.121 176.196 252.977 177.742 252.977H197.426C198.985 252.977 200.232 254.133 200.232 255.551V268.537C200.232 269.967 198.972 271.111 197.426 271.111H181.66C180.724 271.111 179.857 271.443 179.328 272.164L176.657 275.808C176.373 276.205 175.79 276.305 175.356 276.044Z" fill="#FF8833"/>
<path d="M202.269 253.87C203.802 253.249 206.321 253.451 209.751 254.174C208.766 252.734 207.202 252.193 205.351 252.01C206.522 251.246 208.702 250.871 209.642 250.796C207.489 249.175 204.535 249.92 203.414 250.465C204.37 249.567 206.104 248.437 207.326 248.169C204.988 247.478 202.873 248.456 202.108 249.032C201.963 246.413 200.603 245.188 199.942 244.903C200.008 245.775 200.008 247.831 199.479 249.082C197.92 246.538 195.759 246.062 194.874 246.142C195.532 247.109 196.529 249.129 196.305 250.801H197.426C199.649 250.801 201.531 252.08 202.269 253.87Z" fill="#5CD65C"/>
<path d="M194.783 256.545H180.404C179.749 256.545 179.218 257.034 179.218 257.636C179.218 258.239 179.749 258.727 180.404 258.727H194.783C195.438 258.727 195.969 258.239 195.969 257.636C195.969 257.034 195.438 256.545 194.783 256.545Z" fill="#B34A01"/>
<path d="M192.552 260.909H182.635C181.98 260.909 181.448 261.398 181.448 262C181.448 262.603 181.98 263.091 182.635 263.091H192.552C193.207 263.091 193.738 262.603 193.738 262C193.738 261.398 193.207 260.909 192.552 260.909Z" fill="#B34A01"/>
<path d="M189.768 265.272H185.419C184.764 265.272 184.233 265.761 184.233 266.363C184.233 266.966 184.764 267.454 185.419 267.454H189.768C190.423 267.454 190.954 266.966 190.954 266.363C190.954 265.761 190.423 265.272 189.768 265.272Z" fill="#B34A01"/>
<path d="M226.486 271.095C225.221 271.095 224.076 270.897 223.04 270.501C222.003 270.105 221.115 269.535 220.388 268.78C219.647 268.025 219.082 267.096 218.678 265.994C218.274 264.892 218.073 263.63 218.073 262.218C218.073 260.807 218.288 259.556 218.732 258.454C219.177 257.352 219.782 256.424 220.563 255.668C221.344 254.913 222.259 254.344 223.309 253.935C224.359 253.539 225.503 253.341 226.742 253.341C227.415 253.341 228.02 253.378 228.546 253.44C229.071 253.502 229.542 253.601 229.972 253.725C230.403 253.848 230.794 253.997 231.144 254.17C231.507 254.344 231.857 254.542 232.207 254.752V256.869H231.076C230.861 256.659 230.605 256.473 230.336 256.3C230.067 256.127 229.757 255.966 229.407 255.842C229.057 255.706 228.68 255.607 228.263 255.532C227.846 255.458 227.361 255.421 226.836 255.421C225.974 255.421 225.194 255.569 224.48 255.854C223.78 256.139 223.175 256.572 222.663 257.129C222.165 257.699 221.775 258.392 221.492 259.234C221.209 260.076 221.074 261.042 221.074 262.131C221.074 264.434 221.559 266.168 222.528 267.332C223.498 268.495 224.857 269.065 226.607 269.065C227.213 269.065 227.751 269.015 228.236 268.916C228.721 268.817 229.151 268.681 229.542 268.508C229.932 268.334 230.282 268.136 230.605 267.913C230.928 267.691 231.225 267.443 231.494 267.183H232.449V269.251C232.126 269.511 231.763 269.758 231.345 269.981C230.942 270.204 230.497 270.402 229.999 270.575C229.515 270.736 228.976 270.873 228.398 270.972C227.805 271.046 227.172 271.095 226.486 271.095Z" fill="#22252A"/>
<path d="M244.888 270.947C244.619 270.947 244.39 270.922 244.201 270.885C244.013 270.848 243.851 270.774 243.73 270.662C243.609 270.551 243.515 270.402 243.434 270.216C243.353 270.031 243.299 269.795 243.272 269.498C242.747 270.031 242.142 270.427 241.469 270.687C240.795 270.959 239.988 271.083 239.032 271.083C238.386 271.083 237.793 270.996 237.255 270.835C236.716 270.675 236.246 270.427 235.855 270.105C235.465 269.783 235.155 269.375 234.94 268.892C234.724 268.409 234.603 267.839 234.603 267.208C234.603 266.539 234.738 265.957 235.007 265.462C235.276 264.967 235.667 264.546 236.151 264.224C236.636 263.89 237.215 263.654 237.888 263.493C238.561 263.333 239.301 263.246 240.096 263.246C240.701 263.246 241.253 263.271 241.738 263.333C242.222 263.394 242.707 263.481 243.205 263.593V261.872C243.205 261.091 242.963 260.522 242.478 260.175C241.993 259.829 241.294 259.643 240.351 259.643C239.503 259.643 238.763 259.742 238.116 259.952C237.47 260.163 236.919 260.411 236.475 260.708H235.586V258.826C235.909 258.677 236.232 258.541 236.595 258.405C236.945 258.269 237.336 258.157 237.753 258.058C238.171 257.959 238.628 257.872 239.099 257.81C239.584 257.749 240.109 257.711 240.674 257.711C241.509 257.711 242.263 257.786 242.922 257.934C243.582 258.083 244.134 258.318 244.578 258.628C245.022 258.95 245.373 259.358 245.615 259.866C245.857 260.373 245.978 260.98 245.978 261.686V270.935H244.888V270.947ZM239.921 269.35C240.297 269.35 240.634 269.313 240.944 269.238C241.253 269.164 241.536 269.053 241.805 268.916C242.074 268.78 242.317 268.619 242.545 268.446C242.774 268.26 242.99 268.062 243.192 267.852V265.091C242.788 265.004 242.384 264.942 241.94 264.905C241.509 264.855 241.038 264.843 240.553 264.843C240.082 264.843 239.638 264.88 239.248 264.967C238.844 265.053 238.507 265.19 238.224 265.363C237.942 265.536 237.713 265.772 237.551 266.056C237.39 266.341 237.309 266.675 237.309 267.072C237.309 267.48 237.376 267.827 237.511 268.112C237.646 268.396 237.82 268.632 238.063 268.817C238.292 269.003 238.574 269.139 238.897 269.226C239.193 269.313 239.544 269.35 239.921 269.35Z" fill="#22252A"/>
<path d="M256.452 259.965C255.967 259.965 255.523 260.002 255.105 260.089C254.688 260.175 254.311 260.287 253.961 260.423C253.611 260.559 253.302 260.72 253.006 260.893C252.723 261.067 252.467 261.253 252.252 261.426V270.935H249.479V257.922H251.215C251.39 257.922 251.525 257.947 251.659 257.984C251.78 258.033 251.888 258.108 251.969 258.244C252.05 258.38 252.117 258.553 252.157 258.789C252.198 259.024 252.238 259.333 252.252 259.717C252.494 259.47 252.75 259.222 253.032 258.999C253.315 258.776 253.625 258.566 253.975 258.392C254.311 258.219 254.675 258.071 255.065 257.971C255.455 257.86 255.859 257.811 256.303 257.811C256.465 257.811 256.613 257.823 256.748 257.835C256.869 257.86 256.977 257.872 257.071 257.897V259.99C256.977 259.99 256.882 259.99 256.788 259.977C256.721 259.977 256.654 259.977 256.586 259.977C256.532 259.965 256.478 259.965 256.452 259.965Z" fill="#22252A"/>
<path d="M266.547 259.965C266.063 259.965 265.619 260.002 265.201 260.089C264.784 260.175 264.407 260.287 264.057 260.423C263.707 260.559 263.398 260.72 263.102 260.893C262.819 261.067 262.563 261.253 262.348 261.426V270.935H259.574V257.922H261.311C261.486 257.922 261.62 257.947 261.755 257.984C261.876 258.033 261.984 258.108 262.065 258.244C262.146 258.38 262.213 258.553 262.253 258.789C262.294 259.024 262.334 259.333 262.348 259.717C262.59 259.47 262.846 259.222 263.128 258.999C263.411 258.776 263.721 258.566 264.071 258.392C264.407 258.219 264.771 258.071 265.161 257.971C265.552 257.86 265.955 257.811 266.4 257.811C266.561 257.811 266.709 257.823 266.844 257.835C266.965 257.86 267.073 257.872 267.167 257.897V259.99C267.073 259.99 266.978 259.99 266.884 259.977C266.817 259.977 266.75 259.977 266.682 259.977C266.615 259.965 266.574 259.965 266.547 259.965Z" fill="#22252A"/>
<path d="M275.351 271.095C274.395 271.095 273.494 270.947 272.672 270.637C271.851 270.328 271.138 269.895 270.519 269.325C269.899 268.755 269.428 268.062 269.092 267.245C268.742 266.428 268.58 265.499 268.58 264.472C268.58 263.432 268.755 262.503 269.092 261.661C269.442 260.831 269.913 260.113 270.519 259.531C271.124 258.95 271.838 258.504 272.672 258.182C273.494 257.872 274.395 257.711 275.351 257.711C276.307 257.711 277.209 257.872 278.03 258.182C278.851 258.491 279.565 258.937 280.184 259.531C280.79 260.113 281.274 260.819 281.611 261.661C281.961 262.491 282.122 263.432 282.122 264.472C282.122 265.499 281.947 266.428 281.611 267.245C281.261 268.062 280.79 268.755 280.184 269.325C279.578 269.895 278.865 270.328 278.03 270.637C277.209 270.947 276.32 271.095 275.351 271.095ZM275.351 269.189C275.957 269.189 276.496 269.09 276.98 268.892C277.465 268.694 277.882 268.409 278.232 268.013C278.582 267.616 278.838 267.134 279.026 266.539C279.215 265.957 279.309 265.264 279.309 264.472C279.309 263.679 279.215 262.986 279.026 262.379C278.838 261.772 278.582 261.265 278.232 260.869C277.882 260.46 277.478 260.151 276.98 259.94C276.496 259.73 275.944 259.618 275.351 259.618C274.745 259.618 274.207 259.73 273.723 259.94C273.238 260.151 272.82 260.46 272.484 260.869C272.134 261.277 271.878 261.785 271.69 262.379C271.501 262.986 271.407 263.679 271.407 264.472C271.407 265.264 271.501 265.945 271.69 266.539C271.878 267.134 272.147 267.616 272.484 268.013C272.834 268.409 273.238 268.706 273.723 268.892C274.207 269.09 274.759 269.189 275.351 269.189Z" fill="#22252A"/>
<path d="M283.576 257.922H285.286V254.381H288.059V257.922H291.195V259.705H288.059V267.431C288.059 267.777 288.099 268.062 288.18 268.285C288.261 268.52 288.382 268.694 288.544 268.83C288.705 268.966 288.921 269.065 289.163 269.114C289.419 269.176 289.715 269.201 290.078 269.201H291.357V270.848C291.101 270.91 290.778 270.972 290.401 271.021C290.024 271.071 289.593 271.095 289.109 271.095C288.503 271.095 287.965 271.034 287.494 270.91C287.022 270.786 286.619 270.588 286.296 270.328C285.972 270.055 285.717 269.709 285.542 269.288C285.367 268.867 285.286 268.347 285.286 267.74V259.717H283.576V257.922Z" fill="#22252A"/>
<path d="M308.749 269.189C308.507 269.436 308.238 269.659 307.928 269.857C307.618 270.055 307.282 270.241 306.919 270.39C306.555 270.538 306.165 270.662 305.747 270.749C305.33 270.835 304.899 270.872 304.455 270.872C303.715 270.872 303.015 270.761 302.328 270.526C301.655 270.291 301.063 269.919 300.551 269.411C300.04 268.904 299.636 268.26 299.326 267.455C299.017 266.663 298.869 265.697 298.869 264.57C298.869 263.308 299.043 262.243 299.38 261.364C299.73 260.497 300.175 259.791 300.74 259.247C301.305 258.702 301.938 258.318 302.638 258.083C303.351 257.847 304.065 257.724 304.805 257.724C305.761 257.724 306.568 257.86 307.228 258.12C307.888 258.38 308.453 258.727 308.938 259.16C309.032 258.801 309.194 258.491 309.409 258.268C309.624 258.033 309.907 257.922 310.244 257.922H311.522V274.995H308.749V269.189ZM305.128 269.003C305.855 269.003 306.528 268.854 307.134 268.545C307.74 268.235 308.278 267.839 308.749 267.369V260.93C308.332 260.559 307.874 260.274 307.363 260.076C306.851 259.878 306.218 259.779 305.464 259.779C304.994 259.779 304.522 259.853 304.065 259.989C303.607 260.126 303.203 260.373 302.853 260.707C302.49 261.054 302.207 261.525 301.992 262.107C301.776 262.701 301.655 263.444 301.655 264.36C301.655 265.251 301.736 265.994 301.898 266.589C302.059 267.183 302.288 267.666 302.597 268.025C302.907 268.384 303.271 268.644 303.701 268.792C304.132 268.929 304.603 269.003 305.128 269.003Z" fill="#22252A"/>
<path d="M320.111 269.127C320.474 269.127 320.824 269.09 321.188 269.015C321.538 268.941 321.888 268.854 322.224 268.731C322.561 268.619 322.884 268.483 323.207 268.334C323.517 268.186 323.826 268.037 324.109 267.876V257.909H326.882V270.934H325.145C324.984 270.934 324.849 270.922 324.728 270.885C324.607 270.848 324.513 270.786 324.432 270.674C324.351 270.563 324.284 270.414 324.244 270.229C324.189 270.031 324.163 269.783 324.149 269.461C323.799 269.696 323.422 269.919 323.018 270.117C322.615 270.315 322.197 270.489 321.767 270.637C321.336 270.786 320.878 270.897 320.42 270.984C319.963 271.071 319.505 271.108 319.034 271.108C318.482 271.108 317.97 271.046 317.499 270.934C317.028 270.823 316.624 270.625 316.274 270.352C315.924 270.08 315.655 269.721 315.467 269.275C315.278 268.83 315.17 268.272 315.17 267.616V257.897H317.943V267.047C317.943 267.455 317.997 267.802 318.105 268.074C318.213 268.347 318.361 268.557 318.549 268.706C318.738 268.854 318.967 268.966 319.236 269.028C319.492 269.09 319.788 269.127 320.111 269.127Z" fill="#22252A"/>
<path d="M332.603 264.917C332.643 265.684 332.751 266.341 332.967 266.885C333.168 267.43 333.451 267.876 333.815 268.21C334.178 268.557 334.623 268.804 335.134 268.953C335.659 269.102 336.251 269.188 336.911 269.188C337.813 269.188 338.594 269.077 339.226 268.842C339.859 268.606 340.397 268.322 340.828 267.987H341.73V269.758C341.474 269.919 341.178 270.08 340.855 270.241C340.532 270.402 340.141 270.538 339.724 270.674C339.307 270.798 338.822 270.909 338.297 270.984C337.772 271.058 337.167 271.095 336.507 271.095C335.416 271.095 334.461 270.946 333.626 270.637C332.792 270.327 332.078 269.894 331.513 269.312C330.934 268.743 330.503 268.049 330.207 267.232C329.911 266.415 329.763 265.499 329.763 264.471C329.763 263.431 329.924 262.502 330.261 261.661C330.597 260.831 331.042 260.113 331.621 259.531C332.199 258.949 332.886 258.503 333.667 258.181C334.461 257.872 335.309 257.711 336.224 257.711C337.153 257.711 337.988 257.835 338.728 258.095C339.468 258.355 340.088 258.739 340.599 259.259C341.111 259.779 341.488 260.435 341.757 261.227C342.026 262.02 342.161 262.948 342.161 264.013C342.161 264.186 342.161 264.36 342.147 264.545C342.134 264.731 342.134 264.855 342.134 264.892H332.603V264.917ZM336.224 259.469C335.767 259.469 335.336 259.531 334.932 259.667C334.528 259.803 334.178 260.014 333.855 260.323C333.546 260.621 333.276 261.017 333.074 261.5C332.859 261.982 332.724 262.564 332.657 263.258H339.428C339.415 262.552 339.32 261.958 339.172 261.487C339.024 261.004 338.809 260.621 338.54 260.323C338.271 260.026 337.934 259.803 337.543 259.68C337.14 259.531 336.709 259.469 336.224 259.469Z" fill="#22252A"/>
<path d="M348.797 271.07C348.218 271.07 347.693 271.033 347.222 270.971C346.751 270.909 346.334 270.823 345.97 270.711C345.594 270.6 345.271 270.476 344.974 270.352C344.678 270.216 344.409 270.08 344.18 269.931V267.963H345.069C345.23 268.111 345.432 268.247 345.661 268.383C345.89 268.52 346.159 268.643 346.455 268.755C346.751 268.866 347.088 268.953 347.465 269.027C347.842 269.102 348.245 269.126 348.676 269.126C350.642 269.126 351.624 268.495 351.624 267.244C351.624 266.972 351.584 266.737 351.49 266.539C351.396 266.341 351.234 266.167 351.005 266.019C350.776 265.87 350.466 265.746 350.09 265.635C349.713 265.523 349.228 265.437 348.649 265.35C347.936 265.251 347.303 265.115 346.751 264.941C346.199 264.768 345.728 264.533 345.351 264.236C344.974 263.939 344.678 263.58 344.49 263.146C344.288 262.713 344.194 262.193 344.194 261.586C344.194 260.967 344.315 260.422 344.557 259.952C344.799 259.481 345.136 259.085 345.58 258.763C346.024 258.441 346.549 258.194 347.182 258.033C347.815 257.872 348.515 257.785 349.295 257.785C350.292 257.785 351.113 257.872 351.772 258.058C352.432 258.231 352.997 258.454 353.455 258.701V260.645H352.567C352.217 260.398 351.786 260.175 351.261 259.989C350.736 259.803 350.09 259.717 349.309 259.717C348.407 259.717 347.734 259.853 347.303 260.138C346.873 260.422 346.657 260.843 346.657 261.4C346.657 261.66 346.711 261.883 346.818 262.069C346.926 262.255 347.101 262.416 347.33 262.552C347.572 262.688 347.882 262.812 348.259 262.899C348.636 262.985 349.107 263.084 349.673 263.159C350.453 263.27 351.126 263.406 351.692 263.592C352.27 263.778 352.742 264.013 353.119 264.31C353.495 264.607 353.778 264.979 353.967 265.424C354.155 265.87 354.249 266.39 354.249 267.009C354.249 267.628 354.142 268.185 353.926 268.693C353.711 269.201 353.374 269.622 352.93 269.981C352.486 270.327 351.921 270.6 351.234 270.798C350.534 270.971 349.726 271.07 348.797 271.07Z" fill="#22252A"/>
<path d="M355.744 257.922H357.453V254.381H360.226V257.922H363.363V259.705H360.226V267.431C360.226 267.777 360.267 268.062 360.347 268.285C360.428 268.52 360.549 268.694 360.711 268.83C360.872 268.966 361.088 269.065 361.33 269.114C361.586 269.176 361.882 269.201 362.245 269.201H363.524V270.848C363.269 270.91 362.945 270.972 362.568 271.021C362.192 271.071 361.761 271.095 361.276 271.095C360.67 271.095 360.132 271.034 359.661 270.91C359.19 270.786 358.786 270.588 358.463 270.328C358.14 270.055 357.884 269.709 357.709 269.288C357.534 268.867 357.453 268.347 357.453 267.74V259.717H355.744V257.922Z" fill="#22252A"/>
</g>
<g filter="url(#filter7_d_7_1232)">
<path d="M400.625 240C400.625 228.954 409.579 220 420.625 220H464.625C475.671 220 484.625 228.954 484.625 240V284C484.625 295.046 475.671 304 464.625 304H420.625C409.579 304 400.625 295.046 400.625 284V240Z" fill="white" shape-rendering="crispEdges"/>
<path d="M442.615 240.75H442.518C430.772 240.75 421.25 250.275 421.25 262.024V262.121C421.25 273.87 430.772 283.395 442.518 283.395H442.615C454.36 283.395 463.882 273.87 463.882 262.121V262.024C463.882 250.275 454.36 240.75 442.615 240.75Z" fill="#00B0F2"/>
<path d="M429.325 261.345C429.384 261.316 429.444 261.287 429.502 261.26C430.515 260.791 431.541 260.352 432.566 259.913C432.621 259.913 432.714 259.848 432.766 259.827C432.845 259.793 432.924 259.76 433.003 259.726L433.459 259.53C433.764 259.4 434.067 259.27 434.372 259.14C434.979 258.88 435.587 258.62 436.195 258.359C437.411 257.839 438.628 257.317 439.844 256.797C441.06 256.278 442.277 255.756 443.493 255.236C444.709 254.716 445.926 254.195 447.142 253.675C448.358 253.155 449.575 252.634 450.791 252.114C451.061 251.997 451.354 251.824 451.644 251.773C451.887 251.73 452.125 251.646 452.37 251.6C452.834 251.512 453.346 251.476 453.792 251.668C453.945 251.736 454.087 251.83 454.205 251.948C454.77 252.507 454.691 253.424 454.571 254.21C453.739 259.687 452.907 265.166 452.074 270.643C451.96 271.394 451.805 272.219 451.212 272.694C450.71 273.096 449.996 273.141 449.376 272.971C448.757 272.799 448.21 272.439 447.674 272.085C445.45 270.612 443.224 269.138 441 267.665C440.471 267.316 439.883 266.858 439.889 266.223C439.892 265.841 440.12 265.5 440.353 265.197C442.286 262.675 445.075 260.942 447.149 258.537C447.442 258.197 447.672 257.585 447.27 257.389C447.031 257.273 446.757 257.431 446.539 257.582C443.796 259.487 441.055 261.393 438.313 263.298C437.419 263.92 436.481 264.559 435.402 264.711C434.437 264.849 433.466 264.58 432.533 264.305C431.75 264.075 430.969 263.839 430.191 263.595C429.777 263.467 429.35 263.328 429.03 263.037C428.711 262.745 428.527 262.255 428.72 261.867C428.841 261.623 429.075 261.469 429.322 261.344L429.325 261.345Z" fill="#FEFFFC"/>
</g>
<defs>
<filter id="filter0_d_7_1232" x="33.75" y="0" width="108" height="108" filterUnits="userSpaceOnUse" color-interpolation-filters="sRGB">
<feFlood flood-opacity="0" result="BackgroundImageFix"/>
<feColorMatrix in="SourceAlpha" type="matrix" values="0 0 0 0 0 0 0 0 0 0 0 0 0 0 0 0 0 0 127 0" result="hardAlpha"/>
<feOffset/>
<feGaussianBlur stdDeviation="6"/>
<feComposite in2="hardAlpha" operator="out"/>
<feColorMatrix type="matrix" values="0 0 0 0 0.725532 0 0 0 0 0.721389 0 0 0 0 0.816667 0 0 0 0.2 0"/>
<feBlend mode="normal" in2="BackgroundImageFix" result="effect1_dropShadow_7_1232"/>
<feBlend mode="normal" in="SourceGraphic" in2="effect1_dropShadow_7_1232" result="shape"/>
</filter>
<filter id="filter1_d_7_1232" x="137.75" y="0" width="240.5" height="108" filterUnits="userSpaceOnUse" color-interpolation-filters="sRGB">
<feFlood flood-opacity="0" result="BackgroundImageFix"/>
<feColorMatrix in="SourceAlpha" type="matrix" values="0 0 0 0 0 0 0 0 0 0 0 0 0 0 0 0 0 0 127 0" result="hardAlpha"/>
<feOffset/>
<feGaussianBlur stdDeviation="6"/>
<feComposite in2="hardAlpha" operator="out"/>
<feColorMatrix type="matrix" values="0 0 0 0 0.725532 0 0 0 0 0.721389 0 0 0 0 0.816667 0 0 0 0.2 0"/>
<feBlend mode="normal" in2="BackgroundImageFix" result="effect1_dropShadow_7_1232"/>
<feBlend mode="normal" in="SourceGraphic" in2="effect1_dropShadow_7_1232" result="shape"/>
</filter>
<filter id="filter2_d_7_1232" x="374.25" y="0" width="108" height="108" filterUnits="userSpaceOnUse" color-interpolation-filters="sRGB">
<feFlood flood-opacity="0" result="BackgroundImageFix"/>
<feColorMatrix in="SourceAlpha" type="matrix" values="0 0 0 0 0 0 0 0 0 0 0 0 0 0 0 0 0 0 127 0" result="hardAlpha"/>
<feOffset/>
<feGaussianBlur stdDeviation="6"/>
<feComposite in2="hardAlpha" operator="out"/>
<feColorMatrix type="matrix" values="0 0 0 0 0.725532 0 0 0 0 0.721389 0 0 0 0 0.816667 0 0 0 0.2 0"/>
<feBlend mode="normal" in2="BackgroundImageFix" result="effect1_dropShadow_7_1232"/>
<feBlend mode="normal" in="SourceGraphic" in2="effect1_dropShadow_7_1232" result="shape"/>
</filter>
<filter id="filter3_d_7_1232" x="2" y="104" width="258" height="108" filterUnits="userSpaceOnUse" color-interpolation-filters="sRGB">
<feFlood flood-opacity="0" result="BackgroundImageFix"/>
<feColorMatrix in="SourceAlpha" type="matrix" values="0 0 0 0 0 0 0 0 0 0 0 0 0 0 0 0 0 0 127 0" result="hardAlpha"/>
<feOffset/>
<feGaussianBlur stdDeviation="6"/>
<feComposite in2="hardAlpha" operator="out"/>
<feColorMatrix type="matrix" values="0 0 0 0 0.725532 0 0 0 0 0.721389 0 0 0 0 0.816667 0 0 0 0.2 0"/>
<feBlend mode="normal" in2="BackgroundImageFix" result="effect1_dropShadow_7_1232"/>
<feBlend mode="normal" in="SourceGraphic" in2="effect1_dropShadow_7_1232" result="shape"/>
</filter>
<filter id="filter4_d_7_1232" x="256" y="104" width="258" height="108" filterUnits="userSpaceOnUse" color-interpolation-filters="sRGB">
<feFlood flood-opacity="0" result="BackgroundImageFix"/>
<feColorMatrix in="SourceAlpha" type="matrix" values="0 0 0 0 0 0 0 0 0 0 0 0 0 0 0 0 0 0 127 0" result="hardAlpha"/>
<feOffset/>
<feGaussianBlur stdDeviation="6"/>
<feComposite in2="hardAlpha" operator="out"/>
<feColorMatrix type="matrix" values="0 0 0 0 0.725532 0 0 0 0 0.721389 0 0 0 0 0.816667 0 0 0 0.2 0"/>
<feBlend mode="normal" in2="BackgroundImageFix" result="effect1_dropShadow_7_1232"/>
<feBlend mode="normal" in="SourceGraphic" in2="effect1_dropShadow_7_1232" result="shape"/>
</filter>
<filter id="filter5_d_7_1232" x="19.375" y="208" width="126.75" height="108" filterUnits="userSpaceOnUse" color-interpolation-filters="sRGB">
<feFlood flood-opacity="0" result="BackgroundImageFix"/>
<feColorMatrix in="SourceAlpha" type="matrix" values="0 0 0 0 0 0 0 0 0 0 0 0 0 0 0 0 0 0 127 0" result="hardAlpha"/>
<feOffset/>
<feGaussianBlur stdDeviation="6"/>
<feComposite in2="hardAlpha" operator="out"/>
<feColorMatrix type="matrix" values="0 0 0 0 0.725532 0 0 0 0 0.721389 0 0 0 0 0.816667 0 0 0 0.2 0"/>
<feBlend mode="normal" in2="BackgroundImageFix" result="effect1_dropShadow_7_1232"/>
<feBlend mode="normal" in="SourceGraphic" in2="effect1_dropShadow_7_1232" result="shape"/>
</filter>
<filter id="filter6_d_7_1232" x="142.125" y="208" width="250.5" height="108" filterUnits="userSpaceOnUse" color-interpolation-filters="sRGB">
<feFlood flood-opacity="0" result="BackgroundImageFix"/>
<feColorMatrix in="SourceAlpha" type="matrix" values="0 0 0 0 0 0 0 0 0 0 0 0 0 0 0 0 0 0 127 0" result="hardAlpha"/>
<feOffset/>
<feGaussianBlur stdDeviation="6"/>
<feComposite in2="hardAlpha" operator="out"/>
<feColorMatrix type="matrix" values="0 0 0 0 0.725532 0 0 0 0 0.721389 0 0 0 0 0.816667 0 0 0 0.2 0"/>
<feBlend mode="normal" in2="BackgroundImageFix" result="effect1_dropShadow_7_1232"/>
<feBlend mode="normal" in="SourceGraphic" in2="effect1_dropShadow_7_1232" result="shape"/>
</filter>
<filter id="filter7_d_7_1232" x="388.625" y="208" width="108" height="108" filterUnits="userSpaceOnUse" color-interpolation-filters="sRGB">
<feFlood flood-opacity="0" result="BackgroundImageFix"/>
<feColorMatrix in="SourceAlpha" type="matrix" values="0 0 0 0 0 0 0 0 0 0 0 0 0 0 0 0 0 0 127 0" result="hardAlpha"/>
<feOffset/>
<feGaussianBlur stdDeviation="6"/>
<feComposite in2="hardAlpha" operator="out"/>
<feColorMatrix type="matrix" values="0 0 0 0 0.725532 0 0 0 0 0.721389 0 0 0 0 0.816667 0 0 0 0.2 0"/>
<feBlend mode="normal" in2="BackgroundImageFix" result="effect1_dropShadow_7_1232"/>
<feBlend mode="normal" in="SourceGraphic" in2="effect1_dropShadow_7_1232" result="shape"/>
</filter>
<radialGradient id="paint0_radial_7_1232" cx="0" cy="0" r="1" gradientUnits="userSpaceOnUse" gradientTransform="translate(74.6802 75.0227) rotate(-57.0915) scale(46.3078)">
<stop stop-color="#0099FF"/>
<stop offset="0.609754" stop-color="#A033FF"/>
<stop offset="0.934823" stop-color="#FF5280"/>
<stop offset="1" stop-color="#FF7061"/>
</radialGradient>
<linearGradient id="paint1_linear_7_1232" x1="316.846" y1="143.545" x2="296.95" y2="164.805" gradientUnits="userSpaceOnUse">
<stop stop-color="white"/>
<stop offset="1"/>
</linearGradient>
<linearGradient id="paint2_linear_7_1232" x1="202.04" y1="249.091" x2="196.601" y2="258.055" gradientUnits="userSpaceOnUse">
<stop stop-color="#2D862D"/>
<stop offset="1" stop-color="#B34A00"/>
</linearGradient>
<clipPath id="clip0_7_1232">
<rect width="192.5" height="35" fill="white" transform="translate(161.75 41.5)"/>
</clipPath>
<clipPath id="clip1_7_1232">
<rect width="200.455" height="41.25" fill="white" transform="translate(30.0908 138)"/>
</clipPath>
<clipPath id="clip2_7_1232">
<rect width="205.909" height="36.25" fill="white" transform="translate(281.364 140.5)"/>
</clipPath>
<clipPath id="clip3_7_1232">
<rect width="57.375" height="46.25" fill="white" transform="translate(53.5 238.25)"/>
</clipPath>
</defs>
</svg>
