<svg width="456" height="266" viewBox="0 0 456 266" fill="none" xmlns="http://www.w3.org/2000/svg">
<g filter="url(#filter0_d_7_1302)">
<path d="M380 58C380 46.9543 388.954 38 400 38H424C435.046 38 444 46.9543 444 58V82C444 93.0457 435.046 102 424 102H400C388.954 102 380 93.0457 380 82V58Z" fill="white" shape-rendering="crispEdges"/>
<path d="M403.049 84.3457C401.781 84.3457 400.785 83.3499 400.785 82.0823V58.5488C400.785 57.2812 401.781 56.2854 403.049 56.2854H416.988C417.485 56.2854 417.938 56.467 418.255 56.829L422.871 61.4448C423.233 61.8068 423.415 62.259 423.415 62.7124V82.0823C423.415 83.3499 422.419 84.3457 421.151 84.3457H403.049Z" fill="white"/>
<path d="M416.988 56.7389C417.35 56.7389 417.712 56.8748 417.938 57.1466L422.553 61.7623C422.825 62.0342 422.961 62.3504 422.961 62.7124V82.0824C422.961 83.0782 422.147 83.8924 421.151 83.8924H403.049C402.053 83.8924 401.239 83.0782 401.239 82.0824V58.5488C401.239 57.553 402.053 56.7389 403.049 56.7389H416.988ZM416.988 55.8333H403.049C401.555 55.8333 400.333 57.0551 400.333 58.5488V82.0824C400.333 83.5761 401.555 84.798 403.049 84.798H421.151C422.645 84.798 423.867 83.5761 423.867 82.0824V62.7124C423.867 62.1243 423.641 61.5363 423.188 61.1285L418.573 56.5128C418.119 56.0593 417.576 55.8333 416.988 55.8333Z" fill="#FF2116"/>
<path d="M417.655 68.8899C417.497 68.7207 417.236 68.5848 416.897 68.4909C416.557 68.3982 416.138 68.3463 415.664 68.3463C415.392 68.3463 415.104 68.3636 414.801 68.3945C414.499 68.4254 414.182 68.4711 413.854 68.5279C413.661 68.3463 413.469 68.1487 413.279 67.9337C413.09 67.7187 412.904 67.4864 412.722 67.2381C412.597 67.0565 412.474 66.8761 412.355 66.6945C412.236 66.5129 412.123 66.3325 412.021 66.1509C412.191 65.6196 412.338 65.0982 412.443 64.6152C412.548 64.1309 412.61 63.6848 412.61 63.3006C412.61 63.0177 412.564 62.6384 412.412 62.3308C412.259 62.0219 411.999 61.7847 411.569 61.7847C411.456 61.7847 411.337 61.818 411.232 61.8773C411.127 61.9366 411.037 62.0219 410.98 62.1232C410.811 62.4284 410.76 62.9374 410.833 63.5489C410.907 64.1605 411.105 64.8721 411.432 65.585C411.318 65.9248 411.194 66.2695 411.058 66.629C410.922 66.9885 410.775 67.3617 410.617 67.7582C410.481 68.0869 410.334 68.4143 410.178 68.7367C410.022 69.0592 409.858 69.3767 409.689 69.6807C408.761 70.0538 407.997 70.4442 407.451 70.826C406.905 71.2077 406.578 71.5808 406.521 71.9206C406.499 72.0343 406.504 72.1405 406.538 72.2431C406.572 72.3444 406.635 72.4407 406.725 72.5309C406.782 72.5766 406.866 72.6384 406.979 72.6891C407.093 72.7397 407.234 72.7793 407.404 72.7793C407.936 72.7793 408.502 72.3888 409.045 71.797C409.589 71.2065 410.109 70.4145 410.55 69.6102C410.798 69.52 411.053 69.4348 411.313 69.3557C411.574 69.2767 411.84 69.2038 412.112 69.1358C412.406 69.0567 412.689 68.9888 412.967 68.9295C413.243 68.8702 413.515 68.8195 413.787 68.7738C414.432 69.3619 415.037 69.6844 415.555 69.8598C416.073 70.0352 416.503 70.0637 416.797 70.0637C417.147 70.0637 417.37 70.0093 417.518 69.9228C417.666 69.8363 417.739 69.7177 417.792 69.5892C417.839 69.4348 417.839 69.2939 417.811 69.1741C417.781 69.0567 417.723 68.9579 417.655 68.8899ZM411.162 62.2369C411.207 62.1578 411.263 62.096 411.328 62.0528C411.394 62.0108 411.467 61.9873 411.546 61.9873C411.704 61.9873 411.829 62.0552 411.913 62.1887C411.998 62.3221 412.042 62.5198 412.042 62.7792C412.042 63.051 411.997 63.413 411.913 63.8368C411.827 64.2618 411.704 64.7474 411.546 65.2675C411.229 64.5435 411.07 63.8936 411.023 63.3698C410.975 62.8484 411.037 62.4518 411.162 62.2369ZM406.726 71.9453C406.783 71.6624 407.077 71.3399 407.558 71.0039C408.038 70.6666 408.707 70.3169 409.51 69.9772C409.058 70.7469 408.604 71.3683 408.198 71.7983C407.79 72.2282 407.428 72.4654 407.156 72.4654C407.099 72.4654 407.049 72.4543 407 72.4346C406.952 72.4148 406.908 72.3864 406.862 72.353C406.805 72.2962 406.766 72.2282 406.743 72.1578C406.72 72.0861 406.715 72.0133 406.726 71.9453ZM413.583 68.5737C413.346 68.6194 413.096 68.67 412.842 68.7256C412.587 68.7825 412.328 68.8442 412.067 68.9122C411.841 68.969 411.615 69.0308 411.391 69.0987C411.168 69.1667 410.948 69.2396 410.733 69.3187C410.858 69.0814 410.976 68.8492 411.084 68.6231C411.191 68.397 411.288 68.1758 411.367 67.9609C411.468 67.7125 411.57 67.458 411.669 67.1998C411.768 66.9428 411.865 66.6821 411.955 66.4214C412.045 66.5796 412.141 66.7377 412.244 66.8971C412.345 67.0553 412.453 67.2134 412.566 67.3728C412.724 67.5877 412.889 67.7978 413.059 67.9979C413.226 68.1993 413.401 68.392 413.583 68.5737ZM414.035 68.7096C414.579 68.6083 415.088 68.5625 415.514 68.5539C415.942 68.5452 416.286 68.5737 416.501 68.6194C416.705 68.6651 416.863 68.7553 416.962 68.8801C417.061 69.0048 417.101 69.163 417.067 69.3434C417.034 69.5361 416.903 69.677 416.719 69.756C416.535 69.8351 416.297 69.8524 416.048 69.7956C415.64 69.6942 415.273 69.5349 414.94 69.3458C414.606 69.1568 414.307 68.9357 414.035 68.7096Z" fill="#FF2116"/>
<path d="M407.488 76.6128C407.488 76.6066 407.488 76.6005 407.489 76.5955C407.491 76.5906 407.492 76.5856 407.494 76.5819C407.497 76.5782 407.5 76.5745 407.507 76.5733C407.512 76.5708 407.518 76.5696 407.526 76.5696C407.588 76.5659 407.656 76.5634 407.731 76.5609C407.806 76.5585 407.886 76.556 407.97 76.5547C408.054 76.5535 408.143 76.5523 408.234 76.551C408.326 76.5498 408.418 76.5498 408.514 76.5498C408.779 76.5498 409.008 76.5856 409.2 76.6523C409.393 76.7191 409.551 76.8154 409.675 76.934C409.8 77.0539 409.89 77.196 409.95 77.3553C410.01 77.5147 410.039 77.6914 410.039 77.878C410.039 78.1213 409.995 78.3301 409.916 78.5068C409.837 78.6823 409.722 78.8268 409.58 78.9405C409.438 79.0541 409.268 79.1369 409.081 79.1913C408.893 79.2456 408.686 79.2716 408.469 79.2716C408.432 79.2716 408.402 79.2716 408.375 79.2703C408.348 79.2703 408.326 79.2691 408.303 79.2679C408.281 79.2666 408.261 79.2666 408.24 79.2654C408.219 79.2642 408.197 79.2642 408.171 79.2642V79.6336V80.003V80.3724V80.7418C408.171 80.7505 408.17 80.7566 408.169 80.7616C408.168 80.7665 408.165 80.7715 408.161 80.7752C408.158 80.7789 408.153 80.7813 408.148 80.7826C408.143 80.7838 408.135 80.785 408.128 80.785H407.979H407.829H407.68H407.53C407.523 80.785 407.515 80.7838 407.51 80.7826C407.505 80.7813 407.5 80.7789 407.497 80.7752C407.493 80.7715 407.491 80.7665 407.489 80.7616C407.488 80.7554 407.487 80.7492 407.487 80.7418V79.7102V78.6785V77.6469C407.488 77.6444 407.488 76.6128 407.488 76.6128ZM408.171 78.6501C408.194 78.6514 408.215 78.6526 408.236 78.6538C408.257 78.6551 408.279 78.6551 408.302 78.6551C408.326 78.6551 408.352 78.6551 408.381 78.6563C408.411 78.6563 408.443 78.6563 408.481 78.6563C408.594 78.6563 408.704 78.6464 408.806 78.6217C408.909 78.597 409.003 78.5587 409.083 78.5006C409.163 78.4426 409.23 78.366 409.276 78.2659C409.322 78.1658 409.349 78.0423 409.349 77.8903C409.349 77.768 409.33 77.6617 409.294 77.5703C409.259 77.4789 409.205 77.4023 409.136 77.3405C409.067 77.28 408.982 77.233 408.882 77.2021C408.782 77.1713 408.667 77.1564 408.538 77.1564C408.5 77.1564 408.463 77.1564 408.427 77.1577C408.391 77.1589 408.357 77.1589 408.324 77.1601C408.292 77.1614 408.263 77.1626 408.237 77.1638C408.211 77.1651 408.189 77.1675 408.171 77.1688V77.5394V77.9101V78.2807V78.6501Z" fill="#2C2C2C"/>
<path d="M410.723 76.619C410.723 76.6104 410.723 76.6042 410.724 76.5992C410.725 76.5931 410.728 76.5894 410.73 76.5844C410.734 76.5807 410.738 76.577 410.744 76.5745C410.75 76.5721 410.757 76.5696 410.767 76.5684C410.804 76.5671 410.857 76.5646 410.923 76.5622C410.99 76.5597 411.069 76.5585 411.156 76.556C411.244 76.5535 411.342 76.5523 411.444 76.5511C411.546 76.5498 411.653 76.5486 411.76 76.5486C412.082 76.5486 412.362 76.6005 412.603 76.6968C412.844 76.7932 413.044 76.9353 413.204 77.1144C413.364 77.2936 413.484 77.5123 413.564 77.7606C413.645 78.0089 413.684 78.2881 413.684 78.5933C413.684 79.0158 413.615 79.3655 413.498 79.6509C413.38 79.9363 413.215 80.1587 413.023 80.3292C412.832 80.4997 412.613 80.6158 412.388 80.6899C412.164 80.7641 411.935 80.7962 411.721 80.7962C411.641 80.7962 411.55 80.7962 411.459 80.7949C411.368 80.7949 411.272 80.7937 411.184 80.7925C411.093 80.7912 411.009 80.79 410.936 80.7888C410.864 80.7875 410.802 80.7851 410.76 80.7838C410.754 80.7838 410.747 80.7826 410.742 80.7801C410.738 80.7776 410.734 80.7752 410.73 80.7702C410.726 80.7653 410.725 80.7604 410.723 80.7542C410.721 80.748 410.72 80.7406 410.72 80.7332V79.704V78.6749V77.6457L410.723 76.619ZM411.413 80.176C411.441 80.1772 411.466 80.1797 411.492 80.1809C411.518 80.1821 411.544 80.1834 411.57 80.1846C411.596 80.1859 411.622 80.1871 411.651 80.1871C411.678 80.1871 411.706 80.1883 411.737 80.1883C411.915 80.1883 412.08 80.1574 412.229 80.0932C412.378 80.0289 412.51 79.9338 412.62 79.8041C412.73 79.6744 412.819 79.5113 412.88 79.3124C412.94 79.1147 412.975 78.8812 412.976 78.6118C412.977 78.3499 412.945 78.1263 412.885 77.941C412.824 77.7557 412.735 77.6062 412.625 77.49C412.515 77.3739 412.384 77.2899 412.237 77.2355C412.092 77.1812 411.93 77.1564 411.76 77.1564C411.727 77.1564 411.696 77.1564 411.665 77.1577C411.634 77.1589 411.606 77.1589 411.578 77.1601C411.549 77.1614 411.522 77.1626 411.495 77.1639C411.468 77.1651 411.441 77.1676 411.413 77.1688V77.92V78.6711V79.4223C411.413 79.4236 411.413 80.176 411.413 80.176Z" fill="#2C2C2C"/>
<path d="M415.135 80.7332C415.135 80.7431 415.133 80.7505 415.132 80.7567C415.131 80.7629 415.129 80.7691 415.125 80.7728C415.121 80.7765 415.116 80.779 415.111 80.7814C415.106 80.7827 415.099 80.7839 415.091 80.7839H414.941H414.79H414.639H414.489C414.481 80.7839 414.474 80.7827 414.469 80.7814C414.464 80.7802 414.459 80.7765 414.455 80.7728C414.451 80.7691 414.449 80.7641 414.448 80.7567C414.447 80.7505 414.445 80.7419 414.445 80.7332V79.7016V78.67V77.6383V76.6067C414.445 76.5993 414.447 76.5919 414.448 76.5869C414.449 76.582 414.451 76.5771 414.455 76.5734C414.459 76.5697 414.464 76.5672 414.469 76.5659C414.474 76.5647 414.481 76.5635 414.489 76.5635H415.015H415.541H416.068H416.594C416.604 76.5635 416.611 76.5647 416.617 76.5659C416.623 76.5672 416.627 76.5697 416.631 76.5734C416.635 76.5771 416.637 76.582 416.64 76.5869C416.642 76.5919 416.643 76.5993 416.644 76.6067L416.661 76.7402L416.677 76.8736L416.693 77.007L416.709 77.1404C416.71 77.1503 416.71 77.1577 416.709 77.1639C416.707 77.1701 416.704 77.1763 416.7 77.18C416.696 77.1837 416.69 77.1862 416.683 77.1886C416.675 77.1899 416.668 77.1911 416.658 77.1911H416.276H415.896H415.514H415.132V77.4913V77.7915V78.0918V78.392H415.474H415.817H416.159H416.501C416.51 78.392 416.516 78.392 416.521 78.3932C416.527 78.3945 416.531 78.3969 416.535 78.3994C416.538 78.4031 416.541 78.4068 416.542 78.413C416.543 78.4192 416.544 78.4266 416.544 78.4365V78.5699V78.7033V78.8368V78.9702C416.544 78.9801 416.543 78.9875 416.542 78.9937C416.541 78.9999 416.538 79.0036 416.535 79.0073C416.531 79.011 416.526 79.0122 416.521 79.0134C416.515 79.0147 416.509 79.0147 416.501 79.0147H416.16H415.818H415.476H415.133V79.4446V79.8746V80.3045L415.135 80.7332Z" fill="#2C2C2C"/>
</g>
<g filter="url(#filter1_d_7_1302)">
<path d="M380 134C380 122.954 388.954 114 400 114H424C435.046 114 444 122.954 444 134V158C444 169.046 435.046 178 424 178H400C388.954 178 380 169.046 380 158V134Z" fill="white" shape-rendering="crispEdges"/>
<path d="M399.902 154.807L401.159 157.01C401.42 157.473 401.796 157.838 402.237 158.103L406.727 150.22H397.747C397.747 150.734 397.878 151.247 398.139 151.711L399.902 154.807Z" fill="#0066DA"/>
<path d="M412 140.946L407.51 133.064C407.069 133.329 406.694 133.693 406.433 134.157L398.139 148.73C397.882 149.183 397.747 149.697 397.747 150.22H406.727L412 140.946Z" fill="#00AC47"/>
<path d="M421.763 158.103C422.204 157.838 422.579 157.473 422.84 157.01L423.363 156.099L425.861 151.711C426.122 151.247 426.253 150.734 426.253 150.22H417.272L419.183 154.029L421.763 158.103Z" fill="#EA4335"/>
<path d="M412 140.947L416.49 133.064C416.049 132.799 415.543 132.667 415.02 132.667H408.98C408.457 132.667 407.951 132.816 407.51 133.064L412 140.947Z" fill="#00832D"/>
<path d="M417.273 150.22H406.727L402.237 158.103C402.678 158.368 403.184 158.5 403.706 158.5H420.294C420.816 158.5 421.322 158.351 421.763 158.103L417.273 150.22Z" fill="#2684FC"/>
<path d="M421.714 141.443L417.567 134.157C417.306 133.693 416.931 133.329 416.49 133.064L412 140.946L417.273 150.22H426.237C426.237 149.707 426.106 149.193 425.845 148.73L421.714 141.443Z" fill="#FFBA00"/>
</g>
<g filter="url(#filter2_d_7_1302)">
<path d="M380 210C380 198.954 388.954 190 400 190H424C435.046 190 444 198.954 444 210V234C444 245.046 435.046 254 424 254H400C388.954 254 380 245.046 380 234V210Z" fill="white" shape-rendering="crispEdges"/>
<path fill-rule="evenodd" clip-rule="evenodd" d="M409.692 207.843C409.148 209.615 408.031 213.49 407.406 217.307C409.027 217.569 410.611 217.736 412 217.736C413.389 217.736 414.973 217.569 416.594 217.307C415.969 213.49 414.851 209.615 414.307 207.843C413.557 207.722 412.786 207.659 412 207.659C411.214 207.659 410.443 207.722 409.692 207.843ZM416.939 208.532C417.536 210.6 418.364 213.746 418.881 216.885C421.113 216.425 423.219 215.864 424.748 215.424C423.109 212.253 420.322 209.773 416.939 208.532ZM425.649 217.584C424.033 218.054 421.692 218.686 419.199 219.194C419.303 220.158 419.364 221.105 419.364 222C419.364 223.306 419.234 224.728 419.029 226.157C422.013 225.534 424.751 224.739 426.157 224.307C426.278 223.557 426.341 222.786 426.341 222C426.341 220.458 426.098 218.974 425.649 217.584ZM425.468 226.939C423.728 227.441 421.228 228.106 418.612 228.612C418.106 231.228 417.441 233.728 416.939 235.468C420.886 234.02 424.02 230.886 425.468 226.939ZM414.307 236.157C414.739 234.751 415.534 232.013 416.157 229.029C414.728 229.234 413.306 229.364 412 229.364C410.694 229.364 409.272 229.234 407.843 229.029C408.465 232.013 409.261 234.751 409.692 236.157C410.443 236.278 411.214 236.341 412 236.341C412.786 236.341 413.557 236.278 414.307 236.157ZM407.061 235.468C406.559 233.728 405.893 231.228 405.387 228.612C402.772 228.106 400.272 227.441 398.532 226.939C399.98 230.886 403.114 234.02 407.061 235.468ZM397.843 224.307C399.249 224.739 401.987 225.534 404.971 226.157C404.766 224.728 404.636 223.306 404.636 222C404.636 221.105 404.697 220.158 404.801 219.194C402.308 218.686 399.967 218.054 398.351 217.584C397.902 218.974 397.659 220.458 397.659 222C397.659 222.786 397.722 223.557 397.843 224.307ZM399.252 215.424C400.781 215.864 402.887 216.425 405.119 216.885C405.636 213.746 406.464 210.6 407.061 208.532C403.678 209.773 400.891 212.253 399.252 215.424ZM407.095 219.613C407.009 220.451 406.961 221.254 406.961 222C406.961 223.392 407.129 224.981 407.392 226.608C409.019 226.871 410.607 227.039 412 227.039C413.392 227.039 414.981 226.871 416.608 226.608C416.871 224.981 417.039 223.392 417.039 222C417.039 221.254 416.99 220.451 416.905 219.613C415.226 219.882 413.533 220.062 412 220.062C410.467 220.062 408.774 219.882 407.095 219.613ZM408.552 205.691C409.666 205.456 410.819 205.333 412 205.333C413.181 205.333 414.334 205.456 415.448 205.691C420.905 206.839 425.375 210.653 427.437 215.706C428.23 217.65 428.667 219.775 428.667 222C428.667 223.181 428.544 224.334 428.309 225.448C426.954 231.887 421.887 236.954 415.448 238.309C414.334 238.544 413.181 238.667 412 238.667C410.819 238.667 409.666 238.544 408.552 238.309C402.113 236.954 397.045 231.887 395.691 225.448C395.456 224.334 395.333 223.181 395.333 222C395.333 219.774 395.77 217.646 396.565 215.702C398.628 210.651 403.097 206.838 408.552 205.691Z" fill="#356FEC"/>
</g>
<g filter="url(#filter3_d_7_1302)">
<path d="M12 32C12 20.9543 20.9543 12 32 12H339C350.046 12 359 20.9543 359 32V148C359 159.046 350.046 168 339 168H32C20.9543 168 12 159.046 12 148V32Z" fill="white" shape-rendering="crispEdges"/>
<path d="M30.46 41.12C30.372 41.12 30.284 41.116 30.196 41.108C30.116 41.108 30.044 41.104 29.98 41.096V40.088C30.044 40.096 30.116 40.104 30.196 40.112C30.284 40.112 30.372 40.112 30.46 40.112C30.628 40.112 30.772 40.1 30.892 40.076C31.012 40.044 31.116 39.992 31.204 39.92C31.3 39.84 31.384 39.736 31.456 39.608C31.536 39.48 31.62 39.312 31.708 39.104L28.24 32.6H29.464L32.272 37.94L34.648 32.6H35.8L32.74 39.356C32.604 39.66 32.464 39.924 32.32 40.148C32.176 40.372 32.016 40.556 31.84 40.7C31.664 40.844 31.464 40.948 31.24 41.012C31.016 41.084 30.756 41.12 30.46 41.12ZM38.7442 41.12C38.3362 41.12 37.9562 41.056 37.6042 40.928C37.2522 40.792 36.9482 40.592 36.6922 40.328C36.4362 40.056 36.2322 39.716 36.0802 39.308C35.9362 38.9 35.8642 38.424 35.8642 37.88V37.64C35.8642 37.128 35.9442 36.676 36.1042 36.284C36.2642 35.892 36.4762 35.568 36.7402 35.312C37.0042 35.048 37.3082 34.852 37.6522 34.724C38.0042 34.588 38.3682 34.52 38.7442 34.52C39.1202 34.52 39.4562 34.572 39.7522 34.676C40.0562 34.78 40.3162 34.924 40.5322 35.108C40.7562 35.292 40.9362 35.508 41.0722 35.756C41.2162 36.004 41.3202 36.272 41.3842 36.56H40.3042C40.2402 36.408 40.1642 36.268 40.0762 36.14C39.9962 36.004 39.8922 35.888 39.7642 35.792C39.6442 35.696 39.5002 35.62 39.3322 35.564C39.1642 35.508 38.9682 35.48 38.7442 35.48C38.5122 35.48 38.2882 35.524 38.0722 35.612C37.8562 35.692 37.6642 35.82 37.4962 35.996C37.3282 36.164 37.1922 36.384 37.0882 36.656C36.9922 36.928 36.9442 37.256 36.9442 37.64V37.88C36.9442 38.288 36.9922 38.64 37.0882 38.936C37.1922 39.224 37.3282 39.46 37.4962 39.644C37.6642 39.82 37.8562 39.952 38.0722 40.04C38.2882 40.12 38.5122 40.16 38.7442 40.16C39.1362 40.16 39.4642 40.064 39.7282 39.872C40.0002 39.68 40.1922 39.416 40.3042 39.08H41.3842C41.2322 39.712 40.9202 40.212 40.4482 40.58C39.9762 40.94 39.4082 41.12 38.7442 41.12ZM42.5233 41.12C42.4033 41.12 42.2833 41.108 42.1633 41.084V40.028C42.2033 40.036 42.2633 40.04 42.3433 40.04C42.5193 40.04 42.6713 39.984 42.7993 39.872C42.9353 39.76 43.0433 39.564 43.1233 39.284C43.2033 39.004 43.2633 38.624 43.3033 38.144C43.3433 37.664 43.3633 37.056 43.3633 36.32V34.64H47.9233V41H46.8673V35.576H44.4193V36.56C44.4193 37.448 44.3793 38.184 44.2993 38.768C44.2193 39.352 44.0993 39.82 43.9393 40.172C43.7873 40.516 43.5913 40.76 43.3513 40.904C43.1113 41.048 42.8353 41.12 42.5233 41.12ZM52.4828 41.12C52.0748 41.12 51.6868 41.056 51.3188 40.928C50.9508 40.792 50.6268 40.592 50.3468 40.328C50.0668 40.056 49.8428 39.716 49.6748 39.308C49.5068 38.9 49.4228 38.424 49.4228 37.88V37.64C49.4228 37.128 49.5068 36.676 49.6748 36.284C49.8428 35.892 50.0668 35.568 50.3468 35.312C50.6268 35.048 50.9508 34.852 51.3188 34.724C51.6868 34.588 52.0748 34.52 52.4828 34.52C52.8908 34.52 53.2788 34.588 53.6468 34.724C54.0148 34.852 54.3388 35.048 54.6188 35.312C54.8988 35.568 55.1228 35.892 55.2908 36.284C55.4588 36.676 55.5428 37.128 55.5428 37.64V37.88C55.5428 38.424 55.4588 38.9 55.2908 39.308C55.1228 39.716 54.8988 40.056 54.6188 40.328C54.3388 40.592 54.0148 40.792 53.6468 40.928C53.2788 41.056 52.8908 41.12 52.4828 41.12ZM52.4828 40.16C52.7228 40.16 52.9628 40.12 53.2028 40.04C53.4428 39.952 53.6548 39.82 53.8388 39.644C54.0228 39.46 54.1708 39.224 54.2828 38.936C54.4028 38.648 54.4628 38.296 54.4628 37.88V37.64C54.4628 37.256 54.4028 36.928 54.2828 36.656C54.1708 36.384 54.0228 36.16 53.8388 35.984C53.6548 35.808 53.4428 35.68 53.2028 35.6C52.9628 35.52 52.7228 35.48 52.4828 35.48C52.2428 35.48 52.0028 35.52 51.7628 35.6C51.5228 35.68 51.3108 35.808 51.1268 35.984C50.9428 36.16 50.7908 36.384 50.6708 36.656C50.5588 36.928 50.5028 37.256 50.5028 37.64V37.88C50.5028 38.296 50.5588 38.648 50.6708 38.936C50.7908 39.224 50.9428 39.46 51.1268 39.644C51.3108 39.82 51.5228 39.952 51.7628 40.04C52.0028 40.12 52.2428 40.16 52.4828 40.16ZM57.0381 34.64H59.7981C60.5821 34.64 61.1581 34.804 61.5261 35.132C61.8941 35.452 62.0781 35.868 62.0781 36.38C62.0781 36.516 62.0541 36.656 62.0061 36.8C61.9581 36.936 61.8901 37.064 61.8021 37.184C61.7221 37.304 61.6221 37.408 61.5021 37.496C61.3901 37.584 61.2621 37.652 61.1181 37.7C61.5101 37.796 61.8061 37.98 62.0061 38.252C62.2141 38.516 62.3181 38.828 62.3181 39.188C62.3181 39.74 62.1341 40.18 61.7661 40.508C61.3981 40.836 60.8221 41 60.0381 41H57.0381V34.64ZM60.0381 40.064C60.4861 40.064 60.8021 39.984 60.9861 39.824C61.1701 39.664 61.2621 39.436 61.2621 39.14C61.2621 38.836 61.1701 38.604 60.9861 38.444C60.8021 38.276 60.4861 38.192 60.0381 38.192H58.0941V40.064H60.0381ZM59.7981 37.328C60.2541 37.328 60.5701 37.248 60.7461 37.088C60.9301 36.928 61.0221 36.708 61.0221 36.428C61.0221 36.164 60.9301 35.956 60.7461 35.804C60.5701 35.652 60.2541 35.576 59.7981 35.576H58.0941V37.328H59.7981ZM63.8233 34.64H64.8793V39.44L68.1673 34.64H69.2233V41H68.1673V36.2L64.8793 41H63.8233V34.64ZM72.3955 38.48C71.8675 38.36 71.4875 38.144 71.2555 37.832C71.0235 37.512 70.9075 37.104 70.9075 36.608C70.9075 35.984 71.0955 35.5 71.4715 35.156C71.8555 34.812 72.4675 34.64 73.3075 34.64H76.0675V41H75.0115V38.576H73.3915L71.8435 41H70.6675L72.3955 38.48ZM71.9635 36.608C71.9635 36.944 72.0595 37.2 72.2515 37.376C72.4515 37.552 72.7835 37.64 73.2475 37.64H75.0115V35.576H73.2475C72.7835 35.576 72.4515 35.664 72.2515 35.84C72.0595 36.016 71.9635 36.272 71.9635 36.608ZM80.2713 40.064H81.0513C81.1393 39.944 81.2193 39.76 81.2913 39.512C81.3633 39.264 81.4273 38.972 81.4833 38.636C81.5393 38.3 81.5793 37.936 81.6033 37.544C81.6353 37.144 81.6513 36.736 81.6513 36.32V34.64H86.0912V40.064H86.9913V42.5H85.9833V41H81.2793V42.5H80.2713V40.064ZM85.0353 40.064V35.576H82.6833V36.56C82.6833 36.896 82.6713 37.232 82.6473 37.568C82.6233 37.896 82.5873 38.212 82.5393 38.516C82.4913 38.812 82.4313 39.096 82.3593 39.368C82.2953 39.632 82.2193 39.864 82.1313 40.064H85.0353ZM90.8969 41.12C90.4889 41.12 90.1009 41.056 89.7329 40.928C89.3649 40.792 89.0409 40.592 88.7609 40.328C88.4809 40.056 88.2569 39.716 88.0889 39.308C87.9209 38.9 87.8369 38.424 87.8369 37.88V37.64C87.8369 37.128 87.9209 36.676 88.0889 36.284C88.2569 35.892 88.4809 35.568 88.7609 35.312C89.0409 35.048 89.3649 34.852 89.7329 34.724C90.1009 34.588 90.4889 34.52 90.8969 34.52C91.3049 34.52 91.6929 34.588 92.0609 34.724C92.4289 34.852 92.7529 35.048 93.0329 35.312C93.3129 35.568 93.5369 35.892 93.7049 36.284C93.8729 36.676 93.9569 37.128 93.9569 37.64V37.88C93.9569 38.424 93.8729 38.9 93.7049 39.308C93.5369 39.716 93.3129 40.056 93.0329 40.328C92.7529 40.592 92.4289 40.792 92.0609 40.928C91.6929 41.056 91.3049 41.12 90.8969 41.12ZM90.8969 40.16C91.1369 40.16 91.3769 40.12 91.6169 40.04C91.8569 39.952 92.0689 39.82 92.2529 39.644C92.4369 39.46 92.5849 39.224 92.6969 38.936C92.8169 38.648 92.8769 38.296 92.8769 37.88V37.64C92.8769 37.256 92.8169 36.928 92.6969 36.656C92.5849 36.384 92.4369 36.16 92.2529 35.984C92.0689 35.808 91.8569 35.68 91.6169 35.6C91.3769 35.52 91.1369 35.48 90.8969 35.48C90.6569 35.48 90.4169 35.52 90.1769 35.6C89.9369 35.68 89.7249 35.808 89.5409 35.984C89.3569 36.16 89.2049 36.384 89.0849 36.656C88.9729 36.928 88.9169 37.256 88.9169 37.64V37.88C88.9169 38.296 88.9729 38.648 89.0849 38.936C89.2049 39.224 89.3569 39.46 89.5409 39.644C89.7249 39.82 89.9369 39.952 90.1769 40.04C90.4169 40.12 90.6569 40.16 90.8969 40.16ZM97.9122 41.12C97.5042 41.12 97.1242 41.056 96.7722 40.928C96.4202 40.792 96.1162 40.592 95.8602 40.328C95.6042 40.056 95.4002 39.716 95.2482 39.308C95.1042 38.9 95.0322 38.424 95.0322 37.88V37.64C95.0322 37.128 95.1122 36.676 95.2722 36.284C95.4322 35.892 95.6442 35.568 95.9082 35.312C96.1722 35.048 96.4762 34.852 96.8202 34.724C97.1722 34.588 97.5362 34.52 97.9122 34.52C98.2882 34.52 98.6242 34.572 98.9202 34.676C99.2242 34.78 99.4842 34.924 99.7002 35.108C99.9242 35.292 100.104 35.508 100.24 35.756C100.384 36.004 100.488 36.272 100.552 36.56H99.4722C99.4082 36.408 99.3322 36.268 99.2442 36.14C99.1642 36.004 99.0602 35.888 98.9322 35.792C98.8122 35.696 98.6682 35.62 98.5002 35.564C98.3322 35.508 98.1362 35.48 97.9122 35.48C97.6802 35.48 97.4562 35.524 97.2402 35.612C97.0242 35.692 96.8322 35.82 96.6642 35.996C96.4962 36.164 96.3602 36.384 96.2562 36.656C96.1602 36.928 96.1122 37.256 96.1122 37.64V37.88C96.1122 38.288 96.1602 38.64 96.2562 38.936C96.3602 39.224 96.4962 39.46 96.6642 39.644C96.8322 39.82 97.0242 39.952 97.2402 40.04C97.4562 40.12 97.6802 40.16 97.9122 40.16C98.3042 40.16 98.6322 40.064 98.8962 39.872C99.1682 39.68 99.3602 39.416 99.4722 39.08H100.552C100.4 39.712 100.088 40.212 99.6162 40.58C99.1442 40.94 98.5762 41.12 97.9122 41.12ZM103.443 35.576H101.271V34.64H106.671V35.576H104.499V41H103.443V35.576ZM109.452 41.12C109.1 41.12 108.788 41.072 108.516 40.976C108.252 40.872 108.028 40.732 107.844 40.556C107.66 40.38 107.52 40.172 107.424 39.932C107.328 39.692 107.28 39.428 107.28 39.14C107.28 38.508 107.464 38.052 107.832 37.772C108.208 37.492 108.744 37.352 109.44 37.352H111.504V36.92C111.504 36.376 111.38 36 111.132 35.792C110.892 35.584 110.528 35.48 110.04 35.48C109.584 35.48 109.252 35.568 109.044 35.744C108.836 35.912 108.72 36.104 108.696 36.32H107.64C107.656 36.064 107.724 35.828 107.844 35.612C107.972 35.388 108.14 35.196 108.348 35.036C108.564 34.876 108.82 34.752 109.116 34.664C109.412 34.568 109.74 34.52 110.1 34.52C110.852 34.52 111.448 34.7 111.888 35.06C112.336 35.412 112.56 35.992 112.56 36.8V39.38C112.56 39.716 112.56 40.012 112.56 40.268C112.568 40.516 112.588 40.76 112.62 41H111.696C111.672 40.816 111.656 40.644 111.648 40.484C111.64 40.316 111.636 40.128 111.636 39.92C111.468 40.256 111.196 40.54 110.82 40.772C110.444 41.004 109.988 41.12 109.452 41.12ZM109.68 40.16C109.928 40.16 110.16 40.128 110.376 40.064C110.6 39.992 110.796 39.892 110.964 39.764C111.132 39.628 111.264 39.464 111.36 39.272C111.456 39.08 111.504 38.856 111.504 38.6V38.168H109.62C109.228 38.168 108.92 38.248 108.696 38.408C108.472 38.56 108.36 38.804 108.36 39.14C108.36 39.436 108.464 39.68 108.672 39.872C108.888 40.064 109.224 40.16 109.68 40.16ZM114.425 34.64H117.185C117.969 34.64 118.545 34.804 118.913 35.132C119.281 35.452 119.465 35.868 119.465 36.38C119.465 36.516 119.441 36.656 119.393 36.8C119.345 36.936 119.277 37.064 119.189 37.184C119.109 37.304 119.009 37.408 118.889 37.496C118.777 37.584 118.649 37.652 118.505 37.7C118.897 37.796 119.193 37.98 119.393 38.252C119.601 38.516 119.705 38.828 119.705 39.188C119.705 39.74 119.521 40.18 119.153 40.508C118.785 40.836 118.209 41 117.425 41H114.425V34.64ZM117.425 40.064C117.873 40.064 118.189 39.984 118.373 39.824C118.557 39.664 118.649 39.436 118.649 39.14C118.649 38.836 118.557 38.604 118.373 38.444C118.189 38.276 117.873 38.192 117.425 38.192H115.481V40.064H117.425ZM117.185 37.328C117.641 37.328 117.957 37.248 118.133 37.088C118.317 36.928 118.409 36.708 118.409 36.428C118.409 36.164 118.317 35.956 118.133 35.804C117.957 35.652 117.641 35.576 117.185 35.576H115.481V37.328H117.185ZM121.21 34.64H122.266V37.304H123.106L125.482 34.64H126.73L123.97 37.688L126.85 41H125.506L123.106 38.216H122.266V41H121.21V34.64ZM128.112 34.64H129.168V39.44L132.456 34.64H133.512V41H132.456V36.2L129.168 41H128.112V34.64Z" fill="#666679"/>
<rect x="118" y="81" width="58" height="24" fill="#E9EFFF"/>
<path d="M29.6 62.8H33.6C34.272 62.8 34.848 62.8747 35.328 63.024C35.808 63.1733 36.2027 63.3813 36.512 63.648C36.832 63.904 37.0667 64.2187 37.216 64.592C37.3653 64.9547 37.44 65.3547 37.44 65.792C37.44 66.368 37.28 66.864 36.96 67.28C36.64 67.6853 36.2453 67.9787 35.776 68.16C36.4373 68.3093 36.96 68.6133 37.344 69.072C37.728 69.52 37.92 70.1067 37.92 70.832C37.92 71.2907 37.8453 71.712 37.696 72.096C37.5467 72.48 37.312 72.816 36.992 73.104C36.672 73.3813 36.256 73.6 35.744 73.76C35.2427 73.92 34.6347 74 33.92 74H29.6V62.8ZM33.92 72.688C34.4 72.688 34.8 72.6453 35.12 72.56C35.44 72.464 35.696 72.336 35.888 72.176C36.08 72.0053 36.2133 71.8027 36.288 71.568C36.3733 71.3333 36.416 71.072 36.416 70.784C36.416 70.496 36.3733 70.2347 36.288 70C36.2133 69.7547 36.08 69.552 35.888 69.392C35.696 69.2213 35.4347 69.0933 35.104 69.008C34.784 68.912 34.384 68.864 33.904 68.864H31.104V72.688H33.92ZM33.6 67.616C34.048 67.616 34.4213 67.5733 34.72 67.488C35.0187 67.4027 35.2587 67.28 35.44 67.12C35.6213 66.96 35.7493 66.7733 35.824 66.56C35.8987 66.3467 35.936 66.112 35.936 65.856C35.936 65.6 35.8987 65.3653 35.824 65.152C35.7493 64.928 35.6213 64.7413 35.44 64.592C35.2587 64.4427 35.0187 64.3253 34.72 64.24C34.4213 64.1547 34.048 64.112 33.6 64.112H31.104V67.616H33.6ZM39.9988 65.52H41.3108V67.12C41.5988 66.5547 41.9988 66.1227 42.5108 65.824C43.0334 65.5147 43.6361 65.36 44.3188 65.36C45.3854 65.36 46.2388 65.712 46.8788 66.416C47.5188 67.1093 47.8388 68.144 47.8388 69.52V69.84C47.8388 70.5653 47.7534 71.2 47.5828 71.744C47.4121 72.2773 47.1721 72.7253 46.8628 73.088C46.5534 73.44 46.1801 73.7067 45.7428 73.888C45.3161 74.0693 44.8414 74.16 44.3188 74.16C43.5934 74.16 42.9854 74 42.4948 73.68C42.0148 73.36 41.6521 72.96 41.4068 72.48V77.2H39.9988V65.52ZM43.9988 72.912C44.3401 72.912 44.6601 72.848 44.9588 72.72C45.2574 72.5813 45.5134 72.384 45.7268 72.128C45.9508 71.872 46.1214 71.552 46.2388 71.168C46.3668 70.784 46.4308 70.3413 46.4308 69.84V69.52C46.4308 69.0613 46.3668 68.6507 46.2388 68.288C46.1214 67.9253 45.9508 67.6213 45.7268 67.376C45.5134 67.12 45.2574 66.928 44.9588 66.8C44.6601 66.672 44.3401 66.608 43.9988 66.608C43.6148 66.608 43.2627 66.672 42.9427 66.8C42.6228 66.9173 42.3508 67.088 42.1268 67.312C41.9028 67.5253 41.7268 67.7813 41.5988 68.08C41.4708 68.3787 41.4068 68.6987 41.4068 69.04V70.32C41.4068 70.704 41.4708 71.056 41.5988 71.376C41.7268 71.696 41.9028 71.968 42.1268 72.192C42.3508 72.416 42.6228 72.592 42.9427 72.72C43.2627 72.848 43.6148 72.912 43.9988 72.912ZM53.3625 74.16C52.8185 74.16 52.3012 74.0747 51.8105 73.904C51.3198 73.7333 50.8878 73.472 50.5145 73.12C50.1412 72.7573 49.8425 72.304 49.6185 71.76C49.3945 71.216 49.2825 70.576 49.2825 69.84V69.52C49.2825 68.816 49.3892 68.208 49.6025 67.696C49.8158 67.1733 50.0985 66.7413 50.4505 66.4C50.8132 66.048 51.2292 65.7867 51.6985 65.616C52.1785 65.4453 52.6798 65.36 53.2025 65.36C54.4505 65.36 55.4158 65.7013 56.0985 66.384C56.7812 67.0667 57.1225 68.032 57.1225 69.28V70.176H50.6905C50.6905 70.6773 50.7705 71.0987 50.9305 71.44C51.0905 71.7813 51.2985 72.0587 51.5545 72.272C51.8105 72.4853 52.0932 72.64 52.4025 72.736C52.7225 72.832 53.0425 72.88 53.3625 72.88C54.0025 72.88 54.4932 72.7733 54.8345 72.56C55.1865 72.3467 55.4372 72.0533 55.5865 71.68H56.9625C56.8772 72.0853 56.7225 72.4427 56.4985 72.752C56.2852 73.0613 56.0185 73.3227 55.6985 73.536C55.3892 73.7387 55.0318 73.8933 54.6265 74C54.2318 74.1067 53.8105 74.16 53.3625 74.16ZM53.2825 66.64C52.9518 66.64 52.6318 66.688 52.3225 66.784C52.0132 66.8693 51.7358 67.0133 51.4905 67.216C51.2558 67.408 51.0638 67.6533 50.9145 67.952C50.7652 68.2507 50.6905 68.608 50.6905 69.024H55.7945C55.7838 68.5867 55.7092 68.2187 55.5705 67.92C55.4425 67.6107 55.2665 67.3653 55.0425 67.184C54.8185 66.992 54.5518 66.8533 54.2425 66.768C53.9438 66.6827 53.6238 66.64 53.2825 66.64ZM59.1238 65.52H60.6278L63.6518 70.8L66.6758 65.52H68.0838V74H66.6758V67.84L64.1638 72.16H63.0438L60.5318 67.84V74H59.1238V65.52ZM72.3034 70.64C71.5994 70.48 71.0927 70.192 70.7834 69.776C70.474 69.3493 70.3194 68.8053 70.3194 68.144C70.3194 67.312 70.57 66.6667 71.0714 66.208C71.5834 65.7493 72.3994 65.52 73.5194 65.52H77.1994V74H75.7914V70.768H73.6314L71.5674 74H69.9994L72.3034 70.64ZM71.7274 68.144C71.7274 68.592 71.8554 68.9333 72.1114 69.168C72.378 69.4027 72.8207 69.52 73.4394 69.52H75.7914V66.768H73.4394C72.8207 66.768 72.378 66.8853 72.1114 67.12C71.8554 67.3547 71.7274 67.696 71.7274 68.144ZM82.8044 72.752H83.8444C83.9617 72.592 84.0684 72.3467 84.1644 72.016C84.2604 71.6853 84.3457 71.296 84.4204 70.848C84.495 70.4 84.5484 69.9147 84.5804 69.392C84.623 68.8587 84.6444 68.3147 84.6444 67.76V65.52H90.5644V72.752H91.7644V76H90.4204V74H84.1484V76H82.8044V72.752ZM89.1564 72.752V66.768H86.0204V68.08C86.0204 68.528 86.0044 68.976 85.9724 69.424C85.9404 69.8613 85.8924 70.2827 85.8284 70.688C85.7644 71.0827 85.6844 71.4613 85.5884 71.824C85.503 72.176 85.4017 72.4853 85.2844 72.752H89.1564ZM96.9719 74.16C96.4279 74.16 95.9105 74.0747 95.4199 73.904C94.9292 73.7227 94.4972 73.456 94.1239 73.104C93.7505 72.7413 93.4519 72.288 93.2279 71.744C93.0039 71.2 92.8919 70.5653 92.8919 69.84V69.52C92.8919 68.8373 93.0039 68.2347 93.2279 67.712C93.4519 67.1893 93.7505 66.7573 94.1239 66.416C94.4972 66.064 94.9292 65.8027 95.4199 65.632C95.9105 65.4507 96.4279 65.36 96.9719 65.36C97.5159 65.36 98.0332 65.4507 98.5239 65.632C99.0145 65.8027 99.4465 66.064 99.8199 66.416C100.193 66.7573 100.492 67.1893 100.716 67.712C100.94 68.2347 101.052 68.8373 101.052 69.52V69.84C101.052 70.5653 100.94 71.2 100.716 71.744C100.492 72.288 100.193 72.7413 99.8199 73.104C99.4465 73.456 99.0145 73.7227 98.5239 73.904C98.0332 74.0747 97.5159 74.16 96.9719 74.16ZM96.9719 72.88C97.2919 72.88 97.6119 72.8267 97.9319 72.72C98.2519 72.6027 98.5345 72.4267 98.7799 72.192C99.0252 71.9467 99.2225 71.632 99.3719 71.248C99.5319 70.864 99.6119 70.3947 99.6119 69.84V69.52C99.6119 69.008 99.5319 68.5707 99.3719 68.208C99.2225 67.8453 99.0252 67.5467 98.7799 67.312C98.5345 67.0773 98.2519 66.9067 97.9319 66.8C97.6119 66.6933 97.2919 66.64 96.9719 66.64C96.6519 66.64 96.3319 66.6933 96.0119 66.8C95.6919 66.9067 95.4092 67.0773 95.1639 67.312C94.9185 67.5467 94.7159 67.8453 94.5559 68.208C94.4065 68.5707 94.3319 69.008 94.3319 69.52V69.84C94.3319 70.3947 94.4065 70.864 94.5559 71.248C94.7159 71.632 94.9185 71.9467 95.1639 72.192C95.4092 72.4267 95.6919 72.6027 96.0119 72.72C96.3319 72.8267 96.6519 72.88 96.9719 72.88ZM106.326 74.16C105.782 74.16 105.275 74.0747 104.806 73.904C104.336 73.7227 103.931 73.456 103.59 73.104C103.248 72.7413 102.976 72.288 102.774 71.744C102.582 71.2 102.486 70.5653 102.486 69.84V69.52C102.486 68.8373 102.592 68.2347 102.806 67.712C103.019 67.1893 103.302 66.7573 103.654 66.416C104.006 66.064 104.411 65.8027 104.87 65.632C105.339 65.4507 105.824 65.36 106.326 65.36C106.827 65.36 107.275 65.4293 107.67 65.568C108.075 65.7067 108.422 65.8987 108.71 66.144C109.008 66.3893 109.248 66.6773 109.43 67.008C109.622 67.3387 109.76 67.696 109.846 68.08H108.406C108.32 67.8773 108.219 67.6907 108.102 67.52C107.995 67.3387 107.856 67.184 107.686 67.056C107.526 66.928 107.334 66.8267 107.11 66.752C106.886 66.6773 106.624 66.64 106.326 66.64C106.016 66.64 105.718 66.6987 105.43 66.816C105.142 66.9227 104.886 67.0933 104.662 67.328C104.438 67.552 104.256 67.8453 104.118 68.208C103.99 68.5707 103.926 69.008 103.926 69.52V69.84C103.926 70.384 103.99 70.8533 104.118 71.248C104.256 71.632 104.438 71.9467 104.662 72.192C104.886 72.4267 105.142 72.6027 105.43 72.72C105.718 72.8267 106.016 72.88 106.326 72.88C106.848 72.88 107.286 72.752 107.638 72.496C108 72.24 108.256 71.888 108.406 71.44H109.846C109.643 72.2827 109.227 72.9493 108.598 73.44C107.968 73.92 107.211 74.16 106.326 74.16ZM113.7 66.768H110.804V65.52H118.004V66.768H115.108V74H113.7V66.768ZM121.712 74.16C121.242 74.16 120.826 74.096 120.464 73.968C120.112 73.8293 119.813 73.6427 119.568 73.408C119.322 73.1733 119.136 72.896 119.008 72.576C118.88 72.256 118.816 71.904 118.816 71.52C118.816 70.6773 119.061 70.0693 119.552 69.696C120.053 69.3227 120.768 69.136 121.696 69.136H124.448V68.56C124.448 67.8347 124.282 67.3333 123.952 67.056C123.632 66.7787 123.146 66.64 122.496 66.64C121.888 66.64 121.445 66.7573 121.168 66.992C120.89 67.216 120.736 67.472 120.704 67.76H119.296C119.317 67.4187 119.408 67.104 119.568 66.816C119.738 66.5173 119.962 66.2613 120.24 66.048C120.528 65.8347 120.869 65.6693 121.264 65.552C121.658 65.424 122.096 65.36 122.576 65.36C123.578 65.36 124.373 65.6 124.96 66.08C125.557 66.5493 125.856 67.3227 125.856 68.4V71.84C125.856 72.288 125.856 72.6827 125.856 73.024C125.866 73.3547 125.893 73.68 125.936 74H124.704C124.672 73.7547 124.65 73.5253 124.64 73.312C124.629 73.088 124.624 72.8373 124.624 72.56C124.4 73.008 124.037 73.3867 123.536 73.696C123.034 74.0053 122.426 74.16 121.712 74.16ZM122.016 72.88C122.346 72.88 122.656 72.8373 122.944 72.752C123.242 72.656 123.504 72.5227 123.728 72.352C123.952 72.1707 124.128 71.952 124.256 71.696C124.384 71.44 124.448 71.1413 124.448 70.8V70.224H121.936C121.413 70.224 121.002 70.3307 120.704 70.544C120.405 70.7467 120.256 71.072 120.256 71.52C120.256 71.9147 120.394 72.24 120.672 72.496C120.96 72.752 121.408 72.88 122.016 72.88ZM128.343 65.52H132.023C133.068 65.52 133.836 65.7387 134.327 66.176C134.817 66.6027 135.062 67.1573 135.062 67.84C135.062 68.0213 135.031 68.208 134.967 68.4C134.903 68.5813 134.812 68.752 134.695 68.912C134.588 69.072 134.455 69.2107 134.295 69.328C134.145 69.4453 133.975 69.536 133.783 69.6C134.305 69.728 134.7 69.9733 134.967 70.336C135.244 70.688 135.383 71.104 135.383 71.584C135.383 72.32 135.137 72.9067 134.647 73.344C134.156 73.7813 133.388 74 132.343 74H128.343V65.52ZM132.343 72.752C132.94 72.752 133.361 72.6453 133.607 72.432C133.852 72.2187 133.975 71.9147 133.975 71.52C133.975 71.1147 133.852 70.8053 133.607 70.592C133.361 70.368 132.94 70.256 132.343 70.256H129.751V72.752H132.343ZM132.023 69.104C132.631 69.104 133.052 68.9973 133.287 68.784C133.532 68.5707 133.655 68.2773 133.655 67.904C133.655 67.552 133.532 67.2747 133.287 67.072C133.052 66.8693 132.631 66.768 132.023 66.768H129.751V69.104H132.023ZM137.389 65.52H138.797V69.072H139.917L143.085 65.52H144.749L141.069 69.584L144.909 74H143.117L139.917 70.288H138.797V74H137.389V65.52ZM146.593 65.52H148.001V71.92L152.385 65.52H153.793V74H152.385V67.6L148.001 74H146.593V65.52ZM163.238 74.16C162.171 74.16 161.334 73.936 160.726 73.488C160.118 73.04 159.782 72.4107 159.718 71.6H161.126C161.201 72.016 161.419 72.336 161.782 72.56C162.155 72.7733 162.641 72.88 163.238 72.88C163.974 72.88 164.507 72.7573 164.838 72.512C165.179 72.256 165.35 71.952 165.35 71.6C165.35 71.184 165.211 70.8587 164.934 70.624C164.657 70.3787 164.177 70.256 163.494 70.256H162.038V69.104H163.398C163.985 69.104 164.401 68.992 164.646 68.768C164.902 68.544 165.03 68.2293 165.03 67.824C165.03 67.504 164.881 67.2267 164.582 66.992C164.283 66.7573 163.835 66.64 163.238 66.64C162.587 66.64 162.113 66.7467 161.814 66.96C161.526 67.1627 161.35 67.456 161.286 67.84H159.878C159.91 67.488 160.006 67.1627 160.166 66.864C160.337 66.5547 160.566 66.288 160.854 66.064C161.142 65.84 161.483 65.6693 161.878 65.552C162.283 65.424 162.737 65.36 163.238 65.36C163.782 65.36 164.251 65.424 164.646 65.552C165.051 65.6693 165.387 65.84 165.654 66.064C165.921 66.2773 166.118 66.5333 166.246 66.832C166.374 67.1307 166.438 67.4613 166.438 67.824C166.438 68.2293 166.337 68.5867 166.134 68.896C165.931 69.1947 165.606 69.4293 165.158 69.6C165.755 69.76 166.171 70.016 166.406 70.368C166.641 70.72 166.758 71.1307 166.758 71.6C166.758 71.952 166.683 72.2827 166.534 72.592C166.385 72.9013 166.161 73.1733 165.862 73.408C165.574 73.632 165.206 73.8133 164.758 73.952C164.321 74.0907 163.814 74.16 163.238 74.16ZM171.18 74.16C170.711 74.16 170.295 74.096 169.932 73.968C169.58 73.8293 169.282 73.6427 169.036 73.408C168.791 73.1733 168.604 72.896 168.476 72.576C168.348 72.256 168.284 71.904 168.284 71.52C168.284 70.6773 168.53 70.0693 169.02 69.696C169.522 69.3227 170.236 69.136 171.164 69.136H173.916V68.56C173.916 67.8347 173.751 67.3333 173.42 67.056C173.1 66.7787 172.615 66.64 171.964 66.64C171.356 66.64 170.914 66.7573 170.636 66.992C170.359 67.216 170.204 67.472 170.172 67.76H168.764C168.786 67.4187 168.876 67.104 169.036 66.816C169.207 66.5173 169.431 66.2613 169.708 66.048C169.996 65.8347 170.338 65.6693 170.732 65.552C171.127 65.424 171.564 65.36 172.044 65.36C173.047 65.36 173.842 65.6 174.428 66.08C175.026 66.5493 175.324 67.3227 175.324 68.4V71.84C175.324 72.288 175.324 72.6827 175.324 73.024C175.335 73.3547 175.362 73.68 175.404 74H174.172C174.14 73.7547 174.119 73.5253 174.108 73.312C174.098 73.088 174.092 72.8373 174.092 72.56C173.868 73.008 173.506 73.3867 173.004 73.696C172.503 74.0053 171.895 74.16 171.18 74.16ZM171.484 72.88C171.815 72.88 172.124 72.8373 172.412 72.752C172.711 72.656 172.972 72.5227 173.196 72.352C173.42 72.1707 173.596 71.952 173.724 71.696C173.852 71.44 173.916 71.1413 173.916 70.8V70.224H171.404C170.882 70.224 170.471 70.3307 170.172 70.544C169.874 70.7467 169.724 71.072 169.724 71.52C169.724 71.9147 169.863 72.24 170.14 72.496C170.428 72.752 170.876 72.88 171.484 72.88ZM177.811 65.52H179.219V69.072H180.339L183.507 65.52H185.171L181.491 69.584L185.331 74H183.539L180.339 70.288H179.219V74H177.811V65.52ZM189.274 74.16C188.805 74.16 188.389 74.096 188.026 73.968C187.674 73.8293 187.375 73.6427 187.13 73.408C186.885 73.1733 186.698 72.896 186.57 72.576C186.442 72.256 186.378 71.904 186.378 71.52C186.378 70.6773 186.623 70.0693 187.114 69.696C187.615 69.3227 188.33 69.136 189.258 69.136H192.01V68.56C192.01 67.8347 191.845 67.3333 191.514 67.056C191.194 66.7787 190.709 66.64 190.058 66.64C189.45 66.64 189.007 66.7573 188.73 66.992C188.453 67.216 188.298 67.472 188.266 67.76H186.858C186.879 67.4187 186.97 67.104 187.13 66.816C187.301 66.5173 187.525 66.2613 187.802 66.048C188.09 65.8347 188.431 65.6693 188.826 65.552C189.221 65.424 189.658 65.36 190.138 65.36C191.141 65.36 191.935 65.6 192.522 66.08C193.119 66.5493 193.418 67.3227 193.418 68.4V71.84C193.418 72.288 193.418 72.6827 193.418 73.024C193.429 73.3547 193.455 73.68 193.498 74H192.266C192.234 73.7547 192.213 73.5253 192.202 73.312C192.191 73.088 192.186 72.8373 192.186 72.56C191.962 73.008 191.599 73.3867 191.098 73.696C190.597 74.0053 189.989 74.16 189.274 74.16ZM189.578 72.88C189.909 72.88 190.218 72.8373 190.506 72.752C190.805 72.656 191.066 72.5227 191.29 72.352C191.514 72.1707 191.69 71.952 191.818 71.696C191.946 71.44 192.01 71.1413 192.01 70.8V70.224H189.498C188.975 70.224 188.565 70.3307 188.266 70.544C187.967 70.7467 187.818 71.072 187.818 71.52C187.818 71.9147 187.957 72.24 188.234 72.496C188.522 72.752 188.97 72.88 189.578 72.88ZM198.785 74.16C197.718 74.16 196.881 73.936 196.273 73.488C195.665 73.04 195.329 72.4107 195.265 71.6H196.673C196.748 72.016 196.966 72.336 197.329 72.56C197.702 72.7733 198.188 72.88 198.785 72.88C199.521 72.88 200.054 72.7573 200.385 72.512C200.726 72.256 200.897 71.952 200.897 71.6C200.897 71.184 200.758 70.8587 200.481 70.624C200.204 70.3787 199.724 70.256 199.041 70.256H197.585V69.104H198.945C199.532 69.104 199.948 68.992 200.193 68.768C200.449 68.544 200.577 68.2293 200.577 67.824C200.577 67.504 200.428 67.2267 200.129 66.992C199.83 66.7573 199.382 66.64 198.785 66.64C198.134 66.64 197.66 66.7467 197.361 66.96C197.073 67.1627 196.897 67.456 196.833 67.84H195.425C195.457 67.488 195.553 67.1627 195.713 66.864C195.884 66.5547 196.113 66.288 196.401 66.064C196.689 65.84 197.03 65.6693 197.425 65.552C197.83 65.424 198.284 65.36 198.785 65.36C199.329 65.36 199.798 65.424 200.193 65.552C200.598 65.6693 200.934 65.84 201.201 66.064C201.468 66.2773 201.665 66.5333 201.793 66.832C201.921 67.1307 201.985 67.4613 201.985 67.824C201.985 68.2293 201.884 68.5867 201.681 68.896C201.478 69.1947 201.153 69.4293 200.705 69.6C201.302 69.76 201.718 70.016 201.953 70.368C202.188 70.72 202.305 71.1307 202.305 71.6C202.305 71.952 202.23 72.2827 202.081 72.592C201.932 72.9013 201.708 73.1733 201.409 73.408C201.121 73.632 200.753 73.8133 200.305 73.952C199.868 74.0907 199.361 74.16 198.785 74.16ZM206.727 74.16C206.258 74.16 205.842 74.096 205.479 73.968C205.127 73.8293 204.829 73.6427 204.583 73.408C204.338 73.1733 204.151 72.896 204.023 72.576C203.895 72.256 203.831 71.904 203.831 71.52C203.831 70.6773 204.077 70.0693 204.567 69.696C205.069 69.3227 205.783 69.136 206.711 69.136H209.463V68.56C209.463 67.8347 209.298 67.3333 208.967 67.056C208.647 66.7787 208.162 66.64 207.511 66.64C206.903 66.64 206.461 66.7573 206.183 66.992C205.906 67.216 205.751 67.472 205.719 67.76H204.311C204.333 67.4187 204.423 67.104 204.583 66.816C204.754 66.5173 204.978 66.2613 205.255 66.048C205.543 65.8347 205.885 65.6693 206.279 65.552C206.674 65.424 207.111 65.36 207.591 65.36C208.594 65.36 209.389 65.6 209.975 66.08C210.573 66.5493 210.871 67.3227 210.871 68.4V71.84C210.871 72.288 210.871 72.6827 210.871 73.024C210.882 73.3547 210.909 73.68 210.951 74H209.719C209.687 73.7547 209.666 73.5253 209.655 73.312C209.645 73.088 209.639 72.8373 209.639 72.56C209.415 73.008 209.053 73.3867 208.551 73.696C208.05 74.0053 207.442 74.16 206.727 74.16ZM207.031 72.88C207.362 72.88 207.671 72.8373 207.959 72.752C208.258 72.656 208.519 72.5227 208.743 72.352C208.967 72.1707 209.143 71.952 209.271 71.696C209.399 71.44 209.463 71.1413 209.463 70.8V70.224H206.951C206.429 70.224 206.018 70.3307 205.719 70.544C205.421 70.7467 205.271 71.072 205.271 71.52C205.271 71.9147 205.41 72.24 205.687 72.496C205.975 72.752 206.423 72.88 207.031 72.88ZM217.358 65.52H224.398V74H222.99V66.768H218.766V74H217.358V65.52ZM230.472 74.16C229.928 74.16 229.411 74.0747 228.92 73.904C228.429 73.7227 227.997 73.456 227.624 73.104C227.251 72.7413 226.952 72.288 226.728 71.744C226.504 71.2 226.392 70.5653 226.392 69.84V69.52C226.392 68.8373 226.504 68.2347 226.728 67.712C226.952 67.1893 227.251 66.7573 227.624 66.416C227.997 66.064 228.429 65.8027 228.92 65.632C229.411 65.4507 229.928 65.36 230.472 65.36C231.016 65.36 231.533 65.4507 232.024 65.632C232.515 65.8027 232.947 66.064 233.32 66.416C233.693 66.7573 233.992 67.1893 234.216 67.712C234.44 68.2347 234.552 68.8373 234.552 69.52V69.84C234.552 70.5653 234.44 71.2 234.216 71.744C233.992 72.288 233.693 72.7413 233.32 73.104C232.947 73.456 232.515 73.7227 232.024 73.904C231.533 74.0747 231.016 74.16 230.472 74.16ZM230.472 72.88C230.792 72.88 231.112 72.8267 231.432 72.72C231.752 72.6027 232.035 72.4267 232.28 72.192C232.525 71.9467 232.723 71.632 232.872 71.248C233.032 70.864 233.112 70.3947 233.112 69.84V69.52C233.112 69.008 233.032 68.5707 232.872 68.208C232.723 67.8453 232.525 67.5467 232.28 67.312C232.035 67.0773 231.752 66.9067 231.432 66.8C231.112 66.6933 230.792 66.64 230.472 66.64C230.152 66.64 229.832 66.6933 229.512 66.8C229.192 66.9067 228.909 67.0773 228.664 67.312C228.419 67.5467 228.216 67.8453 228.056 68.208C227.907 68.5707 227.832 69.008 227.832 69.52V69.84C227.832 70.3947 227.907 70.864 228.056 71.248C228.216 71.632 228.419 71.9467 228.664 72.192C228.909 72.4267 229.192 72.6027 229.512 72.72C229.832 72.8267 230.152 72.88 230.472 72.88ZM240.866 62.8H242.434L246.178 69.92L249.922 62.8H251.426V74H249.922V65.52L246.706 71.6H245.586L242.37 65.52V74H240.866V62.8ZM257.831 74.16C257.287 74.16 256.77 74.0747 256.279 73.904C255.789 73.7227 255.357 73.456 254.983 73.104C254.61 72.7413 254.311 72.288 254.087 71.744C253.863 71.2 253.751 70.5653 253.751 69.84V69.52C253.751 68.8373 253.863 68.2347 254.087 67.712C254.311 67.1893 254.61 66.7573 254.983 66.416C255.357 66.064 255.789 65.8027 256.279 65.632C256.77 65.4507 257.287 65.36 257.831 65.36C258.375 65.36 258.893 65.4507 259.383 65.632C259.874 65.8027 260.306 66.064 260.679 66.416C261.053 66.7573 261.351 67.1893 261.575 67.712C261.799 68.2347 261.911 68.8373 261.911 69.52V69.84C261.911 70.5653 261.799 71.2 261.575 71.744C261.351 72.288 261.053 72.7413 260.679 73.104C260.306 73.456 259.874 73.7227 259.383 73.904C258.893 74.0747 258.375 74.16 257.831 74.16ZM257.831 72.88C258.151 72.88 258.471 72.8267 258.791 72.72C259.111 72.6027 259.394 72.4267 259.639 72.192C259.885 71.9467 260.082 71.632 260.231 71.248C260.391 70.864 260.471 70.3947 260.471 69.84V69.52C260.471 69.008 260.391 68.5707 260.231 68.208C260.082 67.8453 259.885 67.5467 259.639 67.312C259.394 67.0773 259.111 66.9067 258.791 66.8C258.471 66.6933 258.151 66.64 257.831 66.64C257.511 66.64 257.191 66.6933 256.871 66.8C256.551 66.9067 256.269 67.0773 256.023 67.312C255.778 67.5467 255.575 67.8453 255.415 68.208C255.266 68.5707 255.191 69.008 255.191 69.52V69.84C255.191 70.3947 255.266 70.864 255.415 71.248C255.575 71.632 255.778 71.9467 256.023 72.192C256.269 72.4267 256.551 72.6027 256.871 72.72C257.191 72.8267 257.511 72.88 257.831 72.88ZM267.185 74.16C266.641 74.16 266.134 74.0747 265.665 73.904C265.196 73.7227 264.79 73.456 264.449 73.104C264.108 72.7413 263.836 72.288 263.633 71.744C263.441 71.2 263.345 70.5653 263.345 69.84V69.52C263.345 68.8373 263.452 68.2347 263.665 67.712C263.878 67.1893 264.161 66.7573 264.513 66.416C264.865 66.064 265.27 65.8027 265.729 65.632C266.198 65.4507 266.684 65.36 267.185 65.36C267.686 65.36 268.134 65.4293 268.529 65.568C268.934 65.7067 269.281 65.8987 269.569 66.144C269.868 66.3893 270.108 66.6773 270.289 67.008C270.481 67.3387 270.62 67.696 270.705 68.08H269.265C269.18 67.8773 269.078 67.6907 268.961 67.52C268.854 67.3387 268.716 67.184 268.545 67.056C268.385 66.928 268.193 66.8267 267.969 66.752C267.745 66.6773 267.484 66.64 267.185 66.64C266.876 66.64 266.577 66.6987 266.289 66.816C266.001 66.9227 265.745 67.0933 265.521 67.328C265.297 67.552 265.116 67.8453 264.977 68.208C264.849 68.5707 264.785 69.008 264.785 69.52V69.84C264.785 70.384 264.849 70.8533 264.977 71.248C265.116 71.632 265.297 71.9467 265.521 72.192C265.745 72.4267 266.001 72.6027 266.289 72.72C266.577 72.8267 266.876 72.88 267.185 72.88C267.708 72.88 268.145 72.752 268.497 72.496C268.86 72.24 269.116 71.888 269.265 71.44H270.705C270.502 72.2827 270.086 72.9493 269.457 73.44C268.828 73.92 268.07 74.16 267.185 74.16ZM272.624 65.52H274.032V69.072H275.152L278.32 65.52H279.984L276.304 69.584L280.144 74H278.352L275.152 70.288H274.032V74H272.624V65.52ZM281.827 65.52H285.507C286.552 65.52 287.32 65.7387 287.811 66.176C288.302 66.6027 288.547 67.1573 288.547 67.84C288.547 68.0213 288.515 68.208 288.451 68.4C288.387 68.5813 288.296 68.752 288.179 68.912C288.072 69.072 287.939 69.2107 287.779 69.328C287.63 69.4453 287.459 69.536 287.267 69.6C287.79 69.728 288.184 69.9733 288.451 70.336C288.728 70.688 288.867 71.104 288.867 71.584C288.867 72.32 288.622 72.9067 288.131 73.344C287.64 73.7813 286.872 74 285.827 74H281.827V65.52ZM285.827 72.752C286.424 72.752 286.846 72.6453 287.091 72.432C287.336 72.2187 287.459 71.9147 287.459 71.52C287.459 71.1147 287.336 70.8053 287.091 70.592C286.846 70.368 286.424 70.256 285.827 70.256H283.235V72.752H285.827ZM285.507 69.104C286.115 69.104 286.536 68.9973 286.771 68.784C287.016 68.5707 287.139 68.2773 287.139 67.904C287.139 67.552 287.016 67.2747 286.771 67.072C286.536 66.8693 286.115 66.768 285.507 66.768H283.235V69.104H285.507ZM294.394 74.16C293.85 74.16 293.332 74.0747 292.842 73.904C292.351 73.7333 291.919 73.472 291.546 73.12C291.172 72.7573 290.874 72.304 290.65 71.76C290.426 71.216 290.314 70.576 290.314 69.84V69.52C290.314 68.816 290.42 68.208 290.634 67.696C290.847 67.1733 291.13 66.7413 291.482 66.4C291.844 66.048 292.26 65.7867 292.73 65.616C293.21 65.4453 293.711 65.36 294.234 65.36C295.482 65.36 296.447 65.7013 297.13 66.384C297.812 67.0667 298.154 68.032 298.154 69.28V70.176H291.722C291.722 70.6773 291.802 71.0987 291.962 71.44C292.122 71.7813 292.33 72.0587 292.586 72.272C292.842 72.4853 293.124 72.64 293.434 72.736C293.754 72.832 294.074 72.88 294.394 72.88C295.034 72.88 295.524 72.7733 295.866 72.56C296.218 72.3467 296.468 72.0533 296.618 71.68H297.994C297.908 72.0853 297.754 72.4427 297.53 72.752C297.316 73.0613 297.05 73.3227 296.73 73.536C296.42 73.7387 296.063 73.8933 295.658 74C295.263 74.1067 294.842 74.16 294.394 74.16ZM294.314 66.64C293.983 66.64 293.663 66.688 293.354 66.784C293.044 66.8693 292.767 67.0133 292.522 67.216C292.287 67.408 292.095 67.6533 291.946 67.952C291.796 68.2507 291.722 68.608 291.722 69.024H296.826C296.815 68.5867 296.74 68.2187 296.602 67.92C296.474 67.6107 296.298 67.3653 296.074 67.184C295.85 66.992 295.583 66.8533 295.274 66.768C294.975 66.6827 294.655 66.64 294.314 66.64ZM32.56 98.16C32.016 98.16 31.5093 98.0747 31.04 97.904C30.5707 97.7227 30.1653 97.456 29.824 97.104C29.4827 96.7413 29.2107 96.288 29.008 95.744C28.816 95.2 28.72 94.5653 28.72 93.84V93.52C28.72 92.8373 28.8267 92.2347 29.04 91.712C29.2533 91.1893 29.536 90.7573 29.888 90.416C30.24 90.064 30.6453 89.8027 31.104 89.632C31.5733 89.4507 32.0587 89.36 32.56 89.36C33.0613 89.36 33.5093 89.4293 33.904 89.568C34.3093 89.7067 34.656 89.8987 34.944 90.144C35.2427 90.3893 35.4827 90.6773 35.664 91.008C35.856 91.3387 35.9947 91.696 36.08 92.08H34.64C34.5547 91.8773 34.4533 91.6907 34.336 91.52C34.2293 91.3387 34.0907 91.184 33.92 91.056C33.76 90.928 33.568 90.8267 33.344 90.752C33.12 90.6773 32.8587 90.64 32.56 90.64C32.2507 90.64 31.952 90.6987 31.664 90.816C31.376 90.9227 31.12 91.0933 30.896 91.328C30.672 91.552 30.4907 91.8453 30.352 92.208C30.224 92.5707 30.16 93.008 30.16 93.52V93.84C30.16 94.384 30.224 94.8533 30.352 95.248C30.4907 95.632 30.672 95.9467 30.896 96.192C31.12 96.4267 31.376 96.6027 31.664 96.72C31.952 96.8267 32.2507 96.88 32.56 96.88C33.0827 96.88 33.52 96.752 33.872 96.496C34.2347 96.24 34.4907 95.888 34.64 95.44H36.08C35.8773 96.2827 35.4613 96.9493 34.832 97.44C34.2027 97.92 33.4453 98.16 32.56 98.16ZM41.5188 98.16C40.9748 98.16 40.4574 98.0747 39.9668 97.904C39.4761 97.7227 39.0441 97.456 38.6708 97.104C38.2974 96.7413 37.9988 96.288 37.7747 95.744C37.5508 95.2 37.4388 94.5653 37.4388 93.84V93.52C37.4388 92.8373 37.5508 92.2347 37.7747 91.712C37.9988 91.1893 38.2974 90.7573 38.6708 90.416C39.0441 90.064 39.4761 89.8027 39.9668 89.632C40.4574 89.4507 40.9748 89.36 41.5188 89.36C42.0628 89.36 42.5801 89.4507 43.0708 89.632C43.5614 89.8027 43.9934 90.064 44.3668 90.416C44.7401 90.7573 45.0388 91.1893 45.2628 91.712C45.4868 92.2347 45.5988 92.8373 45.5988 93.52V93.84C45.5988 94.5653 45.4868 95.2 45.2628 95.744C45.0388 96.288 44.7401 96.7413 44.3668 97.104C43.9934 97.456 43.5614 97.7227 43.0708 97.904C42.5801 98.0747 42.0628 98.16 41.5188 98.16ZM41.5188 96.88C41.8388 96.88 42.1588 96.8267 42.4788 96.72C42.7988 96.6027 43.0814 96.4267 43.3268 96.192C43.5721 95.9467 43.7694 95.632 43.9188 95.248C44.0788 94.864 44.1588 94.3947 44.1588 93.84V93.52C44.1588 93.008 44.0788 92.5707 43.9188 92.208C43.7694 91.8453 43.5721 91.5467 43.3268 91.312C43.0814 91.0773 42.7988 90.9067 42.4788 90.8C42.1588 90.6933 41.8388 90.64 41.5188 90.64C41.1988 90.64 40.8788 90.6933 40.5588 90.8C40.2388 90.9067 39.9561 91.0773 39.7108 91.312C39.4654 91.5467 39.2628 91.8453 39.1028 92.208C38.9534 92.5707 38.8788 93.008 38.8788 93.52V93.84C38.8788 94.3947 38.9534 94.864 39.1028 95.248C39.2628 95.632 39.4654 95.9467 39.7108 96.192C39.9561 96.4267 40.2388 96.6027 40.5588 96.72C40.8788 96.8267 41.1988 96.88 41.5188 96.88ZM50.8725 98.16C50.3285 98.16 49.8218 98.0747 49.3525 97.904C48.8832 97.7227 48.4778 97.456 48.1365 97.104C47.7952 96.7413 47.5232 96.288 47.3205 95.744C47.1285 95.2 47.0325 94.5653 47.0325 93.84V93.52C47.0325 92.8373 47.1392 92.2347 47.3525 91.712C47.5658 91.1893 47.8485 90.7573 48.2005 90.416C48.5525 90.064 48.9578 89.8027 49.4165 89.632C49.8858 89.4507 50.3712 89.36 50.8725 89.36C51.3738 89.36 51.8218 89.4293 52.2165 89.568C52.6218 89.7067 52.9685 89.8987 53.2565 90.144C53.5552 90.3893 53.7952 90.6773 53.9765 91.008C54.1685 91.3387 54.3072 91.696 54.3925 92.08H52.9525C52.8672 91.8773 52.7658 91.6907 52.6485 91.52C52.5418 91.3387 52.4032 91.184 52.2325 91.056C52.0725 90.928 51.8805 90.8267 51.6565 90.752C51.4325 90.6773 51.1712 90.64 50.8725 90.64C50.5632 90.64 50.2645 90.6987 49.9765 90.816C49.6885 90.9227 49.4325 91.0933 49.2085 91.328C48.9845 91.552 48.8032 91.8453 48.6645 92.208C48.5365 92.5707 48.4725 93.008 48.4725 93.52V93.84C48.4725 94.384 48.5365 94.8533 48.6645 95.248C48.8032 95.632 48.9845 95.9467 49.2085 96.192C49.4325 96.4267 49.6885 96.6027 49.9765 96.72C50.2645 96.8267 50.5632 96.88 50.8725 96.88C51.3952 96.88 51.8325 96.752 52.1845 96.496C52.5472 96.24 52.8032 95.888 52.9525 95.44H54.3925C54.1898 96.2827 53.7738 96.9493 53.1445 97.44C52.5152 97.92 51.7578 98.16 50.8725 98.16ZM58.2473 90.768H55.3513V89.52H62.5513V90.768H59.6553V98H58.2473V90.768ZM66.2585 98.16C65.7892 98.16 65.3732 98.096 65.0105 97.968C64.6585 97.8293 64.3598 97.6427 64.1145 97.408C63.8692 97.1733 63.6825 96.896 63.5545 96.576C63.4265 96.256 63.3625 95.904 63.3625 95.52C63.3625 94.6773 63.6078 94.0693 64.0985 93.696C64.5998 93.3227 65.3145 93.136 66.2425 93.136H68.9945V92.56C68.9945 91.8347 68.8292 91.3333 68.4985 91.056C68.1785 90.7787 67.6932 90.64 67.0425 90.64C66.4345 90.64 65.9918 90.7573 65.7145 90.992C65.4372 91.216 65.2825 91.472 65.2505 91.76H63.8425C63.8638 91.4187 63.9545 91.104 64.1145 90.816C64.2852 90.5173 64.5092 90.2613 64.7865 90.048C65.0745 89.8347 65.4158 89.6693 65.8105 89.552C66.2052 89.424 66.6425 89.36 67.1225 89.36C68.1252 89.36 68.9198 89.6 69.5065 90.08C70.1038 90.5493 70.4025 91.3227 70.4025 92.4V95.84C70.4025 96.288 70.4025 96.6827 70.4025 97.024C70.4132 97.3547 70.4398 97.68 70.4825 98H69.2505C69.2185 97.7547 69.1972 97.5253 69.1865 97.312C69.1758 97.088 69.1705 96.8373 69.1705 96.56C68.9465 97.008 68.5838 97.3867 68.0825 97.696C67.5812 98.0053 66.9732 98.16 66.2585 98.16ZM66.5625 96.88C66.8932 96.88 67.2025 96.8373 67.4905 96.752C67.7892 96.656 68.0505 96.5227 68.2745 96.352C68.4985 96.1707 68.6745 95.952 68.8025 95.696C68.9305 95.44 68.9945 95.1413 68.9945 94.8V94.224H66.4825C65.9598 94.224 65.5492 94.3307 65.2505 94.544C64.9518 94.7467 64.8025 95.072 64.8025 95.52C64.8025 95.9147 64.9412 96.24 65.2185 96.496C65.5065 96.752 65.9545 96.88 66.5625 96.88ZM72.8894 89.52H76.5694C77.6147 89.52 78.3827 89.7387 78.8734 90.176C79.364 90.6027 79.6094 91.1573 79.6094 91.84C79.6094 92.0213 79.5774 92.208 79.5134 92.4C79.4494 92.5813 79.3587 92.752 79.2414 92.912C79.1347 93.072 79.0014 93.2107 78.8414 93.328C78.692 93.4453 78.5214 93.536 78.3294 93.6C78.852 93.728 79.2467 93.9733 79.5134 94.336C79.7907 94.688 79.9294 95.104 79.9294 95.584C79.9294 96.32 79.684 96.9067 79.1934 97.344C78.7027 97.7813 77.9347 98 76.8894 98H72.8894V89.52ZM76.8894 96.752C77.4867 96.752 77.908 96.6453 78.1534 96.432C78.3987 96.2187 78.5214 95.9147 78.5214 95.52C78.5214 95.1147 78.3987 94.8053 78.1534 94.592C77.908 94.368 77.4867 94.256 76.8894 94.256H74.2974V96.752H76.8894ZM76.5694 93.104C77.1774 93.104 77.5987 92.9973 77.8334 92.784C78.0787 92.5707 78.2014 92.2773 78.2014 91.904C78.2014 91.552 78.0787 91.2747 77.8334 91.072C77.5987 90.8693 77.1774 90.768 76.5694 90.768H74.2974V93.104H76.5694ZM81.5363 98.16C81.3763 98.16 81.2163 98.144 81.0563 98.112V96.704C81.1096 96.7147 81.1896 96.72 81.2963 96.72C81.5309 96.72 81.7336 96.6453 81.9043 96.496C82.0856 96.3467 82.2296 96.0853 82.3363 95.712C82.4429 95.3387 82.5229 94.832 82.5763 94.192C82.6296 93.552 82.6562 92.7413 82.6562 91.76V89.52H88.7362V98H87.3283V90.768H84.0643V92.08C84.0643 93.264 84.0109 94.2453 83.9043 95.024C83.7976 95.8027 83.6376 96.4267 83.4243 96.896C83.2216 97.3547 82.9603 97.68 82.6403 97.872C82.3203 98.064 81.9523 98.16 81.5363 98.16ZM92.9596 94.64C92.2556 94.48 91.749 94.192 91.4396 93.776C91.1303 93.3493 90.9756 92.8053 90.9756 92.144C90.9756 91.312 91.2263 90.6667 91.7276 90.208C92.2396 89.7493 93.0556 89.52 94.1756 89.52H97.8556V98H96.4476V94.768H94.2876L92.2236 98H90.6556L92.9596 94.64ZM92.3836 92.144C92.3836 92.592 92.5116 92.9333 92.7676 93.168C93.0343 93.4027 93.477 93.52 94.0956 93.52H96.4476V90.768H94.0956C93.477 90.768 93.0343 90.8853 92.7676 91.12C92.5116 91.3547 92.3836 91.696 92.3836 92.144ZM103.941 98.16C103.397 98.16 102.879 98.0747 102.389 97.904C101.898 97.7333 101.466 97.472 101.093 97.12C100.719 96.7573 100.421 96.304 100.197 95.76C99.9726 95.216 99.8606 94.576 99.8606 93.84V93.52C99.8606 92.816 99.9673 92.208 100.181 91.696C100.394 91.1733 100.677 90.7413 101.029 90.4C101.391 90.048 101.807 89.7867 102.277 89.616C102.757 89.4453 103.258 89.36 103.781 89.36C105.029 89.36 105.994 89.7013 106.677 90.384C107.359 91.0667 107.701 92.032 107.701 93.28V94.176H101.269C101.269 94.6773 101.349 95.0987 101.509 95.44C101.669 95.7813 101.877 96.0587 102.133 96.272C102.389 96.4853 102.671 96.64 102.981 96.736C103.301 96.832 103.621 96.88 103.941 96.88C104.581 96.88 105.071 96.7733 105.413 96.56C105.765 96.3467 106.015 96.0533 106.165 95.68H107.541C107.455 96.0853 107.301 96.4427 107.077 96.752C106.863 97.0613 106.597 97.3227 106.277 97.536C105.967 97.7387 105.61 97.8933 105.205 98C104.81 98.1067 104.389 98.16 103.941 98.16ZM103.861 90.64C103.53 90.64 103.21 90.688 102.901 90.784C102.591 90.8693 102.314 91.0133 102.069 91.216C101.834 91.408 101.642 91.6533 101.493 91.952C101.343 92.2507 101.269 92.608 101.269 93.024H106.373C106.362 92.5867 106.287 92.2187 106.149 91.92C106.021 91.6107 105.845 91.3653 105.621 91.184C105.397 90.992 105.13 90.8533 104.821 90.768C104.522 90.6827 104.202 90.64 103.861 90.64ZM111.482 90.768H108.586V89.52H115.786V90.768H112.89V98H111.482V90.768ZM126.125 95.296H120.429V94.144L125.965 86.8H127.629V93.984H129.069V95.296H127.629V98H126.125V95.296ZM126.125 93.984V88.56L122.029 93.984H126.125ZM140.067 94.624C139.822 94.7733 139.523 94.9067 139.171 95.024C138.83 95.1413 138.398 95.2 137.875 95.2C137.384 95.2 136.942 95.1467 136.547 95.04C136.163 94.9333 135.838 94.7627 135.571 94.528C135.304 94.2933 135.102 93.9893 134.963 93.616C134.824 93.2427 134.755 92.784 134.755 92.24V89.52H136.163V92C136.163 92.3627 136.195 92.6667 136.259 92.912C136.334 93.1573 136.451 93.3547 136.611 93.504C136.771 93.6533 136.974 93.76 137.219 93.824C137.464 93.888 137.763 93.92 138.115 93.92C138.595 93.92 139.006 93.872 139.347 93.776C139.688 93.68 139.928 93.5787 140.067 93.472V89.52H141.475V98H140.067V94.624ZM146.446 98.16C145.977 98.16 145.561 98.096 145.198 97.968C144.846 97.8293 144.547 97.6427 144.302 97.408C144.057 97.1733 143.87 96.896 143.742 96.576C143.614 96.256 143.55 95.904 143.55 95.52C143.55 94.6773 143.795 94.0693 144.286 93.696C144.787 93.3227 145.502 93.136 146.43 93.136H149.182V92.56C149.182 91.8347 149.017 91.3333 148.686 91.056C148.366 90.7787 147.881 90.64 147.23 90.64C146.622 90.64 146.179 90.7573 145.902 90.992C145.625 91.216 145.47 91.472 145.438 91.76H144.03C144.051 91.4187 144.142 91.104 144.302 90.816C144.473 90.5173 144.697 90.2613 144.974 90.048C145.262 89.8347 145.603 89.6693 145.998 89.552C146.393 89.424 146.83 89.36 147.31 89.36C148.313 89.36 149.107 89.6 149.694 90.08C150.291 90.5493 150.59 91.3227 150.59 92.4V95.84C150.59 96.288 150.59 96.6827 150.59 97.024C150.601 97.3547 150.627 97.68 150.67 98H149.438C149.406 97.7547 149.385 97.5253 149.374 97.312C149.363 97.088 149.358 96.8373 149.358 96.56C149.134 97.008 148.771 97.3867 148.27 97.696C147.769 98.0053 147.161 98.16 146.446 98.16ZM146.75 96.88C147.081 96.88 147.39 96.8373 147.678 96.752C147.977 96.656 148.238 96.5227 148.462 96.352C148.686 96.1707 148.862 95.952 148.99 95.696C149.118 95.44 149.182 95.1413 149.182 94.8V94.224H146.67C146.147 94.224 145.737 94.3307 145.438 94.544C145.139 94.7467 144.99 95.072 144.99 95.52C144.99 95.9147 145.129 96.24 145.406 96.496C145.694 96.752 146.142 96.88 146.75 96.88ZM156.357 98.16C155.813 98.16 155.306 98.0747 154.837 97.904C154.368 97.7227 153.962 97.456 153.621 97.104C153.28 96.7413 153.008 96.288 152.805 95.744C152.613 95.2 152.517 94.5653 152.517 93.84V93.52C152.517 92.8373 152.624 92.2347 152.837 91.712C153.05 91.1893 153.333 90.7573 153.685 90.416C154.037 90.064 154.442 89.8027 154.901 89.632C155.37 89.4507 155.856 89.36 156.357 89.36C156.858 89.36 157.306 89.4293 157.701 89.568C158.106 89.7067 158.453 89.8987 158.741 90.144C159.04 90.3893 159.28 90.6773 159.461 91.008C159.653 91.3387 159.792 91.696 159.877 92.08H158.437C158.352 91.8773 158.25 91.6907 158.133 91.52C158.026 91.3387 157.888 91.184 157.717 91.056C157.557 90.928 157.365 90.8267 157.141 90.752C156.917 90.6773 156.656 90.64 156.357 90.64C156.048 90.64 155.749 90.6987 155.461 90.816C155.173 90.9227 154.917 91.0933 154.693 91.328C154.469 91.552 154.288 91.8453 154.149 92.208C154.021 92.5707 153.957 93.008 153.957 93.52V93.84C153.957 94.384 154.021 94.8533 154.149 95.248C154.288 95.632 154.469 95.9467 154.693 96.192C154.917 96.4267 155.173 96.6027 155.461 96.72C155.749 96.8267 156.048 96.88 156.357 96.88C156.88 96.88 157.317 96.752 157.669 96.496C158.032 96.24 158.288 95.888 158.437 95.44H159.877C159.674 96.2827 159.258 96.9493 158.629 97.44C158 97.92 157.242 98.16 156.357 98.16ZM164.212 98.16C163.742 98.16 163.326 98.096 162.964 97.968C162.612 97.8293 162.313 97.6427 162.068 97.408C161.822 97.1733 161.636 96.896 161.508 96.576C161.38 96.256 161.316 95.904 161.316 95.52C161.316 94.6773 161.561 94.0693 162.052 93.696C162.553 93.3227 163.268 93.136 164.196 93.136H166.948V92.56C166.948 91.8347 166.782 91.3333 166.452 91.056C166.132 90.7787 165.646 90.64 164.996 90.64C164.388 90.64 163.945 90.7573 163.668 90.992C163.39 91.216 163.236 91.472 163.204 91.76H161.796C161.817 91.4187 161.908 91.104 162.068 90.816C162.238 90.5173 162.462 90.2613 162.74 90.048C163.028 89.8347 163.369 89.6693 163.764 89.552C164.158 89.424 164.596 89.36 165.076 89.36C166.078 89.36 166.873 89.6 167.46 90.08C168.057 90.5493 168.356 91.3227 168.356 92.4V95.84C168.356 96.288 168.356 96.6827 168.356 97.024C168.366 97.3547 168.393 97.68 168.436 98H167.204C167.172 97.7547 167.15 97.5253 167.14 97.312C167.129 97.088 167.124 96.8373 167.124 96.56C166.9 97.008 166.537 97.3867 166.036 97.696C165.534 98.0053 164.926 98.16 164.212 98.16ZM164.516 96.88C164.846 96.88 165.156 96.8373 165.444 96.752C165.742 96.656 166.004 96.5227 166.228 96.352C166.452 96.1707 166.628 95.952 166.756 95.696C166.884 95.44 166.948 95.1413 166.948 94.8V94.224H164.436C163.913 94.224 163.502 94.3307 163.204 94.544C162.905 94.7467 162.756 95.072 162.756 95.52C162.756 95.9147 162.894 96.24 163.172 96.496C163.46 96.752 163.908 96.88 164.516 96.88ZM175.611 86.8H176.955V101.2H175.611V86.8Z" fill="#2B2B2B"/>
<rect x="28" y="116" width="113" height="36" rx="8" fill="#356FEC"/>
<path d="M56.44 139.156C55.864 139.156 55.336 139.08 54.856 138.928C54.376 138.768 53.964 138.516 53.62 138.172C53.284 137.828 53.02 137.384 52.828 136.84C52.636 136.296 52.54 135.632 52.54 134.848V134.62C52.54 133.884 52.64 133.252 52.84 132.724C53.04 132.196 53.316 131.764 53.668 131.428C54.02 131.092 54.432 130.844 54.904 130.684C55.384 130.524 55.896 130.444 56.44 130.444C56.928 130.444 57.384 130.5 57.808 130.612C58.24 130.724 58.616 130.9 58.936 131.14C59.264 131.38 59.528 131.692 59.728 132.076C59.936 132.46 60.06 132.928 60.1 133.48H57.868C57.828 133.256 57.764 133.068 57.676 132.916C57.588 132.756 57.48 132.628 57.352 132.532C57.224 132.428 57.08 132.356 56.92 132.316C56.768 132.268 56.608 132.244 56.44 132.244C56.2 132.244 55.976 132.288 55.768 132.376C55.568 132.456 55.392 132.592 55.24 132.784C55.096 132.968 54.98 133.212 54.892 133.516C54.812 133.82 54.772 134.188 54.772 134.62V134.872C54.772 135.336 54.816 135.728 54.904 136.048C55 136.36 55.124 136.616 55.276 136.816C55.428 137.008 55.604 137.148 55.804 137.236C56.004 137.316 56.216 137.356 56.44 137.356C56.848 137.356 57.172 137.26 57.412 137.068C57.66 136.868 57.812 136.552 57.868 136.12H60.1C60.068 136.68 59.952 137.152 59.752 137.536C59.56 137.92 59.3 138.232 58.972 138.472C58.652 138.712 58.276 138.888 57.844 139C57.412 139.104 56.944 139.156 56.44 139.156ZM64.1195 139.156C63.6715 139.156 63.2515 139.092 62.8595 138.964C62.4675 138.828 62.1235 138.624 61.8275 138.352C61.5315 138.08 61.2995 137.74 61.1315 137.332C60.9635 136.916 60.8795 136.432 60.8795 135.88V135.64C60.8795 135.12 60.9635 134.664 61.1315 134.272C61.2995 133.88 61.5315 133.552 61.8275 133.288C62.1235 133.024 62.4675 132.824 62.8595 132.688C63.2515 132.552 63.6715 132.484 64.1195 132.484C64.5675 132.484 64.9875 132.552 65.3795 132.688C65.7715 132.824 66.1155 133.024 66.4115 133.288C66.7075 133.552 66.9395 133.88 67.1075 134.272C67.2755 134.664 67.3595 135.12 67.3595 135.64V135.88C67.3595 136.424 67.2755 136.904 67.1075 137.32C66.9395 137.728 66.7075 138.068 66.4115 138.34C66.1155 138.612 65.7715 138.816 65.3795 138.952C64.9875 139.088 64.5675 139.156 64.1195 139.156ZM64.1195 137.62C64.5515 137.62 64.8835 137.464 65.1155 137.152C65.3475 136.84 65.4635 136.416 65.4635 135.88V135.64C65.4635 135.16 65.3475 134.772 65.1155 134.476C64.8835 134.172 64.5515 134.02 64.1195 134.02C63.6875 134.02 63.3555 134.172 63.1235 134.476C62.8915 134.772 62.7755 135.16 62.7755 135.64V135.88C62.7755 136.432 62.8915 136.86 63.1235 137.164C63.3555 137.468 63.6875 137.62 64.1195 137.62ZM69.6285 135.688L67.7205 132.64H69.7605L71.0085 134.584L72.2085 132.64H74.2005L72.3045 135.628L74.3205 139H72.2685L70.9365 136.732L69.6045 139H67.6005L69.6285 135.688ZM75.0414 132.64H76.7454V133.504C76.8254 133.376 76.9254 133.252 77.0454 133.132C77.1734 133.004 77.3214 132.892 77.4894 132.796C77.6574 132.7 77.8454 132.624 78.0534 132.568C78.2614 132.512 78.4854 132.484 78.7254 132.484C79.6214 132.484 80.3014 132.748 80.7654 133.276C81.2294 133.804 81.4614 134.592 81.4614 135.64V135.88C81.4614 136.424 81.3974 136.9 81.2694 137.308C81.1414 137.716 80.9574 138.056 80.7174 138.328C80.4774 138.6 80.1894 138.808 79.8534 138.952C79.5174 139.088 79.1414 139.156 78.7254 139.156C78.3654 139.156 78.0214 139.076 77.6934 138.916C77.3734 138.748 77.1054 138.508 76.8894 138.196V141.4H75.0414V132.64ZM78.2814 137.632C78.6494 137.632 78.9534 137.484 79.1934 137.188C79.4414 136.892 79.5654 136.456 79.5654 135.88V135.64C79.5654 135.088 79.4454 134.68 79.2054 134.416C78.9734 134.144 78.6654 134.008 78.2814 134.008C77.8894 134.008 77.5574 134.132 77.2854 134.38C77.0214 134.62 76.8894 134.98 76.8894 135.46V136.06C76.8894 136.564 77.0214 136.952 77.2854 137.224C77.5574 137.496 77.8894 137.632 78.2814 137.632ZM84.4042 139.156C84.0602 139.156 83.7522 139.104 83.4802 139C83.2162 138.896 82.9922 138.756 82.8082 138.58C82.6242 138.396 82.4842 138.184 82.3882 137.944C82.2922 137.696 82.2442 137.428 82.2442 137.14C82.2442 136.508 82.4362 136.024 82.8202 135.688C83.2122 135.352 83.8002 135.184 84.5842 135.184H86.3962V134.92C86.3962 134.536 86.3042 134.272 86.1202 134.128C85.9362 133.976 85.6842 133.9 85.3642 133.9C85.0602 133.9 84.8362 133.948 84.6922 134.044C84.5482 134.14 84.4682 134.292 84.4522 134.5H82.6042C82.6202 134.212 82.6922 133.948 82.8202 133.708C82.9482 133.46 83.1282 133.248 83.3602 133.072C83.6002 132.888 83.8922 132.744 84.2362 132.64C84.5802 132.536 84.9762 132.484 85.4242 132.484C85.8402 132.484 86.2202 132.532 86.5642 132.628C86.9162 132.716 87.2162 132.864 87.4642 133.072C87.7122 133.272 87.9042 133.536 88.0402 133.864C88.1762 134.184 88.2442 134.576 88.2442 135.04V137.38C88.2442 137.716 88.2522 138.012 88.2682 138.268C88.2842 138.516 88.3082 138.76 88.3402 139H86.5882C86.5722 138.864 86.5562 138.744 86.5402 138.64C86.5322 138.536 86.5282 138.408 86.5282 138.256C86.3362 138.512 86.0682 138.728 85.7242 138.904C85.3882 139.072 84.9482 139.156 84.4042 139.156ZM85.0042 137.86C85.3962 137.86 85.7242 137.748 85.9882 137.524C86.2602 137.3 86.3962 136.992 86.3962 136.6V136.336H84.9442C84.6722 136.336 84.4682 136.408 84.3322 136.552C84.2042 136.696 84.1402 136.864 84.1402 137.056C84.1402 137.288 84.2042 137.48 84.3322 137.632C84.4682 137.784 84.6922 137.86 85.0042 137.86ZM89.3852 132.64H91.2332V135.004H93.6572V132.64H95.5052V139H93.6572V136.516H91.2332V139H89.3852V132.64ZM96.7094 132.64H98.5094V136.48L101.209 132.64H102.829V139H101.029V135.16L98.3294 139H96.7094V132.64ZM105.63 134.152H103.674V132.64H109.434V134.152H107.478V139H105.63V134.152ZM110.388 132.64H112.236V134.704H113.508C114.34 134.704 114.968 134.88 115.392 135.232C115.816 135.584 116.028 136.124 116.028 136.852C116.028 137.172 115.98 137.464 115.884 137.728C115.796 137.992 115.648 138.22 115.44 138.412C115.24 138.596 114.98 138.74 114.66 138.844C114.348 138.948 113.964 139 113.508 139H110.388V132.64ZM113.268 137.608C113.596 137.608 113.828 137.548 113.964 137.428C114.108 137.3 114.18 137.108 114.18 136.852C114.18 136.588 114.108 136.396 113.964 136.276C113.828 136.156 113.596 136.096 113.268 136.096H112.236V137.608H113.268Z" fill="white"/>
</g>
<g filter="url(#filter4_d_7_1302)">
<path d="M12 200C12 188.954 20.9543 180 32 180H339C350.046 180 359 188.954 359 200V228C359 239.046 350.046 248 339 248H32C20.9543 248 12 239.046 12 228V200Z" fill="white" shape-rendering="crispEdges"/>
<path d="M29.6 208.8H36.64V210.112H31.104V220H29.6V208.8ZM36.4675 211.52H37.7795V213.12C38.0675 212.555 38.4675 212.123 38.9795 211.824C39.5022 211.515 40.1048 211.36 40.7875 211.36C41.8542 211.36 42.7075 211.712 43.3475 212.416C43.9875 213.109 44.3075 214.144 44.3075 215.52V215.84C44.3075 216.565 44.2222 217.2 44.0515 217.744C43.8808 218.277 43.6408 218.725 43.3315 219.088C43.0222 219.44 42.6488 219.707 42.2115 219.888C41.7848 220.069 41.3102 220.16 40.7875 220.16C40.0622 220.16 39.4542 220 38.9635 219.68C38.4835 219.36 38.1208 218.96 37.8755 218.48V223.2H36.4675V211.52ZM40.4675 218.912C40.8088 218.912 41.1288 218.848 41.4275 218.72C41.7262 218.581 41.9822 218.384 42.1955 218.128C42.4195 217.872 42.5902 217.552 42.7075 217.168C42.8355 216.784 42.8995 216.341 42.8995 215.84V215.52C42.8995 215.061 42.8355 214.651 42.7075 214.288C42.5902 213.925 42.4195 213.621 42.1955 213.376C41.9822 213.12 41.7262 212.928 41.4275 212.8C41.1288 212.672 40.8088 212.608 40.4675 212.608C40.0835 212.608 39.7315 212.672 39.4115 212.8C39.0915 212.917 38.8195 213.088 38.5955 213.312C38.3715 213.525 38.1955 213.781 38.0675 214.08C37.9395 214.379 37.8755 214.699 37.8755 215.04V216.32C37.8755 216.704 37.9395 217.056 38.0675 217.376C38.1955 217.696 38.3715 217.968 38.5955 218.192C38.8195 218.416 39.0915 218.592 39.4115 218.72C39.7315 218.848 40.0835 218.912 40.4675 218.912ZM48.7273 220.16C48.2579 220.16 47.8419 220.096 47.4793 219.968C47.1273 219.829 46.8286 219.643 46.5833 219.408C46.3379 219.173 46.1513 218.896 46.0233 218.576C45.8953 218.256 45.8313 217.904 45.8313 217.52C45.8313 216.677 46.0766 216.069 46.5673 215.696C47.0686 215.323 47.7833 215.136 48.7113 215.136H51.4633V214.56C51.4633 213.835 51.2979 213.333 50.9673 213.056C50.6473 212.779 50.1619 212.64 49.5113 212.64C48.9033 212.64 48.4606 212.757 48.1833 212.992C47.9059 213.216 47.7513 213.472 47.7193 213.76H46.3113C46.3326 213.419 46.4233 213.104 46.5833 212.816C46.7539 212.517 46.9779 212.261 47.2553 212.048C47.5433 211.835 47.8846 211.669 48.2793 211.552C48.6739 211.424 49.1113 211.36 49.5913 211.36C50.5939 211.36 51.3886 211.6 51.9753 212.08C52.5726 212.549 52.8713 213.323 52.8713 214.4V217.84C52.8713 218.288 52.8713 218.683 52.8713 219.024C52.8819 219.355 52.9086 219.68 52.9513 220H51.7193C51.6873 219.755 51.6659 219.525 51.6553 219.312C51.6446 219.088 51.6393 218.837 51.6393 218.56C51.4153 219.008 51.0526 219.387 50.5513 219.696C50.0499 220.005 49.4419 220.16 48.7273 220.16ZM49.0312 218.88C49.3619 218.88 49.6713 218.837 49.9593 218.752C50.2579 218.656 50.5193 218.523 50.7433 218.352C50.9673 218.171 51.1433 217.952 51.2713 217.696C51.3993 217.44 51.4633 217.141 51.4633 216.8V216.224H48.9513C48.4286 216.224 48.0179 216.331 47.7193 216.544C47.4206 216.747 47.2713 217.072 47.2713 217.52C47.2713 217.915 47.4099 218.24 47.6873 218.496C47.9753 218.752 48.4233 218.88 49.0312 218.88ZM59.2941 220.16C57.8221 220.16 56.7021 219.787 55.9341 219.04C55.1768 218.293 54.7981 217.232 54.7981 215.856V215.536C54.7981 214.224 55.1768 213.2 55.9341 212.464C56.7021 211.728 57.8221 211.36 59.2941 211.36V208.8H60.7021V211.36C62.1741 211.36 63.2888 211.728 64.0461 212.464C64.8141 213.2 65.1981 214.224 65.1981 215.536V215.856C65.1981 217.232 64.8141 218.293 64.0461 219.04C63.2888 219.787 62.1741 220.16 60.7021 220.16V223.2H59.2941V220.16ZM63.7581 215.536C63.7581 214.565 63.5075 213.84 63.0061 213.36C62.5155 212.88 61.7421 212.64 60.6861 212.64V218.88C61.7421 218.88 62.5155 218.635 63.0061 218.144C63.5075 217.653 63.7581 216.891 63.7581 215.856V215.536ZM56.2381 215.856C56.2381 216.891 56.4835 217.653 56.9741 218.144C57.4755 218.635 58.2541 218.88 59.3101 218.88V212.64C58.2541 212.64 57.4755 212.88 56.9741 213.36C56.4835 213.84 56.2381 214.565 56.2381 215.536V215.856ZM67.2019 211.52H68.6099V217.92L72.9939 211.52H74.4019V220H72.9939V213.6L68.6099 220H67.2019V211.52ZM76.9675 211.52H78.3755V215.072H79.4955L82.6635 211.52H84.3275L80.6475 215.584L84.4875 220H82.6955L79.4955 216.288H78.3755V220H76.9675V211.52ZM90.1706 211.52H91.4826V213.12C91.7706 212.555 92.1706 212.123 92.6826 211.824C93.2053 211.515 93.808 211.36 94.4906 211.36C95.5573 211.36 96.4106 211.712 97.0506 212.416C97.6906 213.109 98.0106 214.144 98.0106 215.52V215.84C98.0106 216.565 97.9253 217.2 97.7546 217.744C97.584 218.277 97.344 218.725 97.0346 219.088C96.7253 219.44 96.352 219.707 95.9146 219.888C95.488 220.069 95.0133 220.16 94.4906 220.16C93.7653 220.16 93.1573 220 92.6666 219.68C92.1866 219.36 91.824 218.96 91.5786 218.48V223.2H90.1706V211.52ZM94.1706 218.912C94.512 218.912 94.832 218.848 95.1306 218.72C95.4293 218.581 95.6853 218.384 95.8986 218.128C96.1226 217.872 96.2933 217.552 96.4106 217.168C96.5386 216.784 96.6026 216.341 96.6026 215.84V215.52C96.6026 215.061 96.5386 214.651 96.4106 214.288C96.2933 213.925 96.1226 213.621 95.8986 213.376C95.6853 213.12 95.4293 212.928 95.1306 212.8C94.832 212.672 94.512 212.608 94.1706 212.608C93.7866 212.608 93.4346 212.672 93.1146 212.8C92.7946 212.917 92.5226 213.088 92.2986 213.312C92.0746 213.525 91.8986 213.781 91.7706 214.08C91.6426 214.379 91.5786 214.699 91.5786 215.04V216.32C91.5786 216.704 91.6426 217.056 91.7706 217.376C91.8986 217.696 92.0746 217.968 92.2986 218.192C92.5226 218.416 92.7946 218.592 93.1146 218.72C93.4346 218.848 93.7866 218.912 94.1706 218.912ZM102.43 220.16C101.961 220.16 101.545 220.096 101.182 219.968C100.83 219.829 100.532 219.643 100.286 219.408C100.041 219.173 99.8544 218.896 99.7264 218.576C99.5984 218.256 99.5344 217.904 99.5344 217.52C99.5344 216.677 99.7797 216.069 100.27 215.696C100.772 215.323 101.486 215.136 102.414 215.136H105.166V214.56C105.166 213.835 105.001 213.333 104.67 213.056C104.35 212.779 103.865 212.64 103.214 212.64C102.606 212.64 102.164 212.757 101.886 212.992C101.609 213.216 101.454 213.472 101.422 213.76H100.014C100.036 213.419 100.126 213.104 100.286 212.816C100.457 212.517 100.681 212.261 100.958 212.048C101.246 211.835 101.588 211.669 101.982 211.552C102.377 211.424 102.814 211.36 103.294 211.36C104.297 211.36 105.092 211.6 105.678 212.08C106.276 212.549 106.574 213.323 106.574 214.4V217.84C106.574 218.288 106.574 218.683 106.574 219.024C106.585 219.355 106.612 219.68 106.654 220H105.422C105.39 219.755 105.369 219.525 105.358 219.312C105.348 219.088 105.342 218.837 105.342 218.56C105.118 219.008 104.756 219.387 104.254 219.696C103.753 220.005 103.145 220.16 102.43 220.16ZM102.734 218.88C103.065 218.88 103.374 218.837 103.662 218.752C103.961 218.656 104.222 218.523 104.446 218.352C104.67 218.171 104.846 217.952 104.974 217.696C105.102 217.44 105.166 217.141 105.166 216.8V216.224H102.654C102.132 216.224 101.721 216.331 101.422 216.544C101.124 216.747 100.974 217.072 100.974 217.52C100.974 217.915 101.113 218.24 101.39 218.496C101.678 218.752 102.126 218.88 102.734 218.88ZM112.581 220.16C112.016 220.16 111.488 220.053 110.997 219.84C110.517 219.627 110.096 219.317 109.733 218.912C109.381 218.496 109.099 217.989 108.885 217.392C108.683 216.795 108.581 216.117 108.581 215.36V215.04C108.581 214.08 108.651 213.227 108.789 212.48C108.928 211.723 109.163 211.083 109.493 210.56C109.835 210.027 110.277 209.611 110.821 209.312C111.376 209.013 112.069 208.843 112.901 208.8C113.573 208.768 114.16 208.741 114.661 208.72C115.163 208.688 115.589 208.581 115.941 208.4V209.76C115.771 209.856 115.456 209.931 114.997 209.984C114.549 210.037 113.931 210.075 113.141 210.096C112.629 210.107 112.176 210.171 111.781 210.288C111.397 210.405 111.067 210.592 110.789 210.848C110.523 211.104 110.309 211.44 110.149 211.856C110 212.261 109.904 212.763 109.861 213.36C110.117 212.795 110.512 212.347 111.045 212.016C111.579 211.685 112.197 211.52 112.901 211.52C113.445 211.52 113.941 211.616 114.389 211.808C114.837 211.989 115.221 212.251 115.541 212.592C115.872 212.933 116.128 213.355 116.309 213.856C116.491 214.347 116.581 214.901 116.581 215.52V215.84C116.581 216.501 116.48 217.099 116.277 217.632C116.075 218.155 115.797 218.608 115.445 218.992C115.093 219.365 114.672 219.653 114.181 219.856C113.691 220.059 113.157 220.16 112.581 220.16ZM112.581 218.88C113.328 218.88 113.941 218.624 114.421 218.112C114.901 217.589 115.141 216.832 115.141 215.84V215.52C115.141 215.104 115.077 214.731 114.949 214.4C114.821 214.069 114.645 213.787 114.421 213.552C114.197 213.307 113.925 213.12 113.605 212.992C113.296 212.864 112.955 212.8 112.581 212.8C112.208 212.8 111.861 212.864 111.541 212.992C111.232 213.12 110.965 213.307 110.741 213.552C110.517 213.787 110.341 214.069 110.213 214.4C110.085 214.731 110.021 215.104 110.021 215.52V215.84C110.021 216.309 110.085 216.736 110.213 217.12C110.352 217.493 110.539 217.813 110.773 218.08C111.008 218.336 111.28 218.533 111.589 218.672C111.899 218.811 112.229 218.88 112.581 218.88ZM122.097 220.16C121.553 220.16 121.036 220.075 120.545 219.904C120.054 219.723 119.622 219.456 119.249 219.104C118.876 218.741 118.577 218.288 118.353 217.744C118.129 217.2 118.017 216.565 118.017 215.84V215.52C118.017 214.837 118.129 214.235 118.353 213.712C118.577 213.189 118.876 212.757 119.249 212.416C119.622 212.064 120.054 211.803 120.545 211.632C121.036 211.451 121.553 211.36 122.097 211.36C122.641 211.36 123.158 211.451 123.649 211.632C124.14 211.803 124.572 212.064 124.945 212.416C125.318 212.757 125.617 213.189 125.841 213.712C126.065 214.235 126.177 214.837 126.177 215.52V215.84C126.177 216.565 126.065 217.2 125.841 217.744C125.617 218.288 125.318 218.741 124.945 219.104C124.572 219.456 124.14 219.723 123.649 219.904C123.158 220.075 122.641 220.16 122.097 220.16ZM122.097 218.88C122.417 218.88 122.737 218.827 123.057 218.72C123.377 218.603 123.66 218.427 123.905 218.192C124.15 217.947 124.348 217.632 124.497 217.248C124.657 216.864 124.737 216.395 124.737 215.84V215.52C124.737 215.008 124.657 214.571 124.497 214.208C124.348 213.845 124.15 213.547 123.905 213.312C123.66 213.077 123.377 212.907 123.057 212.8C122.737 212.693 122.417 212.64 122.097 212.64C121.777 212.64 121.457 212.693 121.137 212.8C120.817 212.907 120.534 213.077 120.289 213.312C120.044 213.547 119.841 213.845 119.681 214.208C119.532 214.571 119.457 215.008 119.457 215.52V215.84C119.457 216.395 119.532 216.864 119.681 217.248C119.841 217.632 120.044 217.947 120.289 218.192C120.534 218.427 120.817 218.603 121.137 218.72C121.457 218.827 121.777 218.88 122.097 218.88ZM129.95 212.768H127.054V211.52H134.254V212.768H131.358V220H129.95V212.768ZM135.858 211.52H137.266V214.72H138.978C140.045 214.72 140.829 214.955 141.33 215.424C141.842 215.893 142.098 216.544 142.098 217.376C142.098 218.187 141.842 218.827 141.33 219.296C140.829 219.765 140.045 220 138.978 220H135.858V211.52ZM138.898 218.752C139.559 218.752 140.023 218.635 140.29 218.4C140.557 218.165 140.69 217.819 140.69 217.36C140.69 216.901 140.557 216.555 140.29 216.32C140.023 216.085 139.559 215.968 138.898 215.968H137.266V218.752H138.898ZM143.41 211.52H144.818V220H143.41V211.52Z" fill="#2B2B2B"/>
<rect x="203" y="196" width="140" height="36" rx="8" fill="#356FEC"/>
<path d="M227.84 210.6H231.26C232.428 210.6 233.288 210.856 233.84 211.368C234.4 211.872 234.68 212.572 234.68 213.468C234.68 214.364 234.4 215.068 233.84 215.58C233.288 216.084 232.428 216.336 231.26 216.336H230V219H227.84V210.6ZM231.02 214.56C231.572 214.56 231.96 214.468 232.184 214.284C232.408 214.1 232.52 213.828 232.52 213.468C232.52 213.108 232.408 212.836 232.184 212.652C231.96 212.468 231.572 212.376 231.02 212.376H230V214.56H231.02ZM238.582 219.156C238.118 219.156 237.682 219.092 237.274 218.964C236.874 218.828 236.526 218.624 236.23 218.352C235.934 218.08 235.702 217.74 235.534 217.332C235.366 216.916 235.282 216.432 235.282 215.88V215.64C235.282 215.112 235.362 214.652 235.522 214.26C235.69 213.868 235.914 213.54 236.194 213.276C236.482 213.012 236.818 212.816 237.202 212.688C237.594 212.552 238.014 212.484 238.462 212.484C239.51 212.484 240.302 212.756 240.838 213.3C241.374 213.836 241.642 214.616 241.642 215.64V216.3H237.178C237.186 216.548 237.23 216.76 237.31 216.936C237.39 217.104 237.494 217.244 237.622 217.356C237.75 217.468 237.894 217.552 238.054 217.608C238.222 217.656 238.398 217.68 238.582 217.68C238.934 217.68 239.21 217.628 239.41 217.524C239.618 217.412 239.754 217.264 239.818 217.08H241.522C241.394 217.776 241.078 218.296 240.574 218.64C240.07 218.984 239.406 219.156 238.582 219.156ZM238.522 213.948C238.354 213.948 238.19 213.968 238.03 214.008C237.878 214.048 237.738 214.116 237.61 214.212C237.49 214.3 237.39 214.416 237.31 214.56C237.238 214.704 237.198 214.88 237.19 215.088H239.83C239.83 214.864 239.794 214.68 239.722 214.536C239.65 214.392 239.554 214.276 239.434 214.188C239.322 214.1 239.186 214.04 239.026 214.008C238.866 213.968 238.698 213.948 238.522 213.948ZM242.121 217.488H242.793C242.961 217.24 243.081 216.9 243.153 216.468C243.225 216.028 243.261 215.432 243.261 214.68V212.64H248.481V217.488H249.201V220.5H247.641V219H243.681V220.5H242.121V217.488ZM246.633 217.488V214.152H244.965V214.92C244.965 215.52 244.933 216.028 244.869 216.444C244.813 216.86 244.725 217.208 244.605 217.488H246.633ZM252.08 219.156C251.736 219.156 251.428 219.104 251.156 219C250.892 218.896 250.668 218.756 250.484 218.58C250.3 218.396 250.16 218.184 250.064 217.944C249.968 217.696 249.92 217.428 249.92 217.14C249.92 216.508 250.112 216.024 250.496 215.688C250.888 215.352 251.476 215.184 252.26 215.184H254.072V214.92C254.072 214.536 253.98 214.272 253.796 214.128C253.612 213.976 253.36 213.9 253.04 213.9C252.736 213.9 252.512 213.948 252.368 214.044C252.224 214.14 252.144 214.292 252.128 214.5H250.28C250.296 214.212 250.368 213.948 250.496 213.708C250.624 213.46 250.804 213.248 251.036 213.072C251.276 212.888 251.568 212.744 251.912 212.64C252.256 212.536 252.652 212.484 253.1 212.484C253.516 212.484 253.896 212.532 254.24 212.628C254.592 212.716 254.892 212.864 255.14 213.072C255.388 213.272 255.58 213.536 255.716 213.864C255.852 214.184 255.92 214.576 255.92 215.04V217.38C255.92 217.716 255.928 218.012 255.944 218.268C255.96 218.516 255.984 218.76 256.016 219H254.264C254.248 218.864 254.232 218.744 254.216 218.64C254.208 218.536 254.204 218.408 254.204 218.256C254.012 218.512 253.744 218.728 253.4 218.904C253.064 219.072 252.624 219.156 252.08 219.156ZM252.68 217.86C253.072 217.86 253.4 217.748 253.664 217.524C253.936 217.3 254.072 216.992 254.072 216.6V216.336H252.62C252.348 216.336 252.144 216.408 252.008 216.552C251.88 216.696 251.816 216.864 251.816 217.056C251.816 217.288 251.88 217.48 252.008 217.632C252.144 217.784 252.368 217.86 252.68 217.86ZM257.061 212.64H258.909V215.052H259.389L261.165 212.64H263.181L260.841 215.628L263.301 219H261.117L259.389 216.468H258.909V219H257.061V212.64ZM265.618 214.152H263.662V212.64H269.422V214.152H267.466V219H265.618V214.152ZM270.256 212.64H272.056V216.48L274.756 212.64H276.376V219H274.576V215.16L271.876 219H270.256V212.64ZM277.58 212.64H279.284V213.504C279.364 213.376 279.464 213.252 279.584 213.132C279.712 213.004 279.86 212.892 280.028 212.796C280.196 212.7 280.384 212.624 280.592 212.568C280.8 212.512 281.024 212.484 281.264 212.484C282.16 212.484 282.84 212.748 283.304 213.276C283.768 213.804 284 214.592 284 215.64V215.88C284 216.424 283.936 216.9 283.808 217.308C283.68 217.716 283.496 218.056 283.256 218.328C283.016 218.6 282.728 218.808 282.392 218.952C282.056 219.088 281.68 219.156 281.264 219.156C280.904 219.156 280.56 219.076 280.232 218.916C279.912 218.748 279.644 218.508 279.428 218.196V221.4H277.58V212.64ZM280.82 217.632C281.188 217.632 281.492 217.484 281.732 217.188C281.98 216.892 282.104 216.456 282.104 215.88V215.64C282.104 215.088 281.984 214.68 281.744 214.416C281.512 214.144 281.204 214.008 280.82 214.008C280.428 214.008 280.096 214.132 279.824 214.38C279.56 214.62 279.428 214.98 279.428 215.46V216.06C279.428 216.564 279.56 216.952 279.824 217.224C280.096 217.496 280.428 217.632 280.82 217.632ZM287.963 219.156C287.515 219.156 287.095 219.092 286.703 218.964C286.311 218.828 285.967 218.624 285.671 218.352C285.375 218.08 285.143 217.74 284.975 217.332C284.807 216.916 284.723 216.432 284.723 215.88V215.64C284.723 215.12 284.807 214.664 284.975 214.272C285.143 213.88 285.375 213.552 285.671 213.288C285.967 213.024 286.311 212.824 286.703 212.688C287.095 212.552 287.515 212.484 287.963 212.484C288.411 212.484 288.831 212.552 289.223 212.688C289.615 212.824 289.959 213.024 290.255 213.288C290.551 213.552 290.783 213.88 290.951 214.272C291.119 214.664 291.203 215.12 291.203 215.64V215.88C291.203 216.424 291.119 216.904 290.951 217.32C290.783 217.728 290.551 218.068 290.255 218.34C289.959 218.612 289.615 218.816 289.223 218.952C288.831 219.088 288.411 219.156 287.963 219.156ZM287.963 217.62C288.395 217.62 288.727 217.464 288.959 217.152C289.191 216.84 289.307 216.416 289.307 215.88V215.64C289.307 215.16 289.191 214.772 288.959 214.476C288.727 214.172 288.395 214.02 287.963 214.02C287.531 214.02 287.199 214.172 286.967 214.476C286.735 214.772 286.619 215.16 286.619 215.64V215.88C286.619 216.432 286.735 216.86 286.967 217.164C287.199 217.468 287.531 217.62 287.963 217.62ZM292.159 212.64H295.567C295.983 212.64 296.339 212.684 296.635 212.772C296.939 212.852 297.183 212.968 297.367 213.12C297.559 213.272 297.699 213.452 297.787 213.66C297.875 213.86 297.919 214.08 297.919 214.32C297.919 214.624 297.831 214.908 297.655 215.172C297.479 215.428 297.227 215.6 296.899 215.688C297.291 215.784 297.599 215.968 297.823 216.24C298.047 216.512 298.159 216.828 298.159 217.188C298.159 217.74 297.963 218.18 297.571 218.508C297.179 218.836 296.591 219 295.807 219H292.159V212.64ZM295.351 217.608C295.991 217.608 296.311 217.412 296.311 217.02C296.311 216.62 295.991 216.42 295.351 216.42H294.007V217.608H295.351ZM295.243 215.124C295.563 215.124 295.779 215.076 295.891 214.98C296.011 214.876 296.071 214.74 296.071 214.572C296.071 214.396 296.011 214.264 295.891 214.176C295.771 214.08 295.555 214.032 295.243 214.032H294.007V215.124H295.243ZM301.1 219.156C300.756 219.156 300.448 219.104 300.176 219C299.912 218.896 299.688 218.756 299.504 218.58C299.32 218.396 299.18 218.184 299.084 217.944C298.988 217.696 298.94 217.428 298.94 217.14C298.94 216.508 299.132 216.024 299.516 215.688C299.908 215.352 300.496 215.184 301.28 215.184H303.092V214.92C303.092 214.536 303 214.272 302.816 214.128C302.632 213.976 302.38 213.9 302.06 213.9C301.756 213.9 301.532 213.948 301.388 214.044C301.244 214.14 301.164 214.292 301.148 214.5H299.3C299.316 214.212 299.388 213.948 299.516 213.708C299.644 213.46 299.824 213.248 300.056 213.072C300.296 212.888 300.588 212.744 300.932 212.64C301.276 212.536 301.672 212.484 302.12 212.484C302.536 212.484 302.916 212.532 303.26 212.628C303.612 212.716 303.912 212.864 304.16 213.072C304.408 213.272 304.6 213.536 304.736 213.864C304.872 214.184 304.94 214.576 304.94 215.04V217.38C304.94 217.716 304.948 218.012 304.964 218.268C304.98 218.516 305.004 218.76 305.036 219H303.284C303.268 218.864 303.252 218.744 303.236 218.64C303.228 218.536 303.224 218.408 303.224 218.256C303.032 218.512 302.764 218.728 302.42 218.904C302.084 219.072 301.644 219.156 301.1 219.156ZM301.7 217.86C302.092 217.86 302.42 217.748 302.684 217.524C302.956 217.3 303.092 216.992 303.092 216.6V216.336H301.64C301.368 216.336 301.164 216.408 301.028 216.552C300.9 216.696 300.836 216.864 300.836 217.056C300.836 217.288 300.9 217.48 301.028 217.632C301.164 217.784 301.388 217.86 301.7 217.86ZM307.559 214.152H305.603V212.64H311.363V214.152H309.407V219H307.559V214.152ZM312.318 212.64H314.166V214.704H315.438C316.27 214.704 316.898 214.88 317.322 215.232C317.746 215.584 317.958 216.124 317.958 216.852C317.958 217.172 317.91 217.464 317.814 217.728C317.726 217.992 317.578 218.22 317.37 218.412C317.17 218.596 316.91 218.74 316.59 218.844C316.278 218.948 315.894 219 315.438 219H312.318V212.64ZM315.198 217.608C315.526 217.608 315.758 217.548 315.894 217.428C316.038 217.3 316.11 217.108 316.11 216.852C316.11 216.588 316.038 216.396 315.894 216.276C315.758 216.156 315.526 216.096 315.198 216.096H314.166V217.608H315.198Z" fill="white"/>
</g>
<defs>
<filter id="filter0_d_7_1302" x="368" y="26" width="88" height="88" filterUnits="userSpaceOnUse" color-interpolation-filters="sRGB">
<feFlood flood-opacity="0" result="BackgroundImageFix"/>
<feColorMatrix in="SourceAlpha" type="matrix" values="0 0 0 0 0 0 0 0 0 0 0 0 0 0 0 0 0 0 127 0" result="hardAlpha"/>
<feOffset/>
<feGaussianBlur stdDeviation="6"/>
<feComposite in2="hardAlpha" operator="out"/>
<feColorMatrix type="matrix" values="0 0 0 0 0.725532 0 0 0 0 0.721389 0 0 0 0 0.816667 0 0 0 0.2 0"/>
<feBlend mode="normal" in2="BackgroundImageFix" result="effect1_dropShadow_7_1302"/>
<feBlend mode="normal" in="SourceGraphic" in2="effect1_dropShadow_7_1302" result="shape"/>
</filter>
<filter id="filter1_d_7_1302" x="368" y="102" width="88" height="88" filterUnits="userSpaceOnUse" color-interpolation-filters="sRGB">
<feFlood flood-opacity="0" result="BackgroundImageFix"/>
<feColorMatrix in="SourceAlpha" type="matrix" values="0 0 0 0 0 0 0 0 0 0 0 0 0 0 0 0 0 0 127 0" result="hardAlpha"/>
<feOffset/>
<feGaussianBlur stdDeviation="6"/>
<feComposite in2="hardAlpha" operator="out"/>
<feColorMatrix type="matrix" values="0 0 0 0 0.725532 0 0 0 0 0.721389 0 0 0 0 0.816667 0 0 0 0.2 0"/>
<feBlend mode="normal" in2="BackgroundImageFix" result="effect1_dropShadow_7_1302"/>
<feBlend mode="normal" in="SourceGraphic" in2="effect1_dropShadow_7_1302" result="shape"/>
</filter>
<filter id="filter2_d_7_1302" x="368" y="178" width="88" height="88" filterUnits="userSpaceOnUse" color-interpolation-filters="sRGB">
<feFlood flood-opacity="0" result="BackgroundImageFix"/>
<feColorMatrix in="SourceAlpha" type="matrix" values="0 0 0 0 0 0 0 0 0 0 0 0 0 0 0 0 0 0 127 0" result="hardAlpha"/>
<feOffset/>
<feGaussianBlur stdDeviation="6"/>
<feComposite in2="hardAlpha" operator="out"/>
<feColorMatrix type="matrix" values="0 0 0 0 0.725532 0 0 0 0 0.721389 0 0 0 0 0.816667 0 0 0 0.2 0"/>
<feBlend mode="normal" in2="BackgroundImageFix" result="effect1_dropShadow_7_1302"/>
<feBlend mode="normal" in="SourceGraphic" in2="effect1_dropShadow_7_1302" result="shape"/>
</filter>
<filter id="filter3_d_7_1302" x="0" y="0" width="371" height="180" filterUnits="userSpaceOnUse" color-interpolation-filters="sRGB">
<feFlood flood-opacity="0" result="BackgroundImageFix"/>
<feColorMatrix in="SourceAlpha" type="matrix" values="0 0 0 0 0 0 0 0 0 0 0 0 0 0 0 0 0 0 127 0" result="hardAlpha"/>
<feOffset/>
<feGaussianBlur stdDeviation="6"/>
<feComposite in2="hardAlpha" operator="out"/>
<feColorMatrix type="matrix" values="0 0 0 0 0.725532 0 0 0 0 0.721389 0 0 0 0 0.816667 0 0 0 0.2 0"/>
<feBlend mode="normal" in2="BackgroundImageFix" result="effect1_dropShadow_7_1302"/>
<feBlend mode="normal" in="SourceGraphic" in2="effect1_dropShadow_7_1302" result="shape"/>
</filter>
<filter id="filter4_d_7_1302" x="0" y="168" width="371" height="92" filterUnits="userSpaceOnUse" color-interpolation-filters="sRGB">
<feFlood flood-opacity="0" result="BackgroundImageFix"/>
<feColorMatrix in="SourceAlpha" type="matrix" values="0 0 0 0 0 0 0 0 0 0 0 0 0 0 0 0 0 0 127 0" result="hardAlpha"/>
<feOffset/>
<feGaussianBlur stdDeviation="6"/>
<feComposite in2="hardAlpha" operator="out"/>
<feColorMatrix type="matrix" values="0 0 0 0 0.725532 0 0 0 0 0.721389 0 0 0 0 0.816667 0 0 0 0.2 0"/>
<feBlend mode="normal" in2="BackgroundImageFix" result="effect1_dropShadow_7_1302"/>
<feBlend mode="normal" in="SourceGraphic" in2="effect1_dropShadow_7_1302" result="shape"/>
</filter>
</defs>
</svg>
