<svg width="303" height="288" viewBox="0 0 303 288" fill="none" xmlns="http://www.w3.org/2000/svg">
<g filter="url(#filter0_d_7_2786)">
<rect x="33" y="212" width="64" height="64" rx="12" fill="white" shape-rendering="crispEdges"/>
<path d="M56.0486 258.346C54.781 258.346 53.7852 257.35 53.7852 256.082V232.549C53.7852 231.281 54.781 230.285 56.0486 230.285H69.9873C70.4852 230.285 70.9374 230.467 71.2549 230.829L75.8707 235.445C76.2327 235.807 76.4143 236.259 76.4143 236.712V256.082C76.4143 257.35 75.4185 258.346 74.1509 258.346H56.0486Z" fill="white"/>
<path d="M69.9874 230.739C70.3493 230.739 70.7113 230.875 70.9374 231.147L75.5532 235.762C75.825 236.034 75.9609 236.35 75.9609 236.712V256.082C75.9609 257.078 75.1467 257.892 74.1509 257.892H56.0486C55.0528 257.892 54.2386 257.078 54.2386 256.082V232.549C54.2386 231.553 55.0528 230.739 56.0486 230.739H69.9874ZM69.9874 229.833H56.0486C54.5549 229.833 53.333 231.055 53.333 232.549V256.082C53.333 257.576 54.5549 258.798 56.0486 258.798H74.1509C75.6446 258.798 76.8665 257.576 76.8665 256.082V236.712C76.8665 236.124 76.6404 235.536 76.1883 235.129L71.5725 230.513C71.1191 230.059 70.5754 229.833 69.9874 229.833Z" fill="#FF2116"/>
<path d="M70.6555 242.89C70.4973 242.721 70.2367 242.585 69.8969 242.491C69.5571 242.398 69.1383 242.346 68.6639 242.346C68.3921 242.346 68.1042 242.364 67.8015 242.395C67.4988 242.425 67.1825 242.471 66.8539 242.528C66.6612 242.346 66.4697 242.149 66.2794 241.934C66.0904 241.719 65.9038 241.486 65.7222 241.238C65.5974 241.056 65.4739 240.876 65.3553 240.694C65.2366 240.513 65.123 240.332 65.0217 240.151C65.1909 239.62 65.338 239.098 65.443 238.615C65.548 238.131 65.6098 237.685 65.6098 237.301C65.6098 237.018 65.5641 236.638 65.4121 236.331C65.2589 236.022 64.9994 235.785 64.5695 235.785C64.4558 235.785 64.3372 235.818 64.2322 235.877C64.1272 235.937 64.037 236.022 63.9802 236.123C63.8109 236.428 63.7602 236.937 63.8331 237.549C63.9073 238.161 64.1049 238.872 64.4323 239.585C64.3187 239.925 64.1939 240.269 64.058 240.629C63.9221 240.989 63.7751 241.362 63.6169 241.758C63.481 242.087 63.334 242.414 63.1783 242.737C63.0227 243.059 62.8583 243.377 62.6891 243.681C61.7612 244.054 60.9977 244.444 60.4516 244.826C59.9055 245.208 59.5781 245.581 59.5213 245.921C59.4991 246.034 59.504 246.141 59.5386 246.243C59.5719 246.344 59.635 246.441 59.7251 246.531C59.782 246.577 59.866 246.638 59.9797 246.689C60.0933 246.74 60.2342 246.779 60.4047 246.779C60.9359 246.779 61.5018 246.389 62.0454 245.797C62.589 245.206 63.1091 244.415 63.5502 243.61C63.7985 243.52 64.0531 243.435 64.3137 243.356C64.5744 243.277 64.8401 243.204 65.1119 243.136C65.4059 243.057 65.6888 242.989 65.9668 242.929C66.2436 242.87 66.5154 242.82 66.7872 242.774C67.4321 243.362 68.0375 243.684 68.5552 243.86C69.0728 244.035 69.5028 244.064 69.7968 244.064C70.1477 244.064 70.3701 244.009 70.5184 243.923C70.6666 243.836 70.7395 243.718 70.7926 243.589C70.8396 243.435 70.8396 243.294 70.8112 243.174C70.7815 243.057 70.7234 242.958 70.6555 242.89ZM64.1618 236.237C64.2075 236.158 64.2631 236.096 64.3286 236.053C64.394 236.011 64.4669 235.987 64.546 235.987C64.7042 235.987 64.8289 236.055 64.913 236.189C64.9982 236.322 65.0427 236.52 65.0427 236.779C65.0427 237.051 64.997 237.413 64.913 237.837C64.8277 238.262 64.7042 238.747 64.546 239.268C64.2297 238.544 64.0704 237.894 64.0234 237.37C63.9752 236.848 64.037 236.452 64.1618 236.237ZM59.7264 245.945C59.7832 245.662 60.0773 245.34 60.5579 245.004C61.0385 244.667 61.7069 244.317 62.5099 243.977C62.0577 244.747 61.6043 245.368 61.1978 245.798C60.7901 246.228 60.4281 246.465 60.1563 246.465C60.0995 246.465 60.0488 246.454 60.0007 246.435C59.9525 246.415 59.908 246.386 59.8623 246.353C59.8055 246.296 59.7659 246.228 59.7437 246.158C59.7202 246.086 59.7153 246.013 59.7264 245.945ZM66.5833 242.574C66.3461 242.619 66.0965 242.67 65.842 242.726C65.5875 242.782 65.3281 242.844 65.0674 242.912C64.8413 242.969 64.6152 243.031 64.3916 243.099C64.168 243.167 63.948 243.24 63.7331 243.319C63.8578 243.081 63.9765 242.849 64.0839 242.623C64.1914 242.397 64.2878 242.176 64.3669 241.961C64.4682 241.713 64.5707 241.458 64.6696 241.2C64.7684 240.943 64.8648 240.682 64.955 240.421C65.0452 240.58 65.1415 240.738 65.2441 240.897C65.3454 241.055 65.4529 241.213 65.5665 241.373C65.7247 241.588 65.889 241.798 66.0595 241.998C66.2263 242.199 66.4017 242.392 66.5833 242.574ZM67.0355 242.71C67.5791 242.608 68.0882 242.563 68.5144 242.554C68.9419 242.545 69.2866 242.574 69.5015 242.619C69.7054 242.665 69.8635 242.755 69.9624 242.88C70.0612 243.005 70.1008 243.163 70.0674 243.343C70.034 243.536 69.9031 243.677 69.719 243.756C69.5349 243.835 69.2977 243.852 69.0481 243.796C68.6404 243.694 68.2735 243.535 67.9399 243.346C67.6063 243.157 67.3073 242.936 67.0355 242.71Z" fill="#FF2116"/>
<path d="M60.4876 250.613C60.4876 250.607 60.4876 250.6 60.4888 250.596C60.49 250.591 60.4913 250.586 60.4937 250.582C60.4962 250.578 60.4999 250.575 60.5061 250.573C60.511 250.571 60.5172 250.57 60.5259 250.57C60.5876 250.566 60.6556 250.563 60.731 250.561C60.8051 250.558 60.8854 250.556 60.9694 250.555C61.0534 250.554 61.1424 250.552 61.2338 250.551C61.3252 250.55 61.4179 250.55 61.513 250.55C61.7786 250.55 62.0072 250.586 62.1999 250.652C62.3927 250.719 62.5508 250.815 62.6744 250.934C62.7992 251.054 62.8893 251.196 62.9499 251.355C63.0092 251.515 63.0388 251.691 63.0388 251.878C63.0388 252.121 62.9944 252.33 62.9153 252.507C62.8362 252.682 62.7213 252.827 62.5792 252.94C62.4372 253.054 62.2679 253.137 62.0801 253.191C61.8923 253.246 61.686 253.272 61.4685 253.272C61.4315 253.272 61.4018 253.272 61.3746 253.27C61.3475 253.27 61.3252 253.269 61.303 253.268C61.2807 253.267 61.261 253.267 61.24 253.265C61.219 253.264 61.1967 253.264 61.1708 253.264V253.634V254.003V254.372V254.742C61.1708 254.75 61.1696 254.757 61.1683 254.762C61.1671 254.767 61.1646 254.771 61.1609 254.775C61.1572 254.779 61.1523 254.781 61.1473 254.783C61.1424 254.784 61.135 254.785 61.1275 254.785H60.9781H60.8286H60.6791H60.5296C60.5222 254.785 60.5147 254.784 60.5098 254.783C60.5049 254.781 60.4999 254.779 60.4962 254.775C60.4925 254.771 60.49 254.767 60.4888 254.762C60.4876 254.755 60.4863 254.749 60.4863 254.742V253.71V252.679V251.647C60.4876 251.644 60.4876 250.613 60.4876 250.613ZM61.1708 252.65C61.193 252.651 61.214 252.653 61.235 252.654C61.256 252.655 61.2783 252.655 61.3017 252.655C61.3252 252.655 61.3512 252.655 61.3808 252.656C61.4105 252.656 61.4426 252.656 61.4809 252.656C61.5933 252.656 61.7033 252.646 61.8058 252.622C61.9084 252.597 62.0023 252.559 62.0826 252.501C62.1629 252.443 62.2296 252.366 62.2753 252.266C62.321 252.166 62.3482 252.042 62.3482 251.89C62.3482 251.768 62.3297 251.662 62.2938 251.57C62.258 251.479 62.2049 251.402 62.1357 251.341C62.0665 251.28 61.9813 251.233 61.8812 251.202C61.7811 251.171 61.6662 251.156 61.5377 251.156C61.4994 251.156 61.4624 251.156 61.4265 251.158C61.3907 251.159 61.3561 251.159 61.324 251.16C61.2919 251.161 61.2622 251.163 61.2363 251.164C61.2103 251.165 61.1881 251.168 61.1708 251.169V251.539V251.91V252.281V252.65Z" fill="#2C2C2C"/>
<path d="M63.7222 250.619C63.7222 250.61 63.7222 250.604 63.7234 250.599C63.7247 250.593 63.7271 250.589 63.7296 250.584C63.7333 250.581 63.737 250.577 63.7432 250.575C63.7494 250.572 63.7568 250.57 63.7667 250.568C63.8037 250.567 63.8569 250.565 63.9223 250.562C63.9891 250.56 64.0681 250.558 64.1559 250.556C64.2436 250.554 64.3412 250.552 64.4437 250.551C64.545 250.55 64.6525 250.549 64.76 250.549C65.0812 250.549 65.3617 250.6 65.6026 250.697C65.8435 250.793 66.0437 250.935 66.2031 251.114C66.3637 251.294 66.4835 251.512 66.5638 251.761C66.6441 252.009 66.6837 252.288 66.6837 252.593C66.6837 253.016 66.6145 253.365 66.4971 253.651C66.3797 253.936 66.2142 254.159 66.0227 254.329C65.8312 254.5 65.6125 254.616 65.3876 254.69C65.164 254.764 64.9342 254.796 64.7205 254.796C64.6402 254.796 64.55 254.796 64.4585 254.795C64.3671 254.795 64.272 254.794 64.183 254.792C64.0928 254.791 64.0088 254.79 63.9359 254.789C63.863 254.788 63.8013 254.785 63.7593 254.784C63.7531 254.784 63.7469 254.783 63.742 254.78C63.737 254.778 63.7333 254.775 63.7296 254.77C63.7259 254.765 63.7247 254.76 63.7222 254.754C63.721 254.748 63.7197 254.741 63.7197 254.733V253.704V252.675V251.646L63.7222 250.619ZM64.4128 254.176C64.44 254.177 64.466 254.18 64.4919 254.181C64.5179 254.182 64.5438 254.183 64.5697 254.185C64.5957 254.186 64.6216 254.187 64.65 254.187C64.6772 254.187 64.7056 254.188 64.7365 254.188C64.9144 254.188 65.08 254.157 65.2283 254.093C65.3777 254.029 65.5099 253.934 65.6199 253.804C65.7299 253.674 65.8188 253.511 65.8794 253.312C65.9399 253.115 65.9745 252.881 65.9757 252.612C65.977 252.35 65.9448 252.126 65.8843 251.941C65.8238 251.756 65.7348 251.606 65.6248 251.49C65.5149 251.374 65.3839 251.29 65.2369 251.236C65.0911 251.181 64.9293 251.156 64.76 251.156C64.7266 251.156 64.6958 251.156 64.6649 251.158C64.634 251.159 64.6056 251.159 64.5772 251.16C64.5487 251.161 64.5216 251.163 64.4944 251.164C64.4672 251.165 64.44 251.168 64.4128 251.169V251.92V252.671V253.422C64.4128 253.424 64.4128 254.176 64.4128 254.176Z" fill="#2C2C2C"/>
<path d="M68.1337 254.733C68.1337 254.743 68.1325 254.751 68.1313 254.757C68.13 254.763 68.1276 254.769 68.1239 254.773C68.1201 254.776 68.1152 254.779 68.1103 254.781C68.1053 254.783 68.0979 254.784 68.0905 254.784H67.9398H67.789H67.6383H67.4876C67.4802 254.784 67.4728 254.783 67.4678 254.781C67.4629 254.78 67.4579 254.776 67.4542 254.773C67.4505 254.769 67.448 254.764 67.4468 254.757C67.4456 254.751 67.4443 254.742 67.4443 254.733V253.702V252.67V251.638V250.607C67.4443 250.599 67.4456 250.592 67.4468 250.587C67.448 250.582 67.4505 250.577 67.4542 250.573C67.4579 250.57 67.4629 250.567 67.4678 250.566C67.4728 250.565 67.4802 250.563 67.4876 250.563H68.0139H68.5402H69.0665H69.5928C69.6027 250.563 69.6101 250.565 69.6163 250.566C69.6225 250.567 69.6262 250.57 69.6299 250.573C69.6336 250.577 69.6361 250.582 69.6386 250.587C69.641 250.592 69.6423 250.599 69.6435 250.607L69.6596 250.74L69.6756 250.874L69.6917 251.007L69.7077 251.14C69.709 251.15 69.709 251.158 69.7077 251.164C69.7065 251.17 69.7028 251.176 69.6991 251.18C69.6954 251.184 69.6892 251.186 69.6818 251.189C69.6744 251.19 69.667 251.191 69.6571 251.191H69.2753H68.8948H68.513H68.1313V251.491V251.792V252.092V252.392H68.4735H68.8157H69.158H69.5002C69.5088 252.392 69.515 252.392 69.52 252.393C69.5261 252.394 69.5298 252.397 69.5335 252.399C69.5372 252.403 69.5397 252.407 69.541 252.413C69.5422 252.419 69.5434 252.427 69.5434 252.436V252.57V252.703V252.837V252.97C69.5434 252.98 69.5422 252.987 69.541 252.994C69.5397 253 69.5372 253.004 69.5335 253.007C69.5298 253.011 69.5249 253.012 69.52 253.013C69.5138 253.015 69.5076 253.015 69.5002 253.015H69.1592H68.817H68.4747H68.1325V253.445V253.875V254.305L68.1337 254.733Z" fill="#2C2C2C"/>
</g>
<g filter="url(#filter1_d_7_2786)">
<rect x="120" y="212" width="64" height="64" rx="12" fill="white" shape-rendering="crispEdges"/>
<path d="M139.902 252.807L141.159 255.01C141.42 255.473 141.796 255.838 142.237 256.103L146.727 248.22H137.747C137.747 248.734 137.878 249.247 138.139 249.711L139.902 252.807Z" fill="#0066DA"/>
<path d="M152 238.946L147.51 231.064C147.069 231.329 146.694 231.693 146.433 232.157L138.139 246.73C137.882 247.183 137.747 247.697 137.747 248.22H146.727L152 238.946Z" fill="#00AC47"/>
<path d="M161.763 256.103C162.204 255.838 162.579 255.473 162.84 255.01L163.363 254.099L165.861 249.711C166.122 249.247 166.253 248.734 166.253 248.22H157.272L159.183 252.029L161.763 256.103Z" fill="#EA4335"/>
<path d="M152 238.947L156.489 231.064C156.048 230.799 155.542 230.667 155.02 230.667H148.979C148.457 230.667 147.951 230.816 147.51 231.064L152 238.947Z" fill="#00832D"/>
<path d="M157.273 248.22H146.726L142.236 256.103C142.677 256.368 143.183 256.5 143.706 256.5H160.293C160.816 256.5 161.322 256.351 161.763 256.103L157.273 248.22Z" fill="#2684FC"/>
<path d="M161.714 239.443L157.567 232.157C157.306 231.693 156.931 231.329 156.49 231.064L152 238.946L157.273 248.22H166.237C166.237 247.707 166.106 247.193 165.845 246.73L161.714 239.443Z" fill="#FFBA00"/>
</g>
<g filter="url(#filter2_d_7_2786)">
<rect x="207" y="212" width="64" height="64" rx="12" fill="white" shape-rendering="crispEdges"/>
<path fill-rule="evenodd" clip-rule="evenodd" d="M236.692 229.843C236.148 231.615 235.03 235.49 234.406 239.307C236.027 239.569 237.61 239.736 239 239.736C240.389 239.736 241.973 239.569 243.594 239.307C242.969 235.49 241.851 231.615 241.307 229.843C240.557 229.722 239.786 229.659 239 229.659C238.213 229.659 237.443 229.722 236.692 229.843ZM243.939 230.532C244.536 232.6 245.364 235.746 245.881 238.885C248.113 238.425 250.218 237.864 251.748 237.424C250.109 234.253 247.321 231.773 243.939 230.532ZM252.648 239.584C251.033 240.054 248.692 240.686 246.199 241.194C246.303 242.158 246.364 243.105 246.364 244C246.364 245.306 246.233 246.728 246.029 248.157C249.013 247.534 251.751 246.739 253.156 246.307C253.278 245.557 253.341 244.786 253.341 244C253.341 242.458 253.098 240.974 252.648 239.584ZM252.468 248.939C250.728 249.441 248.228 250.106 245.612 250.612C245.106 253.228 244.441 255.728 243.939 257.468C247.885 256.02 251.02 252.886 252.468 248.939ZM241.307 258.157C241.739 256.751 242.534 254.013 243.156 251.029C241.727 251.234 240.306 251.364 239 251.364C237.694 251.364 236.272 251.234 234.843 251.029C235.465 254.013 236.26 256.751 236.692 258.157C237.443 258.278 238.213 258.341 239 258.341C239.786 258.341 240.557 258.278 241.307 258.157ZM234.061 257.468C233.558 255.728 232.893 253.228 232.387 250.612C229.772 250.106 227.271 249.441 225.531 248.939C226.979 252.886 230.114 256.02 234.061 257.468ZM224.843 246.307C226.249 246.739 228.986 247.534 231.971 248.157C231.766 246.728 231.635 245.306 231.635 244C231.635 243.105 231.697 242.158 231.801 241.194C229.307 240.686 226.967 240.054 225.351 239.584C224.902 240.974 224.659 242.458 224.659 244C224.659 244.786 224.722 245.557 224.843 246.307ZM226.252 237.424C227.781 237.864 229.887 238.425 232.119 238.885C232.635 235.746 233.463 232.6 234.061 230.532C230.678 231.773 227.891 234.253 226.252 237.424ZM234.095 241.613C234.009 242.451 233.961 243.254 233.961 244C233.961 245.392 234.129 246.981 234.392 248.608C236.019 248.871 237.607 249.039 239 249.039C240.392 249.039 241.98 248.871 243.607 248.608C243.87 246.981 244.038 245.392 244.038 244C244.038 243.254 243.99 242.451 243.905 241.613C242.226 241.882 240.533 242.062 239 242.062C237.467 242.062 235.774 241.882 234.095 241.613ZM235.552 227.691C236.665 227.456 237.819 227.333 239 227.333C240.181 227.333 241.334 227.456 242.447 227.691C247.905 228.839 252.375 232.653 254.437 237.706C255.23 239.65 255.666 241.775 255.666 244C255.666 245.181 255.543 246.334 255.309 247.448C253.954 253.887 248.886 258.954 242.447 260.309C241.334 260.544 240.181 260.667 239 260.667C237.819 260.667 236.665 260.544 235.552 260.309C229.113 258.954 224.045 253.887 222.69 247.448C222.456 246.334 222.333 245.181 222.333 244C222.333 241.774 222.77 239.646 223.564 237.702C225.627 232.651 230.096 228.838 235.552 227.691Z" fill="#356FEC"/>
</g>
<g filter="url(#filter3_d_7_2786)">
<rect x="12" y="12" width="279" height="124" rx="12" fill="white" shape-rendering="crispEdges"/>
<path d="M26.46 37.12C26.372 37.12 26.284 37.116 26.196 37.108C26.116 37.108 26.044 37.104 25.98 37.096V36.088C26.044 36.096 26.116 36.104 26.196 36.112C26.284 36.112 26.372 36.112 26.46 36.112C26.628 36.112 26.772 36.1 26.892 36.076C27.012 36.044 27.116 35.992 27.204 35.92C27.3 35.84 27.384 35.736 27.456 35.608C27.536 35.48 27.62 35.312 27.708 35.104L24.24 28.6H25.464L28.272 33.94L30.648 28.6H31.8L28.74 35.356C28.604 35.66 28.464 35.924 28.32 36.148C28.176 36.372 28.016 36.556 27.84 36.7C27.664 36.844 27.464 36.948 27.24 37.012C27.016 37.084 26.756 37.12 26.46 37.12ZM34.7442 37.12C34.3362 37.12 33.9562 37.056 33.6042 36.928C33.2522 36.792 32.9482 36.592 32.6922 36.328C32.4362 36.056 32.2322 35.716 32.0802 35.308C31.9362 34.9 31.8642 34.424 31.8642 33.88V33.64C31.8642 33.128 31.9442 32.676 32.1042 32.284C32.2642 31.892 32.4762 31.568 32.7402 31.312C33.0042 31.048 33.3082 30.852 33.6522 30.724C34.0042 30.588 34.3682 30.52 34.7442 30.52C35.1202 30.52 35.4562 30.572 35.7522 30.676C36.0562 30.78 36.3162 30.924 36.5322 31.108C36.7562 31.292 36.9362 31.508 37.0722 31.756C37.2162 32.004 37.3202 32.272 37.3842 32.56H36.3042C36.2402 32.408 36.1642 32.268 36.0762 32.14C35.9962 32.004 35.8922 31.888 35.7642 31.792C35.6442 31.696 35.5002 31.62 35.3322 31.564C35.1642 31.508 34.9682 31.48 34.7442 31.48C34.5122 31.48 34.2882 31.524 34.0722 31.612C33.8562 31.692 33.6642 31.82 33.4962 31.996C33.3282 32.164 33.1922 32.384 33.0882 32.656C32.9922 32.928 32.9442 33.256 32.9442 33.64V33.88C32.9442 34.288 32.9922 34.64 33.0882 34.936C33.1922 35.224 33.3282 35.46 33.4962 35.644C33.6642 35.82 33.8562 35.952 34.0722 36.04C34.2882 36.12 34.5122 36.16 34.7442 36.16C35.1362 36.16 35.4642 36.064 35.7282 35.872C36.0002 35.68 36.1922 35.416 36.3042 35.08H37.3842C37.2322 35.712 36.9202 36.212 36.4482 36.58C35.9762 36.94 35.4082 37.12 34.7442 37.12ZM38.5233 37.12C38.4033 37.12 38.2833 37.108 38.1633 37.084V36.028C38.2033 36.036 38.2633 36.04 38.3433 36.04C38.5193 36.04 38.6713 35.984 38.7993 35.872C38.9353 35.76 39.0433 35.564 39.1233 35.284C39.2033 35.004 39.2633 34.624 39.3033 34.144C39.3433 33.664 39.3633 33.056 39.3633 32.32V30.64H43.9233V37H42.8673V31.576H40.4193V32.56C40.4193 33.448 40.3793 34.184 40.2993 34.768C40.2193 35.352 40.0993 35.82 39.9393 36.172C39.7873 36.516 39.5913 36.76 39.3513 36.904C39.1113 37.048 38.8353 37.12 38.5233 37.12ZM48.4828 37.12C48.0748 37.12 47.6868 37.056 47.3188 36.928C46.9508 36.792 46.6268 36.592 46.3468 36.328C46.0668 36.056 45.8428 35.716 45.6748 35.308C45.5068 34.9 45.4228 34.424 45.4228 33.88V33.64C45.4228 33.128 45.5068 32.676 45.6748 32.284C45.8428 31.892 46.0668 31.568 46.3468 31.312C46.6268 31.048 46.9508 30.852 47.3188 30.724C47.6868 30.588 48.0748 30.52 48.4828 30.52C48.8908 30.52 49.2788 30.588 49.6468 30.724C50.0148 30.852 50.3388 31.048 50.6188 31.312C50.8988 31.568 51.1228 31.892 51.2908 32.284C51.4588 32.676 51.5428 33.128 51.5428 33.64V33.88C51.5428 34.424 51.4588 34.9 51.2908 35.308C51.1228 35.716 50.8988 36.056 50.6188 36.328C50.3388 36.592 50.0148 36.792 49.6468 36.928C49.2788 37.056 48.8908 37.12 48.4828 37.12ZM48.4828 36.16C48.7228 36.16 48.9628 36.12 49.2028 36.04C49.4428 35.952 49.6548 35.82 49.8388 35.644C50.0228 35.46 50.1708 35.224 50.2828 34.936C50.4028 34.648 50.4628 34.296 50.4628 33.88V33.64C50.4628 33.256 50.4028 32.928 50.2828 32.656C50.1708 32.384 50.0228 32.16 49.8388 31.984C49.6548 31.808 49.4428 31.68 49.2028 31.6C48.9628 31.52 48.7228 31.48 48.4828 31.48C48.2428 31.48 48.0028 31.52 47.7628 31.6C47.5228 31.68 47.3108 31.808 47.1268 31.984C46.9428 32.16 46.7908 32.384 46.6708 32.656C46.5588 32.928 46.5028 33.256 46.5028 33.64V33.88C46.5028 34.296 46.5588 34.648 46.6708 34.936C46.7908 35.224 46.9428 35.46 47.1268 35.644C47.3108 35.82 47.5228 35.952 47.7628 36.04C48.0028 36.12 48.2428 36.16 48.4828 36.16ZM53.0381 30.64H55.7981C56.5821 30.64 57.1581 30.804 57.5261 31.132C57.8941 31.452 58.0781 31.868 58.0781 32.38C58.0781 32.516 58.0541 32.656 58.0061 32.8C57.9581 32.936 57.8901 33.064 57.8021 33.184C57.7221 33.304 57.6221 33.408 57.5021 33.496C57.3901 33.584 57.2621 33.652 57.1181 33.7C57.5101 33.796 57.8061 33.98 58.0061 34.252C58.2141 34.516 58.3181 34.828 58.3181 35.188C58.3181 35.74 58.1341 36.18 57.7661 36.508C57.3981 36.836 56.8221 37 56.0381 37H53.0381V30.64ZM56.0381 36.064C56.4861 36.064 56.8021 35.984 56.9861 35.824C57.1701 35.664 57.2621 35.436 57.2621 35.14C57.2621 34.836 57.1701 34.604 56.9861 34.444C56.8021 34.276 56.4861 34.192 56.0381 34.192H54.0941V36.064H56.0381ZM55.7981 33.328C56.2541 33.328 56.5701 33.248 56.7461 33.088C56.9301 32.928 57.0221 32.708 57.0221 32.428C57.0221 32.164 56.9301 31.956 56.7461 31.804C56.5701 31.652 56.2541 31.576 55.7981 31.576H54.0941V33.328H55.7981ZM59.8233 30.64H60.8793V35.44L64.1673 30.64H65.2233V37H64.1673V32.2L60.8793 37H59.8233V30.64ZM68.3955 34.48C67.8675 34.36 67.4875 34.144 67.2555 33.832C67.0235 33.512 66.9075 33.104 66.9075 32.608C66.9075 31.984 67.0955 31.5 67.4715 31.156C67.8555 30.812 68.4675 30.64 69.3075 30.64H72.0675V37H71.0115V34.576H69.3915L67.8435 37H66.6675L68.3955 34.48ZM67.9635 32.608C67.9635 32.944 68.0595 33.2 68.2515 33.376C68.4515 33.552 68.7835 33.64 69.2475 33.64H71.0115V31.576H69.2475C68.7835 31.576 68.4515 31.664 68.2515 31.84C68.0595 32.016 67.9635 32.272 67.9635 32.608ZM76.2713 36.064H77.0513C77.1393 35.944 77.2193 35.76 77.2913 35.512C77.3633 35.264 77.4273 34.972 77.4833 34.636C77.5393 34.3 77.5793 33.936 77.6033 33.544C77.6353 33.144 77.6513 32.736 77.6513 32.32V30.64H82.0912V36.064H82.9913V38.5H81.9833V37H77.2793V38.5H76.2713V36.064ZM81.0353 36.064V31.576H78.6833V32.56C78.6833 32.896 78.6713 33.232 78.6473 33.568C78.6233 33.896 78.5873 34.212 78.5393 34.516C78.4913 34.812 78.4313 35.096 78.3593 35.368C78.2953 35.632 78.2193 35.864 78.1313 36.064H81.0353ZM86.8969 37.12C86.4889 37.12 86.1009 37.056 85.7329 36.928C85.3649 36.792 85.0409 36.592 84.7609 36.328C84.4809 36.056 84.2569 35.716 84.0889 35.308C83.9209 34.9 83.8369 34.424 83.8369 33.88V33.64C83.8369 33.128 83.9209 32.676 84.0889 32.284C84.2569 31.892 84.4809 31.568 84.7609 31.312C85.0409 31.048 85.3649 30.852 85.7329 30.724C86.1009 30.588 86.4889 30.52 86.8969 30.52C87.3049 30.52 87.6929 30.588 88.0609 30.724C88.4289 30.852 88.7529 31.048 89.0329 31.312C89.3129 31.568 89.5369 31.892 89.7049 32.284C89.8729 32.676 89.9569 33.128 89.9569 33.64V33.88C89.9569 34.424 89.8729 34.9 89.7049 35.308C89.5369 35.716 89.3129 36.056 89.0329 36.328C88.7529 36.592 88.4289 36.792 88.0609 36.928C87.6929 37.056 87.3049 37.12 86.8969 37.12ZM86.8969 36.16C87.1369 36.16 87.3769 36.12 87.6169 36.04C87.8569 35.952 88.0689 35.82 88.2529 35.644C88.4369 35.46 88.5849 35.224 88.6969 34.936C88.8169 34.648 88.8769 34.296 88.8769 33.88V33.64C88.8769 33.256 88.8169 32.928 88.6969 32.656C88.5849 32.384 88.4369 32.16 88.2529 31.984C88.0689 31.808 87.8569 31.68 87.6169 31.6C87.3769 31.52 87.1369 31.48 86.8969 31.48C86.6569 31.48 86.4169 31.52 86.1769 31.6C85.9369 31.68 85.7249 31.808 85.5409 31.984C85.3569 32.16 85.2049 32.384 85.0849 32.656C84.9729 32.928 84.9169 33.256 84.9169 33.64V33.88C84.9169 34.296 84.9729 34.648 85.0849 34.936C85.2049 35.224 85.3569 35.46 85.5409 35.644C85.7249 35.82 85.9369 35.952 86.1769 36.04C86.4169 36.12 86.6569 36.16 86.8969 36.16ZM93.9122 37.12C93.5042 37.12 93.1242 37.056 92.7722 36.928C92.4202 36.792 92.1162 36.592 91.8602 36.328C91.6042 36.056 91.4002 35.716 91.2482 35.308C91.1042 34.9 91.0322 34.424 91.0322 33.88V33.64C91.0322 33.128 91.1122 32.676 91.2722 32.284C91.4322 31.892 91.6442 31.568 91.9082 31.312C92.1722 31.048 92.4762 30.852 92.8202 30.724C93.1722 30.588 93.5362 30.52 93.9122 30.52C94.2882 30.52 94.6242 30.572 94.9202 30.676C95.2242 30.78 95.4842 30.924 95.7002 31.108C95.9242 31.292 96.1042 31.508 96.2402 31.756C96.3842 32.004 96.4882 32.272 96.5522 32.56H95.4722C95.4082 32.408 95.3322 32.268 95.2442 32.14C95.1642 32.004 95.0602 31.888 94.9322 31.792C94.8122 31.696 94.6682 31.62 94.5002 31.564C94.3322 31.508 94.1362 31.48 93.9122 31.48C93.6802 31.48 93.4562 31.524 93.2402 31.612C93.0242 31.692 92.8322 31.82 92.6642 31.996C92.4962 32.164 92.3602 32.384 92.2562 32.656C92.1602 32.928 92.1122 33.256 92.1122 33.64V33.88C92.1122 34.288 92.1602 34.64 92.2562 34.936C92.3602 35.224 92.4962 35.46 92.6642 35.644C92.8322 35.82 93.0242 35.952 93.2402 36.04C93.4562 36.12 93.6802 36.16 93.9122 36.16C94.3042 36.16 94.6322 36.064 94.8962 35.872C95.1682 35.68 95.3602 35.416 95.4722 35.08H96.5522C96.4002 35.712 96.0882 36.212 95.6162 36.58C95.1442 36.94 94.5762 37.12 93.9122 37.12ZM99.4433 31.576H97.2713V30.64H102.671V31.576H100.499V37H99.4433V31.576ZM105.452 37.12C105.1 37.12 104.788 37.072 104.516 36.976C104.252 36.872 104.028 36.732 103.844 36.556C103.66 36.38 103.52 36.172 103.424 35.932C103.328 35.692 103.28 35.428 103.28 35.14C103.28 34.508 103.464 34.052 103.832 33.772C104.208 33.492 104.744 33.352 105.44 33.352H107.504V32.92C107.504 32.376 107.38 32 107.132 31.792C106.892 31.584 106.528 31.48 106.04 31.48C105.584 31.48 105.252 31.568 105.044 31.744C104.836 31.912 104.72 32.104 104.696 32.32H103.64C103.656 32.064 103.724 31.828 103.844 31.612C103.972 31.388 104.14 31.196 104.348 31.036C104.564 30.876 104.82 30.752 105.116 30.664C105.412 30.568 105.74 30.52 106.1 30.52C106.852 30.52 107.448 30.7 107.888 31.06C108.336 31.412 108.56 31.992 108.56 32.8V35.38C108.56 35.716 108.56 36.012 108.56 36.268C108.568 36.516 108.588 36.76 108.62 37H107.696C107.672 36.816 107.656 36.644 107.648 36.484C107.64 36.316 107.636 36.128 107.636 35.92C107.468 36.256 107.196 36.54 106.82 36.772C106.444 37.004 105.988 37.12 105.452 37.12ZM105.68 36.16C105.928 36.16 106.16 36.128 106.376 36.064C106.6 35.992 106.796 35.892 106.964 35.764C107.132 35.628 107.264 35.464 107.36 35.272C107.456 35.08 107.504 34.856 107.504 34.6V34.168H105.62C105.228 34.168 104.92 34.248 104.696 34.408C104.472 34.56 104.36 34.804 104.36 35.14C104.36 35.436 104.464 35.68 104.672 35.872C104.888 36.064 105.224 36.16 105.68 36.16ZM110.425 30.64H113.185C113.969 30.64 114.545 30.804 114.913 31.132C115.281 31.452 115.465 31.868 115.465 32.38C115.465 32.516 115.441 32.656 115.393 32.8C115.345 32.936 115.277 33.064 115.189 33.184C115.109 33.304 115.009 33.408 114.889 33.496C114.777 33.584 114.649 33.652 114.505 33.7C114.897 33.796 115.193 33.98 115.393 34.252C115.601 34.516 115.705 34.828 115.705 35.188C115.705 35.74 115.521 36.18 115.153 36.508C114.785 36.836 114.209 37 113.425 37H110.425V30.64ZM113.425 36.064C113.873 36.064 114.189 35.984 114.373 35.824C114.557 35.664 114.649 35.436 114.649 35.14C114.649 34.836 114.557 34.604 114.373 34.444C114.189 34.276 113.873 34.192 113.425 34.192H111.481V36.064H113.425ZM113.185 33.328C113.641 33.328 113.957 33.248 114.133 33.088C114.317 32.928 114.409 32.708 114.409 32.428C114.409 32.164 114.317 31.956 114.133 31.804C113.957 31.652 113.641 31.576 113.185 31.576H111.481V33.328H113.185ZM117.21 30.64H118.266V33.304H119.106L121.482 30.64H122.73L119.97 33.688L122.85 37H121.506L119.106 34.216H118.266V37H117.21V30.64ZM124.112 30.64H125.168V35.44L128.456 30.64H129.512V37H128.456V32.2L125.168 37H124.112V30.64Z" fill="#666679"/>
<rect x="102" y="68" width="52" height="21" fill="#E9EFFF"/>
<path d="M25.4 53.2H28.9C29.488 53.2 29.992 53.2653 30.412 53.396C30.832 53.5267 31.1773 53.7087 31.448 53.942C31.728 54.166 31.9333 54.4413 32.064 54.768C32.1947 55.0853 32.26 55.4353 32.26 55.818C32.26 56.322 32.12 56.756 31.84 57.12C31.56 57.4747 31.2147 57.7313 30.804 57.89C31.3827 58.0207 31.84 58.2867 32.176 58.688C32.512 59.08 32.68 59.5933 32.68 60.228C32.68 60.6293 32.6147 60.998 32.484 61.334C32.3533 61.67 32.148 61.964 31.868 62.216C31.588 62.4587 31.224 62.65 30.776 62.79C30.3373 62.93 29.8053 63 29.18 63H25.4V53.2ZM29.18 61.852C29.6 61.852 29.95 61.8147 30.23 61.74C30.51 61.656 30.734 61.544 30.902 61.404C31.07 61.2547 31.1867 61.0773 31.252 60.872C31.3267 60.6667 31.364 60.438 31.364 60.186C31.364 59.934 31.3267 59.7053 31.252 59.5C31.1867 59.2853 31.07 59.108 30.902 58.968C30.734 58.8187 30.5053 58.7067 30.216 58.632C29.936 58.548 29.586 58.506 29.166 58.506H26.716V61.852H29.18ZM28.9 57.414C29.292 57.414 29.6187 57.3767 29.88 57.302C30.1413 57.2273 30.3513 57.12 30.51 56.98C30.6687 56.84 30.7807 56.6767 30.846 56.49C30.9113 56.3033 30.944 56.098 30.944 55.874C30.944 55.65 30.9113 55.4447 30.846 55.258C30.7807 55.062 30.6687 54.8987 30.51 54.768C30.3513 54.6373 30.1413 54.5347 29.88 54.46C29.6187 54.3853 29.292 54.348 28.9 54.348H26.716V57.414H28.9ZM34.4989 55.58H35.6469V56.98C35.8989 56.4853 36.2489 56.1073 36.6969 55.846C37.1542 55.5753 37.6816 55.44 38.2789 55.44C39.2122 55.44 39.9589 55.748 40.5189 56.364C41.0789 56.9707 41.3589 57.876 41.3589 59.08V59.36C41.3589 59.9947 41.2842 60.55 41.1349 61.026C40.9856 61.4927 40.7756 61.8847 40.5049 62.202C40.2342 62.51 39.9076 62.7433 39.5249 62.902C39.1516 63.0607 38.7362 63.14 38.2789 63.14C37.6442 63.14 37.1122 63 36.6829 62.72C36.2629 62.44 35.9456 62.09 35.7309 61.67V65.8H34.4989V55.58ZM37.9989 62.048C38.2976 62.048 38.5776 61.992 38.8389 61.88C39.1002 61.7587 39.3242 61.586 39.5109 61.362C39.7069 61.138 39.8562 60.858 39.9589 60.522C40.0709 60.186 40.1269 59.7987 40.1269 59.36V59.08C40.1269 58.6787 40.0709 58.3193 39.9589 58.002C39.8562 57.6847 39.7069 57.4187 39.5109 57.204C39.3242 56.98 39.1002 56.812 38.8389 56.7C38.5776 56.588 38.2976 56.532 37.9989 56.532C37.6629 56.532 37.3549 56.588 37.0749 56.7C36.7949 56.8027 36.5569 56.952 36.3609 57.148C36.1649 57.3347 36.0109 57.5587 35.8989 57.82C35.7869 58.0813 35.7309 58.3613 35.7309 58.66V59.78C35.7309 60.116 35.7869 60.424 35.8989 60.704C36.0109 60.984 36.1649 61.222 36.3609 61.418C36.5569 61.614 36.7949 61.768 37.0749 61.88C37.3549 61.992 37.6629 62.048 37.9989 62.048ZM46.1922 63.14C45.7162 63.14 45.2635 63.0653 44.8342 62.916C44.4049 62.7667 44.0269 62.538 43.7002 62.23C43.3735 61.9127 43.1122 61.516 42.9162 61.04C42.7202 60.564 42.6222 60.004 42.6222 59.36V59.08C42.6222 58.464 42.7155 57.932 42.9022 57.484C43.0889 57.0267 43.3362 56.6487 43.6442 56.35C43.9615 56.042 44.3255 55.8133 44.7362 55.664C45.1562 55.5147 45.5949 55.44 46.0522 55.44C47.1442 55.44 47.9889 55.7387 48.5862 56.336C49.1835 56.9333 49.4822 57.778 49.4822 58.87V59.654H43.8542C43.8542 60.0927 43.9242 60.4613 44.0642 60.76C44.2042 61.0587 44.3862 61.3013 44.6102 61.488C44.8342 61.6747 45.0815 61.81 45.3522 61.894C45.6322 61.978 45.9122 62.02 46.1922 62.02C46.7522 62.02 47.1815 61.9267 47.4802 61.74C47.7882 61.5533 48.0075 61.2967 48.1382 60.97H49.3422C49.2675 61.3247 49.1322 61.6373 48.9362 61.908C48.7495 62.1787 48.5162 62.4073 48.2362 62.594C47.9655 62.7713 47.6529 62.9067 47.2982 63C46.9529 63.0933 46.5842 63.14 46.1922 63.14ZM46.1222 56.56C45.8329 56.56 45.5529 56.602 45.2822 56.686C45.0115 56.7607 44.7689 56.8867 44.5542 57.064C44.3489 57.232 44.1809 57.4467 44.0502 57.708C43.9195 57.9693 43.8542 58.282 43.8542 58.646H48.3202C48.3109 58.2633 48.2455 57.9413 48.1242 57.68C48.0122 57.4093 47.8582 57.1947 47.6622 57.036C47.4662 56.868 47.2329 56.7467 46.9622 56.672C46.7009 56.5973 46.4209 56.56 46.1222 56.56ZM51.2333 55.58H52.5493L55.1953 60.2L57.8413 55.58H59.0733V63H57.8413V57.61L55.6433 61.39H54.6633L52.4653 57.61V63H51.2333V55.58ZM62.7655 60.06C62.1495 59.92 61.7061 59.668 61.4355 59.304C61.1648 58.9307 61.0295 58.4547 61.0295 57.876C61.0295 57.148 61.2488 56.5833 61.6875 56.182C62.1355 55.7807 62.8495 55.58 63.8295 55.58H67.0495V63H65.8175V60.172H63.9275L62.1215 63H60.7495L62.7655 60.06ZM62.2615 57.876C62.2615 58.268 62.3735 58.5667 62.5975 58.772C62.8308 58.9773 63.2181 59.08 63.7595 59.08H65.8175V56.672H63.7595C63.2181 56.672 62.8308 56.7747 62.5975 56.98C62.3735 57.1853 62.2615 57.484 62.2615 57.876ZM71.9538 61.908H72.8638C72.9665 61.768 73.0598 61.5533 73.1438 61.264C73.2278 60.9747 73.3025 60.634 73.3678 60.242C73.4332 59.85 73.4798 59.4253 73.5078 58.968C73.5452 58.5013 73.5638 58.0253 73.5638 57.54V55.58H78.7438V61.908H79.7938V64.75H78.6178V63H73.1298V64.75H71.9538V61.908ZM77.5118 61.908V56.672H74.7678V57.82C74.7678 58.212 74.7538 58.604 74.7258 58.996C74.6978 59.3787 74.6558 59.7473 74.5998 60.102C74.5438 60.4473 74.4738 60.7787 74.3898 61.096C74.3152 61.404 74.2265 61.6747 74.1238 61.908H77.5118ZM84.3504 63.14C83.8744 63.14 83.4217 63.0653 82.9924 62.916C82.5631 62.7573 82.1851 62.524 81.8584 62.216C81.5317 61.8987 81.2704 61.502 81.0744 61.026C80.8784 60.55 80.7804 59.9947 80.7804 59.36V59.08C80.7804 58.4827 80.8784 57.9553 81.0744 57.498C81.2704 57.0407 81.5317 56.6627 81.8584 56.364C82.1851 56.056 82.5631 55.8273 82.9924 55.678C83.4217 55.5193 83.8744 55.44 84.3504 55.44C84.8264 55.44 85.2791 55.5193 85.7084 55.678C86.1377 55.8273 86.5157 56.056 86.8424 56.364C87.1691 56.6627 87.4304 57.0407 87.6264 57.498C87.8224 57.9553 87.9204 58.4827 87.9204 59.08V59.36C87.9204 59.9947 87.8224 60.55 87.6264 61.026C87.4304 61.502 87.1691 61.8987 86.8424 62.216C86.5157 62.524 86.1377 62.7573 85.7084 62.916C85.2791 63.0653 84.8264 63.14 84.3504 63.14ZM84.3504 62.02C84.6304 62.02 84.9104 61.9733 85.1904 61.88C85.4704 61.7773 85.7177 61.6233 85.9324 61.418C86.1471 61.2033 86.3197 60.928 86.4504 60.592C86.5904 60.256 86.6604 59.8453 86.6604 59.36V59.08C86.6604 58.632 86.5904 58.2493 86.4504 57.932C86.3197 57.6147 86.1471 57.3533 85.9324 57.148C85.7177 56.9427 85.4704 56.7933 85.1904 56.7C84.9104 56.6067 84.6304 56.56 84.3504 56.56C84.0704 56.56 83.7904 56.6067 83.5104 56.7C83.2304 56.7933 82.9831 56.9427 82.7684 57.148C82.5537 57.3533 82.3764 57.6147 82.2364 57.932C82.1057 58.2493 82.0404 58.632 82.0404 59.08V59.36C82.0404 59.8453 82.1057 60.256 82.2364 60.592C82.3764 60.928 82.5537 61.2033 82.7684 61.418C82.9831 61.6233 83.2304 61.7773 83.5104 61.88C83.7904 61.9733 84.0704 62.02 84.3504 62.02ZM92.5349 63.14C92.0589 63.14 91.6156 63.0653 91.2049 62.916C90.7943 62.7573 90.4396 62.524 90.1409 62.216C89.8423 61.8987 89.6043 61.502 89.4269 61.026C89.2589 60.55 89.1749 59.9947 89.1749 59.36V59.08C89.1749 58.4827 89.2683 57.9553 89.4549 57.498C89.6416 57.0407 89.8889 56.6627 90.1969 56.364C90.5049 56.056 90.8596 55.8273 91.2609 55.678C91.6716 55.5193 92.0963 55.44 92.5349 55.44C92.9736 55.44 93.3656 55.5007 93.7109 55.622C94.0656 55.7433 94.3689 55.9113 94.6209 56.126C94.8823 56.3407 95.0923 56.5927 95.2509 56.882C95.4189 57.1713 95.5403 57.484 95.6149 57.82H94.3549C94.2803 57.6427 94.1916 57.4793 94.0889 57.33C93.9956 57.1713 93.8743 57.036 93.7249 56.924C93.5849 56.812 93.4169 56.7233 93.2209 56.658C93.0249 56.5927 92.7963 56.56 92.5349 56.56C92.2643 56.56 92.0029 56.6113 91.7509 56.714C91.4989 56.8073 91.2749 56.9567 91.0789 57.162C90.8829 57.358 90.7243 57.6147 90.6029 57.932C90.4909 58.2493 90.4349 58.632 90.4349 59.08V59.36C90.4349 59.836 90.4909 60.2467 90.6029 60.592C90.7243 60.928 90.8829 61.2033 91.0789 61.418C91.2749 61.6233 91.4989 61.7773 91.7509 61.88C92.0029 61.9733 92.2643 62.02 92.5349 62.02C92.9923 62.02 93.3749 61.908 93.6829 61.684C94.0003 61.46 94.2243 61.152 94.3549 60.76H95.6149C95.4376 61.4973 95.0736 62.0807 94.5229 62.51C93.9723 62.93 93.3096 63.14 92.5349 63.14ZM98.9878 56.672H96.4538V55.58H102.754V56.672H100.22V63H98.9878V56.672ZM105.998 63.14C105.587 63.14 105.223 63.084 104.906 62.972C104.598 62.8507 104.336 62.6873 104.122 62.482C103.907 62.2767 103.744 62.034 103.632 61.754C103.52 61.474 103.464 61.166 103.464 60.83C103.464 60.0927 103.678 59.5607 104.108 59.234C104.546 58.9073 105.172 58.744 105.984 58.744H108.392V58.24C108.392 57.6053 108.247 57.1667 107.958 56.924C107.678 56.6813 107.253 56.56 106.684 56.56C106.152 56.56 105.764 56.6627 105.522 56.868C105.279 57.064 105.144 57.288 105.116 57.54H103.884C103.902 57.2413 103.982 56.966 104.122 56.714C104.271 56.4527 104.467 56.2287 104.71 56.042C104.962 55.8553 105.26 55.7107 105.606 55.608C105.951 55.496 106.334 55.44 106.754 55.44C107.631 55.44 108.326 55.65 108.84 56.07C109.362 56.4807 109.624 57.1573 109.624 58.1V61.11C109.624 61.502 109.624 61.8473 109.624 62.146C109.633 62.4353 109.656 62.72 109.694 63H108.616C108.588 62.7853 108.569 62.5847 108.56 62.398C108.55 62.202 108.546 61.9827 108.546 61.74C108.35 62.132 108.032 62.4633 107.594 62.734C107.155 63.0047 106.623 63.14 105.998 63.14ZM106.264 62.02C106.553 62.02 106.824 61.9827 107.076 61.908C107.337 61.824 107.566 61.7073 107.762 61.558C107.958 61.3993 108.112 61.208 108.224 60.984C108.336 60.76 108.392 60.4987 108.392 60.2V59.696H106.194C105.736 59.696 105.377 59.7893 105.116 59.976C104.854 60.1533 104.724 60.438 104.724 60.83C104.724 61.1753 104.845 61.46 105.088 61.684C105.34 61.908 105.732 62.02 106.264 62.02ZM111.8 55.58H115.02C115.934 55.58 116.606 55.7713 117.036 56.154C117.465 56.5273 117.68 57.0127 117.68 57.61C117.68 57.7687 117.652 57.932 117.596 58.1C117.54 58.2587 117.46 58.408 117.358 58.548C117.264 58.688 117.148 58.8093 117.008 58.912C116.877 59.0147 116.728 59.094 116.56 59.15C117.017 59.262 117.362 59.4767 117.596 59.794C117.838 60.102 117.96 60.466 117.96 60.886C117.96 61.53 117.745 62.0433 117.316 62.426C116.886 62.8087 116.214 63 115.3 63H111.8V55.58ZM115.3 61.908C115.822 61.908 116.191 61.8147 116.406 61.628C116.62 61.4413 116.728 61.1753 116.728 60.83C116.728 60.4753 116.62 60.2047 116.406 60.018C116.191 59.822 115.822 59.724 115.3 59.724H113.032V61.908H115.3ZM115.02 58.716C115.552 58.716 115.92 58.6227 116.126 58.436C116.34 58.2493 116.448 57.9927 116.448 57.666C116.448 57.358 116.34 57.1153 116.126 56.938C115.92 56.7607 115.552 56.672 115.02 56.672H113.032V58.716H115.02ZM119.716 55.58H120.948V58.688H121.928L124.7 55.58H126.156L122.936 59.136L126.296 63H124.728L121.928 59.752H120.948V63H119.716V55.58ZM127.768 55.58H129V61.18L132.836 55.58H134.068V63H132.836V57.4L129 63H127.768V55.58ZM142.333 63.14C141.4 63.14 140.667 62.944 140.135 62.552C139.603 62.16 139.309 61.6093 139.253 60.9H140.485C140.551 61.264 140.742 61.544 141.059 61.74C141.386 61.9267 141.811 62.02 142.333 62.02C142.977 62.02 143.444 61.9127 143.733 61.698C144.032 61.474 144.181 61.208 144.181 60.9C144.181 60.536 144.06 60.2513 143.817 60.046C143.575 59.8313 143.155 59.724 142.557 59.724H141.283V58.716H142.473C142.987 58.716 143.351 58.618 143.565 58.422C143.789 58.226 143.901 57.9507 143.901 57.596C143.901 57.316 143.771 57.0733 143.509 56.868C143.248 56.6627 142.856 56.56 142.333 56.56C141.764 56.56 141.349 56.6533 141.087 56.84C140.835 57.0173 140.681 57.274 140.625 57.61H139.393C139.421 57.302 139.505 57.0173 139.645 56.756C139.795 56.4853 139.995 56.252 140.247 56.056C140.499 55.86 140.798 55.7107 141.143 55.608C141.498 55.496 141.895 55.44 142.333 55.44C142.809 55.44 143.22 55.496 143.565 55.608C143.92 55.7107 144.214 55.86 144.447 56.056C144.681 56.2427 144.853 56.4667 144.965 56.728C145.077 56.9893 145.133 57.2787 145.133 57.596C145.133 57.9507 145.045 58.2633 144.867 58.534C144.69 58.7953 144.405 59.0007 144.013 59.15C144.536 59.29 144.9 59.514 145.105 59.822C145.311 60.13 145.413 60.4893 145.413 60.9C145.413 61.208 145.348 61.4973 145.217 61.768C145.087 62.0387 144.891 62.2767 144.629 62.482C144.377 62.678 144.055 62.8367 143.663 62.958C143.281 63.0793 142.837 63.14 142.333 63.14ZM149.283 63.14C148.872 63.14 148.508 63.084 148.191 62.972C147.883 62.8507 147.621 62.6873 147.407 62.482C147.192 62.2767 147.029 62.034 146.917 61.754C146.805 61.474 146.749 61.166 146.749 60.83C146.749 60.0927 146.963 59.5607 147.393 59.234C147.831 58.9073 148.457 58.744 149.269 58.744H151.677V58.24C151.677 57.6053 151.532 57.1667 151.243 56.924C150.963 56.6813 150.538 56.56 149.969 56.56C149.437 56.56 149.049 56.6627 148.807 56.868C148.564 57.064 148.429 57.288 148.401 57.54H147.169C147.187 57.2413 147.267 56.966 147.407 56.714C147.556 56.4527 147.752 56.2287 147.995 56.042C148.247 55.8553 148.545 55.7107 148.891 55.608C149.236 55.496 149.619 55.44 150.039 55.44C150.916 55.44 151.611 55.65 152.125 56.07C152.647 56.4807 152.909 57.1573 152.909 58.1V61.11C152.909 61.502 152.909 61.8473 152.909 62.146C152.918 62.4353 152.941 62.72 152.979 63H151.901C151.873 62.7853 151.854 62.5847 151.845 62.398C151.835 62.202 151.831 61.9827 151.831 61.74C151.635 62.132 151.317 62.4633 150.879 62.734C150.44 63.0047 149.908 63.14 149.283 63.14ZM149.549 62.02C149.838 62.02 150.109 61.9827 150.361 61.908C150.622 61.824 150.851 61.7073 151.047 61.558C151.243 61.3993 151.397 61.208 151.509 60.984C151.621 60.76 151.677 60.4987 151.677 60.2V59.696H149.479C149.021 59.696 148.662 59.7893 148.401 59.976C148.139 60.1533 148.009 60.438 148.009 60.83C148.009 61.1753 148.13 61.46 148.373 61.684C148.625 61.908 149.017 62.02 149.549 62.02ZM155.085 55.58H156.317V58.688H157.297L160.069 55.58H161.525L158.305 59.136L161.665 63H160.097L157.297 59.752H156.317V63H155.085V55.58ZM165.115 63.14C164.704 63.14 164.34 63.084 164.023 62.972C163.715 62.8507 163.454 62.6873 163.239 62.482C163.024 62.2767 162.861 62.034 162.749 61.754C162.637 61.474 162.581 61.166 162.581 60.83C162.581 60.0927 162.796 59.5607 163.225 59.234C163.664 58.9073 164.289 58.744 165.101 58.744H167.509V58.24C167.509 57.6053 167.364 57.1667 167.075 56.924C166.795 56.6813 166.37 56.56 165.801 56.56C165.269 56.56 164.882 56.6627 164.639 56.868C164.396 57.064 164.261 57.288 164.233 57.54H163.001C163.02 57.2413 163.099 56.966 163.239 56.714C163.388 56.4527 163.584 56.2287 163.827 56.042C164.079 55.8553 164.378 55.7107 164.723 55.608C165.068 55.496 165.451 55.44 165.871 55.44C166.748 55.44 167.444 55.65 167.957 56.07C168.48 56.4807 168.741 57.1573 168.741 58.1V61.11C168.741 61.502 168.741 61.8473 168.741 62.146C168.75 62.4353 168.774 62.72 168.811 63H167.733C167.705 62.7853 167.686 62.5847 167.677 62.398C167.668 62.202 167.663 61.9827 167.663 61.74C167.467 62.132 167.15 62.4633 166.711 62.734C166.272 63.0047 165.74 63.14 165.115 63.14ZM165.381 62.02C165.67 62.02 165.941 61.9827 166.193 61.908C166.454 61.824 166.683 61.7073 166.879 61.558C167.075 61.3993 167.229 61.208 167.341 60.984C167.453 60.76 167.509 60.4987 167.509 60.2V59.696H165.311C164.854 59.696 164.494 59.7893 164.233 59.976C163.972 60.1533 163.841 60.438 163.841 60.83C163.841 61.1753 163.962 61.46 164.205 61.684C164.457 61.908 164.849 62.02 165.381 62.02ZM173.437 63.14C172.504 63.14 171.771 62.944 171.239 62.552C170.707 62.16 170.413 61.6093 170.357 60.9H171.589C171.654 61.264 171.846 61.544 172.163 61.74C172.49 61.9267 172.914 62.02 173.437 62.02C174.081 62.02 174.548 61.9127 174.837 61.698C175.136 61.474 175.285 61.208 175.285 60.9C175.285 60.536 175.164 60.2513 174.921 60.046C174.678 59.8313 174.258 59.724 173.661 59.724H172.387V58.716H173.577C174.09 58.716 174.454 58.618 174.669 58.422C174.893 58.226 175.005 57.9507 175.005 57.596C175.005 57.316 174.874 57.0733 174.613 56.868C174.352 56.6627 173.96 56.56 173.437 56.56C172.868 56.56 172.452 56.6533 172.191 56.84C171.939 57.0173 171.785 57.274 171.729 57.61H170.497C170.525 57.302 170.609 57.0173 170.749 56.756C170.898 56.4853 171.099 56.252 171.351 56.056C171.603 55.86 171.902 55.7107 172.247 55.608C172.602 55.496 172.998 55.44 173.437 55.44C173.913 55.44 174.324 55.496 174.669 55.608C175.024 55.7107 175.318 55.86 175.551 56.056C175.784 56.2427 175.957 56.4667 176.069 56.728C176.181 56.9893 176.237 57.2787 176.237 57.596C176.237 57.9507 176.148 58.2633 175.971 58.534C175.794 58.7953 175.509 59.0007 175.117 59.15C175.64 59.29 176.004 59.514 176.209 59.822C176.414 60.13 176.517 60.4893 176.517 60.9C176.517 61.208 176.452 61.4973 176.321 61.768C176.19 62.0387 175.994 62.2767 175.733 62.482C175.481 62.678 175.159 62.8367 174.767 62.958C174.384 63.0793 173.941 63.14 173.437 63.14ZM180.386 63.14C179.976 63.14 179.612 63.084 179.294 62.972C178.986 62.8507 178.725 62.6873 178.51 62.482C178.296 62.2767 178.132 62.034 178.02 61.754C177.908 61.474 177.852 61.166 177.852 60.83C177.852 60.0927 178.067 59.5607 178.496 59.234C178.935 58.9073 179.56 58.744 180.372 58.744H182.78V58.24C182.78 57.6053 182.636 57.1667 182.346 56.924C182.066 56.6813 181.642 56.56 181.072 56.56C180.54 56.56 180.153 56.6627 179.91 56.868C179.668 57.064 179.532 57.288 179.504 57.54H178.272C178.291 57.2413 178.37 56.966 178.51 56.714C178.66 56.4527 178.856 56.2287 179.098 56.042C179.35 55.8553 179.649 55.7107 179.994 55.608C180.34 55.496 180.722 55.44 181.142 55.44C182.02 55.44 182.715 55.65 183.228 56.07C183.751 56.4807 184.012 57.1573 184.012 58.1V61.11C184.012 61.502 184.012 61.8473 184.012 62.146C184.022 62.4353 184.045 62.72 184.082 63H183.004C182.976 62.7853 182.958 62.5847 182.948 62.398C182.939 62.202 182.934 61.9827 182.934 61.74C182.738 62.132 182.421 62.4633 181.982 62.734C181.544 63.0047 181.012 63.14 180.386 63.14ZM180.652 62.02C180.942 62.02 181.212 61.9827 181.464 61.908C181.726 61.824 181.954 61.7073 182.15 61.558C182.346 61.3993 182.5 61.208 182.612 60.984C182.724 60.76 182.78 60.4987 182.78 60.2V59.696H180.582C180.125 59.696 179.766 59.7893 179.504 59.976C179.243 60.1533 179.112 60.438 179.112 60.83C179.112 61.1753 179.234 61.46 179.476 61.684C179.728 61.908 180.12 62.02 180.652 62.02ZM189.688 55.58H195.848V63H194.616V56.672H190.92V63H189.688V55.58ZM201.163 63.14C200.687 63.14 200.234 63.0653 199.805 62.916C199.376 62.7573 198.998 62.524 198.671 62.216C198.344 61.8987 198.083 61.502 197.887 61.026C197.691 60.55 197.593 59.9947 197.593 59.36V59.08C197.593 58.4827 197.691 57.9553 197.887 57.498C198.083 57.0407 198.344 56.6627 198.671 56.364C198.998 56.056 199.376 55.8273 199.805 55.678C200.234 55.5193 200.687 55.44 201.163 55.44C201.639 55.44 202.092 55.5193 202.521 55.678C202.95 55.8273 203.328 56.056 203.655 56.364C203.982 56.6627 204.243 57.0407 204.439 57.498C204.635 57.9553 204.733 58.4827 204.733 59.08V59.36C204.733 59.9947 204.635 60.55 204.439 61.026C204.243 61.502 203.982 61.8987 203.655 62.216C203.328 62.524 202.95 62.7573 202.521 62.916C202.092 63.0653 201.639 63.14 201.163 63.14ZM201.163 62.02C201.443 62.02 201.723 61.9733 202.003 61.88C202.283 61.7773 202.53 61.6233 202.745 61.418C202.96 61.2033 203.132 60.928 203.263 60.592C203.403 60.256 203.473 59.8453 203.473 59.36V59.08C203.473 58.632 203.403 58.2493 203.263 57.932C203.132 57.6147 202.96 57.3533 202.745 57.148C202.53 56.9427 202.283 56.7933 202.003 56.7C201.723 56.6067 201.443 56.56 201.163 56.56C200.883 56.56 200.603 56.6067 200.323 56.7C200.043 56.7933 199.796 56.9427 199.581 57.148C199.366 57.3533 199.189 57.6147 199.049 57.932C198.918 58.2493 198.853 58.632 198.853 59.08V59.36C198.853 59.8453 198.918 60.256 199.049 60.592C199.189 60.928 199.366 61.2033 199.581 61.418C199.796 61.6233 200.043 61.7773 200.323 61.88C200.603 61.9733 200.883 62.02 201.163 62.02ZM210.257 53.2H211.629L214.905 59.43L218.181 53.2H219.497V63H218.181V55.58L215.367 60.9H214.387L211.573 55.58V63H210.257V53.2ZM225.102 63.14C224.626 63.14 224.174 63.0653 223.744 62.916C223.315 62.7573 222.937 62.524 222.61 62.216C222.284 61.8987 222.022 61.502 221.826 61.026C221.63 60.55 221.532 59.9947 221.532 59.36V59.08C221.532 58.4827 221.63 57.9553 221.826 57.498C222.022 57.0407 222.284 56.6627 222.61 56.364C222.937 56.056 223.315 55.8273 223.744 55.678C224.174 55.5193 224.626 55.44 225.102 55.44C225.578 55.44 226.031 55.5193 226.46 55.678C226.89 55.8273 227.268 56.056 227.594 56.364C227.921 56.6627 228.182 57.0407 228.378 57.498C228.574 57.9553 228.672 58.4827 228.672 59.08V59.36C228.672 59.9947 228.574 60.55 228.378 61.026C228.182 61.502 227.921 61.8987 227.594 62.216C227.268 62.524 226.89 62.7573 226.46 62.916C226.031 63.0653 225.578 63.14 225.102 63.14ZM225.102 62.02C225.382 62.02 225.662 61.9733 225.942 61.88C226.222 61.7773 226.47 61.6233 226.684 61.418C226.899 61.2033 227.072 60.928 227.202 60.592C227.342 60.256 227.412 59.8453 227.412 59.36V59.08C227.412 58.632 227.342 58.2493 227.202 57.932C227.072 57.6147 226.899 57.3533 226.684 57.148C226.47 56.9427 226.222 56.7933 225.942 56.7C225.662 56.6067 225.382 56.56 225.102 56.56C224.822 56.56 224.542 56.6067 224.262 56.7C223.982 56.7933 223.735 56.9427 223.52 57.148C223.306 57.3533 223.128 57.6147 222.988 57.932C222.858 58.2493 222.792 58.632 222.792 59.08V59.36C222.792 59.8453 222.858 60.256 222.988 60.592C223.128 60.928 223.306 61.2033 223.52 61.418C223.735 61.6233 223.982 61.7773 224.262 61.88C224.542 61.9733 224.822 62.02 225.102 62.02ZM233.287 63.14C232.811 63.14 232.368 63.0653 231.957 62.916C231.546 62.7573 231.192 62.524 230.893 62.216C230.594 61.8987 230.356 61.502 230.179 61.026C230.011 60.55 229.927 59.9947 229.927 59.36V59.08C229.927 58.4827 230.02 57.9553 230.207 57.498C230.394 57.0407 230.641 56.6627 230.949 56.364C231.257 56.056 231.612 55.8273 232.013 55.678C232.424 55.5193 232.848 55.44 233.287 55.44C233.726 55.44 234.118 55.5007 234.463 55.622C234.818 55.7433 235.121 55.9113 235.373 56.126C235.634 56.3407 235.844 56.5927 236.003 56.882C236.171 57.1713 236.292 57.484 236.367 57.82H235.107C235.032 57.6427 234.944 57.4793 234.841 57.33C234.748 57.1713 234.626 57.036 234.477 56.924C234.337 56.812 234.169 56.7233 233.973 56.658C233.777 56.5927 233.548 56.56 233.287 56.56C233.016 56.56 232.755 56.6113 232.503 56.714C232.251 56.8073 232.027 56.9567 231.831 57.162C231.635 57.358 231.476 57.6147 231.355 57.932C231.243 58.2493 231.187 58.632 231.187 59.08V59.36C231.187 59.836 231.243 60.2467 231.355 60.592C231.476 60.928 231.635 61.2033 231.831 61.418C232.027 61.6233 232.251 61.7773 232.503 61.88C232.755 61.9733 233.016 62.02 233.287 62.02C233.744 62.02 234.127 61.908 234.435 61.684C234.752 61.46 234.976 61.152 235.107 60.76H236.367C236.19 61.4973 235.826 62.0807 235.275 62.51C234.724 62.93 234.062 63.14 233.287 63.14ZM238.046 55.58H239.278V58.688H240.258L243.03 55.58H244.486L241.266 59.136L244.626 63H243.058L240.258 59.752H239.278V63H238.046V55.58ZM246.099 55.58H249.319C250.233 55.58 250.905 55.7713 251.335 56.154C251.764 56.5273 251.979 57.0127 251.979 57.61C251.979 57.7687 251.951 57.932 251.895 58.1C251.839 58.2587 251.759 58.408 251.657 58.548C251.563 58.688 251.447 58.8093 251.307 58.912C251.176 59.0147 251.027 59.094 250.859 59.15C251.316 59.262 251.661 59.4767 251.895 59.794C252.137 60.102 252.259 60.466 252.259 60.886C252.259 61.53 252.044 62.0433 251.615 62.426C251.185 62.8087 250.513 63 249.599 63H246.099V55.58ZM249.599 61.908C250.121 61.908 250.49 61.8147 250.705 61.628C250.919 61.4413 251.027 61.1753 251.027 60.83C251.027 60.4753 250.919 60.2047 250.705 60.018C250.49 59.822 250.121 59.724 249.599 59.724H247.331V61.908H249.599ZM249.319 58.716C249.851 58.716 250.219 58.6227 250.425 58.436C250.639 58.2493 250.747 57.9927 250.747 57.666C250.747 57.358 250.639 57.1153 250.425 56.938C250.219 56.7607 249.851 56.672 249.319 56.672H247.331V58.716H249.319ZM257.095 63.14C256.619 63.14 256.166 63.0653 255.737 62.916C255.307 62.7667 254.929 62.538 254.603 62.23C254.276 61.9127 254.015 61.516 253.819 61.04C253.623 60.564 253.525 60.004 253.525 59.36V59.08C253.525 58.464 253.618 57.932 253.805 57.484C253.991 57.0267 254.239 56.6487 254.547 56.35C254.864 56.042 255.228 55.8133 255.639 55.664C256.059 55.5147 256.497 55.44 256.955 55.44C258.047 55.44 258.891 55.7387 259.489 56.336C260.086 56.9333 260.385 57.778 260.385 58.87V59.654H254.757C254.757 60.0927 254.827 60.4613 254.967 60.76C255.107 61.0587 255.289 61.3013 255.513 61.488C255.737 61.6747 255.984 61.81 256.255 61.894C256.535 61.978 256.815 62.02 257.095 62.02C257.655 62.02 258.084 61.9267 258.383 61.74C258.691 61.5533 258.91 61.2967 259.041 60.97H260.245C260.17 61.3247 260.035 61.6373 259.839 61.908C259.652 62.1787 259.419 62.4073 259.139 62.594C258.868 62.7713 258.555 62.9067 258.201 63C257.855 63.0933 257.487 63.14 257.095 63.14ZM257.025 56.56C256.735 56.56 256.455 56.602 256.185 56.686C255.914 56.7607 255.671 56.8867 255.457 57.064C255.251 57.232 255.083 57.4467 254.953 57.708C254.822 57.9693 254.757 58.282 254.757 58.646H259.223C259.213 58.2633 259.148 57.9413 259.027 57.68C258.915 57.4093 258.761 57.1947 258.565 57.036C258.369 56.868 258.135 56.7467 257.865 56.672C257.603 56.5973 257.323 56.56 257.025 56.56ZM27.99 83.14C27.514 83.14 27.0707 83.0653 26.66 82.916C26.2493 82.7573 25.8947 82.524 25.596 82.216C25.2973 81.8987 25.0593 81.502 24.882 81.026C24.714 80.55 24.63 79.9947 24.63 79.36V79.08C24.63 78.4827 24.7233 77.9553 24.91 77.498C25.0967 77.0407 25.344 76.6627 25.652 76.364C25.96 76.056 26.3147 75.8273 26.716 75.678C27.1267 75.5193 27.5513 75.44 27.99 75.44C28.4287 75.44 28.8207 75.5007 29.166 75.622C29.5207 75.7433 29.824 75.9113 30.076 76.126C30.3373 76.3407 30.5473 76.5927 30.706 76.882C30.874 77.1713 30.9953 77.484 31.07 77.82H29.81C29.7353 77.6427 29.6467 77.4793 29.544 77.33C29.4507 77.1713 29.3293 77.036 29.18 76.924C29.04 76.812 28.872 76.7233 28.676 76.658C28.48 76.5927 28.2513 76.56 27.99 76.56C27.7193 76.56 27.458 76.6113 27.206 76.714C26.954 76.8073 26.73 76.9567 26.534 77.162C26.338 77.358 26.1793 77.6147 26.058 77.932C25.946 78.2493 25.89 78.632 25.89 79.08V79.36C25.89 79.836 25.946 80.2467 26.058 80.592C26.1793 80.928 26.338 81.2033 26.534 81.418C26.73 81.6233 26.954 81.7773 27.206 81.88C27.458 81.9733 27.7193 82.02 27.99 82.02C28.4473 82.02 28.83 81.908 29.138 81.684C29.4553 81.46 29.6793 81.152 29.81 80.76H31.07C30.8927 81.4973 30.5287 82.0807 29.978 82.51C29.4273 82.93 28.7647 83.14 27.99 83.14ZM35.8289 83.14C35.3529 83.14 34.9002 83.0653 34.4709 82.916C34.0416 82.7573 33.6636 82.524 33.3369 82.216C33.0102 81.8987 32.7489 81.502 32.5529 81.026C32.3569 80.55 32.2589 79.9947 32.2589 79.36V79.08C32.2589 78.4827 32.3569 77.9553 32.5529 77.498C32.7489 77.0407 33.0102 76.6627 33.3369 76.364C33.6636 76.056 34.0416 75.8273 34.4709 75.678C34.9002 75.5193 35.3529 75.44 35.8289 75.44C36.3049 75.44 36.7576 75.5193 37.1869 75.678C37.6162 75.8273 37.9942 76.056 38.3209 76.364C38.6476 76.6627 38.9089 77.0407 39.1049 77.498C39.3009 77.9553 39.3989 78.4827 39.3989 79.08V79.36C39.3989 79.9947 39.3009 80.55 39.1049 81.026C38.9089 81.502 38.6476 81.8987 38.3209 82.216C37.9942 82.524 37.6162 82.7573 37.1869 82.916C36.7576 83.0653 36.3049 83.14 35.8289 83.14ZM35.8289 82.02C36.1089 82.02 36.3889 81.9733 36.6689 81.88C36.9489 81.7773 37.1962 81.6233 37.4109 81.418C37.6256 81.2033 37.7982 80.928 37.9289 80.592C38.0689 80.256 38.1389 79.8453 38.1389 79.36V79.08C38.1389 78.632 38.0689 78.2493 37.9289 77.932C37.7982 77.6147 37.6256 77.3533 37.4109 77.148C37.1962 76.9427 36.9489 76.7933 36.6689 76.7C36.3889 76.6067 36.1089 76.56 35.8289 76.56C35.5489 76.56 35.2689 76.6067 34.9889 76.7C34.7089 76.7933 34.4616 76.9427 34.2469 77.148C34.0322 77.3533 33.8549 77.6147 33.7149 77.932C33.5842 78.2493 33.5189 78.632 33.5189 79.08V79.36C33.5189 79.8453 33.5842 80.256 33.7149 80.592C33.8549 80.928 34.0322 81.2033 34.2469 81.418C34.4616 81.6233 34.7089 81.7773 34.9889 81.88C35.2689 81.9733 35.5489 82.02 35.8289 82.02ZM44.0134 83.14C43.5374 83.14 43.0941 83.0653 42.6834 82.916C42.2728 82.7573 41.9181 82.524 41.6194 82.216C41.3208 81.8987 41.0828 81.502 40.9054 81.026C40.7374 80.55 40.6534 79.9947 40.6534 79.36V79.08C40.6534 78.4827 40.7468 77.9553 40.9334 77.498C41.1201 77.0407 41.3674 76.6627 41.6754 76.364C41.9834 76.056 42.3381 75.8273 42.7394 75.678C43.1501 75.5193 43.5748 75.44 44.0134 75.44C44.4521 75.44 44.8441 75.5007 45.1894 75.622C45.5441 75.7433 45.8474 75.9113 46.0994 76.126C46.3608 76.3407 46.5708 76.5927 46.7294 76.882C46.8974 77.1713 47.0188 77.484 47.0934 77.82H45.8334C45.7588 77.6427 45.6701 77.4793 45.5674 77.33C45.4741 77.1713 45.3528 77.036 45.2034 76.924C45.0634 76.812 44.8954 76.7233 44.6994 76.658C44.5034 76.5927 44.2748 76.56 44.0134 76.56C43.7428 76.56 43.4814 76.6113 43.2294 76.714C42.9774 76.8073 42.7534 76.9567 42.5574 77.162C42.3614 77.358 42.2028 77.6147 42.0814 77.932C41.9694 78.2493 41.9134 78.632 41.9134 79.08V79.36C41.9134 79.836 41.9694 80.2467 42.0814 80.592C42.2028 80.928 42.3614 81.2033 42.5574 81.418C42.7534 81.6233 42.9774 81.7773 43.2294 81.88C43.4814 81.9733 43.7428 82.02 44.0134 82.02C44.4708 82.02 44.8534 81.908 45.1614 81.684C45.4788 81.46 45.7028 81.152 45.8334 80.76H47.0934C46.9161 81.4973 46.5521 82.0807 46.0014 82.51C45.4508 82.93 44.7881 83.14 44.0134 83.14ZM50.4663 76.672H47.9323V75.58H54.2323V76.672H51.6983V83H50.4663V76.672ZM57.4762 83.14C57.0655 83.14 56.7015 83.084 56.3842 82.972C56.0762 82.8507 55.8149 82.6873 55.6002 82.482C55.3855 82.2767 55.2222 82.034 55.1102 81.754C54.9982 81.474 54.9422 81.166 54.9422 80.83C54.9422 80.0927 55.1569 79.5607 55.5862 79.234C56.0249 78.9073 56.6502 78.744 57.4622 78.744H59.8702V78.24C59.8702 77.6053 59.7255 77.1667 59.4362 76.924C59.1562 76.6813 58.7315 76.56 58.1622 76.56C57.6302 76.56 57.2429 76.6627 57.0002 76.868C56.7575 77.064 56.6222 77.288 56.5942 77.54H55.3622C55.3809 77.2413 55.4602 76.966 55.6002 76.714C55.7495 76.4527 55.9455 76.2287 56.1882 76.042C56.4402 75.8553 56.7389 75.7107 57.0842 75.608C57.4295 75.496 57.8122 75.44 58.2322 75.44C59.1095 75.44 59.8049 75.65 60.3182 76.07C60.8409 76.4807 61.1022 77.1573 61.1022 78.1V81.11C61.1022 81.502 61.1022 81.8473 61.1022 82.146C61.1115 82.4353 61.1349 82.72 61.1722 83H60.0942C60.0662 82.7853 60.0475 82.5847 60.0382 82.398C60.0289 82.202 60.0242 81.9827 60.0242 81.74C59.8282 82.132 59.5109 82.4633 59.0722 82.734C58.6335 83.0047 58.1015 83.14 57.4762 83.14ZM57.7422 82.02C58.0315 82.02 58.3022 81.9827 58.5542 81.908C58.8155 81.824 59.0442 81.7073 59.2402 81.558C59.4362 81.3993 59.5902 81.208 59.7022 80.984C59.8142 80.76 59.8702 80.4987 59.8702 80.2V79.696H57.6722C57.2149 79.696 56.8555 79.7893 56.5942 79.976C56.3329 80.1533 56.2022 80.438 56.2022 80.83C56.2022 81.1753 56.3235 81.46 56.5662 81.684C56.8182 81.908 57.2102 82.02 57.7422 82.02ZM63.2782 75.58H66.4982C67.4129 75.58 68.0849 75.7713 68.5142 76.154C68.9435 76.5273 69.1582 77.0127 69.1582 77.61C69.1582 77.7687 69.1302 77.932 69.0742 78.1C69.0182 78.2587 68.9389 78.408 68.8362 78.548C68.7429 78.688 68.6262 78.8093 68.4862 78.912C68.3555 79.0147 68.2062 79.094 68.0382 79.15C68.4955 79.262 68.8409 79.4767 69.0742 79.794C69.3169 80.102 69.4382 80.466 69.4382 80.886C69.4382 81.53 69.2235 82.0433 68.7942 82.426C68.3649 82.8087 67.6929 83 66.7782 83H63.2782V75.58ZM66.7782 81.908C67.3009 81.908 67.6695 81.8147 67.8842 81.628C68.0989 81.4413 68.2062 81.1753 68.2062 80.83C68.2062 80.4753 68.0989 80.2047 67.8842 80.018C67.6695 79.822 67.3009 79.724 66.7782 79.724H64.5102V81.908H66.7782ZM66.4982 78.716C67.0302 78.716 67.3989 78.6227 67.6042 78.436C67.8189 78.2493 67.9262 77.9927 67.9262 77.666C67.9262 77.358 67.8189 77.1153 67.6042 76.938C67.3989 76.7607 67.0302 76.672 66.4982 76.672H64.5102V78.716H66.4982ZM70.8442 83.14C70.7042 83.14 70.5642 83.126 70.4242 83.098V81.866C70.4709 81.8753 70.5409 81.88 70.6342 81.88C70.8396 81.88 71.0169 81.8147 71.1662 81.684C71.3249 81.5533 71.4509 81.3247 71.5442 80.998C71.6376 80.6713 71.7076 80.228 71.7542 79.668C71.8009 79.108 71.8242 78.3987 71.8242 77.54V75.58H77.1442V83H75.9122V76.672H73.0562V77.82C73.0562 78.856 73.0096 79.7147 72.9162 80.396C72.8229 81.0773 72.6829 81.6233 72.4962 82.034C72.3189 82.4353 72.0902 82.72 71.8102 82.888C71.5302 83.056 71.2082 83.14 70.8442 83.14ZM80.8397 80.06C80.2237 79.92 79.7803 79.668 79.5097 79.304C79.239 78.9307 79.1037 78.4547 79.1037 77.876C79.1037 77.148 79.323 76.5833 79.7617 76.182C80.2097 75.7807 80.9237 75.58 81.9037 75.58H85.1237V83H83.8917V80.172H82.0017L80.1957 83H78.8237L80.8397 80.06ZM80.3357 77.876C80.3357 78.268 80.4477 78.5667 80.6717 78.772C80.905 78.9773 81.2923 79.08 81.8337 79.08H83.8917V76.672H81.8337C81.2923 76.672 80.905 76.7747 80.6717 76.98C80.4477 77.1853 80.3357 77.484 80.3357 77.876ZM90.448 83.14C89.972 83.14 89.5194 83.0653 89.09 82.916C88.6607 82.7667 88.2827 82.538 87.956 82.23C87.6294 81.9127 87.368 81.516 87.172 81.04C86.976 80.564 86.878 80.004 86.878 79.36V79.08C86.878 78.464 86.9714 77.932 87.158 77.484C87.3447 77.0267 87.592 76.6487 87.9 76.35C88.2174 76.042 88.5814 75.8133 88.992 75.664C89.412 75.5147 89.8507 75.44 90.308 75.44C91.4 75.44 92.2447 75.7387 92.842 76.336C93.4394 76.9333 93.738 77.778 93.738 78.87V79.654H88.11C88.11 80.0927 88.18 80.4613 88.32 80.76C88.46 81.0587 88.642 81.3013 88.866 81.488C89.09 81.6747 89.3374 81.81 89.608 81.894C89.888 81.978 90.168 82.02 90.448 82.02C91.008 82.02 91.4374 81.9267 91.736 81.74C92.044 81.5533 92.2634 81.2967 92.394 80.97H93.598C93.5234 81.3247 93.388 81.6373 93.192 81.908C93.0054 82.1787 92.772 82.4073 92.492 82.594C92.2214 82.7713 91.9087 82.9067 91.554 83C91.2087 83.0933 90.84 83.14 90.448 83.14ZM90.378 76.56C90.0887 76.56 89.8087 76.602 89.538 76.686C89.2674 76.7607 89.0247 76.8867 88.81 77.064C88.6047 77.232 88.4367 77.4467 88.306 77.708C88.1754 77.9693 88.11 78.282 88.11 78.646H92.576C92.5667 78.2633 92.5014 77.9413 92.38 77.68C92.268 77.4093 92.114 77.1947 91.918 77.036C91.722 76.868 91.4887 76.7467 91.218 76.672C90.9567 76.5973 90.6767 76.56 90.378 76.56ZM97.0464 76.672H94.5124V75.58H100.812V76.672H98.2784V83H97.0464V76.672ZM109.86 80.634H104.876V79.626L109.72 73.2H111.176V79.486H112.436V80.634H111.176V83H109.86V80.634ZM109.86 79.486V74.74L106.276 79.486H109.86ZM122.059 80.046C121.844 80.1767 121.583 80.2933 121.275 80.396C120.976 80.4987 120.598 80.55 120.141 80.55C119.711 80.55 119.324 80.5033 118.979 80.41C118.643 80.3167 118.358 80.1673 118.125 79.962C117.891 79.7567 117.714 79.4907 117.593 79.164C117.471 78.8373 117.411 78.436 117.411 77.96V75.58H118.643V77.75C118.643 78.0673 118.671 78.3333 118.727 78.548C118.792 78.7627 118.895 78.9353 119.035 79.066C119.175 79.1967 119.352 79.29 119.567 79.346C119.781 79.402 120.043 79.43 120.351 79.43C120.771 79.43 121.13 79.388 121.429 79.304C121.727 79.22 121.937 79.1313 122.059 79.038V75.58H123.291V83H122.059V80.046ZM127.64 83.14C127.23 83.14 126.866 83.084 126.548 82.972C126.24 82.8507 125.979 82.6873 125.764 82.482C125.55 82.2767 125.386 82.034 125.274 81.754C125.162 81.474 125.106 81.166 125.106 80.83C125.106 80.0927 125.321 79.5607 125.75 79.234C126.189 78.9073 126.814 78.744 127.626 78.744H130.034V78.24C130.034 77.6053 129.89 77.1667 129.6 76.924C129.32 76.6813 128.896 76.56 128.326 76.56C127.794 76.56 127.407 76.6627 127.164 76.868C126.922 77.064 126.786 77.288 126.758 77.54H125.526C125.545 77.2413 125.624 76.966 125.764 76.714C125.914 76.4527 126.11 76.2287 126.352 76.042C126.604 75.8553 126.903 75.7107 127.248 75.608C127.594 75.496 127.976 75.44 128.396 75.44C129.274 75.44 129.969 75.65 130.482 76.07C131.005 76.4807 131.266 77.1573 131.266 78.1V81.11C131.266 81.502 131.266 81.8473 131.266 82.146C131.276 82.4353 131.299 82.72 131.336 83H130.258C130.23 82.7853 130.212 82.5847 130.202 82.398C130.193 82.202 130.188 81.9827 130.188 81.74C129.992 82.132 129.675 82.4633 129.236 82.734C128.798 83.0047 128.266 83.14 127.64 83.14ZM127.906 82.02C128.196 82.02 128.466 81.9827 128.718 81.908C128.98 81.824 129.208 81.7073 129.404 81.558C129.6 81.3993 129.754 81.208 129.866 80.984C129.978 80.76 130.034 80.4987 130.034 80.2V79.696H127.836C127.379 79.696 127.02 79.7893 126.758 79.976C126.497 80.1533 126.366 80.438 126.366 80.83C126.366 81.1753 126.488 81.46 126.73 81.684C126.982 81.908 127.374 82.02 127.906 82.02ZM136.312 83.14C135.836 83.14 135.393 83.0653 134.982 82.916C134.572 82.7573 134.217 82.524 133.918 82.216C133.62 81.8987 133.382 81.502 133.204 81.026C133.036 80.55 132.952 79.9947 132.952 79.36V79.08C132.952 78.4827 133.046 77.9553 133.232 77.498C133.419 77.0407 133.666 76.6627 133.974 76.364C134.282 76.056 134.637 75.8273 135.038 75.678C135.449 75.5193 135.874 75.44 136.312 75.44C136.751 75.44 137.143 75.5007 137.488 75.622C137.843 75.7433 138.146 75.9113 138.398 76.126C138.66 76.3407 138.87 76.5927 139.028 76.882C139.196 77.1713 139.318 77.484 139.392 77.82H138.132C138.058 77.6427 137.969 77.4793 137.866 77.33C137.773 77.1713 137.652 77.036 137.502 76.924C137.362 76.812 137.194 76.7233 136.998 76.658C136.802 76.5927 136.574 76.56 136.312 76.56C136.042 76.56 135.78 76.6113 135.528 76.714C135.276 76.8073 135.052 76.9567 134.856 77.162C134.66 77.358 134.502 77.6147 134.38 77.932C134.268 78.2493 134.212 78.632 134.212 79.08V79.36C134.212 79.836 134.268 80.2467 134.38 80.592C134.502 80.928 134.66 81.2033 134.856 81.418C135.052 81.6233 135.276 81.7773 135.528 81.88C135.78 81.9733 136.042 82.02 136.312 82.02C136.77 82.02 137.152 81.908 137.46 81.684C137.778 81.46 138.002 81.152 138.132 80.76H139.392C139.215 81.4973 138.851 82.0807 138.3 82.51C137.75 82.93 137.087 83.14 136.312 83.14ZM143.185 83.14C142.775 83.14 142.411 83.084 142.093 82.972C141.785 82.8507 141.524 82.6873 141.309 82.482C141.095 82.2767 140.931 82.034 140.819 81.754C140.707 81.474 140.651 81.166 140.651 80.83C140.651 80.0927 140.866 79.5607 141.295 79.234C141.734 78.9073 142.359 78.744 143.171 78.744H145.579V78.24C145.579 77.6053 145.435 77.1667 145.145 76.924C144.865 76.6813 144.441 76.56 143.871 76.56C143.339 76.56 142.952 76.6627 142.709 76.868C142.467 77.064 142.331 77.288 142.303 77.54H141.071C141.09 77.2413 141.169 76.966 141.309 76.714C141.459 76.4527 141.655 76.2287 141.897 76.042C142.149 75.8553 142.448 75.7107 142.793 75.608C143.139 75.496 143.521 75.44 143.941 75.44C144.819 75.44 145.514 75.65 146.027 76.07C146.55 76.4807 146.811 77.1573 146.811 78.1V81.11C146.811 81.502 146.811 81.8473 146.811 82.146C146.821 82.4353 146.844 82.72 146.881 83H145.803C145.775 82.7853 145.757 82.5847 145.747 82.398C145.738 82.202 145.733 81.9827 145.733 81.74C145.537 82.132 145.22 82.4633 144.781 82.734C144.343 83.0047 143.811 83.14 143.185 83.14ZM143.451 82.02C143.741 82.02 144.011 81.9827 144.263 81.908C144.525 81.824 144.753 81.7073 144.949 81.558C145.145 81.3993 145.299 81.208 145.411 80.984C145.523 80.76 145.579 80.4987 145.579 80.2V79.696H143.381C142.924 79.696 142.565 79.7893 142.303 79.976C142.042 80.1533 141.911 80.438 141.911 80.83C141.911 81.1753 142.033 81.46 142.275 81.684C142.527 81.908 142.919 82.02 143.451 82.02ZM153.159 73.2H154.335V85.8H153.159V73.2Z" fill="#2B2B2B"/>
<rect x="24" y="96" width="78" height="28" rx="8" fill="#356FEC"/>
<path d="M39.7 114.13C39.22 114.13 38.78 114.067 38.38 113.94C37.98 113.807 37.6367 113.597 37.35 113.31C37.07 113.023 36.85 112.653 36.69 112.2C36.53 111.747 36.45 111.193 36.45 110.54V110.35C36.45 109.737 36.5333 109.21 36.7 108.77C36.8667 108.33 37.0967 107.97 37.39 107.69C37.6833 107.41 38.0267 107.203 38.42 107.07C38.82 106.937 39.2467 106.87 39.7 106.87C40.1067 106.87 40.4867 106.917 40.84 107.01C41.2 107.103 41.5133 107.25 41.78 107.45C42.0533 107.65 42.2733 107.91 42.44 108.23C42.6133 108.55 42.7167 108.94 42.75 109.4H40.89C40.8567 109.213 40.8033 109.057 40.73 108.93C40.6567 108.797 40.5667 108.69 40.46 108.61C40.3533 108.523 40.2333 108.463 40.1 108.43C39.9733 108.39 39.84 108.37 39.7 108.37C39.5 108.37 39.3133 108.407 39.14 108.48C38.9733 108.547 38.8267 108.66 38.7 108.82C38.58 108.973 38.4833 109.177 38.41 109.43C38.3433 109.683 38.31 109.99 38.31 110.35V110.56C38.31 110.947 38.3467 111.273 38.42 111.54C38.5 111.8 38.6033 112.013 38.73 112.18C38.8567 112.34 39.0033 112.457 39.17 112.53C39.3367 112.597 39.5133 112.63 39.7 112.63C40.04 112.63 40.31 112.55 40.51 112.39C40.7167 112.223 40.8433 111.96 40.89 111.6H42.75C42.7233 112.067 42.6267 112.46 42.46 112.78C42.3 113.1 42.0833 113.36 41.81 113.56C41.5433 113.76 41.23 113.907 40.87 114C40.51 114.087 40.12 114.13 39.7 114.13ZM46.0996 114.13C45.7263 114.13 45.3763 114.077 45.0496 113.97C44.7229 113.857 44.4363 113.687 44.1896 113.46C43.9429 113.233 43.7496 112.95 43.6096 112.61C43.4696 112.263 43.3996 111.86 43.3996 111.4V111.2C43.3996 110.767 43.4696 110.387 43.6096 110.06C43.7496 109.733 43.9429 109.46 44.1896 109.24C44.4363 109.02 44.7229 108.853 45.0496 108.74C45.3763 108.627 45.7263 108.57 46.0996 108.57C46.4729 108.57 46.8229 108.627 47.1496 108.74C47.4763 108.853 47.7629 109.02 48.0096 109.24C48.2563 109.46 48.4496 109.733 48.5896 110.06C48.7296 110.387 48.7996 110.767 48.7996 111.2V111.4C48.7996 111.853 48.7296 112.253 48.5896 112.6C48.4496 112.94 48.2563 113.223 48.0096 113.45C47.7629 113.677 47.4763 113.847 47.1496 113.96C46.8229 114.073 46.4729 114.13 46.0996 114.13ZM46.0996 112.85C46.4596 112.85 46.7363 112.72 46.9296 112.46C47.1229 112.2 47.2196 111.847 47.2196 111.4V111.2C47.2196 110.8 47.1229 110.477 46.9296 110.23C46.7363 109.977 46.4596 109.85 46.0996 109.85C45.7396 109.85 45.4629 109.977 45.2696 110.23C45.0763 110.477 44.9796 110.8 44.9796 111.2V111.4C44.9796 111.86 45.0763 112.217 45.2696 112.47C45.4629 112.723 45.7396 112.85 46.0996 112.85ZM50.6904 111.24L49.1004 108.7H50.8004L51.8404 110.32L52.8404 108.7H54.5004L52.9204 111.19L54.6004 114H52.8904L51.7804 112.11L50.6704 114H49.0004L50.6904 111.24ZM55.2012 108.7H56.6212V109.42C56.6878 109.313 56.7712 109.21 56.8712 109.11C56.9778 109.003 57.1012 108.91 57.2412 108.83C57.3812 108.75 57.5378 108.687 57.7112 108.64C57.8845 108.593 58.0712 108.57 58.2712 108.57C59.0178 108.57 59.5845 108.79 59.9712 109.23C60.3578 109.67 60.5512 110.327 60.5512 111.2V111.4C60.5512 111.853 60.4978 112.25 60.3912 112.59C60.2845 112.93 60.1312 113.213 59.9312 113.44C59.7312 113.667 59.4912 113.84 59.2112 113.96C58.9312 114.073 58.6178 114.13 58.2712 114.13C57.9712 114.13 57.6845 114.063 57.4112 113.93C57.1445 113.79 56.9212 113.59 56.7412 113.33V116H55.2012V108.7ZM57.9012 112.86C58.2078 112.86 58.4612 112.737 58.6612 112.49C58.8678 112.243 58.9712 111.88 58.9712 111.4V111.2C58.9712 110.74 58.8712 110.4 58.6712 110.18C58.4778 109.953 58.2212 109.84 57.9012 109.84C57.5745 109.84 57.2978 109.943 57.0712 110.15C56.8512 110.35 56.7412 110.65 56.7412 111.05V111.55C56.7412 111.97 56.8512 112.293 57.0712 112.52C57.2978 112.747 57.5745 112.86 57.9012 112.86ZM63.0035 114.13C62.7168 114.13 62.4602 114.087 62.2335 114C62.0135 113.913 61.8268 113.797 61.6735 113.65C61.5202 113.497 61.4035 113.32 61.3235 113.12C61.2435 112.913 61.2035 112.69 61.2035 112.45C61.2035 111.923 61.3635 111.52 61.6835 111.24C62.0102 110.96 62.5002 110.82 63.1535 110.82H64.6635V110.6C64.6635 110.28 64.5868 110.06 64.4335 109.94C64.2802 109.813 64.0702 109.75 63.8035 109.75C63.5502 109.75 63.3635 109.79 63.2435 109.87C63.1235 109.95 63.0568 110.077 63.0435 110.25H61.5035C61.5168 110.01 61.5768 109.79 61.6835 109.59C61.7902 109.383 61.9402 109.207 62.1335 109.06C62.3335 108.907 62.5768 108.787 62.8635 108.7C63.1502 108.613 63.4802 108.57 63.8535 108.57C64.2002 108.57 64.5168 108.61 64.8035 108.69C65.0968 108.763 65.3468 108.887 65.5535 109.06C65.7602 109.227 65.9202 109.447 66.0335 109.72C66.1468 109.987 66.2035 110.313 66.2035 110.7V112.65C66.2035 112.93 66.2102 113.177 66.2235 113.39C66.2368 113.597 66.2568 113.8 66.2835 114H64.8235C64.8102 113.887 64.7968 113.787 64.7835 113.7C64.7768 113.613 64.7735 113.507 64.7735 113.38C64.6135 113.593 64.3902 113.773 64.1035 113.92C63.8235 114.06 63.4568 114.13 63.0035 114.13ZM63.5035 113.05C63.8302 113.05 64.1035 112.957 64.3235 112.77C64.5502 112.583 64.6635 112.327 64.6635 112V111.78H63.4535C63.2268 111.78 63.0568 111.84 62.9435 111.96C62.8368 112.08 62.7835 112.22 62.7835 112.38C62.7835 112.573 62.8368 112.733 62.9435 112.86C63.0568 112.987 63.2435 113.05 63.5035 113.05ZM67.1543 108.7H68.6943V110.67H70.7143V108.7H72.2543V114H70.7143V111.93H68.6943V114H67.1543V108.7ZM73.2578 108.7H74.7578V111.9L77.0078 108.7H78.3578V114H76.8578V110.8L74.6078 114H73.2578V108.7ZM80.6913 109.96H79.0613V108.7H83.8613V109.96H82.2313V114H80.6913V109.96ZM84.6566 108.7H86.1966V110.42H87.2566C87.95 110.42 88.4733 110.567 88.8266 110.86C89.18 111.153 89.3566 111.603 89.3566 112.21C89.3566 112.477 89.3166 112.72 89.2366 112.94C89.1633 113.16 89.04 113.35 88.8666 113.51C88.7 113.663 88.4833 113.783 88.2166 113.87C87.9566 113.957 87.6366 114 87.2566 114H84.6566V108.7ZM87.0566 112.84C87.33 112.84 87.5233 112.79 87.6366 112.69C87.7566 112.583 87.8166 112.423 87.8166 112.21C87.8166 111.99 87.7566 111.83 87.6366 111.73C87.5233 111.63 87.33 111.58 87.0566 111.58H86.1966V112.84H87.0566Z" fill="white"/>
</g>
<g filter="url(#filter4_d_7_2786)">
<rect x="12" y="148" width="279" height="52" rx="12" fill="white" shape-rendering="crispEdges"/>
<path d="M25.4 169.2H31.56V170.348H26.716V179H25.4V169.2ZM31.4091 171.58H32.5571V172.98C32.8091 172.485 33.1591 172.107 33.6071 171.846C34.0644 171.575 34.5917 171.44 35.1891 171.44C36.1224 171.44 36.8691 171.748 37.4291 172.364C37.9891 172.971 38.2691 173.876 38.2691 175.08V175.36C38.2691 175.995 38.1944 176.55 38.0451 177.026C37.8957 177.493 37.6857 177.885 37.4151 178.202C37.1444 178.51 36.8177 178.743 36.4351 178.902C36.0617 179.061 35.6464 179.14 35.1891 179.14C34.5544 179.14 34.0224 179 33.5931 178.72C33.1731 178.44 32.8557 178.09 32.6411 177.67V181.8H31.4091V171.58ZM34.9091 178.048C35.2077 178.048 35.4877 177.992 35.7491 177.88C36.0104 177.759 36.2344 177.586 36.4211 177.362C36.6171 177.138 36.7664 176.858 36.8691 176.522C36.9811 176.186 37.0371 175.799 37.0371 175.36V175.08C37.0371 174.679 36.9811 174.319 36.8691 174.002C36.7664 173.685 36.6171 173.419 36.4211 173.204C36.2344 172.98 36.0104 172.812 35.7491 172.7C35.4877 172.588 35.2077 172.532 34.9091 172.532C34.5731 172.532 34.2651 172.588 33.9851 172.7C33.7051 172.803 33.4671 172.952 33.2711 173.148C33.0751 173.335 32.9211 173.559 32.8091 173.82C32.6971 174.081 32.6411 174.361 32.6411 174.66V175.78C32.6411 176.116 32.6971 176.424 32.8091 176.704C32.9211 176.984 33.0751 177.222 33.2711 177.418C33.4671 177.614 33.7051 177.768 33.9851 177.88C34.2651 177.992 34.5731 178.048 34.9091 178.048ZM42.1363 179.14C41.7257 179.14 41.3617 179.084 41.0443 178.972C40.7363 178.851 40.475 178.687 40.2603 178.482C40.0457 178.277 39.8823 178.034 39.7703 177.754C39.6583 177.474 39.6023 177.166 39.6023 176.83C39.6023 176.093 39.817 175.561 40.2463 175.234C40.685 174.907 41.3103 174.744 42.1223 174.744H44.5303V174.24C44.5303 173.605 44.3857 173.167 44.0963 172.924C43.8163 172.681 43.3917 172.56 42.8223 172.56C42.2903 172.56 41.903 172.663 41.6603 172.868C41.4177 173.064 41.2823 173.288 41.2543 173.54H40.0223C40.041 173.241 40.1203 172.966 40.2603 172.714C40.4097 172.453 40.6057 172.229 40.8483 172.042C41.1003 171.855 41.399 171.711 41.7443 171.608C42.0897 171.496 42.4723 171.44 42.8923 171.44C43.7697 171.44 44.465 171.65 44.9783 172.07C45.501 172.481 45.7623 173.157 45.7623 174.1V177.11C45.7623 177.502 45.7623 177.847 45.7623 178.146C45.7717 178.435 45.795 178.72 45.8323 179H44.7543C44.7263 178.785 44.7077 178.585 44.6983 178.398C44.689 178.202 44.6843 177.983 44.6843 177.74C44.4883 178.132 44.171 178.463 43.7323 178.734C43.2937 179.005 42.7617 179.14 42.1363 179.14ZM42.4023 178.02C42.6917 178.02 42.9623 177.983 43.2143 177.908C43.4757 177.824 43.7043 177.707 43.9003 177.558C44.0963 177.399 44.2503 177.208 44.3623 176.984C44.4743 176.76 44.5303 176.499 44.5303 176.2V175.696H42.3323C41.875 175.696 41.5157 175.789 41.2543 175.976C40.993 176.153 40.8623 176.438 40.8623 176.83C40.8623 177.175 40.9837 177.46 41.2263 177.684C41.4783 177.908 41.8703 178.02 42.4023 178.02ZM51.3824 179.14C50.0944 179.14 49.1144 178.813 48.4424 178.16C47.7797 177.507 47.4484 176.578 47.4484 175.374V175.094C47.4484 173.946 47.7797 173.05 48.4424 172.406C49.1144 171.762 50.0944 171.44 51.3824 171.44V169.2H52.6144V171.44C53.9024 171.44 54.8777 171.762 55.5404 172.406C56.2124 173.05 56.5484 173.946 56.5484 175.094V175.374C56.5484 176.578 56.2124 177.507 55.5404 178.16C54.8777 178.813 53.9024 179.14 52.6144 179.14V181.8H51.3824V179.14ZM55.2884 175.094C55.2884 174.245 55.069 173.61 54.6304 173.19C54.201 172.77 53.5244 172.56 52.6004 172.56V178.02C53.5244 178.02 54.201 177.805 54.6304 177.376C55.069 176.947 55.2884 176.279 55.2884 175.374V175.094ZM48.7084 175.374C48.7084 176.279 48.923 176.947 49.3524 177.376C49.791 177.805 50.4724 178.02 51.3964 178.02V172.56C50.4724 172.56 49.791 172.77 49.3524 173.19C48.923 173.61 48.7084 174.245 48.7084 175.094V175.374ZM58.3016 171.58H59.5336V177.18L63.3696 171.58H64.6016V179H63.3696V173.4L59.5336 179H58.3016V171.58ZM66.8466 171.58H68.0786V174.688H69.0586L71.8306 171.58H73.2866L70.0666 175.136L73.4266 179H71.8586L69.0586 175.752H68.0786V179H66.8466V171.58ZM78.3993 171.58H79.5473V172.98C79.7993 172.485 80.1493 172.107 80.5973 171.846C81.0546 171.575 81.582 171.44 82.1793 171.44C83.1126 171.44 83.8593 171.748 84.4193 172.364C84.9793 172.971 85.2593 173.876 85.2593 175.08V175.36C85.2593 175.995 85.1846 176.55 85.0353 177.026C84.886 177.493 84.676 177.885 84.4053 178.202C84.1346 178.51 83.808 178.743 83.4253 178.902C83.052 179.061 82.6366 179.14 82.1793 179.14C81.5446 179.14 81.0126 179 80.5833 178.72C80.1633 178.44 79.846 178.09 79.6313 177.67V181.8H78.3993V171.58ZM81.8993 178.048C82.198 178.048 82.478 177.992 82.7393 177.88C83.0006 177.759 83.2246 177.586 83.4113 177.362C83.6073 177.138 83.7566 176.858 83.8593 176.522C83.9713 176.186 84.0273 175.799 84.0273 175.36V175.08C84.0273 174.679 83.9713 174.319 83.8593 174.002C83.7566 173.685 83.6073 173.419 83.4113 173.204C83.2246 172.98 83.0006 172.812 82.7393 172.7C82.478 172.588 82.198 172.532 81.8993 172.532C81.5633 172.532 81.2553 172.588 80.9753 172.7C80.6953 172.803 80.4573 172.952 80.2613 173.148C80.0653 173.335 79.9113 173.559 79.7993 173.82C79.6873 174.081 79.6313 174.361 79.6313 174.66V175.78C79.6313 176.116 79.6873 176.424 79.7993 176.704C79.9113 176.984 80.0653 177.222 80.2613 177.418C80.4573 177.614 80.6953 177.768 80.9753 177.88C81.2553 177.992 81.5633 178.048 81.8993 178.048ZM89.1266 179.14C88.7159 179.14 88.3519 179.084 88.0346 178.972C87.7266 178.851 87.4652 178.687 87.2506 178.482C87.0359 178.277 86.8726 178.034 86.7606 177.754C86.6486 177.474 86.5926 177.166 86.5926 176.83C86.5926 176.093 86.8072 175.561 87.2366 175.234C87.6752 174.907 88.3006 174.744 89.1126 174.744H91.5206V174.24C91.5206 173.605 91.3759 173.167 91.0866 172.924C90.8066 172.681 90.3819 172.56 89.8126 172.56C89.2806 172.56 88.8932 172.663 88.6506 172.868C88.4079 173.064 88.2726 173.288 88.2446 173.54H87.0126C87.0312 173.241 87.1106 172.966 87.2506 172.714C87.3999 172.453 87.5959 172.229 87.8386 172.042C88.0906 171.855 88.3892 171.711 88.7346 171.608C89.0799 171.496 89.4626 171.44 89.8826 171.44C90.7599 171.44 91.4552 171.65 91.9686 172.07C92.4912 172.481 92.7526 173.157 92.7526 174.1V177.11C92.7526 177.502 92.7526 177.847 92.7526 178.146C92.7619 178.435 92.7852 178.72 92.8226 179H91.7446C91.7166 178.785 91.6979 178.585 91.6886 178.398C91.6792 178.202 91.6746 177.983 91.6746 177.74C91.4786 178.132 91.1612 178.463 90.7226 178.734C90.2839 179.005 89.7519 179.14 89.1266 179.14ZM89.3926 178.02C89.6819 178.02 89.9526 177.983 90.2046 177.908C90.4659 177.824 90.6946 177.707 90.8906 177.558C91.0866 177.399 91.2406 177.208 91.3526 176.984C91.4646 176.76 91.5206 176.499 91.5206 176.2V175.696H89.3226C88.8652 175.696 88.5059 175.789 88.2446 175.976C87.9832 176.153 87.8526 176.438 87.8526 176.83C87.8526 177.175 87.9739 177.46 88.2166 177.684C88.4686 177.908 88.8606 178.02 89.3926 178.02ZM98.0086 179.14C97.5139 179.14 97.0519 179.047 96.6226 178.86C96.2026 178.673 95.8339 178.403 95.5166 178.048C95.2086 177.684 94.9613 177.241 94.7746 176.718C94.5973 176.195 94.5086 175.603 94.5086 174.94V174.66C94.5086 173.82 94.5693 173.073 94.6906 172.42C94.8119 171.757 95.0173 171.197 95.3066 170.74C95.6053 170.273 95.9926 169.909 96.4686 169.648C96.9539 169.387 97.5606 169.237 98.2886 169.2C98.8766 169.172 99.3899 169.149 99.8286 169.13C100.267 169.102 100.641 169.009 100.949 168.85V170.04C100.799 170.124 100.524 170.189 100.123 170.236C99.7306 170.283 99.1893 170.315 98.4986 170.334C98.0506 170.343 97.6539 170.399 97.3086 170.502C96.9726 170.605 96.6833 170.768 96.4406 170.992C96.2073 171.216 96.0206 171.51 95.8806 171.874C95.7499 172.229 95.6659 172.667 95.6286 173.19C95.8526 172.695 96.1979 172.303 96.6646 172.014C97.1313 171.725 97.6726 171.58 98.2886 171.58C98.7646 171.58 99.1986 171.664 99.5906 171.832C99.9826 171.991 100.319 172.219 100.599 172.518C100.888 172.817 101.112 173.185 101.271 173.624C101.429 174.053 101.509 174.539 101.509 175.08V175.36C101.509 175.939 101.42 176.461 101.243 176.928C101.065 177.385 100.823 177.782 100.515 178.118C100.207 178.445 99.8379 178.697 99.4086 178.874C98.9793 179.051 98.5126 179.14 98.0086 179.14ZM98.0086 178.02C98.6619 178.02 99.1986 177.796 99.6186 177.348C100.039 176.891 100.249 176.228 100.249 175.36V175.08C100.249 174.716 100.193 174.389 100.081 174.1C99.9686 173.811 99.8146 173.563 99.6186 173.358C99.4226 173.143 99.1846 172.98 98.9046 172.868C98.6339 172.756 98.3353 172.7 98.0086 172.7C97.6819 172.7 97.3786 172.756 97.0986 172.868C96.8279 172.98 96.5946 173.143 96.3986 173.358C96.2026 173.563 96.0486 173.811 95.9366 174.1C95.8246 174.389 95.7686 174.716 95.7686 175.08V175.36C95.7686 175.771 95.8246 176.144 95.9366 176.48C96.0579 176.807 96.2213 177.087 96.4266 177.32C96.6319 177.544 96.8699 177.717 97.1406 177.838C97.4113 177.959 97.7006 178.02 98.0086 178.02ZM106.335 179.14C105.859 179.14 105.406 179.065 104.977 178.916C104.547 178.757 104.169 178.524 103.843 178.216C103.516 177.899 103.255 177.502 103.059 177.026C102.863 176.55 102.765 175.995 102.765 175.36V175.08C102.765 174.483 102.863 173.955 103.059 173.498C103.255 173.041 103.516 172.663 103.843 172.364C104.169 172.056 104.547 171.827 104.977 171.678C105.406 171.519 105.859 171.44 106.335 171.44C106.811 171.44 107.263 171.519 107.693 171.678C108.122 171.827 108.5 172.056 108.827 172.364C109.153 172.663 109.415 173.041 109.611 173.498C109.807 173.955 109.905 174.483 109.905 175.08V175.36C109.905 175.995 109.807 176.55 109.611 177.026C109.415 177.502 109.153 177.899 108.827 178.216C108.5 178.524 108.122 178.757 107.693 178.916C107.263 179.065 106.811 179.14 106.335 179.14ZM106.335 178.02C106.615 178.02 106.895 177.973 107.175 177.88C107.455 177.777 107.702 177.623 107.917 177.418C108.131 177.203 108.304 176.928 108.435 176.592C108.575 176.256 108.645 175.845 108.645 175.36V175.08C108.645 174.632 108.575 174.249 108.435 173.932C108.304 173.615 108.131 173.353 107.917 173.148C107.702 172.943 107.455 172.793 107.175 172.7C106.895 172.607 106.615 172.56 106.335 172.56C106.055 172.56 105.775 172.607 105.495 172.7C105.215 172.793 104.967 172.943 104.753 173.148C104.538 173.353 104.361 173.615 104.221 173.932C104.09 174.249 104.025 174.632 104.025 175.08V175.36C104.025 175.845 104.09 176.256 104.221 176.592C104.361 176.928 104.538 177.203 104.753 177.418C104.967 177.623 105.215 177.777 105.495 177.88C105.775 177.973 106.055 178.02 106.335 178.02ZM113.207 172.672H110.673V171.58H116.973V172.672H114.439V179H113.207V172.672ZM118.376 171.58H119.608V174.38H121.106C122.039 174.38 122.725 174.585 123.164 174.996C123.612 175.407 123.836 175.976 123.836 176.704C123.836 177.413 123.612 177.973 123.164 178.384C122.725 178.795 122.039 179 121.106 179H118.376V171.58ZM121.036 177.908C121.615 177.908 122.021 177.805 122.254 177.6C122.487 177.395 122.604 177.091 122.604 176.69C122.604 176.289 122.487 175.985 122.254 175.78C122.021 175.575 121.615 175.472 121.036 175.472H119.608V177.908H121.036ZM124.984 171.58H126.216V179H124.984V171.58Z" fill="#2B2B2B"/>
<rect x="179" y="160" width="100" height="28" rx="8" fill="#356FEC"/>
<path d="M191.7 171H194.55C195.523 171 196.24 171.213 196.7 171.64C197.167 172.06 197.4 172.643 197.4 173.39C197.4 174.137 197.167 174.723 196.7 175.15C196.24 175.57 195.523 175.78 194.55 175.78H193.5V178H191.7V171ZM194.35 174.3C194.81 174.3 195.133 174.223 195.32 174.07C195.507 173.917 195.6 173.69 195.6 173.39C195.6 173.09 195.507 172.863 195.32 172.71C195.133 172.557 194.81 172.48 194.35 172.48H193.5V174.3H194.35ZM200.652 178.13C200.265 178.13 199.902 178.077 199.562 177.97C199.228 177.857 198.938 177.687 198.692 177.46C198.445 177.233 198.252 176.95 198.112 176.61C197.972 176.263 197.902 175.86 197.902 175.4V175.2C197.902 174.76 197.968 174.377 198.102 174.05C198.242 173.723 198.428 173.45 198.662 173.23C198.902 173.01 199.182 172.847 199.502 172.74C199.828 172.627 200.178 172.57 200.552 172.57C201.425 172.57 202.085 172.797 202.532 173.25C202.978 173.697 203.202 174.347 203.202 175.2V175.75H199.482C199.488 175.957 199.525 176.133 199.592 176.28C199.658 176.42 199.745 176.537 199.852 176.63C199.958 176.723 200.078 176.793 200.212 176.84C200.352 176.88 200.498 176.9 200.652 176.9C200.945 176.9 201.175 176.857 201.342 176.77C201.515 176.677 201.628 176.553 201.682 176.4H203.102C202.995 176.98 202.732 177.413 202.312 177.7C201.892 177.987 201.338 178.13 200.652 178.13ZM200.602 173.79C200.462 173.79 200.325 173.807 200.192 173.84C200.065 173.873 199.948 173.93 199.842 174.01C199.742 174.083 199.658 174.18 199.592 174.3C199.532 174.42 199.498 174.567 199.492 174.74H201.692C201.692 174.553 201.662 174.4 201.602 174.28C201.542 174.16 201.462 174.063 201.362 173.99C201.268 173.917 201.155 173.867 201.022 173.84C200.888 173.807 200.748 173.79 200.602 173.79ZM203.601 176.74H204.161C204.301 176.533 204.401 176.25 204.461 175.89C204.521 175.523 204.551 175.027 204.551 174.4V172.7H208.901V176.74H209.501V179.25H208.201V178H204.901V179.25H203.601V176.74ZM207.361 176.74V173.96H205.971V174.6C205.971 175.1 205.945 175.523 205.891 175.87C205.845 176.217 205.771 176.507 205.671 176.74H207.361ZM211.9 178.13C211.613 178.13 211.357 178.087 211.13 178C210.91 177.913 210.723 177.797 210.57 177.65C210.417 177.497 210.3 177.32 210.22 177.12C210.14 176.913 210.1 176.69 210.1 176.45C210.1 175.923 210.26 175.52 210.58 175.24C210.907 174.96 211.397 174.82 212.05 174.82H213.56V174.6C213.56 174.28 213.483 174.06 213.33 173.94C213.177 173.813 212.967 173.75 212.7 173.75C212.447 173.75 212.26 173.79 212.14 173.87C212.02 173.95 211.953 174.077 211.94 174.25H210.4C210.413 174.01 210.473 173.79 210.58 173.59C210.687 173.383 210.837 173.207 211.03 173.06C211.23 172.907 211.473 172.787 211.76 172.7C212.047 172.613 212.377 172.57 212.75 172.57C213.097 172.57 213.413 172.61 213.7 172.69C213.993 172.763 214.243 172.887 214.45 173.06C214.657 173.227 214.817 173.447 214.93 173.72C215.043 173.987 215.1 174.313 215.1 174.7V176.65C215.1 176.93 215.107 177.177 215.12 177.39C215.133 177.597 215.153 177.8 215.18 178H213.72C213.707 177.887 213.693 177.787 213.68 177.7C213.673 177.613 213.67 177.507 213.67 177.38C213.51 177.593 213.287 177.773 213 177.92C212.72 178.06 212.353 178.13 211.9 178.13ZM212.4 177.05C212.727 177.05 213 176.957 213.22 176.77C213.447 176.583 213.56 176.327 213.56 176V175.78H212.35C212.123 175.78 211.953 175.84 211.84 175.96C211.733 176.08 211.68 176.22 211.68 176.38C211.68 176.573 211.733 176.733 211.84 176.86C211.953 176.987 212.14 177.05 212.4 177.05ZM216.051 172.7H217.591V174.71H217.991L219.471 172.7H221.151L219.201 175.19L221.251 178H219.431L217.991 175.89H217.591V178H216.051V172.7ZM223.182 173.96H221.552V172.7H226.352V173.96H224.722V178H223.182V173.96ZM227.047 172.7H228.547V175.9L230.797 172.7H232.147V178H230.647V174.8L228.397 178H227.047V172.7ZM233.15 172.7H234.57V173.42C234.637 173.313 234.72 173.21 234.82 173.11C234.927 173.003 235.05 172.91 235.19 172.83C235.33 172.75 235.487 172.687 235.66 172.64C235.834 172.593 236.02 172.57 236.22 172.57C236.967 172.57 237.534 172.79 237.92 173.23C238.307 173.67 238.5 174.327 238.5 175.2V175.4C238.5 175.853 238.447 176.25 238.34 176.59C238.234 176.93 238.08 177.213 237.88 177.44C237.68 177.667 237.44 177.84 237.16 177.96C236.88 178.073 236.567 178.13 236.22 178.13C235.92 178.13 235.634 178.063 235.36 177.93C235.094 177.79 234.87 177.59 234.69 177.33V180H233.15V172.7ZM235.85 176.86C236.157 176.86 236.41 176.737 236.61 176.49C236.817 176.243 236.92 175.88 236.92 175.4V175.2C236.92 174.74 236.82 174.4 236.62 174.18C236.427 173.953 236.17 173.84 235.85 173.84C235.524 173.84 235.247 173.943 235.02 174.15C234.8 174.35 234.69 174.65 234.69 175.05V175.55C234.69 175.97 234.8 176.293 235.02 176.52C235.247 176.747 235.524 176.86 235.85 176.86ZM241.803 178.13C241.429 178.13 241.079 178.077 240.753 177.97C240.426 177.857 240.139 177.687 239.893 177.46C239.646 177.233 239.453 176.95 239.313 176.61C239.173 176.263 239.103 175.86 239.103 175.4V175.2C239.103 174.767 239.173 174.387 239.313 174.06C239.453 173.733 239.646 173.46 239.893 173.24C240.139 173.02 240.426 172.853 240.753 172.74C241.079 172.627 241.429 172.57 241.803 172.57C242.176 172.57 242.526 172.627 242.853 172.74C243.179 172.853 243.466 173.02 243.713 173.24C243.959 173.46 244.153 173.733 244.293 174.06C244.433 174.387 244.503 174.767 244.503 175.2V175.4C244.503 175.853 244.433 176.253 244.293 176.6C244.153 176.94 243.959 177.223 243.713 177.45C243.466 177.677 243.179 177.847 242.853 177.96C242.526 178.073 242.176 178.13 241.803 178.13ZM241.803 176.85C242.163 176.85 242.439 176.72 242.633 176.46C242.826 176.2 242.923 175.847 242.923 175.4V175.2C242.923 174.8 242.826 174.477 242.633 174.23C242.439 173.977 242.163 173.85 241.803 173.85C241.443 173.85 241.166 173.977 240.973 174.23C240.779 174.477 240.683 174.8 240.683 175.2V175.4C240.683 175.86 240.779 176.217 240.973 176.47C241.166 176.723 241.443 176.85 241.803 176.85ZM245.299 172.7H248.139C248.485 172.7 248.782 172.737 249.029 172.81C249.282 172.877 249.485 172.973 249.639 173.1C249.799 173.227 249.915 173.377 249.989 173.55C250.062 173.717 250.099 173.9 250.099 174.1C250.099 174.353 250.025 174.59 249.879 174.81C249.732 175.023 249.522 175.167 249.249 175.24C249.575 175.32 249.832 175.473 250.019 175.7C250.205 175.927 250.299 176.19 250.299 176.49C250.299 176.95 250.135 177.317 249.809 177.59C249.482 177.863 248.992 178 248.339 178H245.299V172.7ZM247.959 176.84C248.492 176.84 248.759 176.677 248.759 176.35C248.759 176.017 248.492 175.85 247.959 175.85H246.839V176.84H247.959ZM247.869 174.77C248.135 174.77 248.315 174.73 248.409 174.65C248.509 174.563 248.559 174.45 248.559 174.31C248.559 174.163 248.509 174.053 248.409 173.98C248.309 173.9 248.129 173.86 247.869 173.86H246.839V174.77H247.869ZM252.75 178.13C252.463 178.13 252.206 178.087 251.98 178C251.76 177.913 251.573 177.797 251.42 177.65C251.266 177.497 251.15 177.32 251.07 177.12C250.99 176.913 250.95 176.69 250.95 176.45C250.95 175.923 251.11 175.52 251.43 175.24C251.756 174.96 252.246 174.82 252.9 174.82H254.41V174.6C254.41 174.28 254.333 174.06 254.18 173.94C254.026 173.813 253.816 173.75 253.55 173.75C253.296 173.75 253.11 173.79 252.99 173.87C252.87 173.95 252.803 174.077 252.79 174.25H251.25C251.263 174.01 251.323 173.79 251.43 173.59C251.536 173.383 251.686 173.207 251.88 173.06C252.08 172.907 252.323 172.787 252.61 172.7C252.896 172.613 253.226 172.57 253.6 172.57C253.946 172.57 254.263 172.61 254.55 172.69C254.843 172.763 255.093 172.887 255.3 173.06C255.506 173.227 255.666 173.447 255.78 173.72C255.893 173.987 255.95 174.313 255.95 174.7V176.65C255.95 176.93 255.956 177.177 255.97 177.39C255.983 177.597 256.003 177.8 256.03 178H254.57C254.556 177.887 254.543 177.787 254.53 177.7C254.523 177.613 254.52 177.507 254.52 177.38C254.36 177.593 254.136 177.773 253.85 177.92C253.57 178.06 253.203 178.13 252.75 178.13ZM253.25 177.05C253.576 177.05 253.85 176.957 254.07 176.77C254.296 176.583 254.41 176.327 254.41 176V175.78H253.2C252.973 175.78 252.803 175.84 252.69 175.96C252.583 176.08 252.53 176.22 252.53 176.38C252.53 176.573 252.583 176.733 252.69 176.86C252.803 176.987 252.99 177.05 253.25 177.05ZM258.133 173.96H256.503V172.7H261.303V173.96H259.673V178H258.133V173.96ZM262.098 172.7H263.638V174.42H264.698C265.391 174.42 265.915 174.567 266.268 174.86C266.621 175.153 266.798 175.603 266.798 176.21C266.798 176.477 266.758 176.72 266.678 176.94C266.605 177.16 266.481 177.35 266.308 177.51C266.141 177.663 265.925 177.783 265.658 177.87C265.398 177.957 265.078 178 264.698 178H262.098V172.7ZM264.498 176.84C264.771 176.84 264.965 176.79 265.078 176.69C265.198 176.583 265.258 176.423 265.258 176.21C265.258 175.99 265.198 175.83 265.078 175.73C264.965 175.63 264.771 175.58 264.498 175.58H263.638V176.84H264.498Z" fill="white"/>
</g>
<defs>
<filter id="filter0_d_7_2786" x="21" y="200" width="88" height="88" filterUnits="userSpaceOnUse" color-interpolation-filters="sRGB">
<feFlood flood-opacity="0" result="BackgroundImageFix"/>
<feColorMatrix in="SourceAlpha" type="matrix" values="0 0 0 0 0 0 0 0 0 0 0 0 0 0 0 0 0 0 127 0" result="hardAlpha"/>
<feOffset/>
<feGaussianBlur stdDeviation="6"/>
<feComposite in2="hardAlpha" operator="out"/>
<feColorMatrix type="matrix" values="0 0 0 0 0.725532 0 0 0 0 0.721389 0 0 0 0 0.816667 0 0 0 0.2 0"/>
<feBlend mode="normal" in2="BackgroundImageFix" result="effect1_dropShadow_7_2786"/>
<feBlend mode="normal" in="SourceGraphic" in2="effect1_dropShadow_7_2786" result="shape"/>
</filter>
<filter id="filter1_d_7_2786" x="108" y="200" width="88" height="88" filterUnits="userSpaceOnUse" color-interpolation-filters="sRGB">
<feFlood flood-opacity="0" result="BackgroundImageFix"/>
<feColorMatrix in="SourceAlpha" type="matrix" values="0 0 0 0 0 0 0 0 0 0 0 0 0 0 0 0 0 0 127 0" result="hardAlpha"/>
<feOffset/>
<feGaussianBlur stdDeviation="6"/>
<feComposite in2="hardAlpha" operator="out"/>
<feColorMatrix type="matrix" values="0 0 0 0 0.725532 0 0 0 0 0.721389 0 0 0 0 0.816667 0 0 0 0.2 0"/>
<feBlend mode="normal" in2="BackgroundImageFix" result="effect1_dropShadow_7_2786"/>
<feBlend mode="normal" in="SourceGraphic" in2="effect1_dropShadow_7_2786" result="shape"/>
</filter>
<filter id="filter2_d_7_2786" x="195" y="200" width="88" height="88" filterUnits="userSpaceOnUse" color-interpolation-filters="sRGB">
<feFlood flood-opacity="0" result="BackgroundImageFix"/>
<feColorMatrix in="SourceAlpha" type="matrix" values="0 0 0 0 0 0 0 0 0 0 0 0 0 0 0 0 0 0 127 0" result="hardAlpha"/>
<feOffset/>
<feGaussianBlur stdDeviation="6"/>
<feComposite in2="hardAlpha" operator="out"/>
<feColorMatrix type="matrix" values="0 0 0 0 0.725532 0 0 0 0 0.721389 0 0 0 0 0.816667 0 0 0 0.2 0"/>
<feBlend mode="normal" in2="BackgroundImageFix" result="effect1_dropShadow_7_2786"/>
<feBlend mode="normal" in="SourceGraphic" in2="effect1_dropShadow_7_2786" result="shape"/>
</filter>
<filter id="filter3_d_7_2786" x="0" y="0" width="303" height="148" filterUnits="userSpaceOnUse" color-interpolation-filters="sRGB">
<feFlood flood-opacity="0" result="BackgroundImageFix"/>
<feColorMatrix in="SourceAlpha" type="matrix" values="0 0 0 0 0 0 0 0 0 0 0 0 0 0 0 0 0 0 127 0" result="hardAlpha"/>
<feOffset/>
<feGaussianBlur stdDeviation="6"/>
<feComposite in2="hardAlpha" operator="out"/>
<feColorMatrix type="matrix" values="0 0 0 0 0.725532 0 0 0 0 0.721389 0 0 0 0 0.816667 0 0 0 0.2 0"/>
<feBlend mode="normal" in2="BackgroundImageFix" result="effect1_dropShadow_7_2786"/>
<feBlend mode="normal" in="SourceGraphic" in2="effect1_dropShadow_7_2786" result="shape"/>
</filter>
<filter id="filter4_d_7_2786" x="0" y="136" width="303" height="76" filterUnits="userSpaceOnUse" color-interpolation-filters="sRGB">
<feFlood flood-opacity="0" result="BackgroundImageFix"/>
<feColorMatrix in="SourceAlpha" type="matrix" values="0 0 0 0 0 0 0 0 0 0 0 0 0 0 0 0 0 0 127 0" result="hardAlpha"/>
<feOffset/>
<feGaussianBlur stdDeviation="6"/>
<feComposite in2="hardAlpha" operator="out"/>
<feColorMatrix type="matrix" values="0 0 0 0 0.725532 0 0 0 0 0.721389 0 0 0 0 0.816667 0 0 0 0.2 0"/>
<feBlend mode="normal" in2="BackgroundImageFix" result="effect1_dropShadow_7_2786"/>
<feBlend mode="normal" in="SourceGraphic" in2="effect1_dropShadow_7_2786" result="shape"/>
</filter>
</defs>
</svg>
